<svg class="main-svg" xmlns="http://www.w3.org/2000/svg" xmlns:xlink="http://www.w3.org/1999/xlink" width="1400" height="700" style="" viewBox="0 0 1400 700"><rect x="0" y="0" width="1400" height="700" style="fill: rgb(255, 255, 255); fill-opacity: 1;"/><defs id="defs-f37c2f"><g class="clips"><clipPath id="clipf37c2fxyplot" class="plotclip"><rect width="575.96" height="500"/></clipPath><clipPath id="clipf37c2fx2y2plot" class="plotclip"><rect width="471.2399999999999" height="500"/></clipPath><clipPath class="axesclip" id="clipf37c2fx"><rect x="170" y="0" width="575.96" height="700"/></clipPath><clipPath class="axesclip" id="clipf37c2fy"><rect x="0" y="90" width="1400" height="500"/></clipPath><clipPath class="axesclip" id="clipf37c2fxy"><rect x="170" y="90" width="575.96" height="500"/></clipPath><clipPath class="axesclip" id="clipf37c2fy2"><rect x="0" y="90" width="1400" height="500"/></clipPath><clipPath class="axesclip" id="clipf37c2fxy2"><rect x="170" y="90" width="575.96" height="500"/></clipPath><clipPath class="axesclip" id="clipf37c2fx2"><rect x="888.7600000000001" y="0" width="471.2399999999999" height="700"/></clipPath><clipPath class="axesclip" id="clipf37c2fx2y"><rect x="888.7600000000001" y="90" width="471.2399999999999" height="500"/></clipPath><clipPath class="axesclip" id="clipf37c2fx2y2"><rect x="888.7600000000001" y="90" width="471.2399999999999" height="500"/></clipPath></g><g class="gradients"/><g class="patterns"/></defs><g class="bglayer"/><g class="layer-below"><g class="imagelayer"/><g class="shapelayer"/></g><g class="cartesianlayer"><g class="subplot xy"><g class="layer-subplot"><g class="shapelayer"/><g class="imagelayer"/></g><g class="minor-gridlayer"><g class="x"/><g class="y"/></g><g class="gridlayer"><g class="x"><path class="xgrid crisp" transform="translate(276.65999999999997,0)" d="M0,90v500" style="stroke: rgb(238, 238, 238); stroke-opacity: 1; stroke-width: 1px;"/><path class="xgrid crisp" transform="translate(383.32,0)" d="M0,90v500" style="stroke: rgb(238, 238, 238); stroke-opacity: 1; stroke-width: 1px;"/><path class="xgrid crisp" transform="translate(489.98,0)" d="M0,90v500" style="stroke: rgb(238, 238, 238); stroke-opacity: 1; stroke-width: 1px;"/><path class="xgrid crisp" transform="translate(596.64,0)" d="M0,90v500" style="stroke: rgb(238, 238, 238); stroke-opacity: 1; stroke-width: 1px;"/><path class="xgrid crisp" transform="translate(703.3,0)" d="M0,90v500" style="stroke: rgb(238, 238, 238); stroke-opacity: 1; stroke-width: 1px;"/></g><g class="y"/></g><g class="zerolinelayer"><path class="xzl zl crisp" transform="translate(170,0)" d="M0,90v500" style="stroke: rgb(68, 68, 68); stroke-opacity: 1; stroke-width: 1px;"/></g><g class="layer-between"><g class="shapelayer"/><g class="imagelayer"/></g><path class="xlines-below"/><path class="ylines-below"/><g class="overlines-below"/><g class="xaxislayer-below"/><g class="yaxislayer-below"/><g class="overaxes-below"/><g class="overplot"><g class="xy" transform="translate(170,90)" clip-path="url(#clipf37c2fxyplot)"><g class="barlayer mlayer"><g class="trace bars" shape-rendering="crispEdges" style="opacity: 1;"><g class="points"><g class="point"><path d="M0,487.5V387.5H177.59V487.5Z" style="vector-effect: none; opacity: 1; stroke-width: 0px; fill: rgb(139, 69, 19); fill-opacity: 1;"/><text class="bartext bartext-inside" text-anchor="middle" data-notex="1" x="0" y="0" style="font-family: Inter, Helvetica, Arial, sans-serif; font-size: 11px; fill: rgb(255, 255, 255); fill-opacity: 1; white-space: pre;" transform="translate(162.3946875,441.5)">33%</text></g><g class="point"><path d="M0,362.5V262.5H206.39V362.5Z" style="vector-effect: none; opacity: 1; stroke-width: 0px; fill: rgb(139, 69, 19); fill-opacity: 1;"/><text class="bartext bartext-inside" text-anchor="middle" data-notex="1" x="0" y="0" style="font-family: Inter, Helvetica, Arial, sans-serif; font-size: 11px; fill: rgb(255, 255, 255); fill-opacity: 1; white-space: pre;" transform="translate(191.1790625,316.5)">39%</text></g><g class="point"><path d="M0,237.5V137.5H171.72V237.5Z" style="vector-effect: none; opacity: 1; stroke-width: 0px; fill: rgb(139, 69, 19); fill-opacity: 1;"/><text class="bartext bartext-inside" text-anchor="middle" data-notex="1" x="0" y="0" style="font-family: Inter, Helvetica, Arial, sans-serif; font-size: 11px; fill: rgb(255, 255, 255); fill-opacity: 1; white-space: pre;" transform="translate(156.56375,191.5)">32%</text></g><g class="point"><path d="M0,112.5V12.5H216.52V112.5Z" style="vector-effect: none; opacity: 1; stroke-width: 0px; fill: rgb(139, 69, 19); fill-opacity: 1;"/><text class="bartext bartext-inside" text-anchor="middle" data-notex="1" x="0" y="0" style="font-family: Inter, Helvetica, Arial, sans-serif; font-size: 11px; fill: rgb(255, 255, 255); fill-opacity: 1; white-space: pre;" transform="translate(202.4340625,66.5)">41%</text></g></g></g><g class="trace bars" shape-rendering="crispEdges" style="opacity: 1;"><g class="points"><g class="point"><path d="M177.59,487.5V387.5H258.12V487.5Z" style="vector-effect: none; opacity: 1; stroke-width: 0px; fill: rgb(255, 107, 53); fill-opacity: 1;"/><text class="bartext bartext-inside" text-anchor="middle" data-notex="1" x="0" y="0" style="font-family: Inter, Helvetica, Arial, sans-serif; font-size: 11px; fill: rgb(255, 255, 255); fill-opacity: 1; white-space: pre;" transform="translate(244.21375,441.5)">15%</text></g><g class="point"><path d="M206.39,362.5V262.5H318.38V362.5Z" style="vector-effect: none; opacity: 1; stroke-width: 0px; fill: rgb(255, 107, 53); fill-opacity: 1;"/><text class="bartext bartext-inside" text-anchor="middle" data-notex="1" x="0" y="0" style="font-family: Inter, Helvetica, Arial, sans-serif; font-size: 11px; fill: rgb(255, 255, 255); fill-opacity: 1; white-space: pre;" transform="translate(304.3878125,316.5)">21%</text></g><g class="point"><path d="M171.72,237.5V137.5H270.91V237.5Z" style="vector-effect: none; opacity: 1; stroke-width: 0px; fill: rgb(255, 107, 53); fill-opacity: 1;"/><text class="bartext bartext-inside" text-anchor="middle" data-notex="1" x="0" y="0" style="font-family: Inter, Helvetica, Arial, sans-serif; font-size: 11px; fill: rgb(255, 255, 255); fill-opacity: 1; white-space: pre;" transform="translate(256.8553125,191.5)">19%</text></g><g class="point"><path d="M216.52,112.5V12.5H324.24V112.5Z" style="vector-effect: none; opacity: 1; stroke-width: 0px; fill: rgb(255, 107, 53); fill-opacity: 1;"/><text class="bartext bartext-inside" text-anchor="middle" data-notex="1" x="0" y="0" style="font-family: Inter, Helvetica, Arial, sans-serif; font-size: 11px; fill: rgb(255, 255, 255); fill-opacity: 1; white-space: pre;" transform="translate(309.0134375,66.5)">20%</text></g></g></g><g class="trace bars" shape-rendering="crispEdges" style="opacity: 1;"><g class="points"><g class="point"><path d="M258.12,487.5V387.5H406.91V487.5Z" style="vector-effect: none; opacity: 1; stroke-width: 0px; fill: rgb(33, 150, 243); fill-opacity: 1;"/><text class="bartext bartext-inside" text-anchor="middle" data-notex="1" x="0" y="0" style="font-family: Inter, Helvetica, Arial, sans-serif; font-size: 11px; fill: rgb(255, 255, 255); fill-opacity: 1; white-space: pre;" transform="translate(391.7459375,441.5)">28%</text></g><g class="point"><path d="M318.38,362.5V262.5H427.7V362.5Z" style="vector-effect: none; opacity: 1; stroke-width: 0px; fill: rgb(33, 150, 243); fill-opacity: 1;"/><text class="bartext bartext-inside" text-anchor="middle" data-notex="1" x="0" y="0" style="font-family: Inter, Helvetica, Arial, sans-serif; font-size: 11px; fill: rgb(255, 255, 255); fill-opacity: 1; white-space: pre;" transform="translate(412.4734375,316.5)">20%</text></g><g class="point"><path d="M270.91,237.5V137.5H329.04V237.5Z" style="vector-effect: none; opacity: 1; stroke-width: 0px; fill: rgb(33, 150, 243); fill-opacity: 1;"/><text class="bartext bartext-inside" text-anchor="middle" data-notex="1" x="0" y="0" style="font-family: Inter, Helvetica, Arial, sans-serif; font-size: 11px; fill: rgb(255, 255, 255); fill-opacity: 1; white-space: pre;" transform="translate(316.165,191.5)">11%</text></g><g class="point"><path d="M324.24,112.5V12.5H372.77V112.5Z" style="vector-effect: none; opacity: 1; stroke-width: 0px; fill: rgb(33, 150, 243); fill-opacity: 1;"/><text class="bartext bartext-inside" text-anchor="middle" data-notex="1" x="0" y="0" style="font-family: Inter, Helvetica, Arial, sans-serif; font-size: 11px; fill: rgb(255, 255, 255); fill-opacity: 1; white-space: pre;" transform="translate(360.9575,66.5)">9%</text></g></g></g><g class="trace bars" shape-rendering="crispEdges" style="opacity: 1;"><g class="points"><g class="point"><path d="M406.91,487.5V387.5H468.23V487.5Z" style="vector-effect: none; opacity: 1; stroke-width: 0px; fill: rgb(76, 175, 80); fill-opacity: 1;"/><text class="bartext bartext-inside" text-anchor="middle" data-notex="1" x="0" y="0" style="font-family: Inter, Helvetica, Arial, sans-serif; font-size: 11px; fill: rgb(255, 255, 255); fill-opacity: 1; white-space: pre;" transform="translate(454.2378125,441.5)">12%</text></g><g class="point"><path d="M427.7,362.5V262.5H467.7V362.5Z" style="vector-effect: none; opacity: 1; stroke-width: 0px; fill: rgb(76, 175, 80); fill-opacity: 1;"/><text class="bartext bartext-inside" text-anchor="middle" data-notex="1" x="0" y="0" style="font-family: Inter, Helvetica, Arial, sans-serif; font-size: 11px; fill: rgb(255, 255, 255); fill-opacity: 1; white-space: pre;" transform="translate(455.8953125,316.5)">8%</text></g><g class="point"><path d="M329.04,237.5V137.5H477.3V237.5Z" style="vector-effect: none; opacity: 1; stroke-width: 0px; fill: rgb(76, 175, 80); fill-opacity: 1;"/><text class="bartext bartext-inside" text-anchor="middle" data-notex="1" x="0" y="0" style="font-family: Inter, Helvetica, Arial, sans-serif; font-size: 11px; fill: rgb(255, 255, 255); fill-opacity: 1; white-space: pre;" transform="translate(462.1359375,191.5)">28%</text></g><g class="point"><path d="M372.77,112.5V12.5H464.5V112.5Z" style="vector-effect: none; opacity: 1; stroke-width: 0px; fill: rgb(76, 175, 80); fill-opacity: 1;"/><text class="bartext bartext-inside" text-anchor="middle" data-notex="1" x="0" y="0" style="font-family: Inter, Helvetica, Arial, sans-serif; font-size: 11px; fill: rgb(255, 255, 255); fill-opacity: 1; white-space: pre;" transform="translate(450.7421875,66.5)">17%</text></g></g></g><g class="trace bars" shape-rendering="crispEdges" style="opacity: 1;"><g class="points"><g class="point"><path d="M468.23,487.5V387.5H515.7V487.5Z" style="vector-effect: none; opacity: 1; stroke-width: 0px; fill: rgb(255, 193, 7); fill-opacity: 1;"/><text class="bartext bartext-inside" text-anchor="middle" data-notex="1" x="0" y="0" style="font-family: Inter, Helvetica, Arial, sans-serif; font-size: 11px; fill: rgb(255, 255, 255); fill-opacity: 1; white-space: pre;" transform="translate(503.88750000000005,441.5)">9%</text></g><g class="point"><path d="M467.7,362.5V262.5H494.37V362.5Z" style="vector-effect: none; opacity: 1; stroke-width: 0px; fill: rgb(255, 193, 7); fill-opacity: 1;"/><text class="bartext bartext-inside" text-anchor="middle" data-notex="1" x="0" y="0" style="font-family: Inter, Helvetica, Arial, sans-serif; font-size: 11px; fill: rgb(255, 255, 255); fill-opacity: 1; white-space: pre;" transform="translate(482.7059375,316.5)">5%</text></g><g class="point"><path d="M477.3,237.5V137.5H498.63V237.5Z" style="vector-effect: none; opacity: 1; stroke-width: 0px; fill: rgb(255, 193, 7); fill-opacity: 1;"/><text class="bartext bartext-inside" text-anchor="middle" data-notex="1" x="0" y="0" style="font-family: Inter, Helvetica, Arial, sans-serif; font-size: 11px; fill: rgb(255, 255, 255); fill-opacity: 1; white-space: pre;" transform="translate(488.63,191.5)rotate(90 0 -4)">4%</text></g><g class="point"><path d="M464.5,112.5V12.5H489.03V112.5Z" style="vector-effect: none; opacity: 1; stroke-width: 0px; fill: rgb(255, 193, 7); fill-opacity: 1;"/><text class="bartext bartext-inside" text-anchor="middle" data-notex="1" x="0" y="0" style="font-family: Inter, Helvetica, Arial, sans-serif; font-size: 11px; fill: rgb(255, 255, 255); fill-opacity: 1; white-space: pre;" transform="translate(477.3659375,66.5)">5%</text></g></g></g><g class="trace bars" shape-rendering="crispEdges" style="opacity: 1;"><g class="points"><g class="point"><path d="M515.7,487.5V387.5H530.1V487.5Z" style="vector-effect: none; opacity: 1; stroke-width: 0px; fill: rgb(156, 39, 176); fill-opacity: 1;"/></g><g class="point"><path d="M494.37,362.5V262.5H530.1V362.5Z" style="vector-effect: none; opacity: 1; stroke-width: 0px; fill: rgb(156, 39, 176); fill-opacity: 1;"/><text class="bartext bartext-inside" text-anchor="middle" data-notex="1" x="0" y="0" style="font-family: Inter, Helvetica, Arial, sans-serif; font-size: 11px; fill: rgb(255, 255, 255); fill-opacity: 1; white-space: pre;" transform="translate(518.584375,316.5)">7%</text></g><g class="point"><path d="M498.63,237.5V137.5H530.63V237.5Z" style="vector-effect: none; opacity: 1; stroke-width: 0px; fill: rgb(156, 39, 176); fill-opacity: 1;"/><text class="bartext bartext-inside" text-anchor="middle" data-notex="1" x="0" y="0" style="font-family: Inter, Helvetica, Arial, sans-serif; font-size: 11px; fill: rgb(255, 255, 255); fill-opacity: 1; white-space: pre;" transform="translate(518.8175,191.5)">6%</text></g><g class="point"><path d="M489.03,112.5V12.5H529.56V112.5Z" style="vector-effect: none; opacity: 1; stroke-width: 0px; fill: rgb(156, 39, 176); fill-opacity: 1;"/><text class="bartext bartext-inside" text-anchor="middle" data-notex="1" x="0" y="0" style="font-family: Inter, Helvetica, Arial, sans-serif; font-size: 11px; fill: rgb(255, 255, 255); fill-opacity: 1; white-space: pre;" transform="translate(517.7553125,66.5)">8%</text></g></g></g><g class="trace bars" shape-rendering="crispEdges" style="opacity: 1;"><g class="points"><g class="point"><path d="M530.1,487.5V387.5H531.7V487.5Z" style="vector-effect: none; opacity: 1; stroke-width: 0px; fill: rgb(0, 188, 212); fill-opacity: 1;"/></g><g class="point"><path d="M530.1,362.5V262.5H531.16V362.5Z" style="vector-effect: none; opacity: 1; stroke-width: 0px; fill: rgb(0, 188, 212); fill-opacity: 1;"/></g><g class="point"><path d="M530.63,237.5V137.5H531.7V237.5Z" style="vector-effect: none; opacity: 1; stroke-width: 0px; fill: rgb(0, 188, 212); fill-opacity: 1;"/></g><g class="point"><path d="M529.56,112.5V12.5H530.63V112.5Z" style="vector-effect: none; opacity: 1; stroke-width: 0px; fill: rgb(0, 188, 212); fill-opacity: 1;"/></g></g></g><g class="trace bars" shape-rendering="crispEdges" style="opacity: 1;"><g class="points"><g class="point"><path d="M531.7,487.5V387.5H533.3V487.5Z" style="vector-effect: none; opacity: 1; stroke-width: 0px; fill: rgb(96, 125, 139); fill-opacity: 1;"/></g><g class="point"><path d="M531.16,362.5V262.5H532.76V362.5Z" style="vector-effect: none; opacity: 1; stroke-width: 0px; fill: rgb(96, 125, 139); fill-opacity: 1;"/></g><g class="point"><path d="M531.7,237.5V137.5H533.3V237.5Z" style="vector-effect: none; opacity: 1; stroke-width: 0px; fill: rgb(96, 125, 139); fill-opacity: 1;"/></g><g class="point"><path d="M530.63,112.5V12.5H532.76V112.5Z" style="vector-effect: none; opacity: 1; stroke-width: 0px; fill: rgb(96, 125, 139); fill-opacity: 1;"/></g></g></g></g></g></g><g class="zerolinelayer-above"/><path class="xlines-above crisp" d="M0,0" style="fill: none;"/><path class="ylines-above crisp" d="M0,0" style="fill: none;"/><g class="overlines-above"/><g class="xaxislayer-above"><g class="xtick"><text text-anchor="middle" x="0" y="608" transform="translate(170,0)" style="font-family: Inter, Helvetica, Arial, sans-serif; font-size: 17px; fill: rgb(68, 68, 68); fill-opacity: 1; white-space: pre;">0</text></g><g class="xtick"><text text-anchor="middle" x="0" y="608" style="font-family: Inter, Helvetica, Arial, sans-serif; font-size: 17px; fill: rgb(68, 68, 68); fill-opacity: 1; white-space: pre;" transform="translate(276.65999999999997,0)">20</text></g><g class="xtick"><text text-anchor="middle" x="0" y="608" style="font-family: Inter, Helvetica, Arial, sans-serif; font-size: 17px; fill: rgb(68, 68, 68); fill-opacity: 1; white-space: pre;" transform="translate(383.32,0)">40</text></g><g class="xtick"><text text-anchor="middle" x="0" y="608" style="font-family: Inter, Helvetica, Arial, sans-serif; font-size: 17px; fill: rgb(68, 68, 68); fill-opacity: 1; white-space: pre;" transform="translate(489.98,0)">60</text></g><g class="xtick"><text text-anchor="middle" x="0" y="608" style="font-family: Inter, Helvetica, Arial, sans-serif; font-size: 17px; fill: rgb(68, 68, 68); fill-opacity: 1; white-space: pre;" transform="translate(596.64,0)">80</text></g><g class="xtick"><text text-anchor="middle" x="0" y="608" style="font-family: Inter, Helvetica, Arial, sans-serif; font-size: 17px; fill: rgb(68, 68, 68); fill-opacity: 1; white-space: pre;" transform="translate(703.3,0)">100</text></g></g><g class="yaxislayer-above"><g class="ytick"><text text-anchor="end" x="169" y="5.949999999999999" transform="translate(0,527.5)" style="font-family: Inter, Helvetica, Arial, sans-serif; font-size: 17px; fill: rgb(68, 68, 68); fill-opacity: 1; white-space: pre;">Single-Family (EFH)</text></g><g class="ytick"><text text-anchor="end" x="169" y="5.949999999999999" transform="translate(0,402.5)" style="font-family: Inter, Helvetica, Arial, sans-serif; font-size: 17px; fill: rgb(68, 68, 68); fill-opacity: 1; white-space: pre;">Multi-Family (MFH)</text></g><g class="ytick"><text text-anchor="end" x="169" y="5.949999999999999" transform="translate(0,277.5)" style="font-family: Inter, Helvetica, Arial, sans-serif; font-size: 17px; fill: rgb(68, 68, 68); fill-opacity: 1; white-space: pre;">Mixed-Use Residential</text></g><g class="ytick"><text text-anchor="end" x="169" y="5.949999999999999" transform="translate(0,152.5)" style="font-family: Inter, Helvetica, Arial, sans-serif; font-size: 17px; fill: rgb(68, 68, 68); fill-opacity: 1; white-space: pre;">Partial Residential</text></g></g><g class="overaxes-above"/></g><g class="subplot x2y2"><g class="layer-subplot"><g class="shapelayer"/><g class="imagelayer"/></g><g class="minor-gridlayer"><g class="x2"/><g class="y2"/></g><g class="gridlayer"><g class="x2"><path class="x2grid crisp" transform="translate(917.32,0)" d="M0,90v500" style="stroke: rgb(238, 238, 238); stroke-opacity: 1; stroke-width: 1px;"/><path class="x2grid crisp" transform="translate(1055.3600000000001,0)" d="M0,90v500" style="stroke: rgb(238, 238, 238); stroke-opacity: 1; stroke-width: 1px;"/><path class="x2grid crisp" transform="translate(1193.4,0)" d="M0,90v500" style="stroke: rgb(238, 238, 238); stroke-opacity: 1; stroke-width: 1px;"/><path class="x2grid crisp" transform="translate(1331.44,0)" d="M0,90v500" style="stroke: rgb(238, 238, 238); stroke-opacity: 1; stroke-width: 1px;"/></g><g class="y2"><path class="y2grid crisp" transform="translate(0,586.48)" d="M888.7600000000001,0h471.2399999999999" style="stroke: rgb(238, 238, 238); stroke-opacity: 1; stroke-width: 1px;"/><path class="y2grid crisp" transform="translate(0,484.63)" d="M888.7600000000001,0h471.2399999999999" style="stroke: rgb(238, 238, 238); stroke-opacity: 1; stroke-width: 1px;"/><path class="y2grid crisp" transform="translate(0,382.78)" d="M888.7600000000001,0h471.2399999999999" style="stroke: rgb(238, 238, 238); stroke-opacity: 1; stroke-width: 1px;"/><path class="y2grid crisp" transform="translate(0,280.93)" d="M888.7600000000001,0h471.2399999999999" style="stroke: rgb(238, 238, 238); stroke-opacity: 1; stroke-width: 1px;"/><path class="y2grid crisp" transform="translate(0,179.07)" d="M888.7600000000001,0h471.2399999999999" style="stroke: rgb(238, 238, 238); stroke-opacity: 1; stroke-width: 1px;"/></g></g><g class="zerolinelayer"/><g class="layer-between"><g class="shapelayer"/><g class="imagelayer"/></g><path class="xlines-below"/><path class="ylines-below"/><g class="overlines-below"/><g class="xaxislayer-below"/><g class="yaxislayer-below"/><g class="overaxes-below"/><g class="overplot"><g class="x2y2" transform="translate(888.7600000000001,90)" clip-path="url(#clipf37c2fx2y2plot)"><g class="scatterlayer mlayer"><g class="trace scatter trace569c62" style="stroke-miterlimit: 2; opacity: 1;"><g class="fills"/><g class="errorbars"/><g class="lines"><path class="js-line" d="M28.56,170.56L166.6,135.93L304.64,68.7L442.68,30" style="vector-effect: none; fill: none; stroke: rgb(255, 152, 0); stroke-opacity: 1; stroke-width: 2.5px; opacity: 1;"/></g><g class="points"><path class="point" transform="translate(28.56,170.56)" d="M4,0A4,4 0 1,1 0,-4A4,4 0 0,1 4,0Z" style="opacity: 1; stroke-width: 0px; fill: rgb(255, 152, 0); fill-opacity: 1;"/><path class="point" transform="translate(166.6,135.93)" d="M4,0A4,4 0 1,1 0,-4A4,4 0 0,1 4,0Z" style="opacity: 1; stroke-width: 0px; fill: rgb(255, 152, 0); fill-opacity: 1;"/><path class="point" transform="translate(304.64,68.7)" d="M4,0A4,4 0 1,1 0,-4A4,4 0 0,1 4,0Z" style="opacity: 1; stroke-width: 0px; fill: rgb(255, 152, 0); fill-opacity: 1;"/><path class="point" transform="translate(442.68,30)" d="M4,0A4,4 0 1,1 0,-4A4,4 0 0,1 4,0Z" style="opacity: 1; stroke-width: 0px; fill: rgb(255, 152, 0); fill-opacity: 1;"/></g><g class="text"><g class="textpoint" transform="translate(0,-9.5)"><text x="28.56" y="170.56" text-anchor="middle" style="font-family: Inter, Helvetica, Arial, sans-serif; font-size: 14px; fill: rgb(255, 152, 0); fill-opacity: 1; white-space: pre;">21%</text></g><g class="textpoint"/><g class="textpoint"/><g class="textpoint" transform="translate(0,-9.5)"><text x="442.68" y="30" text-anchor="middle" style="font-family: Inter, Helvetica, Arial, sans-serif; font-size: 14px; fill: rgb(255, 152, 0); fill-opacity: 1; white-space: pre;">28%</text></g></g></g><g class="trace scatter trace7e35a4" style="stroke-miterlimit: 2; opacity: 1;"><g class="fills"/><g class="errorbars"/><g class="lines"><path class="js-line" d="M28.56,294.81L166.6,268.33L304.64,219.44L442.68,180.74" style="vector-effect: none; fill: none; stroke: rgb(33, 150, 243); stroke-opacity: 1; stroke-width: 2.5px; opacity: 1;"/></g><g class="points"><path class="point" transform="translate(28.56,294.81)" d="M4,0A4,4 0 1,1 0,-4A4,4 0 0,1 4,0Z" style="opacity: 1; stroke-width: 0px; fill: rgb(33, 150, 243); fill-opacity: 1;"/><path class="point" transform="translate(166.6,268.33)" d="M4,0A4,4 0 1,1 0,-4A4,4 0 0,1 4,0Z" style="opacity: 1; stroke-width: 0px; fill: rgb(33, 150, 243); fill-opacity: 1;"/><path class="point" transform="translate(304.64,219.44)" d="M4,0A4,4 0 1,1 0,-4A4,4 0 0,1 4,0Z" style="opacity: 1; stroke-width: 0px; fill: rgb(33, 150, 243); fill-opacity: 1;"/><path class="point" transform="translate(442.68,180.74)" d="M4,0A4,4 0 1,1 0,-4A4,4 0 0,1 4,0Z" style="opacity: 1; stroke-width: 0px; fill: rgb(33, 150, 243); fill-opacity: 1;"/></g><g class="text"><g class="textpoint" transform="translate(0,-9.5)"><text x="28.56" y="294.81" text-anchor="middle" style="font-family: Inter, Helvetica, Arial, sans-serif; font-size: 14px; fill: rgb(33, 150, 243); fill-opacity: 1; white-space: pre;">15%</text></g><g class="textpoint"/><g class="textpoint"/><g class="textpoint" transform="translate(0,-9.5)"><text x="442.68" y="180.74" text-anchor="middle" style="font-family: Inter, Helvetica, Arial, sans-serif; font-size: 14px; fill: rgb(33, 150, 243); fill-opacity: 1; white-space: pre;">20%</text></g></g></g><g class="trace scatter trace66fcb4" style="stroke-miterlimit: 2; opacity: 1;"><g class="fills"/><g class="errorbars"/><g class="lines"><path class="js-line" d="M28.56,449.63L166.6,431.3L304.64,396.67L442.68,376.3" style="vector-effect: none; fill: none; stroke: rgb(156, 39, 176); stroke-opacity: 1; stroke-width: 2.5px; opacity: 1;"/></g><g class="points"><path class="point" transform="translate(28.56,449.63)" d="M4,0A4,4 0 1,1 0,-4A4,4 0 0,1 4,0Z" style="opacity: 1; stroke-width: 0px; fill: rgb(156, 39, 176); fill-opacity: 1;"/><path class="point" transform="translate(166.6,431.3)" d="M4,0A4,4 0 1,1 0,-4A4,4 0 0,1 4,0Z" style="opacity: 1; stroke-width: 0px; fill: rgb(156, 39, 176); fill-opacity: 1;"/><path class="point" transform="translate(304.64,396.67)" d="M4,0A4,4 0 1,1 0,-4A4,4 0 0,1 4,0Z" style="opacity: 1; stroke-width: 0px; fill: rgb(156, 39, 176); fill-opacity: 1;"/><path class="point" transform="translate(442.68,376.3)" d="M4,0A4,4 0 1,1 0,-4A4,4 0 0,1 4,0Z" style="opacity: 1; stroke-width: 0px; fill: rgb(156, 39, 176); fill-opacity: 1;"/></g><g class="text"><g class="textpoint" transform="translate(0,-9.5)"><text x="28.56" y="449.63" text-anchor="middle" style="font-family: Inter, Helvetica, Arial, sans-serif; font-size: 14px; fill: rgb(156, 39, 176); fill-opacity: 1; white-space: pre;">7%</text></g><g class="textpoint"/><g class="textpoint"/><g class="textpoint" transform="translate(0,-9.5)"><text x="442.68" y="376.3" text-anchor="middle" style="font-family: Inter, Helvetica, Arial, sans-serif; font-size: 14px; fill: rgb(156, 39, 176); fill-opacity: 1; white-space: pre;">11%</text></g></g></g><g class="trace scatter trace79856a" style="stroke-miterlimit: 2; opacity: 1;"><g class="fills"/><g class="errorbars"/><g class="lines"><path class="js-line" d="M28.56,470L166.6,455.74L304.64,429.26L442.68,412.96" style="vector-effect: none; fill: none; stroke: rgb(96, 125, 139); stroke-opacity: 1; stroke-width: 2.5px; opacity: 1;"/></g><g class="points"><path class="point" transform="translate(28.56,470)" d="M4,0A4,4 0 1,1 0,-4A4,4 0 0,1 4,0Z" style="opacity: 1; stroke-width: 0px; fill: rgb(96, 125, 139); fill-opacity: 1;"/><path class="point" transform="translate(166.6,455.74)" d="M4,0A4,4 0 1,1 0,-4A4,4 0 0,1 4,0Z" style="opacity: 1; stroke-width: 0px; fill: rgb(96, 125, 139); fill-opacity: 1;"/><path class="point" transform="translate(304.64,429.26)" d="M4,0A4,4 0 1,1 0,-4A4,4 0 0,1 4,0Z" style="opacity: 1; stroke-width: 0px; fill: rgb(96, 125, 139); fill-opacity: 1;"/><path class="point" transform="translate(442.68,412.96)" d="M4,0A4,4 0 1,1 0,-4A4,4 0 0,1 4,0Z" style="opacity: 1; stroke-width: 0px; fill: rgb(96, 125, 139); fill-opacity: 1;"/></g><g class="text"><g class="textpoint" transform="translate(0,-9.5)"><text x="28.56" y="470" text-anchor="middle" style="font-family: Inter, Helvetica, Arial, sans-serif; font-size: 14px; fill: rgb(96, 125, 139); fill-opacity: 1; white-space: pre;">6%</text></g><g class="textpoint"/><g class="textpoint"/><g class="textpoint" transform="translate(0,-9.5)"><text x="442.68" y="412.96" text-anchor="middle" style="font-family: Inter, Helvetica, Arial, sans-serif; font-size: 14px; fill: rgb(96, 125, 139); fill-opacity: 1; white-space: pre;">9%</text></g></g></g></g></g></g><g class="zerolinelayer-above"/><path class="xlines-above crisp" d="M0,0" style="fill: none;"/><path class="ylines-above crisp" d="M0,0" style="fill: none;"/><g class="overlines-above"/><g class="xaxislayer-above"><g class="x2tick"><text text-anchor="middle" x="0" y="608" transform="translate(917.32,0)" style="font-family: Inter, Helvetica, Arial, sans-serif; font-size: 17px; fill: rgb(68, 68, 68); fill-opacity: 1; white-space: pre;">2021</text></g><g class="x2tick"><text text-anchor="middle" x="0" y="608" style="font-family: Inter, Helvetica, Arial, sans-serif; font-size: 17px; fill: rgb(68, 68, 68); fill-opacity: 1; white-space: pre;" transform="translate(1055.3600000000001,0)">2022</text></g><g class="x2tick"><text text-anchor="middle" x="0" y="608" style="font-family: Inter, Helvetica, Arial, sans-serif; font-size: 17px; fill: rgb(68, 68, 68); fill-opacity: 1; white-space: pre;" transform="translate(1193.4,0)">2023</text></g><g class="x2tick"><text text-anchor="middle" x="0" y="608" style="font-family: Inter, Helvetica, Arial, sans-serif; font-size: 17px; fill: rgb(68, 68, 68); fill-opacity: 1; white-space: pre;" transform="translate(1331.44,0)">2024</text></g></g><g class="yaxislayer-above"><g class="y2tick"><text text-anchor="end" x="887.7600000000001" y="5.949999999999999" transform="translate(0,586.48)" style="font-family: Inter, Helvetica, Arial, sans-serif; font-size: 17px; fill: rgb(68, 68, 68); fill-opacity: 1; white-space: pre;">5</text></g><g class="y2tick"><text text-anchor="end" x="887.7600000000001" y="5.949999999999999" style="font-family: Inter, Helvetica, Arial, sans-serif; font-size: 17px; fill: rgb(68, 68, 68); fill-opacity: 1; white-space: pre;" transform="translate(0,484.63)">10</text></g><g class="y2tick"><text text-anchor="end" x="887.7600000000001" y="5.949999999999999" style="font-family: Inter, Helvetica, Arial, sans-serif; font-size: 17px; fill: rgb(68, 68, 68); fill-opacity: 1; white-space: pre;" transform="translate(0,382.78)">15</text></g><g class="y2tick"><text text-anchor="end" x="887.7600000000001" y="5.949999999999999" style="font-family: Inter, Helvetica, Arial, sans-serif; font-size: 17px; fill: rgb(68, 68, 68); fill-opacity: 1; white-space: pre;" transform="translate(0,280.93)">20</text></g><g class="y2tick"><text text-anchor="end" x="887.7600000000001" y="5.949999999999999" style="font-family: Inter, Helvetica, Arial, sans-serif; font-size: 17px; fill: rgb(68, 68, 68); fill-opacity: 1; white-space: pre;" transform="translate(0,179.07)">25</text></g></g><g class="overaxes-above"/></g></g><g class="polarlayer"/><g class="smithlayer"/><g class="ternarylayer"/><g class="geolayer"/><g class="funnelarealayer"/><g class="pielayer"/><g class="iciclelayer"/><g class="treemaplayer"/><g class="sunburstlayer"/><g class="glimages"/><defs id="topdefs-f37c2f"><g class="clips"/><clipPath id="legendf37c2f"><rect width="904" height="33" x="0" y="0"/></clipPath></defs><g class="layer-above"><g class="imagelayer"/><g class="shapelayer"/></g><g class="infolayer"><g class="legend" pointer-events="all" transform="translate(51.200000000000045,617)"><rect class="bg" shape-rendering="crispEdges" style="stroke: rgb(68, 68, 68); stroke-opacity: 1; fill: rgb(255, 255, 255); fill-opacity: 1; stroke-width: 0px;" width="904" height="33" x="0" y="0"/><g class="scrollbox" transform="" clip-path="url(#legendf37c2f)"><g class="groups" transform=""><g class="traces" transform="translate(0,16.25)" style="opacity: 1;"><text class="legendtext" text-anchor="start" x="40" y="5.85" style="font-family: Inter, Helvetica, Arial, sans-serif; font-size: 15px; fill: rgb(68, 68, 68); fill-opacity: 1; white-space: pre;">Heating Oil</text><g class="layers" style="opacity: 1;"><g class="legendfill"/><g class="legendlines"/><g class="legendsymbols"><g class="legendpoints"><path class="legendundefined" d="M6,6H-6V-6H6Z" transform="translate(20,0)" style="stroke-width: 0px; fill: rgb(139, 69, 19); fill-opacity: 1;"/></g></g></g><rect class="legendtoggle" x="0" y="-11.25" width="120.53125" height="22.5" style="fill: rgb(0, 0, 0); fill-opacity: 0;"/></g></g><g class="groups" transform="translate(123.03125,0)"><g class="traces" transform="translate(0,16.25)" style="opacity: 1;"><text class="legendtext" text-anchor="start" x="40" y="5.85" style="font-family: Inter, Helvetica, Arial, sans-serif; font-size: 15px; fill: rgb(68, 68, 68); fill-opacity: 1; white-space: pre;">Gas</text><g class="layers" style="opacity: 1;"><g class="legendfill"/><g class="legendlines"/><g class="legendsymbols"><g class="legendpoints"><path class="legendundefined" d="M6,6H-6V-6H6Z" transform="translate(20,0)" style="stroke-width: 0px; fill: rgb(255, 107, 53); fill-opacity: 1;"/></g></g></g><rect class="legendtoggle" x="0" y="-11.25" width="70.046875" height="22.5" style="fill: rgb(0, 0, 0); fill-opacity: 0;"/></g></g><g class="groups" transform="translate(195.578125,0)"><g class="traces" transform="translate(0,16.25)" style="opacity: 1;"><text class="legendtext" text-anchor="start" x="40" y="5.85" style="font-family: Inter, Helvetica, Arial, sans-serif; font-size: 15px; fill: rgb(68, 68, 68); fill-opacity: 1; white-space: pre;">Heat Pump</text><g class="layers" style="opacity: 1;"><g class="legendfill"/><g class="legendlines"/><g class="legendsymbols"><g class="legendpoints"><path class="legendundefined" d="M6,6H-6V-6H6Z" transform="translate(20,0)" style="stroke-width: 0px; fill: rgb(33, 150, 243); fill-opacity: 1;"/></g></g></g><rect class="legendtoggle" x="0" y="-11.25" width="120.875" height="22.5" style="fill: rgb(0, 0, 0); fill-opacity: 0;"/></g></g><g class="groups" transform="translate(318.953125,0)"><g class="traces" transform="translate(0,16.25)" style="opacity: 1;"><text class="legendtext" text-anchor="start" x="40" y="5.85" style="font-family: Inter, Helvetica, Arial, sans-serif; font-size: 15px; fill: rgb(68, 68, 68); fill-opacity: 1; white-space: pre;">Wood</text><g class="layers" style="opacity: 1;"><g class="legendfill"/><g class="legendlines"/><g class="legendsymbols"><g class="legendpoints"><path class="legendundefined" d="M6,6H-6V-6H6Z" transform="translate(20,0)" style="stroke-width: 0px; fill: rgb(76, 175, 80); fill-opacity: 1;"/></g></g></g><rect class="legendtoggle" x="0" y="-11.25" width="83.703125" height="22.5" style="fill: rgb(0, 0, 0); fill-opacity: 0;"/></g></g><g class="groups" transform="translate(405.15625,0)"><g class="traces" transform="translate(0,16.25)" style="opacity: 1;"><text class="legendtext" text-anchor="start" x="40" y="5.85" style="font-family: Inter, Helvetica, Arial, sans-serif; font-size: 15px; fill: rgb(68, 68, 68); fill-opacity: 1; white-space: pre;">Electricity</text><g class="layers" style="opacity: 1;"><g class="legendfill"/><g class="legendlines"/><g class="legendsymbols"><g class="legendpoints"><path class="legendundefined" d="M6,6H-6V-6H6Z" transform="translate(20,0)" style="stroke-width: 0px; fill: rgb(255, 193, 7); fill-opacity: 1;"/></g></g></g><rect class="legendtoggle" x="0" y="-11.25" width="112.640625" height="22.5" style="fill: rgb(0, 0, 0); fill-opacity: 0;"/></g></g><g class="groups" transform="translate(520.296875,0)"><g class="traces" transform="translate(0,16.25)" style="opacity: 1;"><text class="legendtext" text-anchor="start" x="40" y="5.85" style="font-family: Inter, Helvetica, Arial, sans-serif; font-size: 15px; fill: rgb(68, 68, 68); fill-opacity: 1; white-space: pre;">District Heating</text><g class="layers" style="opacity: 1;"><g class="legendfill"/><g class="legendlines"/><g class="legendsymbols"><g class="legendpoints"><path class="legendundefined" d="M6,6H-6V-6H6Z" transform="translate(20,0)" style="stroke-width: 0px; fill: rgb(156, 39, 176); fill-opacity: 1;"/></g></g></g><rect class="legendtoggle" x="0" y="-11.25" width="151.96875" height="22.5" style="fill: rgb(0, 0, 0); fill-opacity: 0;"/></g></g><g class="groups" transform="translate(674.765625,0)"><g class="traces" transform="translate(0,16.25)" style="opacity: 1;"><text class="legendtext" text-anchor="start" x="40" y="5.85" style="font-family: Inter, Helvetica, Arial, sans-serif; font-size: 15px; fill: rgb(68, 68, 68); fill-opacity: 1; white-space: pre;">Solar Thermal</text><g class="layers" style="opacity: 1;"><g class="legendfill"/><g class="legendlines"/><g class="legendsymbols"><g class="legendpoints"><path class="legendundefined" d="M6,6H-6V-6H6Z" transform="translate(20,0)" style="stroke-width: 0px; fill: rgb(0, 188, 212); fill-opacity: 1;"/></g></g></g><rect class="legendtoggle" x="0" y="-11.25" width="141.421875" height="22.5" style="fill: rgb(0, 0, 0); fill-opacity: 0;"/></g></g><g class="groups" transform="translate(818.6875,0)"><g class="traces" transform="translate(0,16.25)" style="opacity: 1;"><text class="legendtext" text-anchor="start" x="40" y="5.85" style="font-family: Inter, Helvetica, Arial, sans-serif; font-size: 15px; fill: rgb(68, 68, 68); fill-opacity: 1; white-space: pre;">Other</text><g class="layers" style="opacity: 1;"><g class="legendfill"/><g class="legendlines"/><g class="legendsymbols"><g class="legendpoints"><path class="legendundefined" d="M6,6H-6V-6H6Z" transform="translate(20,0)" style="stroke-width: 0px; fill: rgb(96, 125, 139); fill-opacity: 1;"/></g></g></g><rect class="legendtoggle" x="0" y="-11.25" width="82.140625" height="22.5" style="fill: rgb(0, 0, 0); fill-opacity: 0;"/></g></g></g><rect class="scrollbar" rx="20" ry="3" width="0" height="0" style="fill: rgb(128, 139, 164); fill-opacity: 1;" x="0" y="0"/></g><g class="g-gtitle"/><g class="g-xtitle"><text class="xtitle" x="457.98" y="660" text-anchor="middle" style="opacity: 1; font-family: Inter, Helvetica, Arial, sans-serif; font-size: 20px; fill: rgb(68, 68, 68); fill-opacity: 1; white-space: pre;">Share (%)</text></g><g class="g-x2title"><text class="x2title" x="1124.38" y="660" text-anchor="middle" style="opacity: 1; font-family: Inter, Helvetica, Arial, sans-serif; font-size: 20px; fill: rgb(68, 68, 68); fill-opacity: 1; white-space: pre;">Year</text></g><g class="g-ytitle"/><g class="g-y2title"><text class="y2title" transform="rotate(-90,838.7600000000001,340)" x="838.7600000000001" y="340" text-anchor="middle" style="opacity: 1; font-family: Inter, Helvetica, Arial, sans-serif; font-size: 20px; fill: rgb(68, 68, 68); fill-opacity: 1; white-space: pre;">Heat Pump Share (%)</text></g><g class="annotation" data-index="0" style="opacity: 1;"><g class="annotation-text-g" transform="rotate(0,457.98,77.99999999999999)"><g class="cursor-pointer" transform="translate(288,66)"><rect class="bg" x="0.5" y="0.5" width="338" height="23" style="stroke-width: 1px; stroke: rgb(0, 0, 0); stroke-opacity: 0; fill: rgb(0, 0, 0); fill-opacity: 0;"/><text class="annotation-text" text-anchor="middle" x="169.5" y="18" style="font-family: Inter, Helvetica, Arial, sans-serif; font-size: 16px; fill: rgb(68, 68, 68); fill-opacity: 1; white-space: pre;">Heating Source by Building Category (2024)</text></g></g></g><g class="annotation" data-index="1" style="opacity: 1;"><g class="annotation-text-g" transform="rotate(0,1124.38,77.99999999999999)"><g class="cursor-pointer" transform="translate(970,66)"><rect class="bg" x="0.5" y="0.5" width="308" height="23" style="stroke-width: 1px; stroke: rgb(0, 0, 0); stroke-opacity: 0; fill: rgb(0, 0, 0); fill-opacity: 0;"/><text class="annotation-text" text-anchor="middle" x="154.359375" y="18" style="font-family: Inter, Helvetica, Arial, sans-serif; font-size: 16px; fill: rgb(68, 68, 68); fill-opacity: 1; white-space: pre;">Heat Pump Adoption Trend (2021–2024)</text></g></g></g><g class="annotation" data-index="2" style="opacity: 1;"><g class="annotation-text-g" transform="rotate(0,713.96,527.5)"><g class="cursor-pointer" transform="translate(692,520)"><rect class="bg" x="0.5" y="0.5" width="43" height="15" style="stroke-width: 1px; stroke: rgb(0, 0, 0); stroke-opacity: 0; fill: rgb(0, 0, 0); fill-opacity: 0;"/><text class="annotation-text" text-anchor="middle" x="22.203125" y="12" style="font-family: Inter, Helvetica, Arial, sans-serif; font-size: 10px; fill: rgb(68, 68, 68); fill-opacity: 1; white-space: pre;"><tspan style="font-weight:bold">n=1015k</tspan></text></g></g></g><g class="annotation" data-index="3" style="opacity: 1;"><g class="annotation-text-g" transform="rotate(0,713.96,402.5)"><g class="cursor-pointer" transform="translate(694,395)"><rect class="bg" x="0.5" y="0.5" width="39" height="15" style="stroke-width: 1px; stroke: rgb(0, 0, 0); stroke-opacity: 0; fill: rgb(0, 0, 0); fill-opacity: 0;"/><text class="annotation-text" text-anchor="middle" x="20.046875" y="12" style="font-family: Inter, Helvetica, Arial, sans-serif; font-size: 10px; fill: rgb(68, 68, 68); fill-opacity: 1; white-space: pre;"><tspan style="font-weight:bold">n=501k</tspan></text></g></g></g><g class="annotation" data-index="4" style="opacity: 1;"><g class="annotation-text-g" transform="rotate(0,713.96,277.5)"><g class="cursor-pointer" transform="translate(694,270)"><rect class="bg" x="0.5" y="0.5" width="39" height="15" style="stroke-width: 1px; stroke: rgb(0, 0, 0); stroke-opacity: 0; fill: rgb(0, 0, 0); fill-opacity: 0;"/><text class="annotation-text" text-anchor="middle" x="20.0625" y="12" style="font-family: Inter, Helvetica, Arial, sans-serif; font-size: 10px; fill: rgb(68, 68, 68); fill-opacity: 1; white-space: pre;"><tspan style="font-weight:bold">n=199k</tspan></text></g></g></g><g class="annotation" data-index="5" style="opacity: 1;"><g class="annotation-text-g" transform="rotate(0,713.96,152.5)"><g class="cursor-pointer" transform="translate(696,145)"><rect class="bg" x="0.5" y="0.5" width="34" height="15" style="stroke-width: 1px; stroke: rgb(0, 0, 0); stroke-opacity: 0; fill: rgb(0, 0, 0); fill-opacity: 0;"/><text class="annotation-text" text-anchor="middle" x="17.5" y="12" style="font-family: Inter, Helvetica, Arial, sans-serif; font-size: 10px; fill: rgb(68, 68, 68); fill-opacity: 1; white-space: pre;"><tspan style="font-weight:bold">n=78k</tspan></text></g></g></g></g></svg>