<svg class="main-svg" xmlns="http://www.w3.org/2000/svg" xmlns:xlink="http://www.w3.org/1999/xlink" width="1200" height="650" style="" viewBox="0 0 1200 650"><rect x="0" y="0" width="1200" height="650" style="fill: rgb(255, 255, 255); fill-opacity: 1;"/><defs id="defs-4755eb"><g class="clips"><clipPath id="clip4755ebxyplot" class="plotclip"><rect width="1090" height="442"/></clipPath><clipPath class="axesclip" id="clip4755ebx"><rect x="70" y="0" width="1090" height="650"/></clipPath><clipPath class="axesclip" id="clip4755eby"><rect x="0" y="85" width="1200" height="442"/></clipPath><clipPath class="axesclip" id="clip4755ebxy"><rect x="70" y="85" width="1090" height="442"/></clipPath></g><g class="gradients"/><g class="patterns"/></defs><g class="bglayer"/><g class="layer-below"><g class="imagelayer"/><g class="shapelayer"/></g><g class="cartesianlayer"><g class="subplot xy"><g class="layer-subplot"><g class="shapelayer"/><g class="imagelayer"/></g><g class="minor-gridlayer"><g class="x"/><g class="y"/></g><g class="gridlayer"><g class="x"><path class="xgrid crisp" transform="translate(128.25,0)" d="M0,85v442" style="stroke: rgb(238, 238, 238); stroke-opacity: 1; stroke-width: 1px;"/><path class="xgrid crisp" transform="translate(331.06,0)" d="M0,85v442" style="stroke: rgb(238, 238, 238); stroke-opacity: 1; stroke-width: 1px;"/><path class="xgrid crisp" transform="translate(533.88,0)" d="M0,85v442" style="stroke: rgb(238, 238, 238); stroke-opacity: 1; stroke-width: 1px;"/><path class="xgrid crisp" transform="translate(736.69,0)" d="M0,85v442" style="stroke: rgb(238, 238, 238); stroke-opacity: 1; stroke-width: 1px;"/><path class="xgrid crisp" transform="translate(939.5,0)" d="M0,85v442" style="stroke: rgb(238, 238, 238); stroke-opacity: 1; stroke-width: 1px;"/><path class="xgrid crisp" transform="translate(1142.31,0)" d="M0,85v442" style="stroke: rgb(238, 238, 238); stroke-opacity: 1; stroke-width: 1px;"/></g><g class="y"><path class="ygrid crisp" transform="translate(0,469.61)" d="M70,0h1090" style="stroke: rgb(238, 238, 238); stroke-opacity: 1; stroke-width: 1px;"/><path class="ygrid crisp" transform="translate(0,397.53)" d="M70,0h1090" style="stroke: rgb(238, 238, 238); stroke-opacity: 1; stroke-width: 1px;"/><path class="ygrid crisp" transform="translate(0,325.44)" d="M70,0h1090" style="stroke: rgb(238, 238, 238); stroke-opacity: 1; stroke-width: 1px;"/><path class="ygrid crisp" transform="translate(0,253.35)" d="M70,0h1090" style="stroke: rgb(238, 238, 238); stroke-opacity: 1; stroke-width: 1px;"/><path class="ygrid crisp" transform="translate(0,181.26)" d="M70,0h1090" style="stroke: rgb(238, 238, 238); stroke-opacity: 1; stroke-width: 1px;"/><path class="ygrid crisp" transform="translate(0,109.17)" d="M70,0h1090" style="stroke: rgb(238, 238, 238); stroke-opacity: 1; stroke-width: 1px;"/></g></g><g class="zerolinelayer"/><g class="layer-between"><g class="shapelayer"/><g class="imagelayer"/></g><path class="xlines-below"/><path class="ylines-below"/><g class="overlines-below"/><g class="xaxislayer-below"/><g class="yaxislayer-below"/><g class="overaxes-below"/><g class="overplot"><g class="xy" transform="translate(70,85)" clip-path="url(#clip4755ebxyplot)"><g class="scatterlayer mlayer"><g class="trace scatter trace26c85c" style="stroke-miterlimit: 2; opacity: 1;"><g class="fills"/><g class="errorbars"/><g class="lines"><path class="js-line" d="M58.25,189.23L98.81,108.15L139.38,166.44L179.94,83.04L220.5,81.87L261.06,44.51L301.63,92.3L342.19,247.4L382.75,143.1L423.31,165.97L463.88,25.22L504.44,318.05L545,182.46L585.56,69.65L626.13,374.12L666.69,273.45L707.25,206L747.81,240.82L788.38,333.43L828.94,308.62L869.5,376.96L910.06,197.11L950.63,416.78L991.19,407.71L1031.75,391.58" style="vector-effect: none; fill: none; stroke: rgb(144, 202, 249); stroke-opacity: 1; stroke-width: 2px; opacity: 1;"/></g><g class="points"><path class="point" transform="translate(58.25,189.23)" d="M2.5,0A2.5,2.5 0 1,1 0,-2.5A2.5,2.5 0 0,1 2.5,0Z" style="opacity: 1; stroke-width: 0px; fill: rgb(144, 202, 249); fill-opacity: 1;"/><path class="point" transform="translate(98.81,108.15)" d="M2.5,0A2.5,2.5 0 1,1 0,-2.5A2.5,2.5 0 0,1 2.5,0Z" style="opacity: 1; stroke-width: 0px; fill: rgb(144, 202, 249); fill-opacity: 1;"/><path class="point" transform="translate(139.38,166.44)" d="M2.5,0A2.5,2.5 0 1,1 0,-2.5A2.5,2.5 0 0,1 2.5,0Z" style="opacity: 1; stroke-width: 0px; fill: rgb(144, 202, 249); fill-opacity: 1;"/><path class="point" transform="translate(179.94,83.04)" d="M2.5,0A2.5,2.5 0 1,1 0,-2.5A2.5,2.5 0 0,1 2.5,0Z" style="opacity: 1; stroke-width: 0px; fill: rgb(144, 202, 249); fill-opacity: 1;"/><path class="point" transform="translate(220.5,81.87)" d="M2.5,0A2.5,2.5 0 1,1 0,-2.5A2.5,2.5 0 0,1 2.5,0Z" style="opacity: 1; stroke-width: 0px; fill: rgb(144, 202, 249); fill-opacity: 1;"/><path class="point" transform="translate(261.06,44.51)" d="M2.5,0A2.5,2.5 0 1,1 0,-2.5A2.5,2.5 0 0,1 2.5,0Z" style="opacity: 1; stroke-width: 0px; fill: rgb(144, 202, 249); fill-opacity: 1;"/><path class="point" transform="translate(301.63,92.3)" d="M2.5,0A2.5,2.5 0 1,1 0,-2.5A2.5,2.5 0 0,1 2.5,0Z" style="opacity: 1; stroke-width: 0px; fill: rgb(144, 202, 249); fill-opacity: 1;"/><path class="point" transform="translate(342.19,247.4)" d="M2.5,0A2.5,2.5 0 1,1 0,-2.5A2.5,2.5 0 0,1 2.5,0Z" style="opacity: 1; stroke-width: 0px; fill: rgb(144, 202, 249); fill-opacity: 1;"/><path class="point" transform="translate(382.75,143.1)" d="M2.5,0A2.5,2.5 0 1,1 0,-2.5A2.5,2.5 0 0,1 2.5,0Z" style="opacity: 1; stroke-width: 0px; fill: rgb(144, 202, 249); fill-opacity: 1;"/><path class="point" transform="translate(423.31,165.97)" d="M2.5,0A2.5,2.5 0 1,1 0,-2.5A2.5,2.5 0 0,1 2.5,0Z" style="opacity: 1; stroke-width: 0px; fill: rgb(144, 202, 249); fill-opacity: 1;"/><path class="point" transform="translate(463.88,25.22)" d="M2.5,0A2.5,2.5 0 1,1 0,-2.5A2.5,2.5 0 0,1 2.5,0Z" style="opacity: 1; stroke-width: 0px; fill: rgb(144, 202, 249); fill-opacity: 1;"/><path class="point" transform="translate(504.44,318.05)" d="M2.5,0A2.5,2.5 0 1,1 0,-2.5A2.5,2.5 0 0,1 2.5,0Z" style="opacity: 1; stroke-width: 0px; fill: rgb(144, 202, 249); fill-opacity: 1;"/><path class="point" transform="translate(545,182.46)" d="M2.5,0A2.5,2.5 0 1,1 0,-2.5A2.5,2.5 0 0,1 2.5,0Z" style="opacity: 1; stroke-width: 0px; fill: rgb(144, 202, 249); fill-opacity: 1;"/><path class="point" transform="translate(585.56,69.65)" d="M2.5,0A2.5,2.5 0 1,1 0,-2.5A2.5,2.5 0 0,1 2.5,0Z" style="opacity: 1; stroke-width: 0px; fill: rgb(144, 202, 249); fill-opacity: 1;"/><path class="point" transform="translate(626.13,374.12)" d="M2.5,0A2.5,2.5 0 1,1 0,-2.5A2.5,2.5 0 0,1 2.5,0Z" style="opacity: 1; stroke-width: 0px; fill: rgb(144, 202, 249); fill-opacity: 1;"/><path class="point" transform="translate(666.69,273.45)" d="M2.5,0A2.5,2.5 0 1,1 0,-2.5A2.5,2.5 0 0,1 2.5,0Z" style="opacity: 1; stroke-width: 0px; fill: rgb(144, 202, 249); fill-opacity: 1;"/><path class="point" transform="translate(707.25,206)" d="M2.5,0A2.5,2.5 0 1,1 0,-2.5A2.5,2.5 0 0,1 2.5,0Z" style="opacity: 1; stroke-width: 0px; fill: rgb(144, 202, 249); fill-opacity: 1;"/><path class="point" transform="translate(747.81,240.82)" d="M2.5,0A2.5,2.5 0 1,1 0,-2.5A2.5,2.5 0 0,1 2.5,0Z" style="opacity: 1; stroke-width: 0px; fill: rgb(144, 202, 249); fill-opacity: 1;"/><path class="point" transform="translate(788.38,333.43)" d="M2.5,0A2.5,2.5 0 1,1 0,-2.5A2.5,2.5 0 0,1 2.5,0Z" style="opacity: 1; stroke-width: 0px; fill: rgb(144, 202, 249); fill-opacity: 1;"/><path class="point" transform="translate(828.94,308.62)" d="M2.5,0A2.5,2.5 0 1,1 0,-2.5A2.5,2.5 0 0,1 2.5,0Z" style="opacity: 1; stroke-width: 0px; fill: rgb(144, 202, 249); fill-opacity: 1;"/><path class="point" transform="translate(869.5,376.96)" d="M2.5,0A2.5,2.5 0 1,1 0,-2.5A2.5,2.5 0 0,1 2.5,0Z" style="opacity: 1; stroke-width: 0px; fill: rgb(144, 202, 249); fill-opacity: 1;"/><path class="point" transform="translate(910.06,197.11)" d="M2.5,0A2.5,2.5 0 1,1 0,-2.5A2.5,2.5 0 0,1 2.5,0Z" style="opacity: 1; stroke-width: 0px; fill: rgb(144, 202, 249); fill-opacity: 1;"/><path class="point" transform="translate(950.63,416.78)" d="M2.5,0A2.5,2.5 0 1,1 0,-2.5A2.5,2.5 0 0,1 2.5,0Z" style="opacity: 1; stroke-width: 0px; fill: rgb(144, 202, 249); fill-opacity: 1;"/><path class="point" transform="translate(991.19,407.71)" d="M2.5,0A2.5,2.5 0 1,1 0,-2.5A2.5,2.5 0 0,1 2.5,0Z" style="opacity: 1; stroke-width: 0px; fill: rgb(144, 202, 249); fill-opacity: 1;"/><path class="point" transform="translate(1031.75,391.58)" d="M2.5,0A2.5,2.5 0 1,1 0,-2.5A2.5,2.5 0 0,1 2.5,0Z" style="opacity: 1; stroke-width: 0px; fill: rgb(144, 202, 249); fill-opacity: 1;"/></g><g class="text"/></g><g class="trace scatter trace7ba4f4" style="stroke-miterlimit: 2; opacity: 1;"><g class="fills"/><g class="errorbars"/><g class="lines"><path class="js-line" d="M58.25,158.71L98.81,146.27L139.38,156.9L179.94,160.44L220.5,152.53L261.06,182.05L301.63,127.23L342.19,226.08L382.75,213.5L423.31,174.67L463.88,188.07L504.44,237.14L545,227.48L585.56,188.76L626.13,235.9L707.25,250.28L747.81,267.26L788.38,235.02L828.94,275.96L869.5,297.71L910.06,274.71L950.63,289.85L991.19,299.15L1031.75,286.46" style="vector-effect: none; fill: none; stroke: rgb(21, 101, 192); stroke-opacity: 1; stroke-width: 3px; opacity: 1;"/></g><g class="points"><path class="point" transform="translate(58.25,158.71)" d="M3,0A3,3 0 1,1 0,-3A3,3 0 0,1 3,0Z" style="opacity: 1; stroke-width: 0px; fill: rgb(21, 101, 192); fill-opacity: 1;"/><path class="point" transform="translate(98.81,146.27)" d="M3,0A3,3 0 1,1 0,-3A3,3 0 0,1 3,0Z" style="opacity: 1; stroke-width: 0px; fill: rgb(21, 101, 192); fill-opacity: 1;"/><path class="point" transform="translate(139.38,156.9)" d="M3,0A3,3 0 1,1 0,-3A3,3 0 0,1 3,0Z" style="opacity: 1; stroke-width: 0px; fill: rgb(21, 101, 192); fill-opacity: 1;"/><path class="point" transform="translate(179.94,160.44)" d="M3,0A3,3 0 1,1 0,-3A3,3 0 0,1 3,0Z" style="opacity: 1; stroke-width: 0px; fill: rgb(21, 101, 192); fill-opacity: 1;"/><path class="point" transform="translate(220.5,152.53)" d="M3,0A3,3 0 1,1 0,-3A3,3 0 0,1 3,0Z" style="opacity: 1; stroke-width: 0px; fill: rgb(21, 101, 192); fill-opacity: 1;"/><path class="point" transform="translate(261.06,182.05)" d="M3,0A3,3 0 1,1 0,-3A3,3 0 0,1 3,0Z" style="opacity: 1; stroke-width: 0px; fill: rgb(21, 101, 192); fill-opacity: 1;"/><path class="point" transform="translate(301.63,127.23)" d="M3,0A3,3 0 1,1 0,-3A3,3 0 0,1 3,0Z" style="opacity: 1; stroke-width: 0px; fill: rgb(21, 101, 192); fill-opacity: 1;"/><path class="point" transform="translate(342.19,226.08)" d="M3,0A3,3 0 1,1 0,-3A3,3 0 0,1 3,0Z" style="opacity: 1; stroke-width: 0px; fill: rgb(21, 101, 192); fill-opacity: 1;"/><path class="point" transform="translate(382.75,213.5)" d="M3,0A3,3 0 1,1 0,-3A3,3 0 0,1 3,0Z" style="opacity: 1; stroke-width: 0px; fill: rgb(21, 101, 192); fill-opacity: 1;"/><path class="point" transform="translate(423.31,174.67)" d="M3,0A3,3 0 1,1 0,-3A3,3 0 0,1 3,0Z" style="opacity: 1; stroke-width: 0px; fill: rgb(21, 101, 192); fill-opacity: 1;"/><path class="point" transform="translate(463.88,188.07)" d="M3,0A3,3 0 1,1 0,-3A3,3 0 0,1 3,0Z" style="opacity: 1; stroke-width: 0px; fill: rgb(21, 101, 192); fill-opacity: 1;"/><path class="point" transform="translate(504.44,237.14)" d="M3,0A3,3 0 1,1 0,-3A3,3 0 0,1 3,0Z" style="opacity: 1; stroke-width: 0px; fill: rgb(21, 101, 192); fill-opacity: 1;"/><path class="point" transform="translate(545,227.48)" d="M3,0A3,3 0 1,1 0,-3A3,3 0 0,1 3,0Z" style="opacity: 1; stroke-width: 0px; fill: rgb(21, 101, 192); fill-opacity: 1;"/><path class="point" transform="translate(585.56,188.76)" d="M3,0A3,3 0 1,1 0,-3A3,3 0 0,1 3,0Z" style="opacity: 1; stroke-width: 0px; fill: rgb(21, 101, 192); fill-opacity: 1;"/><path class="point" transform="translate(626.13,235.9)" d="M3,0A3,3 0 1,1 0,-3A3,3 0 0,1 3,0Z" style="opacity: 1; stroke-width: 0px; fill: rgb(21, 101, 192); fill-opacity: 1;"/><path class="point" transform="translate(666.69,242.82)" d="M3,0A3,3 0 1,1 0,-3A3,3 0 0,1 3,0Z" style="opacity: 1; stroke-width: 0px; fill: rgb(21, 101, 192); fill-opacity: 1;"/><path class="point" transform="translate(707.25,250.28)" d="M3,0A3,3 0 1,1 0,-3A3,3 0 0,1 3,0Z" style="opacity: 1; stroke-width: 0px; fill: rgb(21, 101, 192); fill-opacity: 1;"/><path class="point" transform="translate(747.81,267.26)" d="M3,0A3,3 0 1,1 0,-3A3,3 0 0,1 3,0Z" style="opacity: 1; stroke-width: 0px; fill: rgb(21, 101, 192); fill-opacity: 1;"/><path class="point" transform="translate(788.38,235.02)" d="M3,0A3,3 0 1,1 0,-3A3,3 0 0,1 3,0Z" style="opacity: 1; stroke-width: 0px; fill: rgb(21, 101, 192); fill-opacity: 1;"/><path class="point" transform="translate(828.94,275.96)" d="M3,0A3,3 0 1,1 0,-3A3,3 0 0,1 3,0Z" style="opacity: 1; stroke-width: 0px; fill: rgb(21, 101, 192); fill-opacity: 1;"/><path class="point" transform="translate(869.5,297.71)" d="M3,0A3,3 0 1,1 0,-3A3,3 0 0,1 3,0Z" style="opacity: 1; stroke-width: 0px; fill: rgb(21, 101, 192); fill-opacity: 1;"/><path class="point" transform="translate(910.06,274.71)" d="M3,0A3,3 0 1,1 0,-3A3,3 0 0,1 3,0Z" style="opacity: 1; stroke-width: 0px; fill: rgb(21, 101, 192); fill-opacity: 1;"/><path class="point" transform="translate(950.63,289.85)" d="M3,0A3,3 0 1,1 0,-3A3,3 0 0,1 3,0Z" style="opacity: 1; stroke-width: 0px; fill: rgb(21, 101, 192); fill-opacity: 1;"/><path class="point" transform="translate(991.19,299.15)" d="M3,0A3,3 0 1,1 0,-3A3,3 0 0,1 3,0Z" style="opacity: 1; stroke-width: 0px; fill: rgb(21, 101, 192); fill-opacity: 1;"/><path class="point" transform="translate(1031.75,286.46)" d="M3,0A3,3 0 1,1 0,-3A3,3 0 0,1 3,0Z" style="opacity: 1; stroke-width: 0px; fill: rgb(21, 101, 192); fill-opacity: 1;"/></g><g class="text"/></g><g class="trace scatter trace71f40b" style="stroke-miterlimit: 2; opacity: 1;"><g class="fills"/><g class="errorbars"/><g class="lines"><path class="js-line" d="M58.25,140.02L1031.75,299.58" style="vector-effect: none; fill: none; stroke: rgb(97, 97, 97); stroke-opacity: 1; stroke-dasharray: 9px, 9px; stroke-width: 2px; opacity: 1;"/></g><g class="points"/><g class="text"/></g></g></g></g><g class="zerolinelayer-above"/><path class="xlines-above crisp" d="M0,0" style="fill: none;"/><path class="ylines-above crisp" d="M0,0" style="fill: none;"/><g class="overlines-above"/><g class="xaxislayer-above"><g class="xtick"><text text-anchor="middle" x="0" y="542" transform="translate(128.25,0)" style="font-family: Inter, Helvetica, Arial, sans-serif; font-size: 14px; fill: rgb(68, 68, 68); fill-opacity: 1; white-space: pre;">2000</text></g><g class="xtick"><text text-anchor="middle" x="0" y="542" style="font-family: Inter, Helvetica, Arial, sans-serif; font-size: 14px; fill: rgb(68, 68, 68); fill-opacity: 1; white-space: pre;" transform="translate(331.06,0)">2005</text></g><g class="xtick"><text text-anchor="middle" x="0" y="542" style="font-family: Inter, Helvetica, Arial, sans-serif; font-size: 14px; fill: rgb(68, 68, 68); fill-opacity: 1; white-space: pre;" transform="translate(533.88,0)">2010</text></g><g class="xtick"><text text-anchor="middle" x="0" y="542" style="font-family: Inter, Helvetica, Arial, sans-serif; font-size: 14px; fill: rgb(68, 68, 68); fill-opacity: 1; white-space: pre;" transform="translate(736.69,0)">2015</text></g><g class="xtick"><text text-anchor="middle" x="0" y="542" style="font-family: Inter, Helvetica, Arial, sans-serif; font-size: 14px; fill: rgb(68, 68, 68); fill-opacity: 1; white-space: pre;" transform="translate(939.5,0)">2020</text></g><g class="xtick"><text text-anchor="middle" x="0" y="542" style="font-family: Inter, Helvetica, Arial, sans-serif; font-size: 14px; fill: rgb(68, 68, 68); fill-opacity: 1; white-space: pre;" transform="translate(1142.31,0)">2025</text></g></g><g class="yaxislayer-above"><g class="ytick"><text text-anchor="end" x="69" y="4.8999999999999995" transform="translate(0,469.61)" style="font-family: Inter, Helvetica, Arial, sans-serif; font-size: 14px; fill: rgb(68, 68, 68); fill-opacity: 1; white-space: pre;">140k</text></g><g class="ytick"><text text-anchor="end" x="69" y="4.8999999999999995" style="font-family: Inter, Helvetica, Arial, sans-serif; font-size: 14px; fill: rgb(68, 68, 68); fill-opacity: 1; white-space: pre;" transform="translate(0,397.53)">150k</text></g><g class="ytick"><text text-anchor="end" x="69" y="4.8999999999999995" style="font-family: Inter, Helvetica, Arial, sans-serif; font-size: 14px; fill: rgb(68, 68, 68); fill-opacity: 1; white-space: pre;" transform="translate(0,325.44)">160k</text></g><g class="ytick"><text text-anchor="end" x="69" y="4.8999999999999995" style="font-family: Inter, Helvetica, Arial, sans-serif; font-size: 14px; fill: rgb(68, 68, 68); fill-opacity: 1; white-space: pre;" transform="translate(0,253.35)">170k</text></g><g class="ytick"><text text-anchor="end" x="69" y="4.8999999999999995" style="font-family: Inter, Helvetica, Arial, sans-serif; font-size: 14px; fill: rgb(68, 68, 68); fill-opacity: 1; white-space: pre;" transform="translate(0,181.26)">180k</text></g><g class="ytick"><text text-anchor="end" x="69" y="4.8999999999999995" style="font-family: Inter, Helvetica, Arial, sans-serif; font-size: 14px; fill: rgb(68, 68, 68); fill-opacity: 1; white-space: pre;" transform="translate(0,109.17)">190k</text></g></g><g class="overaxes-above"/></g></g><g class="polarlayer"/><g class="smithlayer"/><g class="ternarylayer"/><g class="geolayer"/><g class="funnelarealayer"/><g class="pielayer"/><g class="iciclelayer"/><g class="treemaplayer"/><g class="sunburstlayer"/><g class="glimages"/><defs id="topdefs-4755eb"><g class="clips"/><clipPath id="legend4755eb"><rect width="515" height="32" x="0" y="0"/></clipPath></defs><g class="layer-above"><g class="imagelayer"/><g class="shapelayer"/></g><g class="infolayer"><g class="legend" pointer-events="all" transform="translate(357.5,605.5)"><rect class="bg" shape-rendering="crispEdges" style="stroke: rgb(68, 68, 68); stroke-opacity: 1; fill: rgb(255, 255, 255); fill-opacity: 1; stroke-width: 0px;" width="515" height="32" x="0" y="0"/><g class="scrollbox" transform="" clip-path="url(#legend4755eb)"><g class="groups"><g class="traces" transform="translate(0,15.6)" style="opacity: 1;"><text class="legendtext" text-anchor="start" x="40" y="5.46" style="font-family: Inter, Helvetica, Arial, sans-serif; font-size: 14px; fill: rgb(68, 68, 68); fill-opacity: 1; white-space: pre;">Actual</text><g class="layers" style="opacity: 1;"><g class="legendfill"/><g class="legendlines"><path class="js-line" d="M5,0h30" style="fill: none; stroke: rgb(144, 202, 249); stroke-opacity: 1; stroke-width: 2px;"/></g><g class="legendsymbols"><g class="legendpoints"><path class="scatterpts" transform="translate(20,0)" d="M2.5,0A2.5,2.5 0 1,1 0,-2.5A2.5,2.5 0 0,1 2.5,0Z" style="opacity: 1; stroke-width: 0px; fill: rgb(144, 202, 249); fill-opacity: 1;"/></g></g></g><rect class="legendtoggle" x="0" y="-10.6" width="84.28125" height="21.2" style="fill: rgb(0, 0, 0); fill-opacity: 0;"/></g><g class="traces" transform="translate(86.78125,15.6)" style="opacity: 1;"><text class="legendtext" text-anchor="start" x="40" y="5.46" style="font-family: Inter, Helvetica, Arial, sans-serif; font-size: 14px; fill: rgb(68, 68, 68); fill-opacity: 1; white-space: pre;">HDD-Normalized (ref=3159)</text><g class="layers" style="opacity: 1;"><g class="legendfill"/><g class="legendlines"><path class="js-line" d="M5,0h30" style="fill: none; stroke: rgb(21, 101, 192); stroke-opacity: 1; stroke-width: 3px;"/></g><g class="legendsymbols"><g class="legendpoints"><path class="scatterpts" transform="translate(20,0)" d="M3,0A3,3 0 1,1 0,-3A3,3 0 0,1 3,0Z" style="opacity: 1; stroke-width: 0px; fill: rgb(21, 101, 192); fill-opacity: 1;"/></g></g></g><rect class="legendtoggle" x="0" y="-10.6" width="228.28125" height="21.2" style="fill: rgb(0, 0, 0); fill-opacity: 0;"/></g><g class="traces" transform="translate(317.5625,15.6)" style="opacity: 1;"><text class="legendtext" text-anchor="start" x="40" y="5.46" style="font-family: Inter, Helvetica, Arial, sans-serif; font-size: 14px; fill: rgb(68, 68, 68); fill-opacity: 1; white-space: pre;">Structural trend (-13%)</text><g class="layers" style="opacity: 1;"><g class="legendfill"/><g class="legendlines"><path class="js-line" d="M5,0h30" style="fill: none; stroke: rgb(97, 97, 97); stroke-opacity: 1; stroke-dasharray: 9px, 9px; stroke-width: 2px;"/></g><g class="legendsymbols"><g class="legendpoints"/></g></g><rect class="legendtoggle" x="0" y="-10.6" width="194.234375" height="21.2" style="fill: rgb(0, 0, 0); fill-opacity: 0;"/></g></g></g><rect class="scrollbar" rx="20" ry="3" width="0" height="0" style="fill: rgb(128, 139, 164); fill-opacity: 1;" x="0" y="0"/></g><g class="g-gtitle"><text class="gtitle" x="600" y="42.5" text-anchor="middle" dy="0em" style="opacity: 1; font-family: Inter, Helvetica, Arial, sans-serif; font-size: 20px; fill: rgb(68, 68, 68); fill-opacity: 1; white-space: pre;">Space-Heating Energy — Actual vs HDD-Normalized (TJ)</text></g><g class="g-xtitle"><text class="xtitle" x="615" y="585" text-anchor="middle" style="opacity: 1; font-family: Inter, Helvetica, Arial, sans-serif; font-size: 16px; fill: rgb(68, 68, 68); fill-opacity: 1; white-space: pre;">Year</text></g><g class="g-ytitle"><text class="ytitle" transform="rotate(-90,28,306)" x="28" y="306" text-anchor="middle" style="opacity: 1; font-family: Inter, Helvetica, Arial, sans-serif; font-size: 16px; fill: rgb(68, 68, 68); fill-opacity: 1; white-space: pre;">Final Energy (TJ)</text></g></g></svg>