<svg class="main-svg" xmlns="http://www.w3.org/2000/svg" xmlns:xlink="http://www.w3.org/1999/xlink" width="1300" height="500" style="" viewBox="0 0 1300 500"><rect x="0" y="0" width="1300" height="500" style="fill: rgb(255, 255, 255); fill-opacity: 1;"/><defs id="defs-36d9fe"><g class="clips"><clipPath id="clip36d9fexyplot" class="plotclip"><rect width="532.4000000000001" height="335"/></clipPath><clipPath id="clip36d9fex2y2plot" class="plotclip"><rect width="435.5999999999999" height="335"/></clipPath><clipPath class="axesclip" id="clip36d9fex"><rect x="170" y="0" width="532.4000000000001" height="500"/></clipPath><clipPath class="axesclip" id="clip36d9fey"><rect x="0" y="85" width="1300" height="335"/></clipPath><clipPath class="axesclip" id="clip36d9fexy"><rect x="170" y="85" width="532.4000000000001" height="335"/></clipPath><clipPath class="axesclip" id="clip36d9fey2"><rect x="0" y="85" width="1300" height="335"/></clipPath><clipPath class="axesclip" id="clip36d9fexy2"><rect x="170" y="85" width="532.4000000000001" height="335"/></clipPath><clipPath class="axesclip" id="clip36d9fex2"><rect x="834.4000000000001" y="0" width="435.5999999999999" height="500"/></clipPath><clipPath class="axesclip" id="clip36d9fex2y"><rect x="834.4000000000001" y="85" width="435.5999999999999" height="335"/></clipPath><clipPath class="axesclip" id="clip36d9fex2y2"><rect x="834.4000000000001" y="85" width="435.5999999999999" height="335"/></clipPath></g><g class="gradients"/><g class="patterns"/></defs><g class="bglayer"/><g class="layer-below"><g class="imagelayer"/><g class="shapelayer"/></g><g class="cartesianlayer"><g class="subplot xy"><g class="layer-subplot"><g class="shapelayer"/><g class="imagelayer"/></g><g class="minor-gridlayer"><g class="x"/><g class="y"/></g><g class="gridlayer"><g class="x"><path class="xgrid crisp" transform="translate(268.59000000000003,0)" d="M0,85v335" style="stroke: rgb(238, 238, 238); stroke-opacity: 1; stroke-width: 1px;"/><path class="xgrid crisp" transform="translate(367.19,0)" d="M0,85v335" style="stroke: rgb(238, 238, 238); stroke-opacity: 1; stroke-width: 1px;"/><path class="xgrid crisp" transform="translate(465.78,0)" d="M0,85v335" style="stroke: rgb(238, 238, 238); stroke-opacity: 1; stroke-width: 1px;"/><path class="xgrid crisp" transform="translate(564.37,0)" d="M0,85v335" style="stroke: rgb(238, 238, 238); stroke-opacity: 1; stroke-width: 1px;"/><path class="xgrid crisp" transform="translate(662.96,0)" d="M0,85v335" style="stroke: rgb(238, 238, 238); stroke-opacity: 1; stroke-width: 1px;"/></g><g class="y"/></g><g class="zerolinelayer"><path class="xzl zl crisp" transform="translate(170,0)" d="M0,85v335" style="stroke: rgb(68, 68, 68); stroke-opacity: 1; stroke-width: 1px;"/></g><g class="layer-between"><g class="shapelayer"/><g class="imagelayer"/></g><path class="xlines-below"/><path class="ylines-below"/><g class="overlines-below"/><g class="xaxislayer-below"/><g class="yaxislayer-below"/><g class="overaxes-below"/><g class="overplot"><g class="xy" transform="translate(170,85)" clip-path="url(#clip36d9fexyplot)"><g class="barlayer mlayer"><g class="trace bars" shape-rendering="crispEdges" style="opacity: 1;"><g class="points"><g class="point"><path d="M0,326.63V259.63H164.16V326.63Z" style="vector-effect: none; opacity: 1; stroke-width: 0px; fill: rgb(139, 69, 19); fill-opacity: 1;"/><text class="bartext bartext-inside" text-anchor="middle" data-notex="1" x="0" y="0" style="font-family: Inter, Helvetica, Arial, sans-serif; font-size: 11px; fill: rgb(255, 255, 255); fill-opacity: 1; white-space: pre;" transform="translate(148.9646875,297.13)">33%</text></g><g class="point"><path d="M0,242.88V175.88H190.78V242.88Z" style="vector-effect: none; opacity: 1; stroke-width: 0px; fill: rgb(139, 69, 19); fill-opacity: 1;"/><text class="bartext bartext-inside" text-anchor="middle" data-notex="1" x="0" y="0" style="font-family: Inter, Helvetica, Arial, sans-serif; font-size: 11px; fill: rgb(255, 255, 255); fill-opacity: 1; white-space: pre;" transform="translate(175.5690625,213.38)">39%</text></g><g class="point"><path d="M0,159.13V92.12H158.73V159.13Z" style="vector-effect: none; opacity: 1; stroke-width: 0px; fill: rgb(139, 69, 19); fill-opacity: 1;"/><text class="bartext bartext-inside" text-anchor="middle" data-notex="1" x="0" y="0" style="font-family: Inter, Helvetica, Arial, sans-serif; font-size: 11px; fill: rgb(255, 255, 255); fill-opacity: 1; white-space: pre;" transform="translate(143.57375,129.625)">32%</text></g><g class="point"><path d="M0,75.38V8.37H200.14V75.38Z" style="vector-effect: none; opacity: 1; stroke-width: 0px; fill: rgb(139, 69, 19); fill-opacity: 1;"/><text class="bartext bartext-inside" text-anchor="middle" data-notex="1" x="0" y="0" style="font-family: Inter, Helvetica, Arial, sans-serif; font-size: 11px; fill: rgb(255, 255, 255); fill-opacity: 1; white-space: pre;" transform="translate(186.0540625,45.875)">41%</text></g></g></g><g class="trace bars" shape-rendering="crispEdges" style="opacity: 1;"><g class="points"><g class="point"><path d="M164.16,326.63V259.63H238.59V326.63Z" style="vector-effect: none; opacity: 1; stroke-width: 0px; fill: rgb(255, 107, 53); fill-opacity: 1;"/><text class="bartext bartext-inside" text-anchor="middle" data-notex="1" x="0" y="0" style="font-family: Inter, Helvetica, Arial, sans-serif; font-size: 11px; fill: rgb(255, 255, 255); fill-opacity: 1; white-space: pre;" transform="translate(224.68375,297.13)">15%</text></g><g class="point"><path d="M190.78,242.88V175.88H294.3V242.88Z" style="vector-effect: none; opacity: 1; stroke-width: 0px; fill: rgb(255, 107, 53); fill-opacity: 1;"/><text class="bartext bartext-inside" text-anchor="middle" data-notex="1" x="0" y="0" style="font-family: Inter, Helvetica, Arial, sans-serif; font-size: 11px; fill: rgb(255, 255, 255); fill-opacity: 1; white-space: pre;" transform="translate(280.3078125,213.38)">21%</text></g><g class="point"><path d="M158.73,159.13V92.12H250.43V159.13Z" style="vector-effect: none; opacity: 1; stroke-width: 0px; fill: rgb(255, 107, 53); fill-opacity: 1;"/><text class="bartext bartext-inside" text-anchor="middle" data-notex="1" x="0" y="0" style="font-family: Inter, Helvetica, Arial, sans-serif; font-size: 11px; fill: rgb(255, 255, 255); fill-opacity: 1; white-space: pre;" transform="translate(236.3753125,129.625)">19%</text></g><g class="point"><path d="M200.14,75.38V8.37H299.72V75.38Z" style="vector-effect: none; opacity: 1; stroke-width: 0px; fill: rgb(255, 107, 53); fill-opacity: 1;"/><text class="bartext bartext-inside" text-anchor="middle" data-notex="1" x="0" y="0" style="font-family: Inter, Helvetica, Arial, sans-serif; font-size: 11px; fill: rgb(255, 255, 255); fill-opacity: 1; white-space: pre;" transform="translate(284.4934375,45.875)">20%</text></g></g></g><g class="trace bars" shape-rendering="crispEdges" style="opacity: 1;"><g class="points"><g class="point"><path d="M238.59,326.63V259.63H376.13V326.63Z" style="vector-effect: none; opacity: 1; stroke-width: 0px; fill: rgb(33, 150, 243); fill-opacity: 1;"/><text class="bartext bartext-inside" text-anchor="middle" data-notex="1" x="0" y="0" style="font-family: Inter, Helvetica, Arial, sans-serif; font-size: 11px; fill: rgb(255, 255, 255); fill-opacity: 1; white-space: pre;" transform="translate(360.9659375,297.13)">28%</text></g><g class="point"><path d="M294.3,242.88V175.88H395.36V242.88Z" style="vector-effect: none; opacity: 1; stroke-width: 0px; fill: rgb(33, 150, 243); fill-opacity: 1;"/><text class="bartext bartext-inside" text-anchor="middle" data-notex="1" x="0" y="0" style="font-family: Inter, Helvetica, Arial, sans-serif; font-size: 11px; fill: rgb(255, 255, 255); fill-opacity: 1; white-space: pre;" transform="translate(380.1334375,213.38)">20%</text></g><g class="point"><path d="M250.43,159.13V92.12H304.16V159.13Z" style="vector-effect: none; opacity: 1; stroke-width: 0px; fill: rgb(33, 150, 243); fill-opacity: 1;"/><text class="bartext bartext-inside" text-anchor="middle" data-notex="1" x="0" y="0" style="font-family: Inter, Helvetica, Arial, sans-serif; font-size: 11px; fill: rgb(255, 255, 255); fill-opacity: 1; white-space: pre;" transform="translate(291.285,129.625)">11%</text></g><g class="point"><path d="M299.72,75.38V8.37H344.58V75.38Z" style="vector-effect: none; opacity: 1; stroke-width: 0px; fill: rgb(33, 150, 243); fill-opacity: 1;"/><text class="bartext bartext-inside" text-anchor="middle" data-notex="1" x="0" y="0" style="font-family: Inter, Helvetica, Arial, sans-serif; font-size: 11px; fill: rgb(255, 255, 255); fill-opacity: 1; white-space: pre;" transform="translate(332.7675,45.875)">9%</text></g></g></g><g class="trace bars" shape-rendering="crispEdges" style="opacity: 1;"><g class="points"><g class="point"><path d="M376.13,326.63V259.63H432.82V326.63Z" style="vector-effect: none; opacity: 1; stroke-width: 0px; fill: rgb(76, 175, 80); fill-opacity: 1;"/><text class="bartext bartext-inside" text-anchor="middle" data-notex="1" x="0" y="0" style="font-family: Inter, Helvetica, Arial, sans-serif; font-size: 11px; fill: rgb(255, 255, 255); fill-opacity: 1; white-space: pre;" transform="translate(418.8278125,297.13)">12%</text></g><g class="point"><path d="M395.36,242.88V175.88H432.33V242.88Z" style="vector-effect: none; opacity: 1; stroke-width: 0px; fill: rgb(76, 175, 80); fill-opacity: 1;"/><text class="bartext bartext-inside" text-anchor="middle" data-notex="1" x="0" y="0" style="font-family: Inter, Helvetica, Arial, sans-serif; font-size: 11px; fill: rgb(255, 255, 255); fill-opacity: 1; white-space: pre;" transform="translate(420.5253125,213.38)">8%</text></g><g class="point"><path d="M304.16,159.13V92.12H441.2V159.13Z" style="vector-effect: none; opacity: 1; stroke-width: 0px; fill: rgb(76, 175, 80); fill-opacity: 1;"/><text class="bartext bartext-inside" text-anchor="middle" data-notex="1" x="0" y="0" style="font-family: Inter, Helvetica, Arial, sans-serif; font-size: 11px; fill: rgb(255, 255, 255); fill-opacity: 1; white-space: pre;" transform="translate(426.0359375,129.625)">28%</text></g><g class="point"><path d="M344.58,75.38V8.37H429.37V75.38Z" style="vector-effect: none; opacity: 1; stroke-width: 0px; fill: rgb(76, 175, 80); fill-opacity: 1;"/><text class="bartext bartext-inside" text-anchor="middle" data-notex="1" x="0" y="0" style="font-family: Inter, Helvetica, Arial, sans-serif; font-size: 11px; fill: rgb(255, 255, 255); fill-opacity: 1; white-space: pre;" transform="translate(415.6121875,45.875)">17%</text></g></g></g><g class="trace bars" shape-rendering="crispEdges" style="opacity: 1;"><g class="points"><g class="point"><path d="M432.82,326.63V259.63H476.7V326.63Z" style="vector-effect: none; opacity: 1; stroke-width: 0px; fill: rgb(255, 193, 7); fill-opacity: 1;"/><text class="bartext bartext-inside" text-anchor="middle" data-notex="1" x="0" y="0" style="font-family: Inter, Helvetica, Arial, sans-serif; font-size: 11px; fill: rgb(255, 255, 255); fill-opacity: 1; white-space: pre;" transform="translate(464.8875,297.13)">9%</text></g><g class="point"><path d="M432.33,242.88V175.88H456.98V242.88Z" style="vector-effect: none; opacity: 1; stroke-width: 0px; fill: rgb(255, 193, 7); fill-opacity: 1;"/><text class="bartext bartext-inside" text-anchor="middle" data-notex="1" x="0" y="0" style="font-family: Inter, Helvetica, Arial, sans-serif; font-size: 11px; fill: rgb(255, 255, 255); fill-opacity: 1; white-space: pre;" transform="translate(445.3159375,213.38)">5%</text></g><g class="point"><path d="M441.2,159.13V92.12H460.92V159.13Z" style="vector-effect: none; opacity: 1; stroke-width: 0px; fill: rgb(255, 193, 7); fill-opacity: 1;"/><text class="bartext bartext-inside" text-anchor="middle" data-notex="1" x="0" y="0" style="font-family: Inter, Helvetica, Arial, sans-serif; font-size: 11px; fill: rgb(255, 255, 255); fill-opacity: 1; white-space: pre;" transform="translate(451.06,129.54500000000002)scale(0.9800000000000019)rotate(90 0 -4)">4%</text></g><g class="point"><path d="M429.37,75.38V8.37H452.05V75.38Z" style="vector-effect: none; opacity: 1; stroke-width: 0px; fill: rgb(255, 193, 7); fill-opacity: 1;"/><text class="bartext bartext-inside" text-anchor="middle" data-notex="1" x="0" y="0" style="font-family: Inter, Helvetica, Arial, sans-serif; font-size: 11px; fill: rgb(255, 255, 255); fill-opacity: 1; white-space: pre;" transform="translate(442.05,45.875)rotate(90 0 -4)">5%</text></g></g></g><g class="trace bars" shape-rendering="crispEdges" style="opacity: 1;"><g class="points"><g class="point"><path d="M476.7,326.63V259.63H490.01V326.63Z" style="vector-effect: none; opacity: 1; stroke-width: 0px; fill: rgb(156, 39, 176); fill-opacity: 1;"/></g><g class="point"><path d="M456.98,242.88V175.88H490.01V242.88Z" style="vector-effect: none; opacity: 1; stroke-width: 0px; fill: rgb(156, 39, 176); fill-opacity: 1;"/><text class="bartext bartext-inside" text-anchor="middle" data-notex="1" x="0" y="0" style="font-family: Inter, Helvetica, Arial, sans-serif; font-size: 11px; fill: rgb(255, 255, 255); fill-opacity: 1; white-space: pre;" transform="translate(478.494375,213.38)">7%</text></g><g class="point"><path d="M460.92,159.13V92.12H490.5V159.13Z" style="vector-effect: none; opacity: 1; stroke-width: 0px; fill: rgb(156, 39, 176); fill-opacity: 1;"/><text class="bartext bartext-inside" text-anchor="middle" data-notex="1" x="0" y="0" style="font-family: Inter, Helvetica, Arial, sans-serif; font-size: 11px; fill: rgb(255, 255, 255); fill-opacity: 1; white-space: pre;" transform="translate(478.6875,129.625)">6%</text></g><g class="point"><path d="M452.05,75.38V8.37H489.51V75.38Z" style="vector-effect: none; opacity: 1; stroke-width: 0px; fill: rgb(156, 39, 176); fill-opacity: 1;"/><text class="bartext bartext-inside" text-anchor="middle" data-notex="1" x="0" y="0" style="font-family: Inter, Helvetica, Arial, sans-serif; font-size: 11px; fill: rgb(255, 255, 255); fill-opacity: 1; white-space: pre;" transform="translate(477.7053125,45.875)">8%</text></g></g></g><g class="trace bars" shape-rendering="crispEdges" style="opacity: 1;"><g class="points"><g class="point"><path d="M490.01,326.63V259.63H491.48V326.63Z" style="vector-effect: none; opacity: 1; stroke-width: 0px; fill: rgb(0, 188, 212); fill-opacity: 1;"/></g><g class="point"><path d="M490.01,242.88V175.88H490.99V242.88Z" style="vector-effect: none; opacity: 1; stroke-width: 0px; fill: rgb(0, 188, 212); fill-opacity: 1;"/></g><g class="point"><path d="M490.5,159.13V92.12H491.48V159.13Z" style="vector-effect: none; opacity: 1; stroke-width: 0px; fill: rgb(0, 188, 212); fill-opacity: 1;"/></g><g class="point"><path d="M489.51,75.38V8.37H490.5V75.38Z" style="vector-effect: none; opacity: 1; stroke-width: 0px; fill: rgb(0, 188, 212); fill-opacity: 1;"/></g></g></g><g class="trace bars" shape-rendering="crispEdges" style="opacity: 1;"><g class="points"><g class="point"><path d="M491.48,326.63V259.63H492.96V326.63Z" style="vector-effect: none; opacity: 1; stroke-width: 0px; fill: rgb(96, 125, 139); fill-opacity: 1;"/></g><g class="point"><path d="M490.99,242.88V175.88H492.47V242.88Z" style="vector-effect: none; opacity: 1; stroke-width: 0px; fill: rgb(96, 125, 139); fill-opacity: 1;"/></g><g class="point"><path d="M491.48,159.13V92.12H492.96V159.13Z" style="vector-effect: none; opacity: 1; stroke-width: 0px; fill: rgb(96, 125, 139); fill-opacity: 1;"/></g><g class="point"><path d="M490.5,75.38V8.37H492.47V75.38Z" style="vector-effect: none; opacity: 1; stroke-width: 0px; fill: rgb(96, 125, 139); fill-opacity: 1;"/></g></g></g></g></g></g><g class="zerolinelayer-above"/><path class="xlines-above crisp" d="M0,0" style="fill: none;"/><path class="ylines-above crisp" d="M0,0" style="fill: none;"/><g class="overlines-above"/><g class="xaxislayer-above"><g class="xtick"><text text-anchor="middle" x="0" y="435" transform="translate(170,0)" style="font-family: Inter, Helvetica, Arial, sans-serif; font-size: 14px; fill: rgb(68, 68, 68); fill-opacity: 1; white-space: pre;">0</text></g><g class="xtick"><text text-anchor="middle" x="0" y="435" style="font-family: Inter, Helvetica, Arial, sans-serif; font-size: 14px; fill: rgb(68, 68, 68); fill-opacity: 1; white-space: pre;" transform="translate(268.59000000000003,0)">20</text></g><g class="xtick"><text text-anchor="middle" x="0" y="435" style="font-family: Inter, Helvetica, Arial, sans-serif; font-size: 14px; fill: rgb(68, 68, 68); fill-opacity: 1; white-space: pre;" transform="translate(367.19,0)">40</text></g><g class="xtick"><text text-anchor="middle" x="0" y="435" style="font-family: Inter, Helvetica, Arial, sans-serif; font-size: 14px; fill: rgb(68, 68, 68); fill-opacity: 1; white-space: pre;" transform="translate(465.78,0)">60</text></g><g class="xtick"><text text-anchor="middle" x="0" y="435" style="font-family: Inter, Helvetica, Arial, sans-serif; font-size: 14px; fill: rgb(68, 68, 68); fill-opacity: 1; white-space: pre;" transform="translate(564.37,0)">80</text></g><g class="xtick"><text text-anchor="middle" x="0" y="435" style="font-family: Inter, Helvetica, Arial, sans-serif; font-size: 14px; fill: rgb(68, 68, 68); fill-opacity: 1; white-space: pre;" transform="translate(662.96,0)">100</text></g></g><g class="yaxislayer-above"><g class="ytick"><text text-anchor="end" x="169" y="4.8999999999999995" transform="translate(0,378.13)" style="font-family: Inter, Helvetica, Arial, sans-serif; font-size: 14px; fill: rgb(68, 68, 68); fill-opacity: 1; white-space: pre;">Single-Family (EFH)</text></g><g class="ytick"><text text-anchor="end" x="169" y="4.8999999999999995" transform="translate(0,294.38)" style="font-family: Inter, Helvetica, Arial, sans-serif; font-size: 14px; fill: rgb(68, 68, 68); fill-opacity: 1; white-space: pre;">Multi-Family (MFH)</text></g><g class="ytick"><text text-anchor="end" x="169" y="4.8999999999999995" transform="translate(0,210.63)" style="font-family: Inter, Helvetica, Arial, sans-serif; font-size: 14px; fill: rgb(68, 68, 68); fill-opacity: 1; white-space: pre;">Mixed-Use Residential</text></g><g class="ytick"><text text-anchor="end" x="169" y="4.8999999999999995" transform="translate(0,126.88)" style="font-family: Inter, Helvetica, Arial, sans-serif; font-size: 14px; fill: rgb(68, 68, 68); fill-opacity: 1; white-space: pre;">Partial Residential</text></g></g><g class="overaxes-above"/></g><g class="subplot x2y2"><g class="layer-subplot"><g class="shapelayer"/><g class="imagelayer"/></g><g class="minor-gridlayer"><g class="x2"/><g class="y2"/></g><g class="gridlayer"><g class="x2"><path class="x2grid crisp" transform="translate(861.1800000000001,0)" d="M0,85v335" style="stroke: rgb(238, 238, 238); stroke-opacity: 1; stroke-width: 1px;"/><path class="x2grid crisp" transform="translate(988.5300000000001,0)" d="M0,85v335" style="stroke: rgb(238, 238, 238); stroke-opacity: 1; stroke-width: 1px;"/><path class="x2grid crisp" transform="translate(1115.8700000000001,0)" d="M0,85v335" style="stroke: rgb(238, 238, 238); stroke-opacity: 1; stroke-width: 1px;"/><path class="x2grid crisp" transform="translate(1243.22,0)" d="M0,85v335" style="stroke: rgb(238, 238, 238); stroke-opacity: 1; stroke-width: 1px;"/></g><g class="y2"><path class="y2grid crisp" transform="translate(0,415.79)" d="M834.4000000000001,0h435.5999999999999" style="stroke: rgb(238, 238, 238); stroke-opacity: 1; stroke-width: 1px;"/><path class="y2grid crisp" transform="translate(0,348.32)" d="M834.4000000000001,0h435.5999999999999" style="stroke: rgb(238, 238, 238); stroke-opacity: 1; stroke-width: 1px;"/><path class="y2grid crisp" transform="translate(0,280.84000000000003)" d="M834.4000000000001,0h435.5999999999999" style="stroke: rgb(238, 238, 238); stroke-opacity: 1; stroke-width: 1px;"/><path class="y2grid crisp" transform="translate(0,213.36)" d="M834.4000000000001,0h435.5999999999999" style="stroke: rgb(238, 238, 238); stroke-opacity: 1; stroke-width: 1px;"/><path class="y2grid crisp" transform="translate(0,145.89)" d="M834.4000000000001,0h435.5999999999999" style="stroke: rgb(238, 238, 238); stroke-opacity: 1; stroke-width: 1px;"/></g></g><g class="zerolinelayer"/><g class="layer-between"><g class="shapelayer"/><g class="imagelayer"/></g><path class="xlines-below"/><path class="ylines-below"/><g class="overlines-below"/><g class="xaxislayer-below"/><g class="yaxislayer-below"/><g class="overaxes-below"/><g class="overplot"><g class="x2y2" transform="translate(834.4000000000001,85)" clip-path="url(#clip36d9fex2y2plot)"><g class="scatterlayer mlayer"><g class="trace scatter trace7bf275" style="stroke-miterlimit: 2; opacity: 1;"><g class="fills"/><g class="errorbars"/><g class="lines"><path class="js-line" d="M26.78,114.87L154.13,91.93L281.47,47.39L408.82,21.75" style="vector-effect: none; fill: none; stroke: rgb(255, 152, 0); stroke-opacity: 1; stroke-width: 2.5px; opacity: 1;"/></g><g class="points"><path class="point" transform="translate(26.78,114.87)" d="M4,0A4,4 0 1,1 0,-4A4,4 0 0,1 4,0Z" style="opacity: 1; stroke-width: 0px; fill: rgb(255, 152, 0); fill-opacity: 1;"/><path class="point" transform="translate(154.13,91.93)" d="M4,0A4,4 0 1,1 0,-4A4,4 0 0,1 4,0Z" style="opacity: 1; stroke-width: 0px; fill: rgb(255, 152, 0); fill-opacity: 1;"/><path class="point" transform="translate(281.47,47.39)" d="M4,0A4,4 0 1,1 0,-4A4,4 0 0,1 4,0Z" style="opacity: 1; stroke-width: 0px; fill: rgb(255, 152, 0); fill-opacity: 1;"/><path class="point" transform="translate(408.82,21.75)" d="M4,0A4,4 0 1,1 0,-4A4,4 0 0,1 4,0Z" style="opacity: 1; stroke-width: 0px; fill: rgb(255, 152, 0); fill-opacity: 1;"/></g><g class="text"><g class="textpoint" transform="translate(0,-8.5)"><text x="26.78" y="114.87" text-anchor="middle" style="font-family: Inter, Helvetica, Arial, sans-serif; font-size: 10px; fill: rgb(255, 152, 0); fill-opacity: 1; white-space: pre;">21%</text></g><g class="textpoint"/><g class="textpoint"/><g class="textpoint" transform="translate(0,-8.5)"><text x="408.82" y="21.75" text-anchor="middle" style="font-family: Inter, Helvetica, Arial, sans-serif; font-size: 10px; fill: rgb(255, 152, 0); fill-opacity: 1; white-space: pre;">28%</text></g></g></g><g class="trace scatter tracef65acf" style="stroke-miterlimit: 2; opacity: 1;"><g class="fills"/><g class="errorbars"/><g class="lines"><path class="js-line" d="M26.78,197.19L154.13,179.65L281.47,147.26L408.82,121.62" style="vector-effect: none; fill: none; stroke: rgb(33, 150, 243); stroke-opacity: 1; stroke-width: 2.5px; opacity: 1;"/></g><g class="points"><path class="point" transform="translate(26.78,197.19)" d="M4,0A4,4 0 1,1 0,-4A4,4 0 0,1 4,0Z" style="opacity: 1; stroke-width: 0px; fill: rgb(33, 150, 243); fill-opacity: 1;"/><path class="point" transform="translate(154.13,179.65)" d="M4,0A4,4 0 1,1 0,-4A4,4 0 0,1 4,0Z" style="opacity: 1; stroke-width: 0px; fill: rgb(33, 150, 243); fill-opacity: 1;"/><path class="point" transform="translate(281.47,147.26)" d="M4,0A4,4 0 1,1 0,-4A4,4 0 0,1 4,0Z" style="opacity: 1; stroke-width: 0px; fill: rgb(33, 150, 243); fill-opacity: 1;"/><path class="point" transform="translate(408.82,121.62)" d="M4,0A4,4 0 1,1 0,-4A4,4 0 0,1 4,0Z" style="opacity: 1; stroke-width: 0px; fill: rgb(33, 150, 243); fill-opacity: 1;"/></g><g class="text"><g class="textpoint" transform="translate(0,-8.5)"><text x="26.78" y="197.19" text-anchor="middle" style="font-family: Inter, Helvetica, Arial, sans-serif; font-size: 10px; fill: rgb(33, 150, 243); fill-opacity: 1; white-space: pre;">15%</text></g><g class="textpoint"/><g class="textpoint"/><g class="textpoint" transform="translate(0,-8.5)"><text x="408.82" y="121.62" text-anchor="middle" style="font-family: Inter, Helvetica, Arial, sans-serif; font-size: 10px; fill: rgb(33, 150, 243); fill-opacity: 1; white-space: pre;">20%</text></g></g></g><g class="trace scatter traceeba5c4" style="stroke-miterlimit: 2; opacity: 1;"><g class="fills"/><g class="errorbars"/><g class="lines"><path class="js-line" d="M26.78,299.75L154.13,287.61L281.47,264.67L408.82,251.17" style="vector-effect: none; fill: none; stroke: rgb(156, 39, 176); stroke-opacity: 1; stroke-width: 2.5px; opacity: 1;"/></g><g class="points"><path class="point" transform="translate(26.78,299.75)" d="M4,0A4,4 0 1,1 0,-4A4,4 0 0,1 4,0Z" style="opacity: 1; stroke-width: 0px; fill: rgb(156, 39, 176); fill-opacity: 1;"/><path class="point" transform="translate(154.13,287.61)" d="M4,0A4,4 0 1,1 0,-4A4,4 0 0,1 4,0Z" style="opacity: 1; stroke-width: 0px; fill: rgb(156, 39, 176); fill-opacity: 1;"/><path class="point" transform="translate(281.47,264.67)" d="M4,0A4,4 0 1,1 0,-4A4,4 0 0,1 4,0Z" style="opacity: 1; stroke-width: 0px; fill: rgb(156, 39, 176); fill-opacity: 1;"/><path class="point" transform="translate(408.82,251.17)" d="M4,0A4,4 0 1,1 0,-4A4,4 0 0,1 4,0Z" style="opacity: 1; stroke-width: 0px; fill: rgb(156, 39, 176); fill-opacity: 1;"/></g><g class="text"><g class="textpoint" transform="translate(0,-8.5)"><text x="26.78" y="299.75" text-anchor="middle" style="font-family: Inter, Helvetica, Arial, sans-serif; font-size: 10px; fill: rgb(156, 39, 176); fill-opacity: 1; white-space: pre;">7%</text></g><g class="textpoint"/><g class="textpoint"/><g class="textpoint" transform="translate(0,-8.5)"><text x="408.82" y="251.17" text-anchor="middle" style="font-family: Inter, Helvetica, Arial, sans-serif; font-size: 10px; fill: rgb(156, 39, 176); fill-opacity: 1; white-space: pre;">11%</text></g></g></g><g class="trace scatter tracea24e94" style="stroke-miterlimit: 2; opacity: 1;"><g class="fills"/><g class="errorbars"/><g class="lines"><path class="js-line" d="M26.78,313.25L154.13,303.8L281.47,286.26L408.82,275.46" style="vector-effect: none; fill: none; stroke: rgb(96, 125, 139); stroke-opacity: 1; stroke-width: 2.5px; opacity: 1;"/></g><g class="points"><path class="point" transform="translate(26.78,313.25)" d="M4,0A4,4 0 1,1 0,-4A4,4 0 0,1 4,0Z" style="opacity: 1; stroke-width: 0px; fill: rgb(96, 125, 139); fill-opacity: 1;"/><path class="point" transform="translate(154.13,303.8)" d="M4,0A4,4 0 1,1 0,-4A4,4 0 0,1 4,0Z" style="opacity: 1; stroke-width: 0px; fill: rgb(96, 125, 139); fill-opacity: 1;"/><path class="point" transform="translate(281.47,286.26)" d="M4,0A4,4 0 1,1 0,-4A4,4 0 0,1 4,0Z" style="opacity: 1; stroke-width: 0px; fill: rgb(96, 125, 139); fill-opacity: 1;"/><path class="point" transform="translate(408.82,275.46)" d="M4,0A4,4 0 1,1 0,-4A4,4 0 0,1 4,0Z" style="opacity: 1; stroke-width: 0px; fill: rgb(96, 125, 139); fill-opacity: 1;"/></g><g class="text"><g class="textpoint" transform="translate(0,-8.5)"><text x="26.78" y="313.25" text-anchor="middle" style="font-family: Inter, Helvetica, Arial, sans-serif; font-size: 10px; fill: rgb(96, 125, 139); fill-opacity: 1; white-space: pre;">6%</text></g><g class="textpoint"/><g class="textpoint"/><g class="textpoint" transform="translate(0,-8.5)"><text x="408.82" y="275.46" text-anchor="middle" style="font-family: Inter, Helvetica, Arial, sans-serif; font-size: 10px; fill: rgb(96, 125, 139); fill-opacity: 1; white-space: pre;">9%</text></g></g></g></g></g></g><g class="zerolinelayer-above"/><path class="xlines-above crisp" d="M0,0" style="fill: none;"/><path class="ylines-above crisp" d="M0,0" style="fill: none;"/><g class="overlines-above"/><g class="xaxislayer-above"><g class="x2tick"><text text-anchor="middle" x="0" y="435" transform="translate(861.1800000000001,0)" style="font-family: Inter, Helvetica, Arial, sans-serif; font-size: 14px; fill: rgb(68, 68, 68); fill-opacity: 1; white-space: pre;">2021</text></g><g class="x2tick"><text text-anchor="middle" x="0" y="435" style="font-family: Inter, Helvetica, Arial, sans-serif; font-size: 14px; fill: rgb(68, 68, 68); fill-opacity: 1; white-space: pre;" transform="translate(988.5300000000001,0)">2022</text></g><g class="x2tick"><text text-anchor="middle" x="0" y="435" style="font-family: Inter, Helvetica, Arial, sans-serif; font-size: 14px; fill: rgb(68, 68, 68); fill-opacity: 1; white-space: pre;" transform="translate(1115.8700000000001,0)">2023</text></g><g class="x2tick"><text text-anchor="middle" x="0" y="435" style="font-family: Inter, Helvetica, Arial, sans-serif; font-size: 14px; fill: rgb(68, 68, 68); fill-opacity: 1; white-space: pre;" transform="translate(1243.22,0)">2024</text></g></g><g class="yaxislayer-above"><g class="y2tick"><text text-anchor="end" x="833.4000000000001" y="4.8999999999999995" transform="translate(0,415.79)" style="font-family: Inter, Helvetica, Arial, sans-serif; font-size: 14px; fill: rgb(68, 68, 68); fill-opacity: 1; white-space: pre;">5</text></g><g class="y2tick"><text text-anchor="end" x="833.4000000000001" y="4.8999999999999995" style="font-family: Inter, Helvetica, Arial, sans-serif; font-size: 14px; fill: rgb(68, 68, 68); fill-opacity: 1; white-space: pre;" transform="translate(0,348.32)">10</text></g><g class="y2tick"><text text-anchor="end" x="833.4000000000001" y="4.8999999999999995" style="font-family: Inter, Helvetica, Arial, sans-serif; font-size: 14px; fill: rgb(68, 68, 68); fill-opacity: 1; white-space: pre;" transform="translate(0,280.84000000000003)">15</text></g><g class="y2tick"><text text-anchor="end" x="833.4000000000001" y="4.8999999999999995" style="font-family: Inter, Helvetica, Arial, sans-serif; font-size: 14px; fill: rgb(68, 68, 68); fill-opacity: 1; white-space: pre;" transform="translate(0,213.36)">20</text></g><g class="y2tick"><text text-anchor="end" x="833.4000000000001" y="4.8999999999999995" style="font-family: Inter, Helvetica, Arial, sans-serif; font-size: 14px; fill: rgb(68, 68, 68); fill-opacity: 1; white-space: pre;" transform="translate(0,145.89)">25</text></g></g><g class="overaxes-above"/></g></g><g class="polarlayer"/><g class="smithlayer"/><g class="ternarylayer"/><g class="geolayer"/><g class="funnelarealayer"/><g class="pielayer"/><g class="iciclelayer"/><g class="treemaplayer"/><g class="sunburstlayer"/><g class="glimages"/><defs id="topdefs-36d9fe"><g class="clips"/><clipPath id="legend36d9fe"><rect width="759" height="29" x="0" y="0"/></clipPath></defs><g class="layer-above"><g class="imagelayer"/><g class="shapelayer"/></g><g class="infolayer"><g class="legend" pointer-events="all" transform="translate(98.50000000000006,424.50000000000006)"><rect class="bg" shape-rendering="crispEdges" style="stroke: rgb(68, 68, 68); stroke-opacity: 1; fill: rgb(255, 255, 255); fill-opacity: 1; stroke-width: 0px;" width="759" height="29" x="0" y="0"/><g class="scrollbox" transform="" clip-path="url(#legend36d9fe)"><g class="groups" transform=""><g class="traces" transform="translate(0,14.5)" style="opacity: 1;"><text class="legendtext" text-anchor="start" x="40" y="4.29" style="font-family: Inter, Helvetica, Arial, sans-serif; font-size: 11px; fill: rgb(68, 68, 68); fill-opacity: 1; white-space: pre;">Heating Oil</text><g class="layers" style="opacity: 1;"><g class="legendfill"/><g class="legendlines"/><g class="legendsymbols"><g class="legendpoints"><path class="legendundefined" d="M6,6H-6V-6H6Z" transform="translate(20,0)" style="stroke-width: 0px; fill: rgb(139, 69, 19); fill-opacity: 1;"/></g></g></g><rect class="legendtoggle" x="0" y="-9.5" width="99.71875" height="19" style="fill: rgb(0, 0, 0); fill-opacity: 0;"/></g></g><g class="groups" transform="translate(102.21875,0)"><g class="traces" transform="translate(0,14.5)" style="opacity: 1;"><text class="legendtext" text-anchor="start" x="40" y="4.29" style="font-family: Inter, Helvetica, Arial, sans-serif; font-size: 11px; fill: rgb(68, 68, 68); fill-opacity: 1; white-space: pre;">Gas</text><g class="layers" style="opacity: 1;"><g class="legendfill"/><g class="legendlines"/><g class="legendsymbols"><g class="legendpoints"><path class="legendundefined" d="M6,6H-6V-6H6Z" transform="translate(20,0)" style="stroke-width: 0px; fill: rgb(255, 107, 53); fill-opacity: 1;"/></g></g></g><rect class="legendtoggle" x="0" y="-9.5" width="62.703125" height="19" style="fill: rgb(0, 0, 0); fill-opacity: 0;"/></g></g><g class="groups" transform="translate(167.421875,0)"><g class="traces" transform="translate(0,14.5)" style="opacity: 1;"><text class="legendtext" text-anchor="start" x="40" y="4.29" style="font-family: Inter, Helvetica, Arial, sans-serif; font-size: 11px; fill: rgb(68, 68, 68); fill-opacity: 1; white-space: pre;">Heat Pump</text><g class="layers" style="opacity: 1;"><g class="legendfill"/><g class="legendlines"/><g class="legendsymbols"><g class="legendpoints"><path class="legendundefined" d="M6,6H-6V-6H6Z" transform="translate(20,0)" style="stroke-width: 0px; fill: rgb(33, 150, 243); fill-opacity: 1;"/></g></g></g><rect class="legendtoggle" x="0" y="-9.5" width="99.96875" height="19" style="fill: rgb(0, 0, 0); fill-opacity: 0;"/></g></g><g class="groups" transform="translate(269.890625,0)"><g class="traces" transform="translate(0,14.5)" style="opacity: 1;"><text class="legendtext" text-anchor="start" x="40" y="4.29" style="font-family: Inter, Helvetica, Arial, sans-serif; font-size: 11px; fill: rgb(68, 68, 68); fill-opacity: 1; white-space: pre;">Wood</text><g class="layers" style="opacity: 1;"><g class="legendfill"/><g class="legendlines"/><g class="legendsymbols"><g class="legendpoints"><path class="legendundefined" d="M6,6H-6V-6H6Z" transform="translate(20,0)" style="stroke-width: 0px; fill: rgb(76, 175, 80); fill-opacity: 1;"/></g></g></g><rect class="legendtoggle" x="0" y="-9.5" width="72.71875" height="19" style="fill: rgb(0, 0, 0); fill-opacity: 0;"/></g></g><g class="groups" transform="translate(345.109375,0)"><g class="traces" transform="translate(0,14.5)" style="opacity: 1;"><text class="legendtext" text-anchor="start" x="40" y="4.29" style="font-family: Inter, Helvetica, Arial, sans-serif; font-size: 11px; fill: rgb(68, 68, 68); fill-opacity: 1; white-space: pre;">Electricity</text><g class="layers" style="opacity: 1;"><g class="legendfill"/><g class="legendlines"/><g class="legendsymbols"><g class="legendpoints"><path class="legendundefined" d="M6,6H-6V-6H6Z" transform="translate(20,0)" style="stroke-width: 0px; fill: rgb(255, 193, 7); fill-opacity: 1;"/></g></g></g><rect class="legendtoggle" x="0" y="-9.5" width="93.9375" height="19" style="fill: rgb(0, 0, 0); fill-opacity: 0;"/></g></g><g class="groups" transform="translate(441.546875,0)"><g class="traces" transform="translate(0,14.5)" style="opacity: 1;"><text class="legendtext" text-anchor="start" x="40" y="4.29" style="font-family: Inter, Helvetica, Arial, sans-serif; font-size: 11px; fill: rgb(68, 68, 68); fill-opacity: 1; white-space: pre;">District Heating</text><g class="layers" style="opacity: 1;"><g class="legendfill"/><g class="legendlines"/><g class="legendsymbols"><g class="legendpoints"><path class="legendundefined" d="M6,6H-6V-6H6Z" transform="translate(20,0)" style="stroke-width: 0px; fill: rgb(156, 39, 176); fill-opacity: 1;"/></g></g></g><rect class="legendtoggle" x="0" y="-9.5" width="122.78125" height="19" style="fill: rgb(0, 0, 0); fill-opacity: 0;"/></g></g><g class="groups" transform="translate(566.828125,0)"><g class="traces" transform="translate(0,14.5)" style="opacity: 1;"><text class="legendtext" text-anchor="start" x="40" y="4.29" style="font-family: Inter, Helvetica, Arial, sans-serif; font-size: 11px; fill: rgb(68, 68, 68); fill-opacity: 1; white-space: pre;">Solar Thermal</text><g class="layers" style="opacity: 1;"><g class="legendfill"/><g class="legendlines"/><g class="legendsymbols"><g class="legendpoints"><path class="legendundefined" d="M6,6H-6V-6H6Z" transform="translate(20,0)" style="stroke-width: 0px; fill: rgb(0, 188, 212); fill-opacity: 1;"/></g></g></g><rect class="legendtoggle" x="0" y="-9.5" width="115.046875" height="19" style="fill: rgb(0, 0, 0); fill-opacity: 0;"/></g></g><g class="groups" transform="translate(684.375,0)"><g class="traces" transform="translate(0,14.5)" style="opacity: 1;"><text class="legendtext" text-anchor="start" x="40" y="4.29" style="font-family: Inter, Helvetica, Arial, sans-serif; font-size: 11px; fill: rgb(68, 68, 68); fill-opacity: 1; white-space: pre;">Other</text><g class="layers" style="opacity: 1;"><g class="legendfill"/><g class="legendlines"/><g class="legendsymbols"><g class="legendpoints"><path class="legendundefined" d="M6,6H-6V-6H6Z" transform="translate(20,0)" style="stroke-width: 0px; fill: rgb(96, 125, 139); fill-opacity: 1;"/></g></g></g><rect class="legendtoggle" x="0" y="-9.5" width="71.578125" height="19" style="fill: rgb(0, 0, 0); fill-opacity: 0;"/></g></g></g><rect class="scrollbar" rx="20" ry="3" width="0" height="0" style="fill: rgb(128, 139, 164); fill-opacity: 1;" x="0" y="0"/></g><g class="g-gtitle"/><g class="g-xtitle"><text class="xtitle" x="436.20000000000005" y="469" text-anchor="middle" style="opacity: 1; font-family: Inter, Helvetica, Arial, sans-serif; font-size: 13px; fill: rgb(68, 68, 68); fill-opacity: 1; white-space: pre;">Share (%)</text></g><g class="g-x2title"><text class="x2title" x="1052.2" y="469" text-anchor="middle" style="opacity: 1; font-family: Inter, Helvetica, Arial, sans-serif; font-size: 13px; fill: rgb(68, 68, 68); fill-opacity: 1; white-space: pre;">Year</text></g><g class="g-ytitle"/><g class="g-y2title"><text class="y2title" transform="rotate(-90,798.4000000000001,252.5)" x="798.4000000000001" y="252.5" text-anchor="middle" style="opacity: 1; font-family: Inter, Helvetica, Arial, sans-serif; font-size: 13px; fill: rgb(68, 68, 68); fill-opacity: 1; white-space: pre;">Heat Pump Share (%)</text></g><g class="annotation" data-index="0" style="opacity: 1;"><g class="annotation-text-g" transform="rotate(0,436.20000000000005,72.99999999999999)"><g class="cursor-pointer" transform="translate(267,61)"><rect class="bg" x="0.5" y="0.5" width="338" height="23" style="stroke-width: 1px; stroke: rgb(0, 0, 0); stroke-opacity: 0; fill: rgb(0, 0, 0); fill-opacity: 0;"/><text class="annotation-text" text-anchor="middle" x="169.5" y="18" style="font-family: Inter, Helvetica, Arial, sans-serif; font-size: 16px; fill: rgb(68, 68, 68); fill-opacity: 1; white-space: pre;">Heating Source by Building Category (2024)</text></g></g></g><g class="annotation" data-index="1" style="opacity: 1;"><g class="annotation-text-g" transform="rotate(0,1052.2,72.99999999999999)"><g class="cursor-pointer" transform="translate(898,61)"><rect class="bg" x="0.5" y="0.5" width="308" height="23" style="stroke-width: 1px; stroke: rgb(0, 0, 0); stroke-opacity: 0; fill: rgb(0, 0, 0); fill-opacity: 0;"/><text class="annotation-text" text-anchor="middle" x="154.359375" y="18" style="font-family: Inter, Helvetica, Arial, sans-serif; font-size: 16px; fill: rgb(68, 68, 68); fill-opacity: 1; white-space: pre;">Heat Pump Adoption Trend (2021–2024)</text></g></g></g><g class="annotation" data-index="2" style="opacity: 1;"><g class="annotation-text-g" transform="rotate(0,672.8199999999999,378.13)"><g class="cursor-pointer" transform="translate(651,370)"><rect class="bg" x="0.5" y="0.5" width="43" height="15" style="stroke-width: 1px; stroke: rgb(0, 0, 0); stroke-opacity: 0; fill: rgb(0, 0, 0); fill-opacity: 0;"/><text class="annotation-text" text-anchor="middle" x="22.203125" y="12" style="font-family: Inter, Helvetica, Arial, sans-serif; font-size: 10px; fill: rgb(68, 68, 68); fill-opacity: 1; white-space: pre;"><tspan style="font-weight:bold">n=1015k</tspan></text></g></g></g><g class="annotation" data-index="3" style="opacity: 1;"><g class="annotation-text-g" transform="rotate(0,672.8199999999999,294.38)"><g class="cursor-pointer" transform="translate(653,286)"><rect class="bg" x="0.5" y="0.5" width="39" height="15" style="stroke-width: 1px; stroke: rgb(0, 0, 0); stroke-opacity: 0; fill: rgb(0, 0, 0); fill-opacity: 0;"/><text class="annotation-text" text-anchor="middle" x="20.046875" y="12" style="font-family: Inter, Helvetica, Arial, sans-serif; font-size: 10px; fill: rgb(68, 68, 68); fill-opacity: 1; white-space: pre;"><tspan style="font-weight:bold">n=501k</tspan></text></g></g></g><g class="annotation" data-index="4" style="opacity: 1;"><g class="annotation-text-g" transform="rotate(0,672.8199999999999,210.63)"><g class="cursor-pointer" transform="translate(653,203)"><rect class="bg" x="0.5" y="0.5" width="39" height="15" style="stroke-width: 1px; stroke: rgb(0, 0, 0); stroke-opacity: 0; fill: rgb(0, 0, 0); fill-opacity: 0;"/><text class="annotation-text" text-anchor="middle" x="20.0625" y="12" style="font-family: Inter, Helvetica, Arial, sans-serif; font-size: 10px; fill: rgb(68, 68, 68); fill-opacity: 1; white-space: pre;"><tspan style="font-weight:bold">n=199k</tspan></text></g></g></g><g class="annotation" data-index="5" style="opacity: 1;"><g class="annotation-text-g" transform="rotate(0,672.8199999999999,126.88)"><g class="cursor-pointer" transform="translate(655,119)"><rect class="bg" x="0.5" y="0.5" width="34" height="15" style="stroke-width: 1px; stroke: rgb(0, 0, 0); stroke-opacity: 0; fill: rgb(0, 0, 0); fill-opacity: 0;"/><text class="annotation-text" text-anchor="middle" x="17.5" y="12" style="font-family: Inter, Helvetica, Arial, sans-serif; font-size: 10px; fill: rgb(68, 68, 68); fill-opacity: 1; white-space: pre;"><tspan style="font-weight:bold">n=78k</tspan></text></g></g></g></g></svg>