<svg class="main-svg" xmlns="http://www.w3.org/2000/svg" xmlns:xlink="http://www.w3.org/1999/xlink" width="1000" height="550" style="" viewBox="0 0 1000 550"><rect x="0" y="0" width="1000" height="550" style="fill: rgb(255, 255, 255); fill-opacity: 1;"/><defs id="defs-ee6750"><g class="clips"><clipPath id="clipee6750xyplot" class="plotclip"><rect width="840" height="350"/></clipPath><clipPath class="axesclip" id="clipee6750x"><rect x="80" y="0" width="840" height="550"/></clipPath><clipPath class="axesclip" id="clipee6750y"><rect x="0" y="100" width="1000" height="350"/></clipPath><clipPath class="axesclip" id="clipee6750xy"><rect x="80" y="100" width="840" height="350"/></clipPath></g><g class="gradients"/><g class="patterns"/></defs><g class="bglayer"/><g class="layer-below"><g class="imagelayer"/><g class="shapelayer"/></g><g class="cartesianlayer"><g class="subplot xy"><g class="layer-subplot"><g class="shapelayer"/><g class="imagelayer"/></g><g class="minor-gridlayer"><g class="x"/><g class="y"/></g><g class="gridlayer"><g class="x"><path class="xgrid crisp" transform="translate(175.45,0)" d="M0,100v350" style="stroke: rgb(235, 240, 248); stroke-opacity: 1; stroke-width: 1px;"/><path class="xgrid crisp" transform="translate(270.90999999999997,0)" d="M0,100v350" style="stroke: rgb(235, 240, 248); stroke-opacity: 1; stroke-width: 1px;"/><path class="xgrid crisp" transform="translate(366.36,0)" d="M0,100v350" style="stroke: rgb(235, 240, 248); stroke-opacity: 1; stroke-width: 1px;"/><path class="xgrid crisp" transform="translate(461.82,0)" d="M0,100v350" style="stroke: rgb(235, 240, 248); stroke-opacity: 1; stroke-width: 1px;"/><path class="xgrid crisp" transform="translate(557.27,0)" d="M0,100v350" style="stroke: rgb(235, 240, 248); stroke-opacity: 1; stroke-width: 1px;"/><path class="xgrid crisp" transform="translate(652.73,0)" d="M0,100v350" style="stroke: rgb(235, 240, 248); stroke-opacity: 1; stroke-width: 1px;"/><path class="xgrid crisp" transform="translate(748.18,0)" d="M0,100v350" style="stroke: rgb(235, 240, 248); stroke-opacity: 1; stroke-width: 1px;"/><path class="xgrid crisp" transform="translate(843.64,0)" d="M0,100v350" style="stroke: rgb(235, 240, 248); stroke-opacity: 1; stroke-width: 1px;"/></g><g class="y"><path class="ygrid crisp" transform="translate(0,387.58)" d="M80,0h840" style="stroke: rgb(235, 240, 248); stroke-opacity: 1; stroke-width: 1px;"/><path class="ygrid crisp" transform="translate(0,325.15999999999997)" d="M80,0h840" style="stroke: rgb(235, 240, 248); stroke-opacity: 1; stroke-width: 1px;"/><path class="ygrid crisp" transform="translate(0,262.75)" d="M80,0h840" style="stroke: rgb(235, 240, 248); stroke-opacity: 1; stroke-width: 1px;"/><path class="ygrid crisp" transform="translate(0,200.32999999999998)" d="M80,0h840" style="stroke: rgb(235, 240, 248); stroke-opacity: 1; stroke-width: 1px;"/><path class="ygrid crisp" transform="translate(0,137.91)" d="M80,0h840" style="stroke: rgb(235, 240, 248); stroke-opacity: 1; stroke-width: 1px;"/></g></g><g class="zerolinelayer"><path class="yzl zl crisp" transform="translate(0,450)" d="M80,0h840" style="stroke: rgb(235, 240, 248); stroke-opacity: 1; stroke-width: 2px;"/></g><g class="layer-between"><g class="shapelayer"/><g class="imagelayer"/></g><path class="xlines-below"/><path class="ylines-below"/><g class="overlines-below"/><g class="xaxislayer-below"/><g class="yaxislayer-below"/><g class="overaxes-below"/><g class="overplot"><g class="xy" transform="translate(80,100)" clip-path="url(#clipee6750xyplot)"><g class="scatterlayer mlayer"><g class="trace scatter trace2525d6" style="stroke-miterlimit: 2;"><g class="fills"><g><path class="js-fill" d="M840,350L0,350L0,144.16L19.09,159.41L38.18,168.33L57.27,160.57L76.36,156.62L95.45,159.35L114.55,154.54L133.64,164.92L152.73,169.57L171.82,179.71L190.91,178.8L210,171.25L229.09,172.21L248.18,183.62L267.27,193.11L286.36,183.02L305.45,180.42L324.55,190.46L343.64,185.17L362.73,191.05L381.82,204.59L400.91,196.64L420,202.92L439.09,194.87L458.18,196.43L477.27,194.93L496.36,201.33L515.45,221.61L534.55,214.09L553.64,218.34L572.73,210.35L591.82,241.26L610.91,232.37L630,225.78L649.09,256.09L668.18,250.73L687.27,248.35L706.36,254.86L725.45,265.14L744.55,266.68L763.64,275.76L782.73,267.45L801.82,285.93L820.91,287.73L840,290.29" style="fill: rgb(139, 69, 19); fill-opacity: 0.5; stroke-width: 0;"/></g><g><path class="js-fill" d="M0,98.88L19.09,113.7L38.18,123.5L57.27,113.61L76.36,105.41L95.45,105.6L114.55,99.23L133.64,107.89L152.73,112.65L171.82,121.85L190.91,119.42L210,109.02L229.09,108.54L248.18,119.93L267.27,129.33L286.36,117.04L305.45,111.79L324.55,123.69L343.64,117.21L362.73,121.13L381.82,133.91L400.91,124.37L420,129.7L439.09,119.92L458.18,119.52L477.27,115.72L496.36,121.78L515.45,143.08L534.55,133.66L553.64,137.8L572.73,126.68L591.82,160.64L610.91,150L630,141.46L649.09,173.96L668.18,166.49L687.27,162.73L706.36,168.63L725.45,179.59L744.55,181.18L763.64,188.79L782.73,175.8L801.82,197.69L820.91,200.43L840,201.23L840,290.29L820.91,287.73L801.82,285.93L782.73,267.45L763.64,275.76L744.55,266.68L725.45,265.14L706.36,254.86L687.27,248.35L668.18,250.73L649.09,256.09L630,225.78L610.91,232.37L591.82,241.26L572.73,210.35L553.64,218.34L534.55,214.09L515.45,221.61L496.36,201.33L477.27,194.93L458.18,196.43L439.09,194.87L420,202.92L400.91,196.64L381.82,204.59L362.73,191.05L343.64,185.17L324.55,190.46L305.45,180.42L286.36,183.02L267.27,193.11L248.18,183.62L229.09,172.21L210,171.25L190.91,178.8L171.82,179.71L152.73,169.57L133.64,164.92L114.55,154.54L95.45,159.35L76.36,156.62L57.27,160.57L38.18,168.33L19.09,159.41L0,144.16Z" style="fill: rgb(255, 193, 7); fill-opacity: 0.5; stroke-width: 0;"/></g></g><g class="errorbars"/><g class="lines"><path class="js-line" d="M0,144.16L19.09,159.41L38.18,168.33L57.27,160.57L76.36,156.62L95.45,159.35L114.55,154.54L133.64,164.92L152.73,169.57L171.82,179.71L190.91,178.8L210,171.25L229.09,172.21L248.18,183.62L267.27,193.11L286.36,183.02L305.45,180.42L324.55,190.46L343.64,185.17L362.73,191.05L381.82,204.59L400.91,196.64L420,202.92L439.09,194.87L458.18,196.43L477.27,194.93L496.36,201.33L515.45,221.61L534.55,214.09L553.64,218.34L572.73,210.35L591.82,241.26L610.91,232.37L630,225.78L649.09,256.09L668.18,250.73L687.27,248.35L706.36,254.86L725.45,265.14L744.55,266.68L763.64,275.76L782.73,267.45L801.82,285.93L820.91,287.73L840,290.29" style="vector-effect: none; fill: none; stroke: rgb(139, 69, 19); stroke-opacity: 1; stroke-width: 0.5px; opacity: 1;"/></g><g class="points"/><g class="text"/></g><g class="trace scatter trace6ea8d3" style="stroke-miterlimit: 2;"><g class="fills"><g><path class="js-fill" d="M0,84.69L19.09,98.46L38.18,106.62L57.27,94L76.36,83.35L95.45,82.43L114.55,75.24L133.64,81.59L152.73,84.44L171.82,91.69L190.91,86.72L210,71.69L229.09,69.46L267.27,91.8L286.36,74.01L305.45,63.65L324.55,80.03L343.64,71.69L362.73,73.13L381.82,88.23L400.91,76.63L420,82.35L439.09,69.39L458.18,67.35L477.27,62.14L496.36,70.34L515.45,93.86L534.55,80.4L553.64,84.45L572.73,66.14L591.82,109.24L610.91,90.94L630,77.51L649.09,120.75L668.18,108.62L687.27,101.45L706.36,107.97L725.45,121.94L744.55,121.46L763.64,129.98L782.73,109.6L801.82,141.14L820.91,146.97L840,147.98L840,201.23L820.91,200.43L801.82,197.69L782.73,175.8L763.64,188.79L744.55,181.18L725.45,179.59L706.36,168.63L687.27,162.73L668.18,166.49L649.09,173.96L630,141.46L610.91,150L591.82,160.64L572.73,126.68L553.64,137.8L534.55,133.66L515.45,143.08L496.36,121.78L477.27,115.72L458.18,119.52L439.09,119.92L420,129.7L400.91,124.37L381.82,133.91L362.73,121.13L343.64,117.21L324.55,123.69L305.45,111.79L286.36,117.04L267.27,129.33L248.18,119.93L229.09,108.54L210,109.02L190.91,119.42L171.82,121.85L152.73,112.65L133.64,107.89L114.55,99.23L95.45,105.6L76.36,105.41L57.27,113.61L38.18,123.5L19.09,113.7L0,98.88Z" style="fill: rgb(255, 107, 53); fill-opacity: 0.5; stroke-width: 0;"/></g></g><g class="errorbars"/><g class="lines"><path class="js-line" d="M0,98.88L19.09,113.7L38.18,123.5L57.27,113.61L76.36,105.41L95.45,105.6L114.55,99.23L133.64,107.89L152.73,112.65L171.82,121.85L190.91,119.42L210,109.02L229.09,108.54L248.18,119.93L267.27,129.33L286.36,117.04L305.45,111.79L324.55,123.69L343.64,117.21L362.73,121.13L381.82,133.91L400.91,124.37L420,129.7L439.09,119.92L458.18,119.52L477.27,115.72L496.36,121.78L515.45,143.08L534.55,133.66L553.64,137.8L572.73,126.68L591.82,160.64L610.91,150L630,141.46L649.09,173.96L668.18,166.49L687.27,162.73L706.36,168.63L725.45,179.59L744.55,181.18L763.64,188.79L782.73,175.8L801.82,197.69L820.91,200.43L840,201.23" style="vector-effect: none; fill: none; stroke: rgb(255, 193, 7); stroke-opacity: 1; stroke-width: 0.5px; opacity: 1;"/></g><g class="points"/><g class="text"/></g><g class="trace scatter trace66a830" style="stroke-miterlimit: 2;"><g class="fills"><g><path class="js-fill" d="M0,54.84L19.09,70.16L38.18,79.52L57.27,66.57L76.36,54.65L95.45,53.52L114.55,47.14L133.64,53.43L152.73,58.05L171.82,65.52L190.91,60.47L210,43.08L229.09,42.29L248.18,53.6L267.27,67.45L286.36,48.37L305.45,36.03L324.55,55.8L343.64,46.94L362.73,48.73L381.82,65.77L400.91,52.92L420,59.91L439.09,45.58L458.18,43.92L477.27,37.86L496.36,46.14L515.45,71.75L534.55,55.86L553.64,59.66L572.73,39.01L591.82,86.83L610.91,66.3L630,50.16L649.09,98.97L668.18,84.96L687.27,75.96L706.36,82.83L725.45,98.23L744.55,97.68L763.64,107.62L782.73,83.95L801.82,118.78L820.91,123.74L840,124.32L840,147.98L820.91,146.97L801.82,141.14L782.73,109.6L763.64,129.98L744.55,121.46L725.45,121.94L706.36,107.97L687.27,101.45L668.18,108.62L649.09,120.75L630,77.51L610.91,90.94L591.82,109.24L572.73,66.14L553.64,84.45L534.55,80.4L515.45,93.86L496.36,70.34L477.27,62.14L458.18,67.35L439.09,69.39L420,82.35L400.91,76.63L381.82,88.23L362.73,73.13L343.64,71.69L324.55,80.03L305.45,63.65L286.36,74.01L267.27,91.8L229.09,69.46L210,71.69L190.91,86.72L171.82,91.69L152.73,84.44L133.64,81.59L114.55,75.24L95.45,82.43L76.36,83.35L57.27,94L38.18,106.62L19.09,98.46L0,84.69Z" style="fill: rgb(76, 175, 80); fill-opacity: 0.5; stroke-width: 0;"/></g></g><g class="errorbars"/><g class="lines"><path class="js-line" d="M0,84.69L19.09,98.46L38.18,106.62L57.27,94L76.36,83.35L95.45,82.43L114.55,75.24L133.64,81.59L152.73,84.44L171.82,91.69L190.91,86.72L210,71.69L229.09,69.46L267.27,91.8L286.36,74.01L305.45,63.65L324.55,80.03L343.64,71.69L362.73,73.13L381.82,88.23L400.91,76.63L420,82.35L439.09,69.39L458.18,67.35L477.27,62.14L496.36,70.34L515.45,93.86L534.55,80.4L553.64,84.45L572.73,66.14L591.82,109.24L610.91,90.94L630,77.51L649.09,120.75L668.18,108.62L687.27,101.45L706.36,107.97L725.45,121.94L744.55,121.46L763.64,129.98L782.73,109.6L801.82,141.14L820.91,146.97L840,147.98" style="vector-effect: none; fill: none; stroke: rgb(255, 107, 53); stroke-opacity: 1; stroke-width: 0.5px; opacity: 1;"/></g><g class="points"/><g class="text"/></g><g class="trace scatter trace131fe9" style="stroke-miterlimit: 2;"><g class="fills"><g><path class="js-fill" d="M0,54.84L19.09,70.16L38.18,79.52L57.27,66.57L76.36,54.65L95.45,53.52L114.55,47.14L133.64,53.43L152.73,58.05L171.82,65.52L190.91,57.51L210,39.65L229.09,38.87L248.18,50.03L267.27,63.93L286.36,44.43L305.45,31.62L324.55,51.53L343.64,42.32L362.73,43.92L381.82,60.93L400.91,47.66L420,54.49L439.09,39.66L458.18,37.7L477.27,30.99L496.36,38.97L515.45,63.99L534.55,46.65L553.64,49.43L572.73,26.66L591.82,74.7L610.91,52.18L630,34.4L649.09,84.05L668.18,68.11L687.27,57.46L706.36,63.53L725.45,79.16L744.55,76.9L763.64,86.15L782.73,59.17L801.82,95.04L820.91,97.98L840,97.06L840,124.32L820.91,123.74L801.82,118.78L782.73,83.95L763.64,107.62L744.55,97.68L725.45,98.23L706.36,82.83L687.27,75.96L668.18,84.96L649.09,98.97L630,50.16L610.91,66.3L591.82,86.83L572.73,39.01L553.64,59.66L534.55,55.86L515.45,71.75L496.36,46.14L477.27,37.86L458.18,43.92L439.09,45.58L420,59.91L400.91,52.92L381.82,65.77L362.73,48.73L343.64,46.94L324.55,55.8L305.45,36.03L286.36,48.37L267.27,67.45L248.18,53.6L229.09,42.29L210,43.08L190.91,60.47L171.82,65.52L152.73,58.05L133.64,53.43L114.55,47.14L95.45,53.52L76.36,54.65L57.27,66.57L38.18,79.52L19.09,70.16L0,54.84Z" style="fill: rgb(0, 188, 212); fill-opacity: 0.5; stroke-width: 0;"/></g></g><g class="errorbars"/><g class="lines"><path class="js-line" d="M0,54.84L19.09,70.16L38.18,79.52L57.27,66.57L76.36,54.65L95.45,53.52L114.55,47.14L133.64,53.43L152.73,58.05L171.82,65.52L190.91,60.47L210,43.08L229.09,42.29L248.18,53.6L267.27,67.45L286.36,48.37L305.45,36.03L324.55,55.8L343.64,46.94L362.73,48.73L381.82,65.77L400.91,52.92L420,59.91L439.09,45.58L458.18,43.92L477.27,37.86L496.36,46.14L515.45,71.75L534.55,55.86L553.64,59.66L572.73,39.01L591.82,86.83L610.91,66.3L630,50.16L649.09,98.97L668.18,84.96L687.27,75.96L706.36,82.83L725.45,98.23L744.55,97.68L763.64,107.62L782.73,83.95L801.82,118.78L820.91,123.74L840,124.32" style="vector-effect: none; fill: none; stroke: rgb(76, 175, 80); stroke-opacity: 1; stroke-width: 0.5px; opacity: 1;"/></g><g class="points"/><g class="text"/></g><g class="trace scatter traced7c4fd" style="stroke-miterlimit: 2;"><g class="fills"><g><path class="js-fill" d="M0,52.14L19.09,67.38L38.18,76.53L57.27,62.92L76.36,50.58L95.45,49.33L114.55,42.6L152.73,52.94L171.82,60.33L190.91,51.97L210,33.22L229.09,32.51L248.18,44.19L267.27,58.3L286.36,38.37L305.45,25.18L324.55,44.68L343.64,35.33L362.73,37.57L381.82,54.94L400.91,41.23L420,47.98L439.09,33.44L458.18,31.27L477.27,24.24L496.36,32.11L515.45,57.81L534.55,39.66L553.64,42.38L572.73,18L591.82,67.33L610.91,44.26L630,25.48L649.09,75.96L668.18,58.71L687.27,48.15L706.36,53.88L725.45,69.77L744.55,66.2L763.64,75.36L782.73,47.19L801.82,84.4L820.91,86.45L840,84.5L840,97.06L820.91,97.98L801.82,95.04L782.73,59.17L763.64,86.15L744.55,76.9L725.45,79.16L706.36,63.53L687.27,57.46L668.18,68.11L649.09,84.05L630,34.4L610.91,52.18L591.82,74.7L572.73,26.66L553.64,49.43L534.55,46.65L515.45,63.99L496.36,38.97L477.27,30.99L458.18,37.7L439.09,39.66L420,54.49L400.91,47.66L381.82,60.93L362.73,43.92L343.64,42.32L324.55,51.53L305.45,31.62L286.36,44.43L267.27,63.93L248.18,50.03L229.09,38.87L210,39.65L190.91,57.51L171.82,65.52L152.73,58.05L133.64,53.43L114.55,47.14L95.45,53.52L76.36,54.65L57.27,66.57L38.18,79.52L19.09,70.16L0,54.84Z" style="fill: rgb(156, 39, 176); fill-opacity: 0.5; stroke-width: 0;"/></g></g><g class="errorbars"/><g class="lines"><path class="js-line" d="M0,54.84L19.09,70.16L38.18,79.52L57.27,66.57L76.36,54.65L95.45,53.52L114.55,47.14L133.64,53.43L152.73,58.05L171.82,65.52L190.91,57.51L210,39.65L229.09,38.87L248.18,50.03L267.27,63.93L286.36,44.43L305.45,31.62L324.55,51.53L343.64,42.32L362.73,43.92L381.82,60.93L400.91,47.66L420,54.49L439.09,39.66L458.18,37.7L477.27,30.99L496.36,38.97L515.45,63.99L534.55,46.65L553.64,49.43L572.73,26.66L591.82,74.7L610.91,52.18L630,34.4L649.09,84.05L668.18,68.11L687.27,57.46L706.36,63.53L725.45,79.16L744.55,76.9L763.64,86.15L782.73,59.17L801.82,95.04L820.91,97.98L840,97.06" style="vector-effect: none; fill: none; stroke: rgb(0, 188, 212); stroke-opacity: 1; stroke-width: 0.5px; opacity: 1;"/></g><g class="points"/><g class="text"/></g><g class="trace scatter trace2a9832" style="stroke-miterlimit: 2;"><g class="fills"><g><path class="js-fill" d="M0,47.51L19.09,63.56L38.18,72.55L76.36,47.86L95.45,46.65L114.55,40.25L133.64,46.11L152.73,51.54L171.82,59.12L190.91,51.18L210,32.28L229.09,31.73L248.18,43.53L267.27,57.7L286.36,37.8L305.45,24.85L324.55,44.4L343.64,35.15L362.73,37.4L381.82,54.78L400.91,41.07L420,47.82L439.09,33.28L458.18,30.77L477.27,23.74L496.36,31.61L515.45,57.31L534.55,39.16L553.64,41.88L572.73,17.5L591.82,66.96L610.91,43.89L630,25.1L649.09,75.71L668.18,58.46L687.27,47.9L706.36,53.75L725.45,69.64L744.55,66.07L763.64,75.24L782.73,47.06L801.82,84.34L820.91,86.38L840,84.45L840,84.5L820.91,86.45L801.82,84.4L782.73,47.19L763.64,75.36L744.55,66.2L725.45,69.77L706.36,53.88L687.27,48.15L668.18,58.71L649.09,75.96L630,25.48L610.91,44.26L591.82,67.33L572.73,18L553.64,42.38L534.55,39.66L515.45,57.81L496.36,32.11L477.27,24.24L458.18,31.27L439.09,33.44L420,47.98L400.91,41.23L381.82,54.94L362.73,37.57L343.64,35.33L324.55,44.68L305.45,25.18L286.36,38.37L267.27,58.3L248.18,44.19L229.09,32.51L210,33.22L190.91,51.97L171.82,60.33L152.73,52.94L114.55,42.6L95.45,49.33L76.36,50.58L57.27,62.92L38.18,76.53L19.09,67.38L0,52.14Z" style="fill: rgb(96, 125, 139); fill-opacity: 0.5; stroke-width: 0;"/></g></g><g class="errorbars"/><g class="lines"><path class="js-line" d="M0,52.14L19.09,67.38L38.18,76.53L57.27,62.92L76.36,50.58L95.45,49.33L114.55,42.6L152.73,52.94L171.82,60.33L190.91,51.97L210,33.22L229.09,32.51L248.18,44.19L267.27,58.3L286.36,38.37L305.45,25.18L324.55,44.68L343.64,35.33L362.73,37.57L381.82,54.94L400.91,41.23L420,47.98L439.09,33.44L458.18,31.27L477.27,24.24L496.36,32.11L515.45,57.81L534.55,39.66L553.64,42.38L572.73,18L591.82,67.33L610.91,44.26L630,25.48L649.09,75.96L668.18,58.71L687.27,48.15L706.36,53.88L725.45,69.77L744.55,66.2L763.64,75.36L782.73,47.19L801.82,84.4L820.91,86.45L840,84.5" style="vector-effect: none; fill: none; stroke: rgb(156, 39, 176); stroke-opacity: 1; stroke-width: 0.5px; opacity: 1;"/></g><g class="points"/><g class="text"/></g><g class="trace scatter trace95ac8b" style="stroke-miterlimit: 2;"><g class="fills"><g><path class="js-fill" d="M0,47.51L19.09,63.56L38.18,72.55L76.36,47.86L95.45,46.65L114.55,40.25L133.64,46.11L152.73,51.54L171.82,59.12L190.91,51.18L210,32.28L229.09,31.73L248.18,43.53L267.27,57.7L286.36,37.8L305.45,24.85L324.55,44.4L343.64,35.15L362.73,37.4L381.82,54.78L400.91,41.07L420,47.82L439.09,33.28L458.18,30.77L477.27,23.74L496.36,31.61L515.45,57.31L534.55,39.16L553.64,41.88L572.73,17.5L591.82,66.96L610.91,43.89L630,25.1L649.09,75.71L668.18,58.46L687.27,47.9L706.36,53.75L725.45,69.64L744.55,66.07L763.64,75.24L782.73,47.06L801.82,84.34L820.91,86.38L840,84.45L840,84.45L820.91,86.38L801.82,84.34L782.73,47.06L763.64,75.24L744.55,66.07L725.45,69.64L706.36,53.75L687.27,47.9L668.18,58.46L649.09,75.71L630,25.1L610.91,43.89L591.82,66.96L572.73,17.5L553.64,41.88L534.55,39.16L515.45,57.31L496.36,31.61L477.27,23.74L458.18,30.77L439.09,33.28L420,47.82L400.91,41.07L381.82,54.78L362.73,37.4L343.64,35.15L324.55,44.4L305.45,24.85L286.36,37.8L267.27,57.7L248.18,43.53L229.09,31.73L210,32.28L190.91,51.18L171.82,59.12L152.73,51.54L133.64,46.11L114.55,40.25L95.45,46.65L76.36,47.86L38.18,72.55L19.09,63.56L0,47.51Z" style="fill: rgb(121, 85, 72); fill-opacity: 0.5; stroke-width: 0;"/></g></g><g class="errorbars"/><g class="lines"><path class="js-line" d="M0,47.51L19.09,63.56L38.18,72.55L76.36,47.86L95.45,46.65L114.55,40.25L133.64,46.11L152.73,51.54L171.82,59.12L190.91,51.18L210,32.28L229.09,31.73L248.18,43.53L267.27,57.7L286.36,37.8L305.45,24.85L324.55,44.4L343.64,35.15L362.73,37.4L381.82,54.78L400.91,41.07L420,47.82L439.09,33.28L458.18,30.77L477.27,23.74L496.36,31.61L515.45,57.31L534.55,39.16L553.64,41.88L572.73,17.5L591.82,66.96L610.91,43.89L630,25.1L649.09,75.71L668.18,58.46L687.27,47.9L706.36,53.75L725.45,69.64L744.55,66.07L763.64,75.24L782.73,47.06L801.82,84.34L820.91,86.38L840,84.45" style="vector-effect: none; fill: none; stroke: rgb(96, 125, 139); stroke-opacity: 1; stroke-width: 0.5px; opacity: 1;"/></g><g class="points"/><g class="text"/></g><g class="trace scatter trace4d2990" style="stroke-miterlimit: 2;"><g class="fills"/><g class="errorbars"/><g class="lines"><path class="js-line" d="M0,47.51L19.09,63.56L38.18,72.55L76.36,47.86L95.45,46.65L114.55,40.25L133.64,46.11L152.73,51.54L171.82,59.12L190.91,51.18L210,32.28L229.09,31.73L248.18,43.53L267.27,57.7L286.36,37.8L305.45,24.85L324.55,44.4L343.64,35.15L362.73,37.4L381.82,54.78L400.91,41.07L420,47.82L439.09,33.28L458.18,30.77L477.27,23.74L496.36,31.61L515.45,57.31L534.55,39.16L553.64,41.88L572.73,17.5L591.82,66.96L610.91,43.89L630,25.1L649.09,75.71L668.18,58.46L687.27,47.9L706.36,53.75L725.45,69.64L744.55,66.07L763.64,75.24L782.73,47.06L801.82,84.34L820.91,86.38L840,84.45" style="vector-effect: none; fill: none; stroke: rgb(121, 85, 72); stroke-opacity: 1; stroke-width: 0.5px; opacity: 1;"/></g><g class="points"/><g class="text"/></g></g></g></g><g class="zerolinelayer-above"/><path class="xlines-above crisp" d="M0,0" style="fill: none;"/><path class="ylines-above crisp" d="M0,0" style="fill: none;"/><g class="overlines-above"/><g class="xaxislayer-above"><g class="xtick"><text text-anchor="middle" x="0" y="465" transform="translate(80,0)" style="font-family: 'Open Sans', verdana, arial, sans-serif; font-size: 14px; fill: rgb(42, 63, 95); fill-opacity: 1; white-space: pre;">1980</text></g><g class="xtick"><text text-anchor="middle" x="0" y="465" style="font-family: 'Open Sans', verdana, arial, sans-serif; font-size: 14px; fill: rgb(42, 63, 95); fill-opacity: 1; white-space: pre;" transform="translate(175.45,0)">1985</text></g><g class="xtick"><text text-anchor="middle" x="0" y="465" style="font-family: 'Open Sans', verdana, arial, sans-serif; font-size: 14px; fill: rgb(42, 63, 95); fill-opacity: 1; white-space: pre;" transform="translate(270.90999999999997,0)">1990</text></g><g class="xtick"><text text-anchor="middle" x="0" y="465" style="font-family: 'Open Sans', verdana, arial, sans-serif; font-size: 14px; fill: rgb(42, 63, 95); fill-opacity: 1; white-space: pre;" transform="translate(366.36,0)">1995</text></g><g class="xtick"><text text-anchor="middle" x="0" y="465" style="font-family: 'Open Sans', verdana, arial, sans-serif; font-size: 14px; fill: rgb(42, 63, 95); fill-opacity: 1; white-space: pre;" transform="translate(461.82,0)">2000</text></g><g class="xtick"><text text-anchor="middle" x="0" y="465" style="font-family: 'Open Sans', verdana, arial, sans-serif; font-size: 14px; fill: rgb(42, 63, 95); fill-opacity: 1; white-space: pre;" transform="translate(557.27,0)">2005</text></g><g class="xtick"><text text-anchor="middle" x="0" y="465" style="font-family: 'Open Sans', verdana, arial, sans-serif; font-size: 14px; fill: rgb(42, 63, 95); fill-opacity: 1; white-space: pre;" transform="translate(652.73,0)">2010</text></g><g class="xtick"><text text-anchor="middle" x="0" y="465" style="font-family: 'Open Sans', verdana, arial, sans-serif; font-size: 14px; fill: rgb(42, 63, 95); fill-opacity: 1; white-space: pre;" transform="translate(748.18,0)">2015</text></g><g class="xtick"><text text-anchor="middle" x="0" y="465" style="font-family: 'Open Sans', verdana, arial, sans-serif; font-size: 14px; fill: rgb(42, 63, 95); fill-opacity: 1; white-space: pre;" transform="translate(843.64,0)">2020</text></g></g><g class="yaxislayer-above"><g class="ytick"><text text-anchor="end" x="79" y="4.8999999999999995" transform="translate(0,450)" style="font-family: 'Open Sans', verdana, arial, sans-serif; font-size: 14px; fill: rgb(42, 63, 95); fill-opacity: 1; white-space: pre;">0</text></g><g class="ytick"><text text-anchor="end" x="79" y="4.8999999999999995" style="font-family: 'Open Sans', verdana, arial, sans-serif; font-size: 14px; fill: rgb(42, 63, 95); fill-opacity: 1; white-space: pre;" transform="translate(0,387.58)">50k</text></g><g class="ytick"><text text-anchor="end" x="79" y="4.8999999999999995" style="font-family: 'Open Sans', verdana, arial, sans-serif; font-size: 14px; fill: rgb(42, 63, 95); fill-opacity: 1; white-space: pre;" transform="translate(0,325.15999999999997)">100k</text></g><g class="ytick"><text text-anchor="end" x="79" y="4.8999999999999995" style="font-family: 'Open Sans', verdana, arial, sans-serif; font-size: 14px; fill: rgb(42, 63, 95); fill-opacity: 1; white-space: pre;" transform="translate(0,262.75)">150k</text></g><g class="ytick"><text text-anchor="end" x="79" y="4.8999999999999995" style="font-family: 'Open Sans', verdana, arial, sans-serif; font-size: 14px; fill: rgb(42, 63, 95); fill-opacity: 1; white-space: pre;" transform="translate(0,200.32999999999998)">200k</text></g><g class="ytick"><text text-anchor="end" x="79" y="4.8999999999999995" style="font-family: 'Open Sans', verdana, arial, sans-serif; font-size: 14px; fill: rgb(42, 63, 95); fill-opacity: 1; white-space: pre;" transform="translate(0,137.91)">250k</text></g></g><g class="overaxes-above"/></g></g><g class="polarlayer"/><g class="smithlayer"/><g class="ternarylayer"/><g class="geolayer"/><g class="funnelarealayer"/><g class="pielayer"/><g class="iciclelayer"/><g class="treemaplayer"/><g class="sunburstlayer"/><g class="glimages"/><defs id="topdefs-ee6750"><g class="clips"/><clipPath id="legendee6750"><rect width="727" height="53" x="0" y="0"/></clipPath></defs><g class="layer-above"><g class="imagelayer"/><g class="shapelayer"/></g><g class="infolayer"><g class="legend" pointer-events="all" transform="translate(136.5,484.5)"><rect class="bg" shape-rendering="crispEdges" style="stroke: rgb(68, 68, 68); stroke-opacity: 1; fill: rgb(255, 255, 255); fill-opacity: 1; stroke-width: 0px;" width="727" height="53" x="0" y="0"/><g class="scrollbox" transform="" clip-path="url(#legendee6750)"><g class="groups"><g class="traces" transform="translate(0,15.6)" style="opacity: 1;"><text class="legendtext" text-anchor="start" x="40" y="5.46" style="font-family: 'Open Sans', verdana, arial, sans-serif; font-size: 14px; fill: rgb(42, 63, 95); fill-opacity: 1; white-space: pre;">Waste</text><g class="layers"><g class="legendfill"><path class="js-fill" d="M5,-2h30v6h-30z" style="stroke-width: 0; fill: rgb(121, 85, 72); fill-opacity: 0.5;"/></g><g class="legendlines"><path class="js-line" d="M5,-2h30" style="fill: none; stroke: rgb(121, 85, 72); stroke-opacity: 1; stroke-width: 0.5px;"/></g><g class="legendsymbols"><g class="legendpoints"/></g></g><rect class="legendtoggle" x="0" y="-10.6" width="85.21875" height="21.2" style="fill: rgb(0, 0, 0); fill-opacity: 0;"/></g><g class="traces" transform="translate(181.609375,15.6)" style="opacity: 1;"><text class="legendtext" text-anchor="start" x="40" y="5.46" style="font-family: 'Open Sans', verdana, arial, sans-serif; font-size: 14px; fill: rgb(42, 63, 95); fill-opacity: 1; white-space: pre;">Coal</text><g class="layers"><g class="legendfill"><path class="js-fill" d="M5,-2h30v6h-30z" style="stroke-width: 0; fill: rgb(96, 125, 139); fill-opacity: 0.5;"/></g><g class="legendlines"><path class="js-line" d="M5,-2h30" style="fill: none; stroke: rgb(96, 125, 139); stroke-opacity: 1; stroke-width: 0.5px;"/></g><g class="legendsymbols"><g class="legendpoints"/></g></g><rect class="legendtoggle" x="0" y="-10.6" width="73.03125" height="21.2" style="fill: rgb(0, 0, 0); fill-opacity: 0;"/></g><g class="traces" transform="translate(363.21875,15.6)" style="opacity: 1;"><text class="legendtext" text-anchor="start" x="40" y="5.46" style="font-family: 'Open Sans', verdana, arial, sans-serif; font-size: 14px; fill: rgb(42, 63, 95); fill-opacity: 1; white-space: pre;">District Heating</text><g class="layers"><g class="legendfill"><path class="js-fill" d="M5,-2h30v6h-30z" style="stroke-width: 0; fill: rgb(156, 39, 176); fill-opacity: 0.5;"/></g><g class="legendlines"><path class="js-line" d="M5,-2h30" style="fill: none; stroke: rgb(156, 39, 176); stroke-opacity: 1; stroke-width: 0.5px;"/></g><g class="legendsymbols"><g class="legendpoints"/></g></g><rect class="legendtoggle" x="0" y="-10.6" width="151.703125" height="21.2" style="fill: rgb(0, 0, 0); fill-opacity: 0;"/></g><g class="traces" transform="translate(544.828125,15.6)" style="opacity: 1;"><text class="legendtext" text-anchor="start" x="40" y="5.46" style="font-family: 'Open Sans', verdana, arial, sans-serif; font-size: 14px; fill: rgb(42, 63, 95); fill-opacity: 1; white-space: pre;">Other Renewables</text><g class="layers"><g class="legendfill"><path class="js-fill" d="M5,-2h30v6h-30z" style="stroke-width: 0; fill: rgb(0, 188, 212); fill-opacity: 0.5;"/></g><g class="legendlines"><path class="js-line" d="M5,-2h30" style="fill: none; stroke: rgb(0, 188, 212); stroke-opacity: 1; stroke-width: 0.5px;"/></g><g class="legendsymbols"><g class="legendpoints"/></g></g><rect class="legendtoggle" x="0" y="-10.6" width="170" height="21.2" style="fill: rgb(0, 0, 0); fill-opacity: 0;"/></g><g class="traces" transform="translate(0,36.8)" style="opacity: 1;"><text class="legendtext" text-anchor="start" x="40" y="5.46" style="font-family: 'Open Sans', verdana, arial, sans-serif; font-size: 14px; fill: rgb(42, 63, 95); fill-opacity: 1; white-space: pre;">Wood / Biomass</text><g class="layers"><g class="legendfill"><path class="js-fill" d="M5,-2h30v6h-30z" style="stroke-width: 0; fill: rgb(76, 175, 80); fill-opacity: 0.5;"/></g><g class="legendlines"><path class="js-line" d="M5,-2h30" style="fill: none; stroke: rgb(76, 175, 80); stroke-opacity: 1; stroke-width: 0.5px;"/></g><g class="legendsymbols"><g class="legendpoints"/></g></g><rect class="legendtoggle" x="0" y="-10.6" width="156.140625" height="21.2" style="fill: rgb(0, 0, 0); fill-opacity: 0;"/></g><g class="traces" transform="translate(181.609375,36.8)" style="opacity: 1;"><text class="legendtext" text-anchor="start" x="40" y="5.46" style="font-family: 'Open Sans', verdana, arial, sans-serif; font-size: 14px; fill: rgb(42, 63, 95); fill-opacity: 1; white-space: pre;">Natural Gas</text><g class="layers"><g class="legendfill"><path class="js-fill" d="M5,-2h30v6h-30z" style="stroke-width: 0; fill: rgb(255, 107, 53); fill-opacity: 0.5;"/></g><g class="legendlines"><path class="js-line" d="M5,-2h30" style="fill: none; stroke: rgb(255, 107, 53); stroke-opacity: 1; stroke-width: 0.5px;"/></g><g class="legendsymbols"><g class="legendpoints"/></g></g><rect class="legendtoggle" x="0" y="-10.6" width="125.21875" height="21.2" style="fill: rgb(0, 0, 0); fill-opacity: 0;"/></g><g class="traces" transform="translate(363.21875,36.8)" style="opacity: 1;"><text class="legendtext" text-anchor="start" x="40" y="5.46" style="font-family: 'Open Sans', verdana, arial, sans-serif; font-size: 14px; fill: rgb(42, 63, 95); fill-opacity: 1; white-space: pre;">Electricity</text><g class="layers"><g class="legendfill"><path class="js-fill" d="M5,-2h30v6h-30z" style="stroke-width: 0; fill: rgb(255, 193, 7); fill-opacity: 0.5;"/></g><g class="legendlines"><path class="js-line" d="M5,-2h30" style="fill: none; stroke: rgb(255, 193, 7); stroke-opacity: 1; stroke-width: 0.5px;"/></g><g class="legendsymbols"><g class="legendpoints"/></g></g><rect class="legendtoggle" x="0" y="-10.6" width="111.03125" height="21.2" style="fill: rgb(0, 0, 0); fill-opacity: 0;"/></g><g class="traces" transform="translate(544.828125,36.8)" style="opacity: 1;"><text class="legendtext" text-anchor="start" x="40" y="5.46" style="font-family: 'Open Sans', verdana, arial, sans-serif; font-size: 14px; fill: rgb(42, 63, 95); fill-opacity: 1; white-space: pre;">Petroleum Products</text><g class="layers"><g class="legendfill"><path class="js-fill" d="M5,-2h30v6h-30z" style="stroke-width: 0; fill: rgb(139, 69, 19); fill-opacity: 0.5;"/></g><g class="legendlines"><path class="js-line" d="M5,-2h30" style="fill: none; stroke: rgb(139, 69, 19); stroke-opacity: 1; stroke-width: 0.5px;"/></g><g class="legendsymbols"><g class="legendpoints"/></g></g><rect class="legendtoggle" x="0" y="-10.6" width="179.109375" height="21.2" style="fill: rgb(0, 0, 0); fill-opacity: 0;"/></g></g></g><rect class="scrollbar" rx="20" ry="3" width="0" height="0" style="fill: rgb(128, 139, 164); fill-opacity: 1;" x="0" y="0"/></g><g class="g-gtitle"><text class="gtitle" x="50" y="50" text-anchor="start" dy="0em" style="opacity: 1; font-family: 'Open Sans', verdana, arial, sans-serif; font-size: 20px; fill: rgb(42, 63, 95); fill-opacity: 1; white-space: pre;">Swiss Household Final Energy Consumption by Carrier (TJ)</text></g><g class="g-xtitle"><text class="xtitle" x="500" y="494.4" text-anchor="middle" style="opacity: 1; font-family: 'Open Sans', verdana, arial, sans-serif; font-size: 17px; fill: rgb(42, 63, 95); fill-opacity: 1; white-space: pre;">Year</text></g><g class="g-ytitle"><text class="ytitle" transform="rotate(-90,23.549999999999997,275)" x="23.549999999999997" y="275" text-anchor="middle" style="opacity: 1; font-family: 'Open Sans', verdana, arial, sans-serif; font-size: 17px; fill: rgb(42, 63, 95); fill-opacity: 1; white-space: pre;">Final Energy (TJ)</text></g></g></svg>