<svg class="main-svg" xmlns="http://www.w3.org/2000/svg" xmlns:xlink="http://www.w3.org/1999/xlink" width="1300" height="500" style="" viewBox="0 0 1300 500"><rect x="0" y="0" width="1300" height="500" style="fill: rgb(255, 255, 255); fill-opacity: 1;"/><defs id="defs-400aca"><g class="clips"><clipPath id="clip400acaxyplot" class="plotclip"><rect width="527.5600000000001" height="325"/></clipPath><clipPath id="clip400acax2y2plot" class="plotclip"><rect width="431.6399999999999" height="325"/></clipPath><clipPath class="axesclip" id="clip400acax"><rect x="170" y="0" width="527.5600000000001" height="500"/></clipPath><clipPath class="axesclip" id="clip400acay"><rect x="0" y="85" width="1300" height="325"/></clipPath><clipPath class="axesclip" id="clip400acaxy"><rect x="170" y="85" width="527.5600000000001" height="325"/></clipPath><clipPath class="axesclip" id="clip400acay2"><rect x="0" y="85" width="1300" height="325"/></clipPath><clipPath class="axesclip" id="clip400acaxy2"><rect x="170" y="85" width="527.5600000000001" height="325"/></clipPath><clipPath class="axesclip" id="clip400acax2"><rect x="828.3600000000001" y="0" width="431.6399999999999" height="500"/></clipPath><clipPath class="axesclip" id="clip400acax2y"><rect x="828.3600000000001" y="85" width="431.6399999999999" height="325"/></clipPath><clipPath class="axesclip" id="clip400acax2y2"><rect x="828.3600000000001" y="85" width="431.6399999999999" height="325"/></clipPath></g><g class="gradients"/><g class="patterns"/></defs><g class="bglayer"/><g class="layer-below"><g class="imagelayer"/><g class="shapelayer"/></g><g class="cartesianlayer"><g class="subplot xy"><g class="layer-subplot"><g class="shapelayer"/><g class="imagelayer"/></g><g class="minor-gridlayer"><g class="x"/><g class="y"/></g><g class="gridlayer"><g class="x"><path class="xgrid crisp" transform="translate(267.7,0)" d="M0,85v325" style="stroke: rgb(238, 238, 238); stroke-opacity: 1; stroke-width: 1px;"/><path class="xgrid crisp" transform="translate(365.39,0)" d="M0,85v325" style="stroke: rgb(238, 238, 238); stroke-opacity: 1; stroke-width: 1px;"/><path class="xgrid crisp" transform="translate(463.09,0)" d="M0,85v325" style="stroke: rgb(238, 238, 238); stroke-opacity: 1; stroke-width: 1px;"/><path class="xgrid crisp" transform="translate(560.79,0)" d="M0,85v325" style="stroke: rgb(238, 238, 238); stroke-opacity: 1; stroke-width: 1px;"/><path class="xgrid crisp" transform="translate(658.48,0)" d="M0,85v325" style="stroke: rgb(238, 238, 238); stroke-opacity: 1; stroke-width: 1px;"/></g><g class="y"/></g><g class="zerolinelayer"><path class="xzl zl crisp" transform="translate(170,0)" d="M0,85v325" style="stroke: rgb(68, 68, 68); stroke-opacity: 1; stroke-width: 1px;"/></g><g class="layer-between"><g class="shapelayer"/><g class="imagelayer"/></g><path class="xlines-below"/><path class="ylines-below"/><g class="overlines-below"/><g class="xaxislayer-below"/><g class="yaxislayer-below"/><g class="overaxes-below"/><g class="overplot"><g class="xy" transform="translate(170,85)" clip-path="url(#clip400acaxyplot)"><g class="barlayer mlayer"><g class="trace bars" shape-rendering="crispEdges" style="opacity: 1;"><g class="points"><g class="point"><path d="M0,316.88V251.88H162.66V316.88Z" style="vector-effect: none; opacity: 1; stroke-width: 0px; fill: rgb(139, 69, 19); fill-opacity: 1;"/><text class="bartext bartext-inside" text-anchor="middle" data-notex="1" x="0" y="0" style="font-family: Inter, Helvetica, Arial, sans-serif; font-size: 11px; fill: rgb(255, 255, 255); fill-opacity: 1; white-space: pre;" transform="translate(147.4646875,288.38)">33%</text></g><g class="point"><path d="M0,235.63V170.63H189.04V235.63Z" style="vector-effect: none; opacity: 1; stroke-width: 0px; fill: rgb(139, 69, 19); fill-opacity: 1;"/><text class="bartext bartext-inside" text-anchor="middle" data-notex="1" x="0" y="0" style="font-family: Inter, Helvetica, Arial, sans-serif; font-size: 11px; fill: rgb(255, 255, 255); fill-opacity: 1; white-space: pre;" transform="translate(173.8290625,207.13)">39%</text></g><g class="point"><path d="M0,154.38V89.37H157.29V154.38Z" style="vector-effect: none; opacity: 1; stroke-width: 0px; fill: rgb(139, 69, 19); fill-opacity: 1;"/><text class="bartext bartext-inside" text-anchor="middle" data-notex="1" x="0" y="0" style="font-family: Inter, Helvetica, Arial, sans-serif; font-size: 11px; fill: rgb(255, 255, 255); fill-opacity: 1; white-space: pre;" transform="translate(142.13375,125.875)">32%</text></g><g class="point"><path d="M0,73.13V8.12H198.32V73.13Z" style="vector-effect: none; opacity: 1; stroke-width: 0px; fill: rgb(139, 69, 19); fill-opacity: 1;"/><text class="bartext bartext-inside" text-anchor="middle" data-notex="1" x="0" y="0" style="font-family: Inter, Helvetica, Arial, sans-serif; font-size: 11px; fill: rgb(255, 255, 255); fill-opacity: 1; white-space: pre;" transform="translate(184.2340625,44.625)">41%</text></g></g></g><g class="trace bars" shape-rendering="crispEdges" style="opacity: 1;"><g class="points"><g class="point"><path d="M162.66,316.88V251.88H236.43V316.88Z" style="vector-effect: none; opacity: 1; stroke-width: 0px; fill: rgb(255, 107, 53); fill-opacity: 1;"/><text class="bartext bartext-inside" text-anchor="middle" data-notex="1" x="0" y="0" style="font-family: Inter, Helvetica, Arial, sans-serif; font-size: 11px; fill: rgb(255, 255, 255); fill-opacity: 1; white-space: pre;" transform="translate(222.52375,288.38)">15%</text></g><g class="point"><path d="M189.04,235.63V170.63H291.62V235.63Z" style="vector-effect: none; opacity: 1; stroke-width: 0px; fill: rgb(255, 107, 53); fill-opacity: 1;"/><text class="bartext bartext-inside" text-anchor="middle" data-notex="1" x="0" y="0" style="font-family: Inter, Helvetica, Arial, sans-serif; font-size: 11px; fill: rgb(255, 255, 255); fill-opacity: 1; white-space: pre;" transform="translate(277.6278125,207.13)">21%</text></g><g class="point"><path d="M157.29,154.38V89.37H248.15V154.38Z" style="vector-effect: none; opacity: 1; stroke-width: 0px; fill: rgb(255, 107, 53); fill-opacity: 1;"/><text class="bartext bartext-inside" text-anchor="middle" data-notex="1" x="0" y="0" style="font-family: Inter, Helvetica, Arial, sans-serif; font-size: 11px; fill: rgb(255, 255, 255); fill-opacity: 1; white-space: pre;" transform="translate(234.0953125,125.875)">19%</text></g><g class="point"><path d="M198.32,73.13V8.12H297V73.13Z" style="vector-effect: none; opacity: 1; stroke-width: 0px; fill: rgb(255, 107, 53); fill-opacity: 1;"/><text class="bartext bartext-inside" text-anchor="middle" data-notex="1" x="0" y="0" style="font-family: Inter, Helvetica, Arial, sans-serif; font-size: 11px; fill: rgb(255, 255, 255); fill-opacity: 1; white-space: pre;" transform="translate(281.7734375,44.625)">20%</text></g></g></g><g class="trace bars" shape-rendering="crispEdges" style="opacity: 1;"><g class="points"><g class="point"><path d="M236.43,316.88V251.88H372.71V316.88Z" style="vector-effect: none; opacity: 1; stroke-width: 0px; fill: rgb(33, 150, 243); fill-opacity: 1;"/><text class="bartext bartext-inside" text-anchor="middle" data-notex="1" x="0" y="0" style="font-family: Inter, Helvetica, Arial, sans-serif; font-size: 11px; fill: rgb(255, 255, 255); fill-opacity: 1; white-space: pre;" transform="translate(357.5459375,288.38)">28%</text></g><g class="point"><path d="M291.62,235.63V170.63H391.76V235.63Z" style="vector-effect: none; opacity: 1; stroke-width: 0px; fill: rgb(33, 150, 243); fill-opacity: 1;"/><text class="bartext bartext-inside" text-anchor="middle" data-notex="1" x="0" y="0" style="font-family: Inter, Helvetica, Arial, sans-serif; font-size: 11px; fill: rgb(255, 255, 255); fill-opacity: 1; white-space: pre;" transform="translate(376.5334375,207.13)">20%</text></g><g class="point"><path d="M248.15,154.38V89.37H301.39V154.38Z" style="vector-effect: none; opacity: 1; stroke-width: 0px; fill: rgb(33, 150, 243); fill-opacity: 1;"/><text class="bartext bartext-inside" text-anchor="middle" data-notex="1" x="0" y="0" style="font-family: Inter, Helvetica, Arial, sans-serif; font-size: 11px; fill: rgb(255, 255, 255); fill-opacity: 1; white-space: pre;" transform="translate(288.515,125.875)">11%</text></g><g class="point"><path d="M297,73.13V8.12H341.45V73.13Z" style="vector-effect: none; opacity: 1; stroke-width: 0px; fill: rgb(33, 150, 243); fill-opacity: 1;"/><text class="bartext bartext-inside" text-anchor="middle" data-notex="1" x="0" y="0" style="font-family: Inter, Helvetica, Arial, sans-serif; font-size: 11px; fill: rgb(255, 255, 255); fill-opacity: 1; white-space: pre;" transform="translate(329.6375,44.625)">9%</text></g></g></g><g class="trace bars" shape-rendering="crispEdges" style="opacity: 1;"><g class="points"><g class="point"><path d="M372.71,316.88V251.88H428.89V316.88Z" style="vector-effect: none; opacity: 1; stroke-width: 0px; fill: rgb(76, 175, 80); fill-opacity: 1;"/><text class="bartext bartext-inside" text-anchor="middle" data-notex="1" x="0" y="0" style="font-family: Inter, Helvetica, Arial, sans-serif; font-size: 11px; fill: rgb(255, 255, 255); fill-opacity: 1; white-space: pre;" transform="translate(414.8978125,288.38)">12%</text></g><g class="point"><path d="M391.76,235.63V170.63H428.4V235.63Z" style="vector-effect: none; opacity: 1; stroke-width: 0px; fill: rgb(76, 175, 80); fill-opacity: 1;"/><text class="bartext bartext-inside" text-anchor="middle" data-notex="1" x="0" y="0" style="font-family: Inter, Helvetica, Arial, sans-serif; font-size: 11px; fill: rgb(255, 255, 255); fill-opacity: 1; white-space: pre;" transform="translate(416.5953125,207.13)">8%</text></g><g class="point"><path d="M301.39,154.38V89.37H437.19V154.38Z" style="vector-effect: none; opacity: 1; stroke-width: 0px; fill: rgb(76, 175, 80); fill-opacity: 1;"/><text class="bartext bartext-inside" text-anchor="middle" data-notex="1" x="0" y="0" style="font-family: Inter, Helvetica, Arial, sans-serif; font-size: 11px; fill: rgb(255, 255, 255); fill-opacity: 1; white-space: pre;" transform="translate(422.0259375,125.875)">28%</text></g><g class="point"><path d="M341.45,73.13V8.12H425.47V73.13Z" style="vector-effect: none; opacity: 1; stroke-width: 0px; fill: rgb(76, 175, 80); fill-opacity: 1;"/><text class="bartext bartext-inside" text-anchor="middle" data-notex="1" x="0" y="0" style="font-family: Inter, Helvetica, Arial, sans-serif; font-size: 11px; fill: rgb(255, 255, 255); fill-opacity: 1; white-space: pre;" transform="translate(411.7121875,44.625)">17%</text></g></g></g><g class="trace bars" shape-rendering="crispEdges" style="opacity: 1;"><g class="points"><g class="point"><path d="M428.89,316.88V251.88H472.36V316.88Z" style="vector-effect: none; opacity: 1; stroke-width: 0px; fill: rgb(255, 193, 7); fill-opacity: 1;"/><text class="bartext bartext-inside" text-anchor="middle" data-notex="1" x="0" y="0" style="font-family: Inter, Helvetica, Arial, sans-serif; font-size: 11px; fill: rgb(255, 255, 255); fill-opacity: 1; white-space: pre;" transform="translate(460.5475,288.38)">9%</text></g><g class="point"><path d="M428.4,235.63V170.63H452.82V235.63Z" style="vector-effect: none; opacity: 1; stroke-width: 0px; fill: rgb(255, 193, 7); fill-opacity: 1;"/><text class="bartext bartext-inside" text-anchor="middle" data-notex="1" x="0" y="0" style="font-family: Inter, Helvetica, Arial, sans-serif; font-size: 11px; fill: rgb(255, 255, 255); fill-opacity: 1; white-space: pre;" transform="translate(441.1559375,207.13)">5%</text></g><g class="point"><path d="M437.19,154.38V89.37H456.73V154.38Z" style="vector-effect: none; opacity: 1; stroke-width: 0px; fill: rgb(255, 193, 7); fill-opacity: 1;"/><text class="bartext bartext-inside" text-anchor="middle" data-notex="1" x="0" y="0" style="font-family: Inter, Helvetica, Arial, sans-serif; font-size: 11px; fill: rgb(255, 255, 255); fill-opacity: 1; white-space: pre;" transform="translate(446.96000000000004,125.74357142857143)scale(0.9671428571428585)rotate(90 0 -4)">4%</text></g><g class="point"><path d="M425.47,73.13V8.12H447.94V73.13Z" style="vector-effect: none; opacity: 1; stroke-width: 0px; fill: rgb(255, 193, 7); fill-opacity: 1;"/><text class="bartext bartext-inside" text-anchor="middle" data-notex="1" x="0" y="0" style="font-family: Inter, Helvetica, Arial, sans-serif; font-size: 11px; fill: rgb(255, 255, 255); fill-opacity: 1; white-space: pre;" transform="translate(437.94,44.625)rotate(90 0 -4)">5%</text></g></g></g><g class="trace bars" shape-rendering="crispEdges" style="opacity: 1;"><g class="points"><g class="point"><path d="M472.36,316.88V251.88H485.55V316.88Z" style="vector-effect: none; opacity: 1; stroke-width: 0px; fill: rgb(156, 39, 176); fill-opacity: 1;"/></g><g class="point"><path d="M452.82,235.63V170.63H485.55V235.63Z" style="vector-effect: none; opacity: 1; stroke-width: 0px; fill: rgb(156, 39, 176); fill-opacity: 1;"/><text class="bartext bartext-inside" text-anchor="middle" data-notex="1" x="0" y="0" style="font-family: Inter, Helvetica, Arial, sans-serif; font-size: 11px; fill: rgb(255, 255, 255); fill-opacity: 1; white-space: pre;" transform="translate(474.034375,207.13)">7%</text></g><g class="point"><path d="M456.73,154.38V89.37H486.04V154.38Z" style="vector-effect: none; opacity: 1; stroke-width: 0px; fill: rgb(156, 39, 176); fill-opacity: 1;"/><text class="bartext bartext-inside" text-anchor="middle" data-notex="1" x="0" y="0" style="font-family: Inter, Helvetica, Arial, sans-serif; font-size: 11px; fill: rgb(255, 255, 255); fill-opacity: 1; white-space: pre;" transform="translate(474.2275,125.875)">6%</text></g><g class="point"><path d="M447.94,73.13V8.12H485.06V73.13Z" style="vector-effect: none; opacity: 1; stroke-width: 0px; fill: rgb(156, 39, 176); fill-opacity: 1;"/><text class="bartext bartext-inside" text-anchor="middle" data-notex="1" x="0" y="0" style="font-family: Inter, Helvetica, Arial, sans-serif; font-size: 11px; fill: rgb(255, 255, 255); fill-opacity: 1; white-space: pre;" transform="translate(473.2553125,44.625)">8%</text></g></g></g><g class="trace bars" shape-rendering="crispEdges" style="opacity: 1;"><g class="points"><g class="point"><path d="M485.55,316.88V251.88H487.02V316.88Z" style="vector-effect: none; opacity: 1; stroke-width: 0px; fill: rgb(0, 188, 212); fill-opacity: 1;"/></g><g class="point"><path d="M485.55,235.63V170.63H486.53V235.63Z" style="vector-effect: none; opacity: 1; stroke-width: 0px; fill: rgb(0, 188, 212); fill-opacity: 1;"/></g><g class="point"><path d="M486.04,154.38V89.37H487.02V154.38Z" style="vector-effect: none; opacity: 1; stroke-width: 0px; fill: rgb(0, 188, 212); fill-opacity: 1;"/></g><g class="point"><path d="M485.06,73.13V8.12H486.04V73.13Z" style="vector-effect: none; opacity: 1; stroke-width: 0px; fill: rgb(0, 188, 212); fill-opacity: 1;"/></g></g></g><g class="trace bars" shape-rendering="crispEdges" style="opacity: 1;"><g class="points"><g class="point"><path d="M487.02,316.88V251.88H488.48V316.88Z" style="vector-effect: none; opacity: 1; stroke-width: 0px; fill: rgb(96, 125, 139); fill-opacity: 1;"/></g><g class="point"><path d="M486.53,235.63V170.63H487.99V235.63Z" style="vector-effect: none; opacity: 1; stroke-width: 0px; fill: rgb(96, 125, 139); fill-opacity: 1;"/></g><g class="point"><path d="M487.02,154.38V89.37H488.48V154.38Z" style="vector-effect: none; opacity: 1; stroke-width: 0px; fill: rgb(96, 125, 139); fill-opacity: 1;"/></g><g class="point"><path d="M486.04,73.13V8.12H487.99V73.13Z" style="vector-effect: none; opacity: 1; stroke-width: 0px; fill: rgb(96, 125, 139); fill-opacity: 1;"/></g></g></g></g></g></g><g class="zerolinelayer-above"/><path class="xlines-above crisp" d="M0,0" style="fill: none;"/><path class="ylines-above crisp" d="M0,0" style="fill: none;"/><g class="overlines-above"/><g class="xaxislayer-above"><g class="xtick"><text text-anchor="middle" x="0" y="425" transform="translate(170,0)" style="font-family: Inter, Helvetica, Arial, sans-serif; font-size: 14px; fill: rgb(68, 68, 68); fill-opacity: 1; white-space: pre;">0</text></g><g class="xtick"><text text-anchor="middle" x="0" y="425" style="font-family: Inter, Helvetica, Arial, sans-serif; font-size: 14px; fill: rgb(68, 68, 68); fill-opacity: 1; white-space: pre;" transform="translate(267.7,0)">20</text></g><g class="xtick"><text text-anchor="middle" x="0" y="425" style="font-family: Inter, Helvetica, Arial, sans-serif; font-size: 14px; fill: rgb(68, 68, 68); fill-opacity: 1; white-space: pre;" transform="translate(365.39,0)">40</text></g><g class="xtick"><text text-anchor="middle" x="0" y="425" style="font-family: Inter, Helvetica, Arial, sans-serif; font-size: 14px; fill: rgb(68, 68, 68); fill-opacity: 1; white-space: pre;" transform="translate(463.09,0)">60</text></g><g class="xtick"><text text-anchor="middle" x="0" y="425" style="font-family: Inter, Helvetica, Arial, sans-serif; font-size: 14px; fill: rgb(68, 68, 68); fill-opacity: 1; white-space: pre;" transform="translate(560.79,0)">80</text></g><g class="xtick"><text text-anchor="middle" x="0" y="425" style="font-family: Inter, Helvetica, Arial, sans-serif; font-size: 14px; fill: rgb(68, 68, 68); fill-opacity: 1; white-space: pre;" transform="translate(658.48,0)">100</text></g></g><g class="yaxislayer-above"><g class="ytick"><text text-anchor="end" x="169" y="4.8999999999999995" transform="translate(0,369.38)" style="font-family: Inter, Helvetica, Arial, sans-serif; font-size: 14px; fill: rgb(68, 68, 68); fill-opacity: 1; white-space: pre;">Single-Family (EFH)</text></g><g class="ytick"><text text-anchor="end" x="169" y="4.8999999999999995" transform="translate(0,288.13)" style="font-family: Inter, Helvetica, Arial, sans-serif; font-size: 14px; fill: rgb(68, 68, 68); fill-opacity: 1; white-space: pre;">Multi-Family (MFH)</text></g><g class="ytick"><text text-anchor="end" x="169" y="4.8999999999999995" transform="translate(0,206.88)" style="font-family: Inter, Helvetica, Arial, sans-serif; font-size: 14px; fill: rgb(68, 68, 68); fill-opacity: 1; white-space: pre;">Mixed-Use Residential</text></g><g class="ytick"><text text-anchor="end" x="169" y="4.8999999999999995" transform="translate(0,125.63)" style="font-family: Inter, Helvetica, Arial, sans-serif; font-size: 14px; fill: rgb(68, 68, 68); fill-opacity: 1; white-space: pre;">Partial Residential</text></g></g><g class="overaxes-above"/></g><g class="subplot x2y2"><g class="layer-subplot"><g class="shapelayer"/><g class="imagelayer"/></g><g class="minor-gridlayer"><g class="x2"/><g class="y2"/></g><g class="gridlayer"><g class="x2"><path class="x2grid crisp" transform="translate(854.9400000000002,0)" d="M0,85v325" style="stroke: rgb(238, 238, 238); stroke-opacity: 1; stroke-width: 1px;"/><path class="x2grid crisp" transform="translate(981.1000000000001,0)" d="M0,85v325" style="stroke: rgb(238, 238, 238); stroke-opacity: 1; stroke-width: 1px;"/><path class="x2grid crisp" transform="translate(1107.2600000000002,0)" d="M0,85v325" style="stroke: rgb(238, 238, 238); stroke-opacity: 1; stroke-width: 1px;"/><path class="x2grid crisp" transform="translate(1233.42,0)" d="M0,85v325" style="stroke: rgb(238, 238, 238); stroke-opacity: 1; stroke-width: 1px;"/></g><g class="y2"><path class="y2grid crisp" transform="translate(0,405.75)" d="M828.3600000000001,0h431.6399999999999" style="stroke: rgb(238, 238, 238); stroke-opacity: 1; stroke-width: 1px;"/><path class="y2grid crisp" transform="translate(0,340.36)" d="M828.3600000000001,0h431.6399999999999" style="stroke: rgb(238, 238, 238); stroke-opacity: 1; stroke-width: 1px;"/><path class="y2grid crisp" transform="translate(0,274.97)" d="M828.3600000000001,0h431.6399999999999" style="stroke: rgb(238, 238, 238); stroke-opacity: 1; stroke-width: 1px;"/><path class="y2grid crisp" transform="translate(0,209.57)" d="M828.3600000000001,0h431.6399999999999" style="stroke: rgb(238, 238, 238); stroke-opacity: 1; stroke-width: 1px;"/><path class="y2grid crisp" transform="translate(0,144.18)" d="M828.3600000000001,0h431.6399999999999" style="stroke: rgb(238, 238, 238); stroke-opacity: 1; stroke-width: 1px;"/></g></g><g class="zerolinelayer"/><g class="layer-between"><g class="shapelayer"/><g class="imagelayer"/></g><path class="xlines-below"/><path class="ylines-below"/><g class="overlines-below"/><g class="xaxislayer-below"/><g class="yaxislayer-below"/><g class="overaxes-below"/><g class="overplot"><g class="x2y2" transform="translate(828.3600000000001,85)" clip-path="url(#clip400acax2y2plot)"><g class="scatterlayer mlayer"><g class="trace scatter trace99f883" style="stroke-miterlimit: 2; opacity: 1;"><g class="fills"/><g class="errorbars"/><g class="lines"><path class="js-line" d="M26.58,111.49L152.74,89.26L278.9,46.1L405.06,21.25" style="vector-effect: none; fill: none; stroke: rgb(255, 152, 0); stroke-opacity: 1; stroke-width: 2.5px; opacity: 1;"/></g><g class="points"><path class="point" transform="translate(26.58,111.49)" d="M4,0A4,4 0 1,1 0,-4A4,4 0 0,1 4,0Z" style="opacity: 1; stroke-width: 0px; fill: rgb(255, 152, 0); fill-opacity: 1;"/><path class="point" transform="translate(152.74,89.26)" d="M4,0A4,4 0 1,1 0,-4A4,4 0 0,1 4,0Z" style="opacity: 1; stroke-width: 0px; fill: rgb(255, 152, 0); fill-opacity: 1;"/><path class="point" transform="translate(278.9,46.1)" d="M4,0A4,4 0 1,1 0,-4A4,4 0 0,1 4,0Z" style="opacity: 1; stroke-width: 0px; fill: rgb(255, 152, 0); fill-opacity: 1;"/><path class="point" transform="translate(405.06,21.25)" d="M4,0A4,4 0 1,1 0,-4A4,4 0 0,1 4,0Z" style="opacity: 1; stroke-width: 0px; fill: rgb(255, 152, 0); fill-opacity: 1;"/></g><g class="text"><g class="textpoint" transform="translate(0,-8.5)"><text x="26.58" y="111.49" text-anchor="middle" style="font-family: Inter, Helvetica, Arial, sans-serif; font-size: 10px; fill: rgb(255, 152, 0); fill-opacity: 1; white-space: pre;">21%</text></g><g class="textpoint"/><g class="textpoint"/><g class="textpoint" transform="translate(0,-8.5)"><text x="405.06" y="21.25" text-anchor="middle" style="font-family: Inter, Helvetica, Arial, sans-serif; font-size: 10px; fill: rgb(255, 152, 0); fill-opacity: 1; white-space: pre;">28%</text></g></g></g><g class="trace scatter tracee6b1d2" style="stroke-miterlimit: 2; opacity: 1;"><g class="fills"/><g class="errorbars"/><g class="lines"><path class="js-line" d="M26.58,191.27L152.74,174.27L278.9,142.88L405.06,118.03" style="vector-effect: none; fill: none; stroke: rgb(33, 150, 243); stroke-opacity: 1; stroke-width: 2.5px; opacity: 1;"/></g><g class="points"><path class="point" transform="translate(26.58,191.27)" d="M4,0A4,4 0 1,1 0,-4A4,4 0 0,1 4,0Z" style="opacity: 1; stroke-width: 0px; fill: rgb(33, 150, 243); fill-opacity: 1;"/><path class="point" transform="translate(152.74,174.27)" d="M4,0A4,4 0 1,1 0,-4A4,4 0 0,1 4,0Z" style="opacity: 1; stroke-width: 0px; fill: rgb(33, 150, 243); fill-opacity: 1;"/><path class="point" transform="translate(278.9,142.88)" d="M4,0A4,4 0 1,1 0,-4A4,4 0 0,1 4,0Z" style="opacity: 1; stroke-width: 0px; fill: rgb(33, 150, 243); fill-opacity: 1;"/><path class="point" transform="translate(405.06,118.03)" d="M4,0A4,4 0 1,1 0,-4A4,4 0 0,1 4,0Z" style="opacity: 1; stroke-width: 0px; fill: rgb(33, 150, 243); fill-opacity: 1;"/></g><g class="text"><g class="textpoint" transform="translate(0,-8.5)"><text x="26.58" y="191.27" text-anchor="middle" style="font-family: Inter, Helvetica, Arial, sans-serif; font-size: 10px; fill: rgb(33, 150, 243); fill-opacity: 1; white-space: pre;">15%</text></g><g class="textpoint"/><g class="textpoint"/><g class="textpoint" transform="translate(0,-8.5)"><text x="405.06" y="118.03" text-anchor="middle" style="font-family: Inter, Helvetica, Arial, sans-serif; font-size: 10px; fill: rgb(33, 150, 243); fill-opacity: 1; white-space: pre;">20%</text></g></g></g><g class="trace scatter trace516a57" style="stroke-miterlimit: 2; opacity: 1;"><g class="fills"/><g class="errorbars"/><g class="lines"><path class="js-line" d="M26.58,290.67L152.74,278.9L278.9,256.67L405.06,243.59" style="vector-effect: none; fill: none; stroke: rgb(156, 39, 176); stroke-opacity: 1; stroke-width: 2.5px; opacity: 1;"/></g><g class="points"><path class="point" transform="translate(26.58,290.67)" d="M4,0A4,4 0 1,1 0,-4A4,4 0 0,1 4,0Z" style="opacity: 1; stroke-width: 0px; fill: rgb(156, 39, 176); fill-opacity: 1;"/><path class="point" transform="translate(152.74,278.9)" d="M4,0A4,4 0 1,1 0,-4A4,4 0 0,1 4,0Z" style="opacity: 1; stroke-width: 0px; fill: rgb(156, 39, 176); fill-opacity: 1;"/><path class="point" transform="translate(278.9,256.67)" d="M4,0A4,4 0 1,1 0,-4A4,4 0 0,1 4,0Z" style="opacity: 1; stroke-width: 0px; fill: rgb(156, 39, 176); fill-opacity: 1;"/><path class="point" transform="translate(405.06,243.59)" d="M4,0A4,4 0 1,1 0,-4A4,4 0 0,1 4,0Z" style="opacity: 1; stroke-width: 0px; fill: rgb(156, 39, 176); fill-opacity: 1;"/></g><g class="text"><g class="textpoint" transform="translate(0,-8.5)"><text x="26.58" y="290.67" text-anchor="middle" style="font-family: Inter, Helvetica, Arial, sans-serif; font-size: 10px; fill: rgb(156, 39, 176); fill-opacity: 1; white-space: pre;">7%</text></g><g class="textpoint"/><g class="textpoint"/><g class="textpoint" transform="translate(0,-8.5)"><text x="405.06" y="243.59" text-anchor="middle" style="font-family: Inter, Helvetica, Arial, sans-serif; font-size: 10px; fill: rgb(156, 39, 176); fill-opacity: 1; white-space: pre;">11%</text></g></g></g><g class="trace scatter trace0347a6" style="stroke-miterlimit: 2; opacity: 1;"><g class="fills"/><g class="errorbars"/><g class="lines"><path class="js-line" d="M26.58,303.75L152.74,294.59L278.9,277.59L405.06,267.13" style="vector-effect: none; fill: none; stroke: rgb(96, 125, 139); stroke-opacity: 1; stroke-width: 2.5px; opacity: 1;"/></g><g class="points"><path class="point" transform="translate(26.58,303.75)" d="M4,0A4,4 0 1,1 0,-4A4,4 0 0,1 4,0Z" style="opacity: 1; stroke-width: 0px; fill: rgb(96, 125, 139); fill-opacity: 1;"/><path class="point" transform="translate(152.74,294.59)" d="M4,0A4,4 0 1,1 0,-4A4,4 0 0,1 4,0Z" style="opacity: 1; stroke-width: 0px; fill: rgb(96, 125, 139); fill-opacity: 1;"/><path class="point" transform="translate(278.9,277.59)" d="M4,0A4,4 0 1,1 0,-4A4,4 0 0,1 4,0Z" style="opacity: 1; stroke-width: 0px; fill: rgb(96, 125, 139); fill-opacity: 1;"/><path class="point" transform="translate(405.06,267.13)" d="M4,0A4,4 0 1,1 0,-4A4,4 0 0,1 4,0Z" style="opacity: 1; stroke-width: 0px; fill: rgb(96, 125, 139); fill-opacity: 1;"/></g><g class="text"><g class="textpoint" transform="translate(0,-8.5)"><text x="26.58" y="303.75" text-anchor="middle" style="font-family: Inter, Helvetica, Arial, sans-serif; font-size: 10px; fill: rgb(96, 125, 139); fill-opacity: 1; white-space: pre;">6%</text></g><g class="textpoint"/><g class="textpoint"/><g class="textpoint" transform="translate(0,-8.5)"><text x="405.06" y="267.13" text-anchor="middle" style="font-family: Inter, Helvetica, Arial, sans-serif; font-size: 10px; fill: rgb(96, 125, 139); fill-opacity: 1; white-space: pre;">9%</text></g></g></g></g></g></g><g class="zerolinelayer-above"/><path class="xlines-above crisp" d="M0,0" style="fill: none;"/><path class="ylines-above crisp" d="M0,0" style="fill: none;"/><g class="overlines-above"/><g class="xaxislayer-above"><g class="x2tick"><text text-anchor="middle" x="0" y="425" transform="translate(854.9400000000002,0)" style="font-family: Inter, Helvetica, Arial, sans-serif; font-size: 14px; fill: rgb(68, 68, 68); fill-opacity: 1; white-space: pre;">2021</text></g><g class="x2tick"><text text-anchor="middle" x="0" y="425" style="font-family: Inter, Helvetica, Arial, sans-serif; font-size: 14px; fill: rgb(68, 68, 68); fill-opacity: 1; white-space: pre;" transform="translate(981.1000000000001,0)">2022</text></g><g class="x2tick"><text text-anchor="middle" x="0" y="425" style="font-family: Inter, Helvetica, Arial, sans-serif; font-size: 14px; fill: rgb(68, 68, 68); fill-opacity: 1; white-space: pre;" transform="translate(1107.2600000000002,0)">2023</text></g><g class="x2tick"><text text-anchor="middle" x="0" y="425" style="font-family: Inter, Helvetica, Arial, sans-serif; font-size: 14px; fill: rgb(68, 68, 68); fill-opacity: 1; white-space: pre;" transform="translate(1233.42,0)">2024</text></g></g><g class="yaxislayer-above"><g class="y2tick"><text text-anchor="end" x="827.3600000000001" y="4.8999999999999995" transform="translate(0,405.75)" style="font-family: Inter, Helvetica, Arial, sans-serif; font-size: 14px; fill: rgb(68, 68, 68); fill-opacity: 1; white-space: pre;">5</text></g><g class="y2tick"><text text-anchor="end" x="827.3600000000001" y="4.8999999999999995" style="font-family: Inter, Helvetica, Arial, sans-serif; font-size: 14px; fill: rgb(68, 68, 68); fill-opacity: 1; white-space: pre;" transform="translate(0,340.36)">10</text></g><g class="y2tick"><text text-anchor="end" x="827.3600000000001" y="4.8999999999999995" style="font-family: Inter, Helvetica, Arial, sans-serif; font-size: 14px; fill: rgb(68, 68, 68); fill-opacity: 1; white-space: pre;" transform="translate(0,274.97)">15</text></g><g class="y2tick"><text text-anchor="end" x="827.3600000000001" y="4.8999999999999995" style="font-family: Inter, Helvetica, Arial, sans-serif; font-size: 14px; fill: rgb(68, 68, 68); fill-opacity: 1; white-space: pre;" transform="translate(0,209.57)">20</text></g><g class="y2tick"><text text-anchor="end" x="827.3600000000001" y="4.8999999999999995" style="font-family: Inter, Helvetica, Arial, sans-serif; font-size: 14px; fill: rgb(68, 68, 68); fill-opacity: 1; white-space: pre;" transform="translate(0,144.18)">25</text></g></g><g class="overaxes-above"/></g></g><g class="polarlayer"/><g class="smithlayer"/><g class="ternarylayer"/><g class="geolayer"/><g class="funnelarealayer"/><g class="pielayer"/><g class="iciclelayer"/><g class="treemaplayer"/><g class="sunburstlayer"/><g class="glimages"/><defs id="topdefs-400aca"><g class="clips"/><clipPath id="legend400aca"><rect width="759" height="29" x="0" y="0"/></clipPath></defs><g class="layer-above"><g class="imagelayer"/><g class="shapelayer"/></g><g class="infolayer"><g class="legend" pointer-events="all" transform="translate(95.70000000000005,413.50000000000006)"><rect class="bg" shape-rendering="crispEdges" style="stroke: rgb(68, 68, 68); stroke-opacity: 1; fill: rgb(255, 255, 255); fill-opacity: 1; stroke-width: 0px;" width="759" height="29" x="0" y="0"/><g class="scrollbox" transform="" clip-path="url(#legend400aca)"><g class="groups" transform=""><g class="traces" transform="translate(0,14.5)" style="opacity: 1;"><text class="legendtext" text-anchor="start" x="40" y="4.29" style="font-family: Inter, Helvetica, Arial, sans-serif; font-size: 11px; fill: rgb(68, 68, 68); fill-opacity: 1; white-space: pre;">Heating Oil</text><g class="layers" style="opacity: 1;"><g class="legendfill"/><g class="legendlines"/><g class="legendsymbols"><g class="legendpoints"><path class="legendundefined" d="M6,6H-6V-6H6Z" transform="translate(20,0)" style="stroke-width: 0px; fill: rgb(139, 69, 19); fill-opacity: 1;"/></g></g></g><rect class="legendtoggle" x="0" y="-9.5" width="99.71875" height="19" style="fill: rgb(0, 0, 0); fill-opacity: 0;"/></g></g><g class="groups" transform="translate(102.21875,0)"><g class="traces" transform="translate(0,14.5)" style="opacity: 1;"><text class="legendtext" text-anchor="start" x="40" y="4.29" style="font-family: Inter, Helvetica, Arial, sans-serif; font-size: 11px; fill: rgb(68, 68, 68); fill-opacity: 1; white-space: pre;">Gas</text><g class="layers" style="opacity: 1;"><g class="legendfill"/><g class="legendlines"/><g class="legendsymbols"><g class="legendpoints"><path class="legendundefined" d="M6,6H-6V-6H6Z" transform="translate(20,0)" style="stroke-width: 0px; fill: rgb(255, 107, 53); fill-opacity: 1;"/></g></g></g><rect class="legendtoggle" x="0" y="-9.5" width="62.703125" height="19" style="fill: rgb(0, 0, 0); fill-opacity: 0;"/></g></g><g class="groups" transform="translate(167.421875,0)"><g class="traces" transform="translate(0,14.5)" style="opacity: 1;"><text class="legendtext" text-anchor="start" x="40" y="4.29" style="font-family: Inter, Helvetica, Arial, sans-serif; font-size: 11px; fill: rgb(68, 68, 68); fill-opacity: 1; white-space: pre;">Heat Pump</text><g class="layers" style="opacity: 1;"><g class="legendfill"/><g class="legendlines"/><g class="legendsymbols"><g class="legendpoints"><path class="legendundefined" d="M6,6H-6V-6H6Z" transform="translate(20,0)" style="stroke-width: 0px; fill: rgb(33, 150, 243); fill-opacity: 1;"/></g></g></g><rect class="legendtoggle" x="0" y="-9.5" width="99.96875" height="19" style="fill: rgb(0, 0, 0); fill-opacity: 0;"/></g></g><g class="groups" transform="translate(269.890625,0)"><g class="traces" transform="translate(0,14.5)" style="opacity: 1;"><text class="legendtext" text-anchor="start" x="40" y="4.29" style="font-family: Inter, Helvetica, Arial, sans-serif; font-size: 11px; fill: rgb(68, 68, 68); fill-opacity: 1; white-space: pre;">Wood</text><g class="layers" style="opacity: 1;"><g class="legendfill"/><g class="legendlines"/><g class="legendsymbols"><g class="legendpoints"><path class="legendundefined" d="M6,6H-6V-6H6Z" transform="translate(20,0)" style="stroke-width: 0px; fill: rgb(76, 175, 80); fill-opacity: 1;"/></g></g></g><rect class="legendtoggle" x="0" y="-9.5" width="72.71875" height="19" style="fill: rgb(0, 0, 0); fill-opacity: 0;"/></g></g><g class="groups" transform="translate(345.109375,0)"><g class="traces" transform="translate(0,14.5)" style="opacity: 1;"><text class="legendtext" text-anchor="start" x="40" y="4.29" style="font-family: Inter, Helvetica, Arial, sans-serif; font-size: 11px; fill: rgb(68, 68, 68); fill-opacity: 1; white-space: pre;">Electricity</text><g class="layers" style="opacity: 1;"><g class="legendfill"/><g class="legendlines"/><g class="legendsymbols"><g class="legendpoints"><path class="legendundefined" d="M6,6H-6V-6H6Z" transform="translate(20,0)" style="stroke-width: 0px; fill: rgb(255, 193, 7); fill-opacity: 1;"/></g></g></g><rect class="legendtoggle" x="0" y="-9.5" width="93.9375" height="19" style="fill: rgb(0, 0, 0); fill-opacity: 0;"/></g></g><g class="groups" transform="translate(441.546875,0)"><g class="traces" transform="translate(0,14.5)" style="opacity: 1;"><text class="legendtext" text-anchor="start" x="40" y="4.29" style="font-family: Inter, Helvetica, Arial, sans-serif; font-size: 11px; fill: rgb(68, 68, 68); fill-opacity: 1; white-space: pre;">District Heating</text><g class="layers" style="opacity: 1;"><g class="legendfill"/><g class="legendlines"/><g class="legendsymbols"><g class="legendpoints"><path class="legendundefined" d="M6,6H-6V-6H6Z" transform="translate(20,0)" style="stroke-width: 0px; fill: rgb(156, 39, 176); fill-opacity: 1;"/></g></g></g><rect class="legendtoggle" x="0" y="-9.5" width="122.78125" height="19" style="fill: rgb(0, 0, 0); fill-opacity: 0;"/></g></g><g class="groups" transform="translate(566.828125,0)"><g class="traces" transform="translate(0,14.5)" style="opacity: 1;"><text class="legendtext" text-anchor="start" x="40" y="4.29" style="font-family: Inter, Helvetica, Arial, sans-serif; font-size: 11px; fill: rgb(68, 68, 68); fill-opacity: 1; white-space: pre;">Solar Thermal</text><g class="layers" style="opacity: 1;"><g class="legendfill"/><g class="legendlines"/><g class="legendsymbols"><g class="legendpoints"><path class="legendundefined" d="M6,6H-6V-6H6Z" transform="translate(20,0)" style="stroke-width: 0px; fill: rgb(0, 188, 212); fill-opacity: 1;"/></g></g></g><rect class="legendtoggle" x="0" y="-9.5" width="115.046875" height="19" style="fill: rgb(0, 0, 0); fill-opacity: 0;"/></g></g><g class="groups" transform="translate(684.375,0)"><g class="traces" transform="translate(0,14.5)" style="opacity: 1;"><text class="legendtext" text-anchor="start" x="40" y="4.29" style="font-family: Inter, Helvetica, Arial, sans-serif; font-size: 11px; fill: rgb(68, 68, 68); fill-opacity: 1; white-space: pre;">Other</text><g class="layers" style="opacity: 1;"><g class="legendfill"/><g class="legendlines"/><g class="legendsymbols"><g class="legendpoints"><path class="legendundefined" d="M6,6H-6V-6H6Z" transform="translate(20,0)" style="stroke-width: 0px; fill: rgb(96, 125, 139); fill-opacity: 1;"/></g></g></g><rect class="legendtoggle" x="0" y="-9.5" width="71.578125" height="19" style="fill: rgb(0, 0, 0); fill-opacity: 0;"/></g></g></g><rect class="scrollbar" rx="20" ry="3" width="0" height="0" style="fill: rgb(128, 139, 164); fill-opacity: 1;" x="0" y="0"/></g><g class="g-gtitle"/><g class="g-xtitle"><text class="xtitle" x="433.78000000000003" y="468" text-anchor="middle" style="opacity: 1; font-family: Inter, Helvetica, Arial, sans-serif; font-size: 16px; fill: rgb(68, 68, 68); fill-opacity: 1; white-space: pre;">Share (%)</text></g><g class="g-x2title"><text class="x2title" x="1044.18" y="468" text-anchor="middle" style="opacity: 1; font-family: Inter, Helvetica, Arial, sans-serif; font-size: 16px; fill: rgb(68, 68, 68); fill-opacity: 1; white-space: pre;">Year</text></g><g class="g-ytitle"/><g class="g-y2title"><text class="y2title" transform="rotate(-90,786.3600000000001,247.5)" x="786.3600000000001" y="247.5" text-anchor="middle" style="opacity: 1; font-family: Inter, Helvetica, Arial, sans-serif; font-size: 16px; fill: rgb(68, 68, 68); fill-opacity: 1; white-space: pre;">Heat Pump Share (%)</text></g><g class="annotation" data-index="0" style="opacity: 1;"><g class="annotation-text-g" transform="rotate(0,433.78000000000003,72.99999999999999)"><g class="cursor-pointer" transform="translate(264,61)"><rect class="bg" x="0.5" y="0.5" width="338" height="23" style="stroke-width: 1px; stroke: rgb(0, 0, 0); stroke-opacity: 0; fill: rgb(0, 0, 0); fill-opacity: 0;"/><text class="annotation-text" text-anchor="middle" x="169.5" y="18" style="font-family: Inter, Helvetica, Arial, sans-serif; font-size: 16px; fill: rgb(68, 68, 68); fill-opacity: 1; white-space: pre;">Heating Source by Building Category (2024)</text></g></g></g><g class="annotation" data-index="1" style="opacity: 1;"><g class="annotation-text-g" transform="rotate(0,1044.18,72.99999999999999)"><g class="cursor-pointer" transform="translate(890,61)"><rect class="bg" x="0.5" y="0.5" width="308" height="23" style="stroke-width: 1px; stroke: rgb(0, 0, 0); stroke-opacity: 0; fill: rgb(0, 0, 0); fill-opacity: 0;"/><text class="annotation-text" text-anchor="middle" x="154.359375" y="18" style="font-family: Inter, Helvetica, Arial, sans-serif; font-size: 16px; fill: rgb(68, 68, 68); fill-opacity: 1; white-space: pre;">Heat Pump Adoption Trend (2021–2024)</text></g></g></g><g class="annotation" data-index="2" style="opacity: 1;"><g class="annotation-text-g" transform="rotate(0,668.25,369.38)"><g class="cursor-pointer" transform="translate(646,361)"><rect class="bg" x="0.5" y="0.5" width="43" height="15" style="stroke-width: 1px; stroke: rgb(0, 0, 0); stroke-opacity: 0; fill: rgb(0, 0, 0); fill-opacity: 0;"/><text class="annotation-text" text-anchor="middle" x="22.203125" y="12" style="font-family: Inter, Helvetica, Arial, sans-serif; font-size: 10px; fill: rgb(68, 68, 68); fill-opacity: 1; white-space: pre;"><tspan style="font-weight:bold">n=1015k</tspan></text></g></g></g><g class="annotation" data-index="3" style="opacity: 1;"><g class="annotation-text-g" transform="rotate(0,668.25,288.13)"><g class="cursor-pointer" transform="translate(648,280)"><rect class="bg" x="0.5" y="0.5" width="39" height="15" style="stroke-width: 1px; stroke: rgb(0, 0, 0); stroke-opacity: 0; fill: rgb(0, 0, 0); fill-opacity: 0;"/><text class="annotation-text" text-anchor="middle" x="20.046875" y="12" style="font-family: Inter, Helvetica, Arial, sans-serif; font-size: 10px; fill: rgb(68, 68, 68); fill-opacity: 1; white-space: pre;"><tspan style="font-weight:bold">n=501k</tspan></text></g></g></g><g class="annotation" data-index="4" style="opacity: 1;"><g class="annotation-text-g" transform="rotate(0,668.25,206.88)"><g class="cursor-pointer" transform="translate(648,199)"><rect class="bg" x="0.5" y="0.5" width="39" height="15" style="stroke-width: 1px; stroke: rgb(0, 0, 0); stroke-opacity: 0; fill: rgb(0, 0, 0); fill-opacity: 0;"/><text class="annotation-text" text-anchor="middle" x="20.0625" y="12" style="font-family: Inter, Helvetica, Arial, sans-serif; font-size: 10px; fill: rgb(68, 68, 68); fill-opacity: 1; white-space: pre;"><tspan style="font-weight:bold">n=199k</tspan></text></g></g></g><g class="annotation" data-index="5" style="opacity: 1;"><g class="annotation-text-g" transform="rotate(0,668.25,125.63)"><g class="cursor-pointer" transform="translate(651,118)"><rect class="bg" x="0.5" y="0.5" width="34" height="15" style="stroke-width: 1px; stroke: rgb(0, 0, 0); stroke-opacity: 0; fill: rgb(0, 0, 0); fill-opacity: 0;"/><text class="annotation-text" text-anchor="middle" x="17.5" y="12" style="font-family: Inter, Helvetica, Arial, sans-serif; font-size: 10px; fill: rgb(68, 68, 68); fill-opacity: 1; white-space: pre;"><tspan style="font-weight:bold">n=78k</tspan></text></g></g></g></g></svg>