<svg class="main-svg" xmlns="http://www.w3.org/2000/svg" xmlns:xlink="http://www.w3.org/1999/xlink" width="1000" height="550" style="" viewBox="0 0 1000 550"><rect x="0" y="0" width="1000" height="550" style="fill: rgb(255, 255, 255); fill-opacity: 1;"/><defs id="defs-19187e"><g class="clips"><clipPath id="clip19187exyplot" class="plotclip"><rect width="910" height="370"/></clipPath><clipPath class="axesclip" id="clip19187ex"><rect x="60" y="0" width="910" height="550"/></clipPath><clipPath class="axesclip" id="clip19187ey"><rect x="0" y="75" width="1000" height="370"/></clipPath><clipPath class="axesclip" id="clip19187exy"><rect x="60" y="75" width="910" height="370"/></clipPath></g><g class="gradients"/><g class="patterns"/></defs><g class="bglayer"/><g class="layer-below"><g class="imagelayer"/><g class="shapelayer"/></g><g class="cartesianlayer"><g class="subplot xy"><g class="layer-subplot"><g class="shapelayer"/><g class="imagelayer"/></g><g class="minor-gridlayer"><g class="x"/><g class="y"/></g><g class="gridlayer"><g class="x"><path class="xgrid crisp" transform="translate(163.41,0)" d="M0,75v370" style="stroke: rgb(238, 238, 238); stroke-opacity: 1; stroke-width: 1px;"/><path class="xgrid crisp" transform="translate(266.82,0)" d="M0,75v370" style="stroke: rgb(238, 238, 238); stroke-opacity: 1; stroke-width: 1px;"/><path class="xgrid crisp" transform="translate(370.23,0)" d="M0,75v370" style="stroke: rgb(238, 238, 238); stroke-opacity: 1; stroke-width: 1px;"/><path class="xgrid crisp" transform="translate(473.64,0)" d="M0,75v370" style="stroke: rgb(238, 238, 238); stroke-opacity: 1; stroke-width: 1px;"/><path class="xgrid crisp" transform="translate(577.05,0)" d="M0,75v370" style="stroke: rgb(238, 238, 238); stroke-opacity: 1; stroke-width: 1px;"/><path class="xgrid crisp" transform="translate(680.45,0)" d="M0,75v370" style="stroke: rgb(238, 238, 238); stroke-opacity: 1; stroke-width: 1px;"/><path class="xgrid crisp" transform="translate(783.86,0)" d="M0,75v370" style="stroke: rgb(238, 238, 238); stroke-opacity: 1; stroke-width: 1px;"/><path class="xgrid crisp" transform="translate(887.27,0)" d="M0,75v370" style="stroke: rgb(238, 238, 238); stroke-opacity: 1; stroke-width: 1px;"/></g><g class="y"><path class="ygrid crisp" transform="translate(0,379.02)" d="M60,0h910" style="stroke: rgb(238, 238, 238); stroke-opacity: 1; stroke-width: 1px;"/><path class="ygrid crisp" transform="translate(0,313.03)" d="M60,0h910" style="stroke: rgb(238, 238, 238); stroke-opacity: 1; stroke-width: 1px;"/><path class="ygrid crisp" transform="translate(0,247.05)" d="M60,0h910" style="stroke: rgb(238, 238, 238); stroke-opacity: 1; stroke-width: 1px;"/><path class="ygrid crisp" transform="translate(0,181.06)" d="M60,0h910" style="stroke: rgb(238, 238, 238); stroke-opacity: 1; stroke-width: 1px;"/><path class="ygrid crisp" transform="translate(0,115.08)" d="M60,0h910" style="stroke: rgb(238, 238, 238); stroke-opacity: 1; stroke-width: 1px;"/></g></g><g class="zerolinelayer"><path class="yzl zl crisp" transform="translate(0,445)" d="M60,0h910" style="stroke: rgb(68, 68, 68); stroke-opacity: 1; stroke-width: 1px;"/></g><g class="layer-between"><g class="shapelayer"/><g class="imagelayer"/></g><path class="xlines-below"/><path class="ylines-below"/><g class="overlines-below"/><g class="xaxislayer-below"/><g class="yaxislayer-below"/><g class="overaxes-below"/><g class="overplot"><g class="xy" transform="translate(60,75)" clip-path="url(#clip19187exyplot)"><g class="scatterlayer mlayer"><g class="trace scatter traceb8e7e3" style="stroke-miterlimit: 2;"><g class="fills"><g><path class="js-fill" d="M910,370L0,370L0,152.4L20.68,168.52L41.36,177.95L62.05,169.75L82.73,165.57L103.41,168.46L124.09,163.38L144.77,174.34L165.45,179.26L186.14,189.98L206.82,189.02L227.5,181.03L248.18,182.05L268.86,194.11L289.55,204.14L310.23,193.48L330.91,190.73L351.59,201.34L372.27,195.75L392.95,201.96L413.64,216.28L434.32,207.88L455,214.51L475.68,206L496.36,207.65L517.05,206.07L537.73,212.84L558.41,234.27L579.09,226.33L599.77,230.81L620.45,222.37L641.14,255.04L661.82,245.65L682.5,238.68L703.18,270.72L723.86,265.06L744.55,262.54L765.23,269.43L785.91,280.29L806.59,281.92L827.27,291.52L847.95,282.73L868.64,302.27L889.32,304.17L910,306.88" style="fill: rgb(139, 69, 19); fill-opacity: 0.5; stroke-width: 0;"/></g><g><path class="js-fill" d="M0,104.53L20.68,120.2L41.36,130.56L62.05,120.1L82.73,111.43L103.41,111.63L124.09,104.9L144.77,114.06L165.45,119.09L186.14,128.81L206.82,126.24L227.5,115.25L248.18,114.75L268.86,126.78L289.55,136.72L310.23,123.73L330.91,118.18L351.59,130.75L372.27,123.9L392.95,128.05L413.64,141.56L434.32,131.48L455,137.11L475.68,126.77L496.36,126.35L517.05,122.33L537.73,128.73L558.41,151.26L579.09,141.3L599.77,145.68L620.45,133.92L641.14,169.82L661.82,158.57L682.5,149.55L703.18,183.9L723.86,176.01L744.55,172.03L765.23,178.26L785.91,189.85L806.59,191.54L827.27,199.57L847.95,185.85L868.64,208.98L889.32,211.89L910,212.73L910,306.88L889.32,304.17L868.64,302.27L847.95,282.73L827.27,291.52L806.59,281.92L785.91,280.29L765.23,269.43L744.55,262.54L723.86,265.06L703.18,270.72L682.5,238.68L661.82,245.65L641.14,255.04L620.45,222.37L599.77,230.81L579.09,226.33L558.41,234.27L537.73,212.84L517.05,206.07L496.36,207.65L475.68,206L455,214.51L434.32,207.88L413.64,216.28L392.95,201.96L372.27,195.75L351.59,201.34L330.91,190.73L310.23,193.48L289.55,204.14L268.86,194.11L248.18,182.05L227.5,181.03L206.82,189.02L186.14,189.98L165.45,179.26L144.77,174.34L124.09,163.38L103.41,168.46L82.73,165.57L62.05,169.75L41.36,177.95L20.68,168.52L0,152.4Z" style="fill: rgb(255, 193, 7); fill-opacity: 0.5; stroke-width: 0;"/></g></g><g class="errorbars"/><g class="lines"><path class="js-line" d="M0,152.4L20.68,168.52L41.36,177.95L62.05,169.75L82.73,165.57L103.41,168.46L124.09,163.38L144.77,174.34L165.45,179.26L186.14,189.98L206.82,189.02L227.5,181.03L248.18,182.05L268.86,194.11L289.55,204.14L310.23,193.48L330.91,190.73L351.59,201.34L372.27,195.75L392.95,201.96L413.64,216.28L434.32,207.88L455,214.51L475.68,206L496.36,207.65L517.05,206.07L537.73,212.84L558.41,234.27L579.09,226.33L599.77,230.81L620.45,222.37L641.14,255.04L661.82,245.65L682.5,238.68L703.18,270.72L723.86,265.06L744.55,262.54L765.23,269.43L785.91,280.29L806.59,281.92L827.27,291.52L847.95,282.73L868.64,302.27L889.32,304.17L910,306.88" style="vector-effect: none; fill: none; stroke: rgb(139, 69, 19); stroke-opacity: 1; stroke-width: 0.5px; opacity: 1;"/></g><g class="points"/><g class="text"/></g><g class="trace scatter trace020c4a" style="stroke-miterlimit: 2;"><g class="fills"><g><path class="js-fill" d="M0,89.53L20.68,104.08L41.36,112.71L62.05,99.37L82.73,88.11L103.41,87.14L124.09,79.54L144.77,86.25L165.45,89.26L186.14,96.93L206.82,91.68L227.5,75.79L248.18,73.43L289.55,97.05L310.23,78.24L330.91,67.29L351.59,84.6L372.27,75.79L392.95,77.31L413.64,93.27L434.32,81.01L455,87.06L475.68,73.36L496.36,71.2L517.05,65.69L537.73,74.36L558.41,99.23L579.09,85L599.77,89.28L620.45,69.92L641.14,115.48L661.82,96.14L682.5,81.94L703.18,127.65L723.86,114.82L744.55,107.25L765.23,114.14L785.91,128.91L806.59,128.4L827.27,137.4L847.95,115.87L868.64,149.2L889.32,155.37L910,156.43L910,212.73L889.32,211.89L868.64,208.98L847.95,185.85L827.27,199.57L806.59,191.54L785.91,189.85L765.23,178.26L744.55,172.03L723.86,176.01L703.18,183.9L682.5,149.55L661.82,158.57L641.14,169.82L620.45,133.92L599.77,145.68L579.09,141.3L558.41,151.26L537.73,128.73L517.05,122.33L496.36,126.35L475.68,126.77L455,137.11L434.32,131.48L413.64,141.56L392.95,128.05L372.27,123.9L351.59,130.75L330.91,118.18L310.23,123.73L289.55,136.72L268.86,126.78L248.18,114.75L227.5,115.25L206.82,126.24L186.14,128.81L165.45,119.09L144.77,114.06L124.09,104.9L103.41,111.63L82.73,111.43L62.05,120.1L41.36,130.56L20.68,120.2L0,104.53Z" style="fill: rgb(255, 107, 53); fill-opacity: 0.5; stroke-width: 0;"/></g></g><g class="errorbars"/><g class="lines"><path class="js-line" d="M0,104.53L20.68,120.2L41.36,130.56L62.05,120.1L82.73,111.43L103.41,111.63L124.09,104.9L144.77,114.06L165.45,119.09L186.14,128.81L206.82,126.24L227.5,115.25L248.18,114.75L268.86,126.78L289.55,136.72L310.23,123.73L330.91,118.18L351.59,130.75L372.27,123.9L392.95,128.05L413.64,141.56L434.32,131.48L455,137.11L475.68,126.77L496.36,126.35L517.05,122.33L537.73,128.73L558.41,151.26L579.09,141.3L599.77,145.68L620.45,133.92L641.14,169.82L661.82,158.57L682.5,149.55L703.18,183.9L723.86,176.01L744.55,172.03L765.23,178.26L785.91,189.85L806.59,191.54L827.27,199.57L847.95,185.85L868.64,208.98L889.32,211.89L910,212.73" style="vector-effect: none; fill: none; stroke: rgb(255, 193, 7); stroke-opacity: 1; stroke-width: 0.5px; opacity: 1;"/></g><g class="points"/><g class="text"/></g><g class="trace scatter trace0b997f" style="stroke-miterlimit: 2;"><g class="fills"><g><path class="js-fill" d="M0,57.97L20.68,74.16L41.36,84.06L62.05,70.38L82.73,57.77L103.41,56.57L124.09,49.83L144.77,56.48L165.45,61.36L186.14,69.27L206.82,63.92L227.5,45.54L248.18,44.71L268.86,56.67L289.55,71.3L310.23,51.14L330.91,38.08L351.59,58.99L372.27,49.62L392.95,51.52L413.64,69.53L434.32,55.94L455,63.33L475.68,48.18L496.36,46.42L517.05,40.02L537.73,48.77L558.41,75.85L579.09,59.05L599.77,63.07L620.45,41.24L641.14,91.8L661.82,70.09L682.5,53.02L703.18,104.62L723.86,89.82L744.55,80.3L765.23,87.56L785.91,103.84L806.59,103.26L827.27,113.77L847.95,88.75L868.64,125.57L889.32,130.81L910,131.43L910,156.43L889.32,155.37L868.64,149.2L847.95,115.87L827.27,137.4L806.59,128.4L785.91,128.91L765.23,114.14L744.55,107.25L723.86,114.82L703.18,127.65L682.5,81.94L661.82,96.14L641.14,115.48L620.45,69.92L599.77,89.28L579.09,85L558.41,99.23L537.73,74.36L517.05,65.69L496.36,71.2L475.68,73.36L455,87.06L434.32,81.01L413.64,93.27L392.95,77.31L372.27,75.79L351.59,84.6L330.91,67.29L310.23,78.24L289.55,97.05L248.18,73.43L227.5,75.79L206.82,91.68L186.14,96.93L165.45,89.26L144.77,86.25L124.09,79.54L103.41,87.14L82.73,88.11L62.05,99.37L41.36,112.71L20.68,104.08L0,89.53Z" style="fill: rgb(76, 175, 80); fill-opacity: 0.5; stroke-width: 0;"/></g></g><g class="errorbars"/><g class="lines"><path class="js-line" d="M0,89.53L20.68,104.08L41.36,112.71L62.05,99.37L82.73,88.11L103.41,87.14L124.09,79.54L144.77,86.25L165.45,89.26L186.14,96.93L206.82,91.68L227.5,75.79L248.18,73.43L289.55,97.05L310.23,78.24L330.91,67.29L351.59,84.6L372.27,75.79L392.95,77.31L413.64,93.27L434.32,81.01L455,87.06L475.68,73.36L496.36,71.2L517.05,65.69L537.73,74.36L558.41,99.23L579.09,85L599.77,89.28L620.45,69.92L641.14,115.48L661.82,96.14L682.5,81.94L703.18,127.65L723.86,114.82L744.55,107.25L765.23,114.14L785.91,128.91L806.59,128.4L827.27,137.4L847.95,115.87L868.64,149.2L889.32,155.37L910,156.43" style="vector-effect: none; fill: none; stroke: rgb(255, 107, 53); stroke-opacity: 1; stroke-width: 0.5px; opacity: 1;"/></g><g class="points"/><g class="text"/></g><g class="trace scatter tracef4e372" style="stroke-miterlimit: 2;"><g class="fills"><g><path class="js-fill" d="M0,57.97L20.68,74.16L41.36,84.06L62.05,70.38L82.73,57.77L103.41,56.57L124.09,49.83L144.77,56.48L165.45,61.36L186.14,69.27L206.82,60.8L227.5,41.91L248.18,41.09L268.86,52.89L289.55,67.58L310.23,46.97L330.91,33.43L351.59,54.47L372.27,44.74L392.95,46.42L413.64,64.41L434.32,50.38L455,57.6L475.68,41.92L496.36,39.85L517.05,32.77L537.73,41.2L558.41,67.65L579.09,49.31L599.77,52.26L620.45,28.19L641.14,78.97L661.82,55.16L682.5,36.37L703.18,88.85L723.86,72L744.55,60.74L765.23,67.16L785.91,83.68L806.59,81.29L827.27,91.07L847.95,62.55L868.64,100.47L889.32,103.58L910,102.6L910,131.43L889.32,130.81L868.64,125.57L847.95,88.75L827.27,113.77L806.59,103.26L785.91,103.84L765.23,87.56L744.55,80.3L723.86,89.82L703.18,104.62L682.5,53.02L661.82,70.09L641.14,91.8L620.45,41.24L599.77,63.07L579.09,59.05L558.41,75.85L537.73,48.77L517.05,40.02L496.36,46.42L475.68,48.18L455,63.33L434.32,55.94L413.64,69.53L392.95,51.52L372.27,49.62L351.59,58.99L330.91,38.08L310.23,51.14L289.55,71.3L268.86,56.67L248.18,44.71L227.5,45.54L206.82,63.92L186.14,69.27L165.45,61.36L144.77,56.48L124.09,49.83L103.41,56.57L82.73,57.77L62.05,70.38L41.36,84.06L20.68,74.16L0,57.97Z" style="fill: rgb(0, 188, 212); fill-opacity: 0.5; stroke-width: 0;"/></g></g><g class="errorbars"/><g class="lines"><path class="js-line" d="M0,57.97L20.68,74.16L41.36,84.06L62.05,70.38L82.73,57.77L103.41,56.57L124.09,49.83L144.77,56.48L165.45,61.36L186.14,69.27L206.82,63.92L227.5,45.54L248.18,44.71L268.86,56.67L289.55,71.3L310.23,51.14L330.91,38.08L351.59,58.99L372.27,49.62L392.95,51.52L413.64,69.53L434.32,55.94L455,63.33L475.68,48.18L496.36,46.42L517.05,40.02L537.73,48.77L558.41,75.85L579.09,59.05L599.77,63.07L620.45,41.24L641.14,91.8L661.82,70.09L682.5,53.02L703.18,104.62L723.86,89.82L744.55,80.3L765.23,87.56L785.91,103.84L806.59,103.26L827.27,113.77L847.95,88.75L868.64,125.57L889.32,130.81L910,131.43" style="vector-effect: none; fill: none; stroke: rgb(76, 175, 80); stroke-opacity: 1; stroke-width: 0.5px; opacity: 1;"/></g><g class="points"/><g class="text"/></g><g class="trace scatter tracee6f0c0" style="stroke-miterlimit: 2;"><g class="fills"><g><path class="js-fill" d="M0,55.12L20.68,71.23L41.36,80.91L62.05,66.51L82.73,53.47L103.41,52.15L124.09,45.04L165.45,55.97L186.14,63.78L206.82,54.94L227.5,35.11L248.18,34.36L268.86,46.72L289.55,61.63L310.23,40.57L330.91,26.62L351.59,47.23L372.27,37.35L392.95,39.72L413.64,58.08L434.32,43.59L455,50.73L475.68,35.35L496.36,33.06L517.05,25.63L537.73,33.94L558.41,61.11L579.09,41.92L599.77,44.8L620.45,19.03L641.14,71.18L661.82,46.79L682.5,26.93L703.18,80.3L723.86,62.06L744.55,50.9L765.23,56.96L785.91,73.76L806.59,69.98L827.27,79.67L847.95,49.88L868.64,89.22L889.32,91.39L910,89.33L910,102.6L889.32,103.58L868.64,100.47L847.95,62.55L827.27,91.07L806.59,81.29L785.91,83.68L765.23,67.16L744.55,60.74L723.86,72L703.18,88.85L682.5,36.37L661.82,55.16L641.14,78.97L620.45,28.19L599.77,52.26L579.09,49.31L558.41,67.65L537.73,41.2L517.05,32.77L496.36,39.85L475.68,41.92L455,57.6L434.32,50.38L413.64,64.41L392.95,46.42L372.27,44.74L351.59,54.47L330.91,33.43L310.23,46.97L289.55,67.58L268.86,52.89L248.18,41.09L227.5,41.91L206.82,60.8L186.14,69.27L165.45,61.36L144.77,56.48L124.09,49.83L103.41,56.57L82.73,57.77L62.05,70.38L41.36,84.06L20.68,74.16L0,57.97Z" style="fill: rgb(156, 39, 176); fill-opacity: 0.5; stroke-width: 0;"/></g></g><g class="errorbars"/><g class="lines"><path class="js-line" d="M0,57.97L20.68,74.16L41.36,84.06L62.05,70.38L82.73,57.77L103.41,56.57L124.09,49.83L144.77,56.48L165.45,61.36L186.14,69.27L206.82,60.8L227.5,41.91L248.18,41.09L268.86,52.89L289.55,67.58L310.23,46.97L330.91,33.43L351.59,54.47L372.27,44.74L392.95,46.42L413.64,64.41L434.32,50.38L455,57.6L475.68,41.92L496.36,39.85L517.05,32.77L537.73,41.2L558.41,67.65L579.09,49.31L599.77,52.26L620.45,28.19L641.14,78.97L661.82,55.16L682.5,36.37L703.18,88.85L723.86,72L744.55,60.74L765.23,67.16L785.91,83.68L806.59,81.29L827.27,91.07L847.95,62.55L868.64,100.47L889.32,103.58L910,102.6" style="vector-effect: none; fill: none; stroke: rgb(0, 188, 212); stroke-opacity: 1; stroke-width: 0.5px; opacity: 1;"/></g><g class="points"/><g class="text"/></g><g class="trace scatter traced52911" style="stroke-miterlimit: 2;"><g class="fills"><g><path class="js-fill" d="M0,50.23L20.68,67.2L41.36,76.7L82.73,50.59L103.41,49.31L124.09,42.54L144.77,48.75L165.45,54.49L186.14,62.5L206.82,54.11L227.5,34.13L248.18,33.54L268.86,46.02L289.55,60.99L310.23,39.96L330.91,26.27L351.59,46.94L372.27,37.16L392.95,39.54L413.64,57.91L434.32,43.42L455,50.56L475.68,35.18L496.36,32.53L517.05,25.1L537.73,33.41L558.41,60.58L579.09,41.4L599.77,44.27L620.45,18.5L641.14,70.79L661.82,46.4L682.5,26.54L703.18,80.04L723.86,61.8L744.55,50.63L765.23,56.82L785.91,73.62L806.59,69.85L827.27,79.54L847.95,49.75L868.64,89.16L889.32,91.32L910,89.28L910,89.33L889.32,91.39L868.64,89.22L847.95,49.88L827.27,79.67L806.59,69.98L785.91,73.76L765.23,56.96L744.55,50.9L723.86,62.06L703.18,80.3L682.5,26.93L661.82,46.79L641.14,71.18L620.45,19.03L599.77,44.8L579.09,41.92L558.41,61.11L537.73,33.94L517.05,25.63L496.36,33.06L475.68,35.35L455,50.73L434.32,43.59L413.64,58.08L392.95,39.72L372.27,37.35L351.59,47.23L330.91,26.62L310.23,40.57L289.55,61.63L268.86,46.72L248.18,34.36L227.5,35.11L206.82,54.94L186.14,63.78L165.45,55.97L124.09,45.04L103.41,52.15L82.73,53.47L62.05,66.51L41.36,80.91L20.68,71.23L0,55.12Z" style="fill: rgb(96, 125, 139); fill-opacity: 0.5; stroke-width: 0;"/></g></g><g class="errorbars"/><g class="lines"><path class="js-line" d="M0,55.12L20.68,71.23L41.36,80.91L62.05,66.51L82.73,53.47L103.41,52.15L124.09,45.04L165.45,55.97L186.14,63.78L206.82,54.94L227.5,35.11L248.18,34.36L268.86,46.72L289.55,61.63L310.23,40.57L330.91,26.62L351.59,47.23L372.27,37.35L392.95,39.72L413.64,58.08L434.32,43.59L455,50.73L475.68,35.35L496.36,33.06L517.05,25.63L537.73,33.94L558.41,61.11L579.09,41.92L599.77,44.8L620.45,19.03L641.14,71.18L661.82,46.79L682.5,26.93L703.18,80.3L723.86,62.06L744.55,50.9L765.23,56.96L785.91,73.76L806.59,69.98L827.27,79.67L847.95,49.88L868.64,89.22L889.32,91.39L910,89.33" style="vector-effect: none; fill: none; stroke: rgb(156, 39, 176); stroke-opacity: 1; stroke-width: 0.5px; opacity: 1;"/></g><g class="points"/><g class="text"/></g><g class="trace scatter traced05bbe" style="stroke-miterlimit: 2;"><g class="fills"><g><path class="js-fill" d="M0,50.23L20.68,67.2L41.36,76.7L82.73,50.59L103.41,49.31L124.09,42.54L144.77,48.75L165.45,54.49L186.14,62.5L206.82,54.11L227.5,34.13L248.18,33.54L268.86,46.02L289.55,60.99L310.23,39.96L330.91,26.27L351.59,46.94L372.27,37.16L392.95,39.54L413.64,57.91L434.32,43.42L455,50.56L475.68,35.18L496.36,32.53L517.05,25.1L537.73,33.41L558.41,60.58L579.09,41.4L599.77,44.27L620.45,18.5L641.14,70.79L661.82,46.4L682.5,26.54L703.18,80.04L723.86,61.8L744.55,50.63L765.23,56.82L785.91,73.62L806.59,69.85L827.27,79.54L847.95,49.75L868.64,89.16L889.32,91.32L910,89.28L910,89.28L889.32,91.32L868.64,89.16L847.95,49.75L827.27,79.54L806.59,69.85L785.91,73.62L765.23,56.82L744.55,50.63L723.86,61.8L703.18,80.04L682.5,26.54L661.82,46.4L641.14,70.79L620.45,18.5L599.77,44.27L579.09,41.4L558.41,60.58L537.73,33.41L517.05,25.1L496.36,32.53L475.68,35.18L455,50.56L434.32,43.42L413.64,57.91L392.95,39.54L372.27,37.16L351.59,46.94L330.91,26.27L310.23,39.96L289.55,60.99L268.86,46.02L248.18,33.54L227.5,34.13L206.82,54.11L186.14,62.5L165.45,54.49L144.77,48.75L124.09,42.54L103.41,49.31L82.73,50.59L41.36,76.7L20.68,67.2L0,50.23Z" style="fill: rgb(121, 85, 72); fill-opacity: 0.5; stroke-width: 0;"/></g></g><g class="errorbars"/><g class="lines"><path class="js-line" d="M0,50.23L20.68,67.2L41.36,76.7L82.73,50.59L103.41,49.31L124.09,42.54L144.77,48.75L165.45,54.49L186.14,62.5L206.82,54.11L227.5,34.13L248.18,33.54L268.86,46.02L289.55,60.99L310.23,39.96L330.91,26.27L351.59,46.94L372.27,37.16L392.95,39.54L413.64,57.91L434.32,43.42L455,50.56L475.68,35.18L496.36,32.53L517.05,25.1L537.73,33.41L558.41,60.58L579.09,41.4L599.77,44.27L620.45,18.5L641.14,70.79L661.82,46.4L682.5,26.54L703.18,80.04L723.86,61.8L744.55,50.63L765.23,56.82L785.91,73.62L806.59,69.85L827.27,79.54L847.95,49.75L868.64,89.16L889.32,91.32L910,89.28" style="vector-effect: none; fill: none; stroke: rgb(96, 125, 139); stroke-opacity: 1; stroke-width: 0.5px; opacity: 1;"/></g><g class="points"/><g class="text"/></g><g class="trace scatter trace8caa5d" style="stroke-miterlimit: 2;"><g class="fills"/><g class="errorbars"/><g class="lines"><path class="js-line" d="M0,50.23L20.68,67.2L41.36,76.7L82.73,50.59L103.41,49.31L124.09,42.54L144.77,48.75L165.45,54.49L186.14,62.5L206.82,54.11L227.5,34.13L248.18,33.54L268.86,46.02L289.55,60.99L310.23,39.96L330.91,26.27L351.59,46.94L372.27,37.16L392.95,39.54L413.64,57.91L434.32,43.42L455,50.56L475.68,35.18L496.36,32.53L517.05,25.1L537.73,33.41L558.41,60.58L579.09,41.4L599.77,44.27L620.45,18.5L641.14,70.79L661.82,46.4L682.5,26.54L703.18,80.04L723.86,61.8L744.55,50.63L765.23,56.82L785.91,73.62L806.59,69.85L827.27,79.54L847.95,49.75L868.64,89.16L889.32,91.32L910,89.28" style="vector-effect: none; fill: none; stroke: rgb(121, 85, 72); stroke-opacity: 1; stroke-width: 0.5px; opacity: 1;"/></g><g class="points"/><g class="text"/></g></g></g></g><g class="zerolinelayer-above"/><path class="xlines-above crisp" d="M0,0" style="fill: none;"/><path class="ylines-above crisp" d="M0,0" style="fill: none;"/><g class="overlines-above"/><g class="xaxislayer-above"><g class="xtick"><text text-anchor="middle" x="0" y="460" transform="translate(60,0)" style="font-family: Inter, Helvetica, Arial, sans-serif; font-size: 14px; fill: rgb(68, 68, 68); fill-opacity: 1; white-space: pre;">1980</text></g><g class="xtick"><text text-anchor="middle" x="0" y="460" style="font-family: Inter, Helvetica, Arial, sans-serif; font-size: 14px; fill: rgb(68, 68, 68); fill-opacity: 1; white-space: pre;" transform="translate(163.41,0)">1985</text></g><g class="xtick"><text text-anchor="middle" x="0" y="460" style="font-family: Inter, Helvetica, Arial, sans-serif; font-size: 14px; fill: rgb(68, 68, 68); fill-opacity: 1; white-space: pre;" transform="translate(266.82,0)">1990</text></g><g class="xtick"><text text-anchor="middle" x="0" y="460" style="font-family: Inter, Helvetica, Arial, sans-serif; font-size: 14px; fill: rgb(68, 68, 68); fill-opacity: 1; white-space: pre;" transform="translate(370.23,0)">1995</text></g><g class="xtick"><text text-anchor="middle" x="0" y="460" style="font-family: Inter, Helvetica, Arial, sans-serif; font-size: 14px; fill: rgb(68, 68, 68); fill-opacity: 1; white-space: pre;" transform="translate(473.64,0)">2000</text></g><g class="xtick"><text text-anchor="middle" x="0" y="460" style="font-family: Inter, Helvetica, Arial, sans-serif; font-size: 14px; fill: rgb(68, 68, 68); fill-opacity: 1; white-space: pre;" transform="translate(577.05,0)">2005</text></g><g class="xtick"><text text-anchor="middle" x="0" y="460" style="font-family: Inter, Helvetica, Arial, sans-serif; font-size: 14px; fill: rgb(68, 68, 68); fill-opacity: 1; white-space: pre;" transform="translate(680.45,0)">2010</text></g><g class="xtick"><text text-anchor="middle" x="0" y="460" style="font-family: Inter, Helvetica, Arial, sans-serif; font-size: 14px; fill: rgb(68, 68, 68); fill-opacity: 1; white-space: pre;" transform="translate(783.86,0)">2015</text></g><g class="xtick"><text text-anchor="middle" x="0" y="460" style="font-family: Inter, Helvetica, Arial, sans-serif; font-size: 14px; fill: rgb(68, 68, 68); fill-opacity: 1; white-space: pre;" transform="translate(887.27,0)">2020</text></g></g><g class="yaxislayer-above"><g class="ytick"><text text-anchor="end" x="59" y="4.8999999999999995" transform="translate(0,445)" style="font-family: Inter, Helvetica, Arial, sans-serif; font-size: 14px; fill: rgb(68, 68, 68); fill-opacity: 1; white-space: pre;">0</text></g><g class="ytick"><text text-anchor="end" x="59" y="4.8999999999999995" style="font-family: Inter, Helvetica, Arial, sans-serif; font-size: 14px; fill: rgb(68, 68, 68); fill-opacity: 1; white-space: pre;" transform="translate(0,379.02)">50k</text></g><g class="ytick"><text text-anchor="end" x="59" y="4.8999999999999995" style="font-family: Inter, Helvetica, Arial, sans-serif; font-size: 14px; fill: rgb(68, 68, 68); fill-opacity: 1; white-space: pre;" transform="translate(0,313.03)">100k</text></g><g class="ytick"><text text-anchor="end" x="59" y="4.8999999999999995" style="font-family: Inter, Helvetica, Arial, sans-serif; font-size: 14px; fill: rgb(68, 68, 68); fill-opacity: 1; white-space: pre;" transform="translate(0,247.05)">150k</text></g><g class="ytick"><text text-anchor="end" x="59" y="4.8999999999999995" style="font-family: Inter, Helvetica, Arial, sans-serif; font-size: 14px; fill: rgb(68, 68, 68); fill-opacity: 1; white-space: pre;" transform="translate(0,181.06)">200k</text></g><g class="ytick"><text text-anchor="end" x="59" y="4.8999999999999995" style="font-family: Inter, Helvetica, Arial, sans-serif; font-size: 14px; fill: rgb(68, 68, 68); fill-opacity: 1; white-space: pre;" transform="translate(0,115.08)">250k</text></g></g><g class="overaxes-above"/></g></g><g class="polarlayer"/><g class="smithlayer"/><g class="ternarylayer"/><g class="geolayer"/><g class="funnelarealayer"/><g class="pielayer"/><g class="iciclelayer"/><g class="treemaplayer"/><g class="sunburstlayer"/><g class="glimages"/><defs id="topdefs-19187e"><g class="clips"/><clipPath id="legend19187e"><rect width="764" height="48" x="0" y="0"/></clipPath></defs><g class="layer-above"><g class="imagelayer"/><g class="shapelayer"/></g><g class="infolayer"><g class="legend" pointer-events="all" transform="translate(133,489.5)"><rect class="bg" shape-rendering="crispEdges" style="stroke: rgb(68, 68, 68); stroke-opacity: 1; fill: rgb(255, 255, 255); fill-opacity: 1; stroke-width: 0px;" width="764" height="48" x="0" y="0"/><g class="scrollbox" transform="" clip-path="url(#legend19187e)"><g class="groups"><g class="traces" transform="translate(0,14.5)" style="opacity: 1;"><text class="legendtext" text-anchor="start" x="40" y="4.680000000000001" style="font-family: Inter, Helvetica, Arial, sans-serif; font-size: 12px; fill: rgb(68, 68, 68); fill-opacity: 1; white-space: pre;">Waste</text><g class="layers"><g class="legendfill"><path class="js-fill" d="M5,-2h30v6h-30z" style="stroke-width: 0; fill: rgb(121, 85, 72); fill-opacity: 0.5;"/></g><g class="legendlines"><path class="js-line" d="M5,-2h30" style="fill: none; stroke: rgb(121, 85, 72); stroke-opacity: 1; stroke-width: 0.5px;"/></g><g class="legendsymbols"><g class="legendpoints"/></g></g><rect class="legendtoggle" x="0" y="-9.5" width="77.59375" height="19" style="fill: rgb(0, 0, 0); fill-opacity: 0;"/></g><g class="traces" transform="translate(156.546875,14.5)" style="opacity: 1;"><text class="legendtext" text-anchor="start" x="40" y="4.680000000000001" style="font-family: Inter, Helvetica, Arial, sans-serif; font-size: 12px; fill: rgb(68, 68, 68); fill-opacity: 1; white-space: pre;">Coal</text><g class="layers"><g class="legendfill"><path class="js-fill" d="M5,-2h30v6h-30z" style="stroke-width: 0; fill: rgb(96, 125, 139); fill-opacity: 0.5;"/></g><g class="legendlines"><path class="js-line" d="M5,-2h30" style="fill: none; stroke: rgb(96, 125, 139); stroke-opacity: 1; stroke-width: 0.5px;"/></g><g class="legendsymbols"><g class="legendpoints"/></g></g><rect class="legendtoggle" x="0" y="-9.5" width="68.234375" height="19" style="fill: rgb(0, 0, 0); fill-opacity: 0;"/></g><g class="traces" transform="translate(313.09375,14.5)" style="opacity: 1;"><text class="legendtext" text-anchor="start" x="40" y="4.680000000000001" style="font-family: Inter, Helvetica, Arial, sans-serif; font-size: 12px; fill: rgb(68, 68, 68); fill-opacity: 1; white-space: pre;">District Heating</text><g class="layers"><g class="legendfill"><path class="js-fill" d="M5,-2h30v6h-30z" style="stroke-width: 0; fill: rgb(156, 39, 176); fill-opacity: 0.5;"/></g><g class="legendlines"><path class="js-line" d="M5,-2h30" style="fill: none; stroke: rgb(156, 39, 176); stroke-opacity: 1; stroke-width: 0.5px;"/></g><g class="legendsymbols"><g class="legendpoints"/></g></g><rect class="legendtoggle" x="0" y="-9.5" width="130.078125" height="19" style="fill: rgb(0, 0, 0); fill-opacity: 0;"/></g><g class="traces" transform="translate(469.640625,14.5)" style="opacity: 1;"><text class="legendtext" text-anchor="start" x="40" y="4.680000000000001" style="font-family: Inter, Helvetica, Arial, sans-serif; font-size: 12px; fill: rgb(68, 68, 68); fill-opacity: 1; white-space: pre;">Other Renewables</text><g class="layers"><g class="legendfill"><path class="js-fill" d="M5,-2h30v6h-30z" style="stroke-width: 0; fill: rgb(0, 188, 212); fill-opacity: 0.5;"/></g><g class="legendlines"><path class="js-line" d="M5,-2h30" style="fill: none; stroke: rgb(0, 188, 212); stroke-opacity: 1; stroke-width: 0.5px;"/></g><g class="legendsymbols"><g class="legendpoints"/></g></g><rect class="legendtoggle" x="0" y="-9.5" width="146.140625" height="19" style="fill: rgb(0, 0, 0); fill-opacity: 0;"/></g><g class="traces" transform="translate(626.1875,14.5)" style="opacity: 1;"><text class="legendtext" text-anchor="start" x="40" y="4.680000000000001" style="font-family: Inter, Helvetica, Arial, sans-serif; font-size: 12px; fill: rgb(68, 68, 68); fill-opacity: 1; white-space: pre;">Wood / Biomass</text><g class="layers"><g class="legendfill"><path class="js-fill" d="M5,-2h30v6h-30z" style="stroke-width: 0; fill: rgb(76, 175, 80); fill-opacity: 0.5;"/></g><g class="legendlines"><path class="js-line" d="M5,-2h30" style="fill: none; stroke: rgb(76, 175, 80); stroke-opacity: 1; stroke-width: 0.5px;"/></g><g class="legendsymbols"><g class="legendpoints"/></g></g><rect class="legendtoggle" x="0" y="-9.5" width="134.40625" height="19" style="fill: rgb(0, 0, 0); fill-opacity: 0;"/></g><g class="traces" transform="translate(0,33.5)" style="opacity: 1;"><text class="legendtext" text-anchor="start" x="40" y="4.680000000000001" style="font-family: Inter, Helvetica, Arial, sans-serif; font-size: 12px; fill: rgb(68, 68, 68); fill-opacity: 1; white-space: pre;">Natural Gas</text><g class="layers"><g class="legendfill"><path class="js-fill" d="M5,-2h30v6h-30z" style="stroke-width: 0; fill: rgb(255, 107, 53); fill-opacity: 0.5;"/></g><g class="legendlines"><path class="js-line" d="M5,-2h30" style="fill: none; stroke: rgb(255, 107, 53); stroke-opacity: 1; stroke-width: 0.5px;"/></g><g class="legendsymbols"><g class="legendpoints"/></g></g><rect class="legendtoggle" x="0" y="-9.5" width="108.875" height="19" style="fill: rgb(0, 0, 0); fill-opacity: 0;"/></g><g class="traces" transform="translate(156.546875,33.5)" style="opacity: 1;"><text class="legendtext" text-anchor="start" x="40" y="4.680000000000001" style="font-family: Inter, Helvetica, Arial, sans-serif; font-size: 12px; fill: rgb(68, 68, 68); fill-opacity: 1; white-space: pre;">Electricity</text><g class="layers"><g class="legendfill"><path class="js-fill" d="M5,-2h30v6h-30z" style="stroke-width: 0; fill: rgb(255, 193, 7); fill-opacity: 0.5;"/></g><g class="legendlines"><path class="js-line" d="M5,-2h30" style="fill: none; stroke: rgb(255, 193, 7); stroke-opacity: 1; stroke-width: 0.5px;"/></g><g class="legendsymbols"><g class="legendpoints"/></g></g><rect class="legendtoggle" x="0" y="-9.5" width="98.609375" height="19" style="fill: rgb(0, 0, 0); fill-opacity: 0;"/></g><g class="traces" transform="translate(313.09375,33.5)" style="opacity: 1;"><text class="legendtext" text-anchor="start" x="40" y="4.680000000000001" style="font-family: Inter, Helvetica, Arial, sans-serif; font-size: 12px; fill: rgb(68, 68, 68); fill-opacity: 1; white-space: pre;">Petroleum Products</text><g class="layers"><g class="legendfill"><path class="js-fill" d="M5,-2h30v6h-30z" style="stroke-width: 0; fill: rgb(139, 69, 19); fill-opacity: 0.5;"/></g><g class="legendlines"><path class="js-line" d="M5,-2h30" style="fill: none; stroke: rgb(139, 69, 19); stroke-opacity: 1; stroke-width: 0.5px;"/></g><g class="legendsymbols"><g class="legendpoints"/></g></g><rect class="legendtoggle" x="0" y="-9.5" width="154.046875" height="19" style="fill: rgb(0, 0, 0); fill-opacity: 0;"/></g></g></g><rect class="scrollbar" rx="20" ry="3" width="0" height="0" style="fill: rgb(128, 139, 164); fill-opacity: 1;" x="0" y="0"/></g><g class="g-gtitle"><text class="gtitle" x="500" y="37.5" text-anchor="middle" dy="0em" style="opacity: 1; font-family: Inter, Helvetica, Arial, sans-serif; font-size: 16px; fill: rgb(68, 68, 68); fill-opacity: 1; white-space: pre;">Swiss Household Final Energy Consumption by Carrier (TJ)</text></g><g class="g-xtitle"><text class="xtitle" x="515" y="494" text-anchor="middle" style="opacity: 1; font-family: Inter, Helvetica, Arial, sans-serif; font-size: 13px; fill: rgb(68, 68, 68); fill-opacity: 1; white-space: pre;">Year</text></g><g class="g-ytitle" transform="translate(-1.046875,0)"><text class="ytitle" transform="rotate(-90,24,260)" x="24" y="260" text-anchor="middle" style="opacity: 1; font-family: Inter, Helvetica, Arial, sans-serif; font-size: 13px; fill: rgb(68, 68, 68); fill-opacity: 1; white-space: pre;">Final Energy (TJ)</text></g></g></svg>