<svg class="main-svg" xmlns="http://www.w3.org/2000/svg" xmlns:xlink="http://www.w3.org/1999/xlink" width="1400" height="750" style="" viewBox="0 0 1400 750"><rect x="0" y="0" width="1400" height="750" style="fill: rgb(255, 255, 255); fill-opacity: 1;"/><defs id="defs-e341bc"><g class="clips"><clipPath id="clipe341bcxyplot" class="plotclip"><rect width="1280" height="498"/></clipPath><clipPath class="axesclip" id="clipe341bcx"><rect x="80" y="0" width="1280" height="750"/></clipPath><clipPath class="axesclip" id="clipe341bcy"><rect x="0" y="90" width="1400" height="498"/></clipPath><clipPath class="axesclip" id="clipe341bcxy"><rect x="80" y="90" width="1280" height="498"/></clipPath></g><g class="gradients"/><g class="patterns"/></defs><g class="bglayer"/><g class="layer-below"><g class="imagelayer"/><g class="shapelayer"/></g><g class="cartesianlayer"><g class="subplot xy"><g class="layer-subplot"><g class="shapelayer"/><g class="imagelayer"/></g><g class="minor-gridlayer"><g class="x"/><g class="y"/></g><g class="gridlayer"><g class="x"><path class="xgrid crisp" transform="translate(225.45,0)" d="M0,90v498" style="stroke: rgb(238, 238, 238); stroke-opacity: 1; stroke-width: 1px;"/><path class="xgrid crisp" transform="translate(370.91,0)" d="M0,90v498" style="stroke: rgb(238, 238, 238); stroke-opacity: 1; stroke-width: 1px;"/><path class="xgrid crisp" transform="translate(516.36,0)" d="M0,90v498" style="stroke: rgb(238, 238, 238); stroke-opacity: 1; stroke-width: 1px;"/><path class="xgrid crisp" transform="translate(661.82,0)" d="M0,90v498" style="stroke: rgb(238, 238, 238); stroke-opacity: 1; stroke-width: 1px;"/><path class="xgrid crisp" transform="translate(807.27,0)" d="M0,90v498" style="stroke: rgb(238, 238, 238); stroke-opacity: 1; stroke-width: 1px;"/><path class="xgrid crisp" transform="translate(952.73,0)" d="M0,90v498" style="stroke: rgb(238, 238, 238); stroke-opacity: 1; stroke-width: 1px;"/><path class="xgrid crisp" transform="translate(1098.1799999999998,0)" d="M0,90v498" style="stroke: rgb(238, 238, 238); stroke-opacity: 1; stroke-width: 1px;"/><path class="xgrid crisp" transform="translate(1243.64,0)" d="M0,90v498" style="stroke: rgb(238, 238, 238); stroke-opacity: 1; stroke-width: 1px;"/></g><g class="y"><path class="ygrid crisp" transform="translate(0,499.19)" d="M80,0h1280" style="stroke: rgb(238, 238, 238); stroke-opacity: 1; stroke-width: 1px;"/><path class="ygrid crisp" transform="translate(0,410.38)" d="M80,0h1280" style="stroke: rgb(238, 238, 238); stroke-opacity: 1; stroke-width: 1px;"/><path class="ygrid crisp" transform="translate(0,321.56)" d="M80,0h1280" style="stroke: rgb(238, 238, 238); stroke-opacity: 1; stroke-width: 1px;"/><path class="ygrid crisp" transform="translate(0,232.75)" d="M80,0h1280" style="stroke: rgb(238, 238, 238); stroke-opacity: 1; stroke-width: 1px;"/><path class="ygrid crisp" transform="translate(0,143.94)" d="M80,0h1280" style="stroke: rgb(238, 238, 238); stroke-opacity: 1; stroke-width: 1px;"/></g></g><g class="zerolinelayer"><path class="yzl zl crisp" transform="translate(0,588)" d="M80,0h1280" style="stroke: rgb(68, 68, 68); stroke-opacity: 1; stroke-width: 1px;"/></g><g class="layer-between"><g class="shapelayer"/><g class="imagelayer"/></g><path class="xlines-below"/><path class="ylines-below"/><g class="overlines-below"/><g class="xaxislayer-below"/><g class="yaxislayer-below"/><g class="overaxes-below"/><g class="overplot"><g class="xy" transform="translate(80,90)" clip-path="url(#clipe341bcxyplot)"><g class="scatterlayer mlayer"><g class="trace scatter tracebf8bbc" style="stroke-miterlimit: 2;"><g class="fills"><g><path class="js-fill" d="M1280,498L0,498L0,205.12L29.09,226.82L58.18,239.5L87.27,228.47L116.36,222.84L145.45,226.73L174.55,219.89L203.64,234.66L232.73,241.28L261.82,255.7L290.91,254.41L320,243.66L349.09,245.03L378.18,261.26L407.27,274.76L436.36,260.41L465.45,256.72L494.55,271L523.64,263.47L552.73,271.83L581.82,291.1L610.91,279.79L640,288.72L669.09,277.27L698.18,279.49L727.27,277.36L756.36,286.47L785.45,315.31L814.55,304.62L843.64,310.66L872.73,299.29L901.82,343.27L930.91,330.63L960,321.25L989.09,364.37L1018.18,356.75L1047.27,353.36L1076.36,362.63L1105.45,377.25L1134.55,379.45L1163.64,392.37L1192.73,380.54L1221.82,406.84L1250.91,409.4L1280,413.04" style="fill: rgb(139, 69, 19); fill-opacity: 0.5; stroke-width: 0;"/></g><g><path class="js-fill" d="M0,140.69L29.09,161.78L58.18,175.72L87.27,161.65L116.36,149.98L145.45,150.25L174.55,141.19L203.64,153.52L232.73,160.28L261.82,173.38L290.91,169.91L320,155.12L349.09,154.44L378.18,170.64L407.27,184.02L436.36,166.54L465.45,159.06L494.55,175.99L523.64,166.77L552.73,172.35L581.82,190.53L610.91,176.96L640,184.55L669.09,170.62L698.18,170.05L727.27,164.65L756.36,173.27L785.45,203.59L814.55,190.18L843.64,196.08L872.73,180.25L901.82,228.56L930.91,213.43L960,201.28L989.09,247.52L1018.18,236.89L1047.27,231.55L1076.36,239.93L1105.45,255.53L1134.55,257.8L1163.64,268.62L1192.73,250.14L1221.82,281.28L1250.91,285.19L1280,286.33L1280,413.04L1250.91,409.4L1221.82,406.84L1192.73,380.54L1163.64,392.37L1134.55,379.45L1105.45,377.25L1076.36,362.63L1047.27,353.36L1018.18,356.75L989.09,364.37L960,321.25L930.91,330.63L901.82,343.27L872.73,299.29L843.64,310.66L814.55,304.62L785.45,315.31L756.36,286.47L727.27,277.36L698.18,279.49L669.09,277.27L640,288.72L610.91,279.79L581.82,291.1L552.73,271.83L523.64,263.47L494.55,271L465.45,256.72L436.36,260.41L407.27,274.76L378.18,261.26L349.09,245.03L320,243.66L290.91,254.41L261.82,255.7L232.73,241.28L203.64,234.66L174.55,219.89L145.45,226.73L116.36,222.84L87.27,228.47L58.18,239.5L29.09,226.82L0,205.12Z" style="fill: rgb(255, 193, 7); fill-opacity: 0.5; stroke-width: 0;"/></g></g><g class="errorbars"/><g class="lines"><path class="js-line" d="M0,205.12L29.09,226.82L58.18,239.5L87.27,228.47L116.36,222.84L145.45,226.73L174.55,219.89L203.64,234.66L232.73,241.28L261.82,255.7L290.91,254.41L320,243.66L349.09,245.03L378.18,261.26L407.27,274.76L436.36,260.41L465.45,256.72L494.55,271L523.64,263.47L552.73,271.83L581.82,291.1L610.91,279.79L640,288.72L669.09,277.27L698.18,279.49L727.27,277.36L756.36,286.47L785.45,315.31L814.55,304.62L843.64,310.66L872.73,299.29L901.82,343.27L930.91,330.63L960,321.25L989.09,364.37L1018.18,356.75L1047.27,353.36L1076.36,362.63L1105.45,377.25L1134.55,379.45L1163.64,392.37L1192.73,380.54L1221.82,406.84L1250.91,409.4L1280,413.04" style="vector-effect: none; fill: none; stroke: rgb(139, 69, 19); stroke-opacity: 1; stroke-width: 0.5px; opacity: 1;"/></g><g class="points"/><g class="text"/></g><g class="trace scatter trace245693" style="stroke-miterlimit: 2;"><g class="fills"><g><path class="js-fill" d="M0,120.5L29.09,140.09L58.18,151.71L87.27,133.75L116.36,118.6L145.45,117.28L174.55,107.05L203.64,116.09L232.73,120.14L261.82,130.46L290.91,123.39L320,102.01L349.09,98.83L407.27,130.62L436.36,105.31L465.45,90.57L494.55,113.87L523.64,102.01L552.73,104.05L581.82,125.54L610.91,109.04L640,117.18L669.09,98.74L698.18,95.83L727.27,88.42L756.36,100.09L785.45,133.55L814.55,114.4L843.64,120.16L872.73,94.1L901.82,155.44L930.91,129.4L960,110.28L989.09,171.81L1018.18,154.55L1047.27,144.35L1076.36,153.62L1105.45,173.5L1134.55,172.82L1163.64,184.94L1192.73,155.95L1221.82,200.82L1250.91,209.11L1280,210.55L1280,286.33L1250.91,285.19L1221.82,281.28L1192.73,250.14L1163.64,268.62L1134.55,257.8L1105.45,255.53L1076.36,239.93L1047.27,231.55L1018.18,236.89L989.09,247.52L960,201.28L930.91,213.43L901.82,228.56L872.73,180.25L843.64,196.08L814.55,190.18L785.45,203.59L756.36,173.27L727.27,164.65L698.18,170.05L669.09,170.62L640,184.55L610.91,176.96L581.82,190.53L552.73,172.35L523.64,166.77L494.55,175.99L465.45,159.06L436.36,166.54L407.27,184.02L378.18,170.64L349.09,154.44L320,155.12L290.91,169.91L261.82,173.38L232.73,160.28L203.64,153.52L174.55,141.19L145.45,150.25L116.36,149.98L87.27,161.65L58.18,175.72L29.09,161.78L0,140.69Z" style="fill: rgb(255, 107, 53); fill-opacity: 0.5; stroke-width: 0;"/></g></g><g class="errorbars"/><g class="lines"><path class="js-line" d="M0,140.69L29.09,161.78L58.18,175.72L87.27,161.65L116.36,149.98L145.45,150.25L174.55,141.19L203.64,153.52L232.73,160.28L261.82,173.38L290.91,169.91L320,155.12L349.09,154.44L378.18,170.64L407.27,184.02L436.36,166.54L465.45,159.06L494.55,175.99L523.64,166.77L552.73,172.35L581.82,190.53L610.91,176.96L640,184.55L669.09,170.62L698.18,170.05L727.27,164.65L756.36,173.27L785.45,203.59L814.55,190.18L843.64,196.08L872.73,180.25L901.82,228.56L930.91,213.43L960,201.28L989.09,247.52L1018.18,236.89L1047.27,231.55L1076.36,239.93L1105.45,255.53L1134.55,257.8L1163.64,268.62L1192.73,250.14L1221.82,281.28L1250.91,285.19L1280,286.33" style="vector-effect: none; fill: none; stroke: rgb(255, 193, 7); stroke-opacity: 1; stroke-width: 0.5px; opacity: 1;"/></g><g class="points"/><g class="text"/></g><g class="trace scatter trace66db9e" style="stroke-miterlimit: 2;"><g class="fills"><g><path class="js-fill" d="M0,78.03L29.09,99.82L58.18,113.14L87.27,94.72L116.36,77.76L145.45,76.14L174.55,67.07L203.64,76.02L232.73,82.59L261.82,93.23L290.91,86.04L320,61.3L349.09,60.18L378.18,76.27L407.27,95.97L436.36,68.83L465.45,51.26L494.55,79.39L523.64,66.78L552.73,69.34L581.82,93.59L610.91,75.29L640,85.24L669.09,64.85L698.18,62.49L727.27,53.87L756.36,65.65L785.45,102.1L814.55,79.48L843.64,84.88L872.73,55.5L901.82,123.55L930.91,94.33L960,71.37L989.09,140.82L1018.18,120.89L1047.27,108.08L1076.36,117.85L1105.45,139.77L1134.55,138.99L1163.64,153.13L1192.73,119.45L1221.82,169.01L1250.91,176.06L1280,176.89L1280,210.55L1250.91,209.11L1221.82,200.82L1192.73,155.95L1163.64,184.94L1134.55,172.82L1105.45,173.5L1076.36,153.62L1047.27,144.35L1018.18,154.55L989.09,171.81L960,110.28L930.91,129.4L901.82,155.44L872.73,94.1L843.64,120.16L814.55,114.4L785.45,133.55L756.36,100.09L727.27,88.42L698.18,95.83L669.09,98.74L640,117.18L610.91,109.04L581.82,125.54L552.73,104.05L523.64,102.01L494.55,113.87L465.45,90.57L436.36,105.31L407.27,130.62L349.09,98.83L320,102.01L290.91,123.39L261.82,130.46L232.73,120.14L203.64,116.09L174.55,107.05L145.45,117.28L116.36,118.6L87.27,133.75L58.18,151.71L29.09,140.09L0,120.5Z" style="fill: rgb(76, 175, 80); fill-opacity: 0.5; stroke-width: 0;"/></g></g><g class="errorbars"/><g class="lines"><path class="js-line" d="M0,120.5L29.09,140.09L58.18,151.71L87.27,133.75L116.36,118.6L145.45,117.28L174.55,107.05L203.64,116.09L232.73,120.14L261.82,130.46L290.91,123.39L320,102.01L349.09,98.83L407.27,130.62L436.36,105.31L465.45,90.57L494.55,113.87L523.64,102.01L552.73,104.05L581.82,125.54L610.91,109.04L640,117.18L669.09,98.74L698.18,95.83L727.27,88.42L756.36,100.09L785.45,133.55L814.55,114.4L843.64,120.16L872.73,94.1L901.82,155.44L930.91,129.4L960,110.28L989.09,171.81L1018.18,154.55L1047.27,144.35L1076.36,153.62L1105.45,173.5L1134.55,172.82L1163.64,184.94L1192.73,155.95L1221.82,200.82L1250.91,209.11L1280,210.55" style="vector-effect: none; fill: none; stroke: rgb(255, 107, 53); stroke-opacity: 1; stroke-width: 0.5px; opacity: 1;"/></g><g class="points"/><g class="text"/></g><g class="trace scatter trace46dc35" style="stroke-miterlimit: 2;"><g class="fills"><g><path class="js-fill" d="M0,78.03L29.09,99.82L58.18,113.14L87.27,94.72L116.36,77.76L145.45,76.14L174.55,67.07L203.64,76.02L232.73,82.59L261.82,93.23L290.91,81.83L320,56.41L349.09,55.31L378.18,71.19L407.27,90.96L436.36,63.21L465.45,44.99L494.55,73.32L523.64,60.21L552.73,62.49L581.82,86.7L610.91,67.81L640,77.53L669.09,56.43L698.18,53.64L727.27,44.1L756.36,55.45L785.45,91.05L814.55,66.38L843.64,70.34L872.73,37.94L901.82,106.29L930.91,74.24L960,48.95L989.09,119.59L1018.18,96.91L1047.27,81.76L1076.36,90.39L1105.45,112.63L1134.55,109.41L1163.64,122.58L1192.73,84.19L1221.82,135.22L1250.91,139.41L1280,138.1L1280,176.89L1250.91,176.06L1221.82,169.01L1192.73,119.45L1163.64,153.13L1134.55,138.99L1105.45,139.77L1076.36,117.85L1047.27,108.08L1018.18,120.89L989.09,140.82L960,71.37L930.91,94.33L901.82,123.55L872.73,55.5L843.64,84.88L814.55,79.48L785.45,102.1L756.36,65.65L727.27,53.87L698.18,62.49L669.09,64.85L640,85.24L610.91,75.29L581.82,93.59L552.73,69.34L523.64,66.78L494.55,79.39L465.45,51.26L436.36,68.83L407.27,95.97L378.18,76.27L349.09,60.18L320,61.3L290.91,86.04L261.82,93.23L232.73,82.59L203.64,76.02L174.55,67.07L145.45,76.14L116.36,77.76L87.27,94.72L58.18,113.14L29.09,99.82L0,78.03Z" style="fill: rgb(0, 188, 212); fill-opacity: 0.5; stroke-width: 0;"/></g></g><g class="errorbars"/><g class="lines"><path class="js-line" d="M0,78.03L29.09,99.82L58.18,113.14L87.27,94.72L116.36,77.76L145.45,76.14L174.55,67.07L203.64,76.02L232.73,82.59L261.82,93.23L290.91,86.04L320,61.3L349.09,60.18L378.18,76.27L407.27,95.97L436.36,68.83L465.45,51.26L494.55,79.39L523.64,66.78L552.73,69.34L581.82,93.59L610.91,75.29L640,85.24L669.09,64.85L698.18,62.49L727.27,53.87L756.36,65.65L785.45,102.1L814.55,79.48L843.64,84.88L872.73,55.5L901.82,123.55L930.91,94.33L960,71.37L989.09,140.82L1018.18,120.89L1047.27,108.08L1076.36,117.85L1105.45,139.77L1134.55,138.99L1163.64,153.13L1192.73,119.45L1221.82,169.01L1250.91,176.06L1280,176.89" style="vector-effect: none; fill: none; stroke: rgb(76, 175, 80); stroke-opacity: 1; stroke-width: 0.5px; opacity: 1;"/></g><g class="points"/><g class="text"/></g><g class="trace scatter tracece4ac7" style="stroke-miterlimit: 2;"><g class="fills"><g><path class="js-fill" d="M0,74.19L29.09,95.88L58.18,108.9L87.27,89.52L116.36,71.97L145.45,70.19L174.55,60.62L232.73,75.33L261.82,85.84L290.91,73.94L320,47.26L349.09,46.25L378.18,62.88L407.27,82.95L436.36,54.6L465.45,35.82L494.55,63.57L523.64,50.26L552.73,53.46L581.82,78.17L610.91,58.67L640,68.28L669.09,47.58L698.18,44.49L727.27,34.49L756.36,45.68L785.45,82.25L814.55,56.43L843.64,60.3L872.73,25.61L901.82,95.81L930.91,62.98L960,36.25L989.09,108.08L1018.18,83.53L1047.27,68.51L1076.36,76.66L1105.45,99.27L1134.55,94.19L1163.64,107.23L1192.73,67.14L1221.82,120.09L1250.91,123L1280,120.23L1280,138.1L1250.91,139.41L1221.82,135.22L1192.73,84.19L1163.64,122.58L1134.55,109.41L1105.45,112.63L1076.36,90.39L1047.27,81.76L1018.18,96.91L989.09,119.59L960,48.95L930.91,74.24L901.82,106.29L872.73,37.94L843.64,70.34L814.55,66.38L785.45,91.05L756.36,55.45L727.27,44.1L698.18,53.64L669.09,56.43L640,77.53L610.91,67.81L581.82,86.7L552.73,62.49L523.64,60.21L494.55,73.32L465.45,44.99L436.36,63.21L407.27,90.96L378.18,71.19L349.09,55.31L320,56.41L290.91,81.83L261.82,93.23L232.73,82.59L203.64,76.02L174.55,67.07L145.45,76.14L116.36,77.76L87.27,94.72L58.18,113.14L29.09,99.82L0,78.03Z" style="fill: rgb(156, 39, 176); fill-opacity: 0.5; stroke-width: 0;"/></g></g><g class="errorbars"/><g class="lines"><path class="js-line" d="M0,78.03L29.09,99.82L58.18,113.14L87.27,94.72L116.36,77.76L145.45,76.14L174.55,67.07L203.64,76.02L232.73,82.59L261.82,93.23L290.91,81.83L320,56.41L349.09,55.31L378.18,71.19L407.27,90.96L436.36,63.21L465.45,44.99L494.55,73.32L523.64,60.21L552.73,62.49L581.82,86.7L610.91,67.81L640,77.53L669.09,56.43L698.18,53.64L727.27,44.1L756.36,55.45L785.45,91.05L814.55,66.38L843.64,70.34L872.73,37.94L901.82,106.29L930.91,74.24L960,48.95L989.09,119.59L1018.18,96.91L1047.27,81.76L1076.36,90.39L1105.45,112.63L1134.55,109.41L1163.64,122.58L1192.73,84.19L1221.82,135.22L1250.91,139.41L1280,138.1" style="vector-effect: none; fill: none; stroke: rgb(0, 188, 212); stroke-opacity: 1; stroke-width: 0.5px; opacity: 1;"/></g><g class="points"/><g class="text"/></g><g class="trace scatter traceb12db2" style="stroke-miterlimit: 2;"><g class="fills"><g><path class="js-fill" d="M0,67.6L29.09,90.44L58.18,103.23L87.27,85.08L116.36,68.1L145.45,66.38L174.55,57.26L232.73,73.34L261.82,84.12L290.91,72.82L320,45.93L349.09,45.15L378.18,61.93L407.27,82.09L436.36,53.78L465.45,35.36L494.55,63.18L523.64,50.02L552.73,53.21L581.82,77.94L610.91,58.44L640,68.04L669.09,47.35L698.18,43.78L727.27,33.78L756.36,44.97L785.45,81.54L814.55,55.72L843.64,59.59L872.73,24.9L901.82,95.27L930.91,62.45L960,35.72L989.09,107.73L1018.18,83.18L1047.27,68.15L1076.36,76.48L1105.45,99.09L1134.55,94.01L1163.64,107.05L1192.73,66.96L1221.82,120L1250.91,122.91L1280,120.16L1280,120.23L1250.91,123L1221.82,120.09L1192.73,67.14L1163.64,107.23L1134.55,94.19L1105.45,99.27L1076.36,76.66L1047.27,68.51L1018.18,83.53L989.09,108.08L960,36.25L930.91,62.98L901.82,95.81L872.73,25.61L843.64,60.3L814.55,56.43L785.45,82.25L756.36,45.68L727.27,34.49L698.18,44.49L669.09,47.58L640,68.28L610.91,58.67L581.82,78.17L552.73,53.46L523.64,50.26L494.55,63.57L465.45,35.82L436.36,54.6L407.27,82.95L378.18,62.88L349.09,46.25L320,47.26L290.91,73.94L261.82,85.84L232.73,75.33L174.55,60.62L145.45,70.19L116.36,71.97L87.27,89.52L58.18,108.9L29.09,95.88L0,74.19Z" style="fill: rgb(96, 125, 139); fill-opacity: 0.5; stroke-width: 0;"/></g></g><g class="errorbars"/><g class="lines"><path class="js-line" d="M0,74.19L29.09,95.88L58.18,108.9L87.27,89.52L116.36,71.97L145.45,70.19L174.55,60.62L232.73,75.33L261.82,85.84L290.91,73.94L320,47.26L349.09,46.25L378.18,62.88L407.27,82.95L436.36,54.6L465.45,35.82L494.55,63.57L523.64,50.26L552.73,53.46L581.82,78.17L610.91,58.67L640,68.28L669.09,47.58L698.18,44.49L727.27,34.49L756.36,45.68L785.45,82.25L814.55,56.43L843.64,60.3L872.73,25.61L901.82,95.81L930.91,62.98L960,36.25L989.09,108.08L1018.18,83.53L1047.27,68.51L1076.36,76.66L1105.45,99.27L1134.55,94.19L1163.64,107.23L1192.73,67.14L1221.82,120.09L1250.91,123L1280,120.23" style="vector-effect: none; fill: none; stroke: rgb(156, 39, 176); stroke-opacity: 1; stroke-width: 0.5px; opacity: 1;"/></g><g class="points"/><g class="text"/></g><g class="trace scatter trace2eb845" style="stroke-miterlimit: 2;"><g class="fills"><g><path class="js-fill" d="M0,67.6L29.09,90.44L58.18,103.23L87.27,85.08L116.36,68.1L145.45,66.38L174.55,57.26L232.73,73.34L261.82,84.12L290.91,72.82L320,45.93L349.09,45.15L378.18,61.93L407.27,82.09L436.36,53.78L465.45,35.36L494.55,63.18L523.64,50.02L552.73,53.21L581.82,77.94L610.91,58.44L640,68.04L669.09,47.35L698.18,43.78L727.27,33.78L756.36,44.97L785.45,81.54L814.55,55.72L843.64,59.59L872.73,24.9L901.82,95.27L930.91,62.45L960,35.72L989.09,107.73L1018.18,83.18L1047.27,68.15L1076.36,76.48L1105.45,99.09L1134.55,94.01L1163.64,107.05L1192.73,66.96L1221.82,120L1250.91,122.91L1280,120.16L1280,120.16L1250.91,122.91L1221.82,120L1192.73,66.96L1163.64,107.05L1134.55,94.01L1105.45,99.09L1076.36,76.48L1047.27,68.15L1018.18,83.18L989.09,107.73L960,35.72L930.91,62.45L901.82,95.27L872.73,24.9L843.64,59.59L814.55,55.72L785.45,81.54L756.36,44.97L727.27,33.78L698.18,43.78L669.09,47.35L640,68.04L610.91,58.44L581.82,77.94L552.73,53.21L523.64,50.02L494.55,63.18L465.45,35.36L436.36,53.78L407.27,82.09L378.18,61.93L349.09,45.15L320,45.93L290.91,72.82L261.82,84.12L232.73,73.34L174.55,57.26L145.45,66.38L116.36,68.1L87.27,85.08L58.18,103.23L29.09,90.44L0,67.6Z" style="fill: rgb(121, 85, 72); fill-opacity: 0.5; stroke-width: 0;"/></g></g><g class="errorbars"/><g class="lines"><path class="js-line" d="M0,67.6L29.09,90.44L58.18,103.23L87.27,85.08L116.36,68.1L145.45,66.38L174.55,57.26L232.73,73.34L261.82,84.12L290.91,72.82L320,45.93L349.09,45.15L378.18,61.93L407.27,82.09L436.36,53.78L465.45,35.36L494.55,63.18L523.64,50.02L552.73,53.21L581.82,77.94L610.91,58.44L640,68.04L669.09,47.35L698.18,43.78L727.27,33.78L756.36,44.97L785.45,81.54L814.55,55.72L843.64,59.59L872.73,24.9L901.82,95.27L930.91,62.45L960,35.72L989.09,107.73L1018.18,83.18L1047.27,68.15L1076.36,76.48L1105.45,99.09L1134.55,94.01L1163.64,107.05L1192.73,66.96L1221.82,120L1250.91,122.91L1280,120.16" style="vector-effect: none; fill: none; stroke: rgb(96, 125, 139); stroke-opacity: 1; stroke-width: 0.5px; opacity: 1;"/></g><g class="points"/><g class="text"/></g><g class="trace scatter trace35cec1" style="stroke-miterlimit: 2;"><g class="fills"/><g class="errorbars"/><g class="lines"><path class="js-line" d="M0,67.6L29.09,90.44L58.18,103.23L87.27,85.08L116.36,68.1L145.45,66.38L174.55,57.26L232.73,73.34L261.82,84.12L290.91,72.82L320,45.93L349.09,45.15L378.18,61.93L407.27,82.09L436.36,53.78L465.45,35.36L494.55,63.18L523.64,50.02L552.73,53.21L581.82,77.94L610.91,58.44L640,68.04L669.09,47.35L698.18,43.78L727.27,33.78L756.36,44.97L785.45,81.54L814.55,55.72L843.64,59.59L872.73,24.9L901.82,95.27L930.91,62.45L960,35.72L989.09,107.73L1018.18,83.18L1047.27,68.15L1076.36,76.48L1105.45,99.09L1134.55,94.01L1163.64,107.05L1192.73,66.96L1221.82,120L1250.91,122.91L1280,120.16" style="vector-effect: none; fill: none; stroke: rgb(121, 85, 72); stroke-opacity: 1; stroke-width: 0.5px; opacity: 1;"/></g><g class="points"/><g class="text"/></g></g></g></g><g class="zerolinelayer-above"/><path class="xlines-above crisp" d="M0,0" style="fill: none;"/><path class="ylines-above crisp" d="M0,0" style="fill: none;"/><g class="overlines-above"/><g class="xaxislayer-above"><g class="xtick"><text text-anchor="middle" x="0" y="606" transform="translate(80,0)" style="font-family: Inter, Helvetica, Arial, sans-serif; font-size: 17px; fill: rgb(68, 68, 68); fill-opacity: 1; white-space: pre;">1980</text></g><g class="xtick"><text text-anchor="middle" x="0" y="606" style="font-family: Inter, Helvetica, Arial, sans-serif; font-size: 17px; fill: rgb(68, 68, 68); fill-opacity: 1; white-space: pre;" transform="translate(225.45,0)">1985</text></g><g class="xtick"><text text-anchor="middle" x="0" y="606" style="font-family: Inter, Helvetica, Arial, sans-serif; font-size: 17px; fill: rgb(68, 68, 68); fill-opacity: 1; white-space: pre;" transform="translate(370.91,0)">1990</text></g><g class="xtick"><text text-anchor="middle" x="0" y="606" style="font-family: Inter, Helvetica, Arial, sans-serif; font-size: 17px; fill: rgb(68, 68, 68); fill-opacity: 1; white-space: pre;" transform="translate(516.36,0)">1995</text></g><g class="xtick"><text text-anchor="middle" x="0" y="606" style="font-family: Inter, Helvetica, Arial, sans-serif; font-size: 17px; fill: rgb(68, 68, 68); fill-opacity: 1; white-space: pre;" transform="translate(661.82,0)">2000</text></g><g class="xtick"><text text-anchor="middle" x="0" y="606" style="font-family: Inter, Helvetica, Arial, sans-serif; font-size: 17px; fill: rgb(68, 68, 68); fill-opacity: 1; white-space: pre;" transform="translate(807.27,0)">2005</text></g><g class="xtick"><text text-anchor="middle" x="0" y="606" style="font-family: Inter, Helvetica, Arial, sans-serif; font-size: 17px; fill: rgb(68, 68, 68); fill-opacity: 1; white-space: pre;" transform="translate(952.73,0)">2010</text></g><g class="xtick"><text text-anchor="middle" x="0" y="606" style="font-family: Inter, Helvetica, Arial, sans-serif; font-size: 17px; fill: rgb(68, 68, 68); fill-opacity: 1; white-space: pre;" transform="translate(1098.1799999999998,0)">2015</text></g><g class="xtick"><text text-anchor="middle" x="0" y="606" style="font-family: Inter, Helvetica, Arial, sans-serif; font-size: 17px; fill: rgb(68, 68, 68); fill-opacity: 1; white-space: pre;" transform="translate(1243.64,0)">2020</text></g></g><g class="yaxislayer-above"><g class="ytick"><text text-anchor="end" x="79" y="5.949999999999999" transform="translate(0,588)" style="font-family: Inter, Helvetica, Arial, sans-serif; font-size: 17px; fill: rgb(68, 68, 68); fill-opacity: 1; white-space: pre;">0</text></g><g class="ytick"><text text-anchor="end" x="79" y="5.949999999999999" style="font-family: Inter, Helvetica, Arial, sans-serif; font-size: 17px; fill: rgb(68, 68, 68); fill-opacity: 1; white-space: pre;" transform="translate(0,499.19)">50k</text></g><g class="ytick"><text text-anchor="end" x="79" y="5.949999999999999" style="font-family: Inter, Helvetica, Arial, sans-serif; font-size: 17px; fill: rgb(68, 68, 68); fill-opacity: 1; white-space: pre;" transform="translate(0,410.38)">100k</text></g><g class="ytick"><text text-anchor="end" x="79" y="5.949999999999999" style="font-family: Inter, Helvetica, Arial, sans-serif; font-size: 17px; fill: rgb(68, 68, 68); fill-opacity: 1; white-space: pre;" transform="translate(0,321.56)">150k</text></g><g class="ytick"><text text-anchor="end" x="79" y="5.949999999999999" style="font-family: Inter, Helvetica, Arial, sans-serif; font-size: 17px; fill: rgb(68, 68, 68); fill-opacity: 1; white-space: pre;" transform="translate(0,232.75)">200k</text></g><g class="ytick"><text text-anchor="end" x="79" y="5.949999999999999" style="font-family: Inter, Helvetica, Arial, sans-serif; font-size: 17px; fill: rgb(68, 68, 68); fill-opacity: 1; white-space: pre;" transform="translate(0,143.94)">250k</text></g></g><g class="overaxes-above"/></g></g><g class="polarlayer"/><g class="smithlayer"/><g class="ternarylayer"/><g class="geolayer"/><g class="funnelarealayer"/><g class="pielayer"/><g class="iciclelayer"/><g class="treemaplayer"/><g class="sunburstlayer"/><g class="glimages"/><defs id="topdefs-e341bc"><g class="clips"/><clipPath id="legende341bc"><rect width="1131" height="34" x="0" y="0"/></clipPath></defs><g class="layer-above"><g class="imagelayer"/><g class="shapelayer"/></g><g class="infolayer"><g class="legend" pointer-events="all" transform="translate(154.5,703.4)"><rect class="bg" shape-rendering="crispEdges" style="stroke: rgb(68, 68, 68); stroke-opacity: 1; fill: rgb(255, 255, 255); fill-opacity: 1; stroke-width: 0px;" width="1131" height="34" x="0" y="0"/><g class="scrollbox" transform="" clip-path="url(#legende341bc)"><g class="groups"><g class="traces" transform="translate(0,16.9)" style="opacity: 1;"><text class="legendtext" text-anchor="start" x="40" y="6.24" style="font-family: Inter, Helvetica, Arial, sans-serif; font-size: 16px; fill: rgb(68, 68, 68); fill-opacity: 1; white-space: pre;">Waste</text><g class="layers"><g class="legendfill"><path class="js-fill" d="M5,-2h30v6h-30z" style="stroke-width: 0; fill: rgb(121, 85, 72); fill-opacity: 0.5;"/></g><g class="legendlines"><path class="js-line" d="M5,-2h30" style="fill: none; stroke: rgb(121, 85, 72); stroke-opacity: 1; stroke-width: 0.5px;"/></g><g class="legendsymbols"><g class="legendpoints"/></g></g><rect class="legendtoggle" x="0" y="-11.9" width="89.296875" height="23.8" style="fill: rgb(0, 0, 0); fill-opacity: 0;"/></g><g class="traces" transform="translate(91.796875,16.9)" style="opacity: 1;"><text class="legendtext" text-anchor="start" x="40" y="6.24" style="font-family: Inter, Helvetica, Arial, sans-serif; font-size: 16px; fill: rgb(68, 68, 68); fill-opacity: 1; white-space: pre;">Coal</text><g class="layers"><g class="legendfill"><path class="js-fill" d="M5,-2h30v6h-30z" style="stroke-width: 0; fill: rgb(96, 125, 139); fill-opacity: 0.5;"/></g><g class="legendlines"><path class="js-line" d="M5,-2h30" style="fill: none; stroke: rgb(96, 125, 139); stroke-opacity: 1; stroke-width: 0.5px;"/></g><g class="legendsymbols"><g class="legendpoints"/></g></g><rect class="legendtoggle" x="0" y="-11.9" width="76.796875" height="23.8" style="fill: rgb(0, 0, 0); fill-opacity: 0;"/></g><g class="traces" transform="translate(171.09375,16.9)" style="opacity: 1;"><text class="legendtext" text-anchor="start" x="40" y="6.24" style="font-family: Inter, Helvetica, Arial, sans-serif; font-size: 16px; fill: rgb(68, 68, 68); fill-opacity: 1; white-space: pre;">District Heating</text><g class="layers"><g class="legendfill"><path class="js-fill" d="M5,-2h30v6h-30z" style="stroke-width: 0; fill: rgb(156, 39, 176); fill-opacity: 0.5;"/></g><g class="legendlines"><path class="js-line" d="M5,-2h30" style="fill: none; stroke: rgb(156, 39, 176); stroke-opacity: 1; stroke-width: 0.5px;"/></g><g class="legendsymbols"><g class="legendpoints"/></g></g><rect class="legendtoggle" x="0" y="-11.9" width="159.265625" height="23.8" style="fill: rgb(0, 0, 0); fill-opacity: 0;"/></g><g class="traces" transform="translate(332.859375,16.9)" style="opacity: 1;"><text class="legendtext" text-anchor="start" x="40" y="6.24" style="font-family: Inter, Helvetica, Arial, sans-serif; font-size: 16px; fill: rgb(68, 68, 68); fill-opacity: 1; white-space: pre;">Other Renewables</text><g class="layers"><g class="legendfill"><path class="js-fill" d="M5,-2h30v6h-30z" style="stroke-width: 0; fill: rgb(0, 188, 212); fill-opacity: 0.5;"/></g><g class="legendlines"><path class="js-line" d="M5,-2h30" style="fill: none; stroke: rgb(0, 188, 212); stroke-opacity: 1; stroke-width: 0.5px;"/></g><g class="legendsymbols"><g class="legendpoints"/></g></g><rect class="legendtoggle" x="0" y="-11.9" width="180.6875" height="23.8" style="fill: rgb(0, 0, 0); fill-opacity: 0;"/></g><g class="traces" transform="translate(516.046875,16.9)" style="opacity: 1;"><text class="legendtext" text-anchor="start" x="40" y="6.24" style="font-family: Inter, Helvetica, Arial, sans-serif; font-size: 16px; fill: rgb(68, 68, 68); fill-opacity: 1; white-space: pre;">Wood / Biomass</text><g class="layers"><g class="legendfill"><path class="js-fill" d="M5,-2h30v6h-30z" style="stroke-width: 0; fill: rgb(76, 175, 80); fill-opacity: 0.5;"/></g><g class="legendlines"><path class="js-line" d="M5,-2h30" style="fill: none; stroke: rgb(76, 175, 80); stroke-opacity: 1; stroke-width: 0.5px;"/></g><g class="legendsymbols"><g class="legendpoints"/></g></g><rect class="legendtoggle" x="0" y="-11.9" width="165.03125" height="23.8" style="fill: rgb(0, 0, 0); fill-opacity: 0;"/></g><g class="traces" transform="translate(683.578125,16.9)" style="opacity: 1;"><text class="legendtext" text-anchor="start" x="40" y="6.24" style="font-family: Inter, Helvetica, Arial, sans-serif; font-size: 16px; fill: rgb(68, 68, 68); fill-opacity: 1; white-space: pre;">Natural Gas</text><g class="layers"><g class="legendfill"><path class="js-fill" d="M5,-2h30v6h-30z" style="stroke-width: 0; fill: rgb(255, 107, 53); fill-opacity: 0.5;"/></g><g class="legendlines"><path class="js-line" d="M5,-2h30" style="fill: none; stroke: rgb(255, 107, 53); stroke-opacity: 1; stroke-width: 0.5px;"/></g><g class="legendsymbols"><g class="legendpoints"/></g></g><rect class="legendtoggle" x="0" y="-11.9" width="130.984375" height="23.8" style="fill: rgb(0, 0, 0); fill-opacity: 0;"/></g><g class="traces" transform="translate(817.0625,16.9)" style="opacity: 1;"><text class="legendtext" text-anchor="start" x="40" y="6.24" style="font-family: Inter, Helvetica, Arial, sans-serif; font-size: 16px; fill: rgb(68, 68, 68); fill-opacity: 1; white-space: pre;">Electricity</text><g class="layers"><g class="legendfill"><path class="js-fill" d="M5,-2h30v6h-30z" style="stroke-width: 0; fill: rgb(255, 193, 7); fill-opacity: 0.5;"/></g><g class="legendlines"><path class="js-line" d="M5,-2h30" style="fill: none; stroke: rgb(255, 193, 7); stroke-opacity: 1; stroke-width: 0.5px;"/></g><g class="legendsymbols"><g class="legendpoints"/></g></g><rect class="legendtoggle" x="0" y="-11.9" width="117.3125" height="23.8" style="fill: rgb(0, 0, 0); fill-opacity: 0;"/></g><g class="traces" transform="translate(936.875,16.9)" style="opacity: 1;"><text class="legendtext" text-anchor="start" x="40" y="6.24" style="font-family: Inter, Helvetica, Arial, sans-serif; font-size: 16px; fill: rgb(68, 68, 68); fill-opacity: 1; white-space: pre;">Petroleum Products</text><g class="layers"><g class="legendfill"><path class="js-fill" d="M5,-2h30v6h-30z" style="stroke-width: 0; fill: rgb(139, 69, 19); fill-opacity: 0.5;"/></g><g class="legendlines"><path class="js-line" d="M5,-2h30" style="fill: none; stroke: rgb(139, 69, 19); stroke-opacity: 1; stroke-width: 0.5px;"/></g><g class="legendsymbols"><g class="legendpoints"/></g></g><rect class="legendtoggle" x="0" y="-11.9" width="191.21875" height="23.8" style="fill: rgb(0, 0, 0); fill-opacity: 0;"/></g></g></g><rect class="scrollbar" rx="20" ry="3" width="0" height="0" style="fill: rgb(128, 139, 164); fill-opacity: 1;" x="0" y="0"/></g><g class="g-gtitle"><text class="gtitle" x="700" y="45" text-anchor="middle" dy="0em" style="opacity: 1; font-family: Inter, Helvetica, Arial, sans-serif; font-size: 24px; fill: rgb(68, 68, 68); fill-opacity: 1; white-space: pre;">Swiss Household Final Energy Consumption by Carrier (TJ)</text></g><g class="g-xtitle"><text class="xtitle" x="720" y="658" text-anchor="middle" style="opacity: 1; font-family: Inter, Helvetica, Arial, sans-serif; font-size: 20px; fill: rgb(68, 68, 68); fill-opacity: 1; white-space: pre;">Year</text></g><g class="g-ytitle"><text class="ytitle" transform="rotate(-90,30,339)" x="30" y="339" text-anchor="middle" style="opacity: 1; font-family: Inter, Helvetica, Arial, sans-serif; font-size: 20px; fill: rgb(68, 68, 68); fill-opacity: 1; white-space: pre;">Final Energy (TJ)</text></g></g></svg>