<svg class="main-svg" xmlns="http://www.w3.org/2000/svg" xmlns:xlink="http://www.w3.org/1999/xlink" width="1400" height="750" style="" viewBox="0 0 1400 750"><rect x="0" y="0" width="1400" height="750" style="fill: rgb(255, 255, 255); fill-opacity: 1;"/><defs id="defs-f2434b"><g class="clips"><clipPath id="clipf2434bxyplot" class="plotclip"><rect width="1280" height="498"/></clipPath><clipPath class="axesclip" id="clipf2434bx"><rect x="80" y="0" width="1280" height="750"/></clipPath><clipPath class="axesclip" id="clipf2434by"><rect x="0" y="90" width="1400" height="498"/></clipPath><clipPath class="axesclip" id="clipf2434bxy"><rect x="80" y="90" width="1280" height="498"/></clipPath></g><g class="gradients"/><g class="patterns"/></defs><g class="bglayer"/><g class="layer-below"><g class="imagelayer"/><g class="shapelayer"/></g><g class="cartesianlayer"><g class="subplot xy"><g class="layer-subplot"><g class="shapelayer"/><g class="imagelayer"/></g><g class="minor-gridlayer"><g class="x"/><g class="y"/></g><g class="gridlayer"><g class="x"><path class="xgrid crisp" transform="translate(147,0)" d="M0,90v498" style="stroke: rgb(238, 238, 238); stroke-opacity: 1; stroke-width: 1px;"/><path class="xgrid crisp" transform="translate(389.6,0)" d="M0,90v498" style="stroke: rgb(238, 238, 238); stroke-opacity: 1; stroke-width: 1px;"/><path class="xgrid crisp" transform="translate(632.2,0)" d="M0,90v498" style="stroke: rgb(238, 238, 238); stroke-opacity: 1; stroke-width: 1px;"/><path class="xgrid crisp" transform="translate(874.8,0)" d="M0,90v498" style="stroke: rgb(238, 238, 238); stroke-opacity: 1; stroke-width: 1px;"/><path class="xgrid crisp" transform="translate(1117.4,0)" d="M0,90v498" style="stroke: rgb(238, 238, 238); stroke-opacity: 1; stroke-width: 1px;"/></g><g class="y"><path class="ygrid crisp" transform="translate(0,543.98)" d="M80,0h1280" style="stroke: rgb(238, 238, 238); stroke-opacity: 1; stroke-width: 1px;"/><path class="ygrid crisp" transform="translate(0,466.41)" d="M80,0h1280" style="stroke: rgb(238, 238, 238); stroke-opacity: 1; stroke-width: 1px;"/><path class="ygrid crisp" transform="translate(0,388.84)" d="M80,0h1280" style="stroke: rgb(238, 238, 238); stroke-opacity: 1; stroke-width: 1px;"/><path class="ygrid crisp" transform="translate(0,311.27)" d="M80,0h1280" style="stroke: rgb(238, 238, 238); stroke-opacity: 1; stroke-width: 1px;"/><path class="ygrid crisp" transform="translate(0,233.69)" d="M80,0h1280" style="stroke: rgb(238, 238, 238); stroke-opacity: 1; stroke-width: 1px;"/><path class="ygrid crisp" transform="translate(0,156.12)" d="M80,0h1280" style="stroke: rgb(238, 238, 238); stroke-opacity: 1; stroke-width: 1px;"/></g></g><g class="zerolinelayer"/><g class="layer-between"><g class="shapelayer"/><g class="imagelayer"/></g><path class="xlines-below"/><path class="ylines-below"/><g class="overlines-below"/><g class="xaxislayer-below"/><g class="yaxislayer-below"/><g class="overaxes-below"/><g class="overplot"><g class="xy" transform="translate(80,90)" clip-path="url(#clipf2434bxyplot)"><g class="scatterlayer mlayer"><g class="trace scatter traced8dc5f" style="stroke-miterlimit: 2; opacity: 1;"><g class="fills"><g><path class="js-fill" d="M649.24,225.01L673.5,235.01L697.76,239.7L819.06,263.77L843.32,268.76L916.1,284.73L940.36,290.35L1280,370.24L1280,473.1L1207.22,450.14L1182.96,442.14L1110.18,417.09L1085.92,408.38L1013.14,381.14L988.88,371.72L891.84,332.66L867.58,322.71L746.28,272.3L722.02,261.96L673.5,240.96L649.24,225.01Z" style="fill: rgb(158, 158, 158); fill-opacity: 0.15; stroke-width: 0;"/></g></g><g class="errorbars"/><g class="lines"><path class="js-line" d="M649.24,225.01L673.5,235.01L697.76,239.7L819.06,263.77L843.32,268.76L916.1,284.73L940.36,290.35L1280,370.24L1280,473.1L1207.22,450.14L1182.96,442.14L1110.18,417.09L1085.92,408.38L1013.14,381.14L988.88,371.72L891.84,332.66L867.58,322.71L746.28,272.3L722.02,261.96L673.5,240.96L649.24,225.01" style="vector-effect: none; fill: none; stroke: rgb(31, 119, 180); stroke-opacity: 1; stroke-width: 0px; opacity: 1;"/></g><g class="points"/><g class="text"/></g><g class="trace scatter trace1d3f58" style="stroke-miterlimit: 2; opacity: 1;"><g class="fills"><g><path class="js-fill" d="M649.24,225.01L673.5,236.34L697.76,242.38L843.32,279.05L867.58,285.38L964.62,311.82L988.88,318.55L1158.7,364.96L1182.96,371.34L1280,396.3L1280,454.21L1207.22,432.11L1182.96,424.46L1110.18,400.51L1085.92,392.29L988.88,357.87L964.62,348.99L722.02,258.51L697.76,249.19L673.5,239.79L649.24,225.01Z" style="fill: rgb(158, 158, 158); fill-opacity: 0.3; stroke-width: 0;"/></g></g><g class="errorbars"/><g class="lines"><path class="js-line" d="M649.24,225.01L673.5,236.34L697.76,242.38L843.32,279.05L867.58,285.38L964.62,311.82L988.88,318.55L1158.7,364.96L1182.96,371.34L1280,396.3L1280,454.21L1207.22,432.11L1182.96,424.46L1110.18,400.51L1085.92,392.29L988.88,357.87L964.62,348.99L722.02,258.51L697.76,249.19L673.5,239.79L649.24,225.01" style="vector-effect: none; fill: none; stroke: rgb(255, 127, 14); stroke-opacity: 1; stroke-width: 0px; opacity: 1;"/></g><g class="points"/><g class="text"/></g><g class="trace scatter traceaee64e" style="stroke-miterlimit: 2; opacity: 1;"><g class="fills"/><g class="errorbars"/><g class="lines"><path class="js-line" d="M649.24,225.01L673.5,235.27L697.76,240.28L843.32,271.16L867.58,276.61L940.36,293.89L964.62,299.85L1207.22,359.38L1231.48,365.11L1280,376.46" style="vector-effect: none; fill: none; stroke: rgb(255, 152, 0); stroke-opacity: 1; stroke-width: 3px; opacity: 1;"/></g><g class="points"/><g class="text"/></g><g class="trace scatter trace1704cc" style="stroke-miterlimit: 2; opacity: 1;"><g class="fills"/><g class="errorbars"/><g class="lines"><path class="js-line" d="M649.24,225.01L673.5,237.95L697.76,245.58L940.36,321.76L964.62,329.58L1085.92,368.01L1110.18,375.44L1207.22,404.1L1231.48,411.01L1280,424.52" style="vector-effect: none; fill: none; stroke: rgb(33, 150, 243); stroke-opacity: 1; stroke-width: 3px; opacity: 1;"/></g><g class="points"/><g class="text"/></g><g class="trace scatter trace6fc3b7" style="stroke-miterlimit: 2; opacity: 1;"><g class="fills"/><g class="errorbars"/><g class="lines"><path class="js-line" d="M649.24,225.01L673.5,240.64L697.76,250.86L794.8,290.57L819.06,300.24L1013.14,376.08L1037.4,385.16L1110.18,411.45L1134.44,419.86L1207.22,444.08L1231.48,451.82L1280,466.83" style="vector-effect: none; fill: none; stroke: rgb(76, 175, 80); stroke-opacity: 1; stroke-width: 3px; opacity: 1;"/></g><g class="points"/><g class="text"/></g><g class="trace scatter trace3fb45e" style="stroke-miterlimit: 2; opacity: 1;"><g class="fills"/><g class="errorbars"/><g class="lines"><path class="js-line" d="M67,116.14L91.26,72.51L115.52,103.88L139.78,59.01L164.04,58.38L188.3,38.28L212.56,63.99L236.82,147.44L261.08,91.32L285.34,103.63L309.6,27.9L333.86,185.45L358.12,112.5L382.38,51.8L406.64,215.62L430.9,161.45L455.16,125.16L479.42,143.9L503.68,193.73L527.94,180.37L552.2,217.15L576.46,120.38L600.72,238.57L624.98,233.69L649.24,225.01" style="vector-effect: none; fill: none; stroke: rgb(33, 33, 33); stroke-opacity: 1; stroke-width: 3px; opacity: 1;"/></g><g class="points"><path class="point" transform="translate(67,116.14)" d="M2,0A2,2 0 1,1 0,-2A2,2 0 0,1 2,0Z" style="opacity: 1; stroke-width: 0px; fill: rgb(33, 33, 33); fill-opacity: 1;"/><path class="point" transform="translate(91.26,72.51)" d="M2,0A2,2 0 1,1 0,-2A2,2 0 0,1 2,0Z" style="opacity: 1; stroke-width: 0px; fill: rgb(33, 33, 33); fill-opacity: 1;"/><path class="point" transform="translate(115.52,103.88)" d="M2,0A2,2 0 1,1 0,-2A2,2 0 0,1 2,0Z" style="opacity: 1; stroke-width: 0px; fill: rgb(33, 33, 33); fill-opacity: 1;"/><path class="point" transform="translate(139.78,59.01)" d="M2,0A2,2 0 1,1 0,-2A2,2 0 0,1 2,0Z" style="opacity: 1; stroke-width: 0px; fill: rgb(33, 33, 33); fill-opacity: 1;"/><path class="point" transform="translate(164.04,58.38)" d="M2,0A2,2 0 1,1 0,-2A2,2 0 0,1 2,0Z" style="opacity: 1; stroke-width: 0px; fill: rgb(33, 33, 33); fill-opacity: 1;"/><path class="point" transform="translate(188.3,38.28)" d="M2,0A2,2 0 1,1 0,-2A2,2 0 0,1 2,0Z" style="opacity: 1; stroke-width: 0px; fill: rgb(33, 33, 33); fill-opacity: 1;"/><path class="point" transform="translate(212.56,63.99)" d="M2,0A2,2 0 1,1 0,-2A2,2 0 0,1 2,0Z" style="opacity: 1; stroke-width: 0px; fill: rgb(33, 33, 33); fill-opacity: 1;"/><path class="point" transform="translate(236.82,147.44)" d="M2,0A2,2 0 1,1 0,-2A2,2 0 0,1 2,0Z" style="opacity: 1; stroke-width: 0px; fill: rgb(33, 33, 33); fill-opacity: 1;"/><path class="point" transform="translate(261.08,91.32)" d="M2,0A2,2 0 1,1 0,-2A2,2 0 0,1 2,0Z" style="opacity: 1; stroke-width: 0px; fill: rgb(33, 33, 33); fill-opacity: 1;"/><path class="point" transform="translate(285.34,103.63)" d="M2,0A2,2 0 1,1 0,-2A2,2 0 0,1 2,0Z" style="opacity: 1; stroke-width: 0px; fill: rgb(33, 33, 33); fill-opacity: 1;"/><path class="point" transform="translate(309.6,27.9)" d="M2,0A2,2 0 1,1 0,-2A2,2 0 0,1 2,0Z" style="opacity: 1; stroke-width: 0px; fill: rgb(33, 33, 33); fill-opacity: 1;"/><path class="point" transform="translate(333.86,185.45)" d="M2,0A2,2 0 1,1 0,-2A2,2 0 0,1 2,0Z" style="opacity: 1; stroke-width: 0px; fill: rgb(33, 33, 33); fill-opacity: 1;"/><path class="point" transform="translate(358.12,112.5)" d="M2,0A2,2 0 1,1 0,-2A2,2 0 0,1 2,0Z" style="opacity: 1; stroke-width: 0px; fill: rgb(33, 33, 33); fill-opacity: 1;"/><path class="point" transform="translate(382.38,51.8)" d="M2,0A2,2 0 1,1 0,-2A2,2 0 0,1 2,0Z" style="opacity: 1; stroke-width: 0px; fill: rgb(33, 33, 33); fill-opacity: 1;"/><path class="point" transform="translate(406.64,215.62)" d="M2,0A2,2 0 1,1 0,-2A2,2 0 0,1 2,0Z" style="opacity: 1; stroke-width: 0px; fill: rgb(33, 33, 33); fill-opacity: 1;"/><path class="point" transform="translate(430.9,161.45)" d="M2,0A2,2 0 1,1 0,-2A2,2 0 0,1 2,0Z" style="opacity: 1; stroke-width: 0px; fill: rgb(33, 33, 33); fill-opacity: 1;"/><path class="point" transform="translate(455.16,125.16)" d="M2,0A2,2 0 1,1 0,-2A2,2 0 0,1 2,0Z" style="opacity: 1; stroke-width: 0px; fill: rgb(33, 33, 33); fill-opacity: 1;"/><path class="point" transform="translate(479.42,143.9)" d="M2,0A2,2 0 1,1 0,-2A2,2 0 0,1 2,0Z" style="opacity: 1; stroke-width: 0px; fill: rgb(33, 33, 33); fill-opacity: 1;"/><path class="point" transform="translate(503.68,193.73)" d="M2,0A2,2 0 1,1 0,-2A2,2 0 0,1 2,0Z" style="opacity: 1; stroke-width: 0px; fill: rgb(33, 33, 33); fill-opacity: 1;"/><path class="point" transform="translate(527.94,180.37)" d="M2,0A2,2 0 1,1 0,-2A2,2 0 0,1 2,0Z" style="opacity: 1; stroke-width: 0px; fill: rgb(33, 33, 33); fill-opacity: 1;"/><path class="point" transform="translate(552.2,217.15)" d="M2,0A2,2 0 1,1 0,-2A2,2 0 0,1 2,0Z" style="opacity: 1; stroke-width: 0px; fill: rgb(33, 33, 33); fill-opacity: 1;"/><path class="point" transform="translate(576.46,120.38)" d="M2,0A2,2 0 1,1 0,-2A2,2 0 0,1 2,0Z" style="opacity: 1; stroke-width: 0px; fill: rgb(33, 33, 33); fill-opacity: 1;"/><path class="point" transform="translate(600.72,238.57)" d="M2,0A2,2 0 1,1 0,-2A2,2 0 0,1 2,0Z" style="opacity: 1; stroke-width: 0px; fill: rgb(33, 33, 33); fill-opacity: 1;"/><path class="point" transform="translate(624.98,233.69)" d="M2,0A2,2 0 1,1 0,-2A2,2 0 0,1 2,0Z" style="opacity: 1; stroke-width: 0px; fill: rgb(33, 33, 33); fill-opacity: 1;"/><path class="point" transform="translate(649.24,225.01)" d="M2,0A2,2 0 1,1 0,-2A2,2 0 0,1 2,0Z" style="opacity: 1; stroke-width: 0px; fill: rgb(33, 33, 33); fill-opacity: 1;"/></g><g class="text"/></g></g></g></g><g class="zerolinelayer-above"/><path class="xlines-above crisp" d="M0,0" style="fill: none;"/><path class="ylines-above crisp" d="M0,0" style="fill: none;"/><g class="overlines-above"/><g class="xaxislayer-above"><g class="xtick"><text text-anchor="middle" x="0" y="606" transform="translate(147,0)" style="font-family: Inter, Helvetica, Arial, sans-serif; font-size: 17px; fill: rgb(68, 68, 68); fill-opacity: 1; white-space: pre;">2000</text></g><g class="xtick"><text text-anchor="middle" x="0" y="606" style="font-family: Inter, Helvetica, Arial, sans-serif; font-size: 17px; fill: rgb(68, 68, 68); fill-opacity: 1; white-space: pre;" transform="translate(389.6,0)">2010</text></g><g class="xtick"><text text-anchor="middle" x="0" y="606" style="font-family: Inter, Helvetica, Arial, sans-serif; font-size: 17px; fill: rgb(68, 68, 68); fill-opacity: 1; white-space: pre;" transform="translate(632.2,0)">2020</text></g><g class="xtick"><text text-anchor="middle" x="0" y="606" style="font-family: Inter, Helvetica, Arial, sans-serif; font-size: 17px; fill: rgb(68, 68, 68); fill-opacity: 1; white-space: pre;" transform="translate(874.8,0)">2030</text></g><g class="xtick"><text text-anchor="middle" x="0" y="606" style="font-family: Inter, Helvetica, Arial, sans-serif; font-size: 17px; fill: rgb(68, 68, 68); fill-opacity: 1; white-space: pre;" transform="translate(1117.4,0)">2040</text></g><g class="xtick"><text text-anchor="middle" x="0" y="606" style="font-family: Inter, Helvetica, Arial, sans-serif; font-size: 17px; fill: rgb(68, 68, 68); fill-opacity: 1; white-space: pre;" transform="translate(1360,0)">2050</text></g></g><g class="yaxislayer-above"><g class="ytick"><text text-anchor="end" x="79" y="5.949999999999999" transform="translate(0,543.98)" style="font-family: Inter, Helvetica, Arial, sans-serif; font-size: 17px; fill: rgb(68, 68, 68); fill-opacity: 1; white-space: pre;">80k</text></g><g class="ytick"><text text-anchor="end" x="79" y="5.949999999999999" style="font-family: Inter, Helvetica, Arial, sans-serif; font-size: 17px; fill: rgb(68, 68, 68); fill-opacity: 1; white-space: pre;" transform="translate(0,466.41)">100k</text></g><g class="ytick"><text text-anchor="end" x="79" y="5.949999999999999" style="font-family: Inter, Helvetica, Arial, sans-serif; font-size: 17px; fill: rgb(68, 68, 68); fill-opacity: 1; white-space: pre;" transform="translate(0,388.84)">120k</text></g><g class="ytick"><text text-anchor="end" x="79" y="5.949999999999999" style="font-family: Inter, Helvetica, Arial, sans-serif; font-size: 17px; fill: rgb(68, 68, 68); fill-opacity: 1; white-space: pre;" transform="translate(0,311.27)">140k</text></g><g class="ytick"><text text-anchor="end" x="79" y="5.949999999999999" style="font-family: Inter, Helvetica, Arial, sans-serif; font-size: 17px; fill: rgb(68, 68, 68); fill-opacity: 1; white-space: pre;" transform="translate(0,233.69)">160k</text></g><g class="ytick"><text text-anchor="end" x="79" y="5.949999999999999" style="font-family: Inter, Helvetica, Arial, sans-serif; font-size: 17px; fill: rgb(68, 68, 68); fill-opacity: 1; white-space: pre;" transform="translate(0,156.12)">180k</text></g></g><g class="overaxes-above"/></g></g><g class="polarlayer"/><g class="smithlayer"/><g class="ternarylayer"/><g class="geolayer"/><g class="funnelarealayer"/><g class="pielayer"/><g class="iciclelayer"/><g class="treemaplayer"/><g class="sunburstlayer"/><g class="glimages"/><defs id="topdefs-f2434b"><g class="clips"/><clipPath id="legendf2434b"><rect width="1019" height="34" x="0" y="0"/></clipPath></defs><g class="layer-above"><g class="imagelayer"/><g class="shapelayer"/></g><g class="infolayer"><g class="legend" pointer-events="all" transform="translate(210.5,703.4)"><rect class="bg" shape-rendering="crispEdges" style="stroke: rgb(68, 68, 68); stroke-opacity: 1; fill: rgb(255, 255, 255); fill-opacity: 1; stroke-width: 0px;" width="1019" height="34" x="0" y="0"/><g class="scrollbox" transform="" clip-path="url(#legendf2434b)"><g class="groups"><g class="traces" transform="translate(0,16.9)" style="opacity: 1;"><text class="legendtext" text-anchor="start" x="40" y="6.24" style="font-family: Inter, Helvetica, Arial, sans-serif; font-size: 16px; fill: rgb(68, 68, 68); fill-opacity: 1; white-space: pre;">10th–90th pctile</text><g class="layers" style="opacity: 1;"><g class="legendfill"><path class="js-fill" d="M5,-2h30v6h-30z" style="stroke-width: 0; fill: rgb(158, 158, 158); fill-opacity: 0.15;"/></g><g class="legendlines"><path class="js-line" d="M5,-2h30" style="fill: none; stroke: rgb(31, 119, 180); stroke-opacity: 1; stroke-width: 0px;"/></g><g class="legendsymbols"><g class="legendpoints"/></g></g><rect class="legendtoggle" x="0" y="-11.9" width="162.734375" height="23.8" style="fill: rgb(0, 0, 0); fill-opacity: 0;"/></g><g class="traces" transform="translate(165.234375,16.9)" style="opacity: 1;"><text class="legendtext" text-anchor="start" x="40" y="6.24" style="font-family: Inter, Helvetica, Arial, sans-serif; font-size: 16px; fill: rgb(68, 68, 68); fill-opacity: 1; white-space: pre;">25th–75th pctile</text><g class="layers" style="opacity: 1;"><g class="legendfill"><path class="js-fill" d="M5,-2h30v6h-30z" style="stroke-width: 0; fill: rgb(158, 158, 158); fill-opacity: 0.3;"/></g><g class="legendlines"><path class="js-line" d="M5,-2h30" style="fill: none; stroke: rgb(255, 127, 14); stroke-opacity: 1; stroke-width: 0px;"/></g><g class="legendsymbols"><g class="legendpoints"/></g></g><rect class="legendtoggle" x="0" y="-11.9" width="163.28125" height="23.8" style="fill: rgb(0, 0, 0); fill-opacity: 0;"/></g><g class="traces" transform="translate(331.015625,16.9)" style="opacity: 1;"><text class="legendtext" text-anchor="start" x="40" y="6.24" style="font-family: Inter, Helvetica, Arial, sans-serif; font-size: 16px; fill: rgb(68, 68, 68); fill-opacity: 1; white-space: pre;">BAU (1% reno)</text><g class="layers" style="opacity: 1;"><g class="legendfill"/><g class="legendlines"><path class="js-line" d="M5,0h30" style="fill: none; stroke: rgb(255, 152, 0); stroke-opacity: 1; stroke-width: 3px;"/></g><g class="legendsymbols"><g class="legendpoints"/></g></g><rect class="legendtoggle" x="0" y="-11.9" width="152.453125" height="23.8" style="fill: rgb(0, 0, 0); fill-opacity: 0;"/></g><g class="traces" transform="translate(485.96875,16.9)" style="opacity: 1;"><text class="legendtext" text-anchor="start" x="40" y="6.24" style="font-family: Inter, Helvetica, Arial, sans-serif; font-size: 16px; fill: rgb(68, 68, 68); fill-opacity: 1; white-space: pre;">Accelerated (2% reno)</text><g class="layers" style="opacity: 1;"><g class="legendfill"/><g class="legendlines"><path class="js-line" d="M5,0h30" style="fill: none; stroke: rgb(33, 150, 243); stroke-opacity: 1; stroke-width: 3px;"/></g><g class="legendsymbols"><g class="legendpoints"/></g></g><rect class="legendtoggle" x="0" y="-11.9" width="213.65625" height="23.8" style="fill: rgb(0, 0, 0); fill-opacity: 0;"/></g><g class="traces" transform="translate(702.125,16.9)" style="opacity: 1;"><text class="legendtext" text-anchor="start" x="40" y="6.24" style="font-family: Inter, Helvetica, Arial, sans-serif; font-size: 16px; fill: rgb(68, 68, 68); fill-opacity: 1; white-space: pre;">Ambitious (3% reno)</text><g class="layers" style="opacity: 1;"><g class="legendfill"/><g class="legendlines"><path class="js-line" d="M5,0h30" style="fill: none; stroke: rgb(76, 175, 80); stroke-opacity: 1; stroke-width: 3px;"/></g><g class="legendsymbols"><g class="legendpoints"/></g></g><rect class="legendtoggle" x="0" y="-11.9" width="198.0625" height="23.8" style="fill: rgb(0, 0, 0); fill-opacity: 0;"/></g><g class="traces" transform="translate(902.6875,16.9)" style="opacity: 1;"><text class="legendtext" text-anchor="start" x="40" y="6.24" style="font-family: Inter, Helvetica, Arial, sans-serif; font-size: 16px; fill: rgb(68, 68, 68); fill-opacity: 1; white-space: pre;">Historical</text><g class="layers" style="opacity: 1;"><g class="legendfill"/><g class="legendlines"><path class="js-line" d="M5,0h30" style="fill: none; stroke: rgb(33, 33, 33); stroke-opacity: 1; stroke-width: 3px;"/></g><g class="legendsymbols"><g class="legendpoints"><path class="scatterpts" transform="translate(20,0)" d="M2,0A2,2 0 1,1 0,-2A2,2 0 0,1 2,0Z" style="opacity: 1; stroke-width: 0px; fill: rgb(33, 33, 33); fill-opacity: 1;"/></g></g></g><rect class="legendtoggle" x="0" y="-11.9" width="113.59375" height="23.8" style="fill: rgb(0, 0, 0); fill-opacity: 0;"/></g></g></g><rect class="scrollbar" rx="20" ry="3" width="0" height="0" style="fill: rgb(128, 139, 164); fill-opacity: 1;" x="0" y="0"/></g><g class="g-gtitle"><text class="gtitle" x="700" y="45" text-anchor="middle" dy="0em" style="opacity: 1; font-family: Inter, Helvetica, Arial, sans-serif; font-size: 24px; fill: rgb(68, 68, 68); fill-opacity: 1; white-space: pre;">Projected Space-Heating Energy Demand — Monte Carlo Scenarios (TJ)</text></g><g class="g-xtitle"><text class="xtitle" x="720" y="658" text-anchor="middle" style="opacity: 1; font-family: Inter, Helvetica, Arial, sans-serif; font-size: 20px; fill: rgb(68, 68, 68); fill-opacity: 1; white-space: pre;">Year</text></g><g class="g-ytitle"><text class="ytitle" transform="rotate(-90,30,339)" x="30" y="339" text-anchor="middle" style="opacity: 1; font-family: Inter, Helvetica, Arial, sans-serif; font-size: 20px; fill: rgb(68, 68, 68); fill-opacity: 1; white-space: pre;">Final Energy (TJ)</text></g></g></svg>