<svg class="main-svg" xmlns="http://www.w3.org/2000/svg" xmlns:xlink="http://www.w3.org/1999/xlink" width="1200" height="650" style="" viewBox="0 0 1200 650"><rect x="0" y="0" width="1200" height="650" style="fill: rgb(255, 255, 255); fill-opacity: 1;"/><defs id="defs-ce5730"><g class="clips"><clipPath id="clipce5730xyplot" class="plotclip"><rect width="1090" height="442"/></clipPath><clipPath class="axesclip" id="clipce5730x"><rect x="70" y="0" width="1090" height="650"/></clipPath><clipPath class="axesclip" id="clipce5730y"><rect x="0" y="85" width="1200" height="442"/></clipPath><clipPath class="axesclip" id="clipce5730xy"><rect x="70" y="85" width="1090" height="442"/></clipPath></g><g class="gradients"/><g class="patterns"/></defs><g class="bglayer"/><g class="layer-below"><g class="imagelayer"/><g class="shapelayer"/></g><g class="cartesianlayer"><g class="subplot xy"><g class="layer-subplot"><g class="shapelayer"/><g class="imagelayer"/></g><g class="minor-gridlayer"><g class="x"/><g class="y"/></g><g class="gridlayer"><g class="x"><path class="xgrid crisp" transform="translate(193.86,0)" d="M0,85v442" style="stroke: rgb(238, 238, 238); stroke-opacity: 1; stroke-width: 1px;"/><path class="xgrid crisp" transform="translate(317.73,0)" d="M0,85v442" style="stroke: rgb(238, 238, 238); stroke-opacity: 1; stroke-width: 1px;"/><path class="xgrid crisp" transform="translate(441.59,0)" d="M0,85v442" style="stroke: rgb(238, 238, 238); stroke-opacity: 1; stroke-width: 1px;"/><path class="xgrid crisp" transform="translate(565.45,0)" d="M0,85v442" style="stroke: rgb(238, 238, 238); stroke-opacity: 1; stroke-width: 1px;"/><path class="xgrid crisp" transform="translate(689.32,0)" d="M0,85v442" style="stroke: rgb(238, 238, 238); stroke-opacity: 1; stroke-width: 1px;"/><path class="xgrid crisp" transform="translate(813.18,0)" d="M0,85v442" style="stroke: rgb(238, 238, 238); stroke-opacity: 1; stroke-width: 1px;"/><path class="xgrid crisp" transform="translate(937.05,0)" d="M0,85v442" style="stroke: rgb(238, 238, 238); stroke-opacity: 1; stroke-width: 1px;"/><path class="xgrid crisp" transform="translate(1060.9099999999999,0)" d="M0,85v442" style="stroke: rgb(238, 238, 238); stroke-opacity: 1; stroke-width: 1px;"/></g><g class="y"><path class="ygrid crisp" transform="translate(0,448.18)" d="M70,0h1090" style="stroke: rgb(238, 238, 238); stroke-opacity: 1; stroke-width: 1px;"/><path class="ygrid crisp" transform="translate(0,369.35)" d="M70,0h1090" style="stroke: rgb(238, 238, 238); stroke-opacity: 1; stroke-width: 1px;"/><path class="ygrid crisp" transform="translate(0,290.53)" d="M70,0h1090" style="stroke: rgb(238, 238, 238); stroke-opacity: 1; stroke-width: 1px;"/><path class="ygrid crisp" transform="translate(0,211.7)" d="M70,0h1090" style="stroke: rgb(238, 238, 238); stroke-opacity: 1; stroke-width: 1px;"/><path class="ygrid crisp" transform="translate(0,132.88)" d="M70,0h1090" style="stroke: rgb(238, 238, 238); stroke-opacity: 1; stroke-width: 1px;"/></g></g><g class="zerolinelayer"><path class="yzl zl crisp" transform="translate(0,527)" d="M70,0h1090" style="stroke: rgb(68, 68, 68); stroke-opacity: 1; stroke-width: 1px;"/></g><g class="layer-between"><g class="shapelayer"/><g class="imagelayer"/></g><path class="xlines-below"/><path class="ylines-below"/><g class="overlines-below"/><g class="xaxislayer-below"/><g class="yaxislayer-below"/><g class="overaxes-below"/><g class="overplot"><g class="xy" transform="translate(70,85)" clip-path="url(#clipce5730xyplot)"><g class="scatterlayer mlayer"><g class="trace scatter tracec8bde7" style="stroke-miterlimit: 2;"><g class="fills"><g><path class="js-fill" d="M1090,442L0,442L0,182.05L24.77,201.32L49.55,212.57L74.32,202.78L99.09,197.78L123.86,201.24L148.64,195.17L173.41,208.27L198.18,214.15L222.95,226.95L247.73,225.8L272.5,216.26L297.27,217.48L322.05,231.88L346.82,243.87L371.59,231.13L396.36,227.85L421.14,240.52L445.91,233.84L470.68,241.26L495.45,258.37L520.23,248.33L545,256.26L569.77,246.09L594.55,248.06L619.32,246.17L644.09,254.25L668.86,279.86L693.64,270.37L718.41,275.73L743.18,265.64L767.95,304.67L792.73,293.45L817.5,285.12L842.27,323.4L867.05,316.64L891.82,313.63L916.59,321.86L941.36,334.83L966.14,336.78L990.91,348.25L1015.68,337.75L1040.45,361.09L1065.23,363.36L1090,366.6" style="fill: rgb(139, 69, 19); fill-opacity: 0.5; stroke-width: 0;"/></g><g><path class="js-fill" d="M0,124.87L24.77,143.58L49.55,155.96L74.32,143.47L99.09,133.12L123.86,133.35L148.64,125.31L173.41,136.25L198.18,142.26L222.95,153.88L247.73,150.81L272.5,137.67L297.27,137.07L322.05,151.45L346.82,163.32L371.59,147.81L396.36,141.17L421.14,156.2L445.91,148.01L470.68,152.97L495.45,169.11L520.23,157.06L545,163.8L569.77,151.44L594.55,150.93L619.32,146.14L644.09,153.78L668.86,180.7L693.64,168.79L718.41,174.03L743.18,159.98L767.95,202.86L792.73,189.43L817.5,178.65L842.27,219.68L867.05,210.25L891.82,205.51L916.59,212.95L941.36,226.79L966.14,228.81L990.91,238.41L1015.68,222.02L1040.45,249.65L1065.23,253.12L1090,254.13L1090,366.6L1065.23,363.36L1040.45,361.09L1015.68,337.75L990.91,348.25L966.14,336.78L941.36,334.83L916.59,321.86L891.82,313.63L867.05,316.64L842.27,323.4L817.5,285.12L792.73,293.45L767.95,304.67L743.18,265.64L718.41,275.73L693.64,270.37L668.86,279.86L644.09,254.25L619.32,246.17L594.55,248.06L569.77,246.09L545,256.26L520.23,248.33L495.45,258.37L470.68,241.26L445.91,233.84L421.14,240.52L396.36,227.85L371.59,231.13L346.82,243.87L322.05,231.88L297.27,217.48L272.5,216.26L247.73,225.8L222.95,226.95L198.18,214.15L173.41,208.27L148.64,195.17L123.86,201.24L99.09,197.78L74.32,202.78L49.55,212.57L24.77,201.32L0,182.05Z" style="fill: rgb(255, 193, 7); fill-opacity: 0.5; stroke-width: 0;"/></g></g><g class="errorbars"/><g class="lines"><path class="js-line" d="M0,182.05L24.77,201.32L49.55,212.57L74.32,202.78L99.09,197.78L123.86,201.24L148.64,195.17L173.41,208.27L198.18,214.15L222.95,226.95L247.73,225.8L272.5,216.26L297.27,217.48L322.05,231.88L346.82,243.87L371.59,231.13L396.36,227.85L421.14,240.52L445.91,233.84L470.68,241.26L495.45,258.37L520.23,248.33L545,256.26L569.77,246.09L594.55,248.06L619.32,246.17L644.09,254.25L668.86,279.86L693.64,270.37L718.41,275.73L743.18,265.64L767.95,304.67L792.73,293.45L817.5,285.12L842.27,323.4L867.05,316.64L891.82,313.63L916.59,321.86L941.36,334.83L966.14,336.78L990.91,348.25L1015.68,337.75L1040.45,361.09L1065.23,363.36L1090,366.6" style="vector-effect: none; fill: none; stroke: rgb(139, 69, 19); stroke-opacity: 1; stroke-width: 0.5px; opacity: 1;"/></g><g class="points"/><g class="text"/></g><g class="trace scatter trace8a0f61" style="stroke-miterlimit: 2;"><g class="fills"><g><path class="js-fill" d="M0,106.95L24.77,124.34L49.55,134.65L74.32,118.71L99.09,105.26L123.86,104.09L148.64,95.01L173.41,103.04L198.18,106.63L222.95,115.79L247.73,109.52L272.5,90.54L297.27,87.71L346.82,115.93L371.59,93.47L396.36,80.38L421.14,101.07L445.91,90.54L470.68,92.35L495.45,111.42L520.23,96.78L545,104L569.77,87.63L594.55,85.05L619.32,78.48L644.09,88.83L668.86,118.53L693.64,101.54L718.41,106.65L743.18,83.52L767.95,137.96L792.73,114.85L817.5,97.88L842.27,152.49L867.05,137.17L891.82,128.12L916.59,136.35L941.36,153.99L966.14,153.39L990.91,164.14L1015.68,138.41L1040.45,178.24L1065.23,185.6L1090,186.88L1090,254.13L1065.23,253.12L1040.45,249.65L1015.68,222.02L990.91,238.41L966.14,228.81L941.36,226.79L916.59,212.95L891.82,205.51L867.05,210.25L842.27,219.68L817.5,178.65L792.73,189.43L767.95,202.86L743.18,159.98L718.41,174.03L693.64,168.79L668.86,180.7L644.09,153.78L619.32,146.14L594.55,150.93L569.77,151.44L545,163.8L520.23,157.06L495.45,169.11L470.68,152.97L445.91,148.01L421.14,156.2L396.36,141.17L371.59,147.81L346.82,163.32L322.05,151.45L297.27,137.07L272.5,137.67L247.73,150.81L222.95,153.88L198.18,142.26L173.41,136.25L148.64,125.31L123.86,133.35L99.09,133.12L74.32,143.47L49.55,155.96L24.77,143.58L0,124.87Z" style="fill: rgb(255, 107, 53); fill-opacity: 0.5; stroke-width: 0;"/></g></g><g class="errorbars"/><g class="lines"><path class="js-line" d="M0,124.87L24.77,143.58L49.55,155.96L74.32,143.47L99.09,133.12L123.86,133.35L148.64,125.31L173.41,136.25L198.18,142.26L222.95,153.88L247.73,150.81L272.5,137.67L297.27,137.07L322.05,151.45L346.82,163.32L371.59,147.81L396.36,141.17L421.14,156.2L445.91,148.01L470.68,152.97L495.45,169.11L520.23,157.06L545,163.8L569.77,151.44L594.55,150.93L619.32,146.14L644.09,153.78L668.86,180.7L693.64,168.79L718.41,174.03L743.18,159.98L767.95,202.86L792.73,189.43L817.5,178.65L842.27,219.68L867.05,210.25L891.82,205.51L916.59,212.95L941.36,226.79L966.14,228.81L990.91,238.41L1015.68,222.02L1040.45,249.65L1065.23,253.12L1090,254.13" style="vector-effect: none; fill: none; stroke: rgb(255, 193, 7); stroke-opacity: 1; stroke-width: 0.5px; opacity: 1;"/></g><g class="points"/><g class="text"/></g><g class="trace scatter tracea0d25d" style="stroke-miterlimit: 2;"><g class="fills"><g><path class="js-fill" d="M0,69.25L24.77,88.6L49.55,100.42L74.32,84.07L99.09,69.02L123.86,67.58L148.64,59.53L173.41,67.47L198.18,73.3L222.95,82.75L247.73,76.36L272.5,54.4L297.27,53.41L322.05,67.69L346.82,85.18L371.59,61.09L396.36,45.5L421.14,70.47L445.91,59.27L470.68,61.54L495.45,83.06L520.23,66.83L545,75.65L569.77,57.56L594.55,55.46L619.32,47.81L644.09,58.26L668.86,90.61L693.64,70.55L718.41,75.34L743.18,49.26L767.95,109.66L792.73,83.73L817.5,63.34L842.27,124.98L867.05,107.29L891.82,95.93L916.59,104.6L941.36,124.05L966.14,123.36L990.91,135.91L1015.68,106.02L1040.45,150L1065.23,156.26L1090,157L1090,186.88L1065.23,185.6L1040.45,178.24L1015.68,138.41L990.91,164.14L966.14,153.39L941.36,153.99L916.59,136.35L891.82,128.12L867.05,137.17L842.27,152.49L817.5,97.88L792.73,114.85L767.95,137.96L743.18,83.52L718.41,106.65L693.64,101.54L668.86,118.53L644.09,88.83L619.32,78.48L594.55,85.05L569.77,87.63L545,104L520.23,96.78L495.45,111.42L470.68,92.35L445.91,90.54L421.14,101.07L396.36,80.38L371.59,93.47L346.82,115.93L297.27,87.71L272.5,90.54L247.73,109.52L222.95,115.79L198.18,106.63L173.41,103.04L148.64,95.01L123.86,104.09L99.09,105.26L74.32,118.71L49.55,134.65L24.77,124.34L0,106.95Z" style="fill: rgb(76, 175, 80); fill-opacity: 0.5; stroke-width: 0;"/></g></g><g class="errorbars"/><g class="lines"><path class="js-line" d="M0,106.95L24.77,124.34L49.55,134.65L74.32,118.71L99.09,105.26L123.86,104.09L148.64,95.01L173.41,103.04L198.18,106.63L222.95,115.79L247.73,109.52L272.5,90.54L297.27,87.71L346.82,115.93L371.59,93.47L396.36,80.38L421.14,101.07L445.91,90.54L470.68,92.35L495.45,111.42L520.23,96.78L545,104L569.77,87.63L594.55,85.05L619.32,78.48L644.09,88.83L668.86,118.53L693.64,101.54L718.41,106.65L743.18,83.52L767.95,137.96L792.73,114.85L817.5,97.88L842.27,152.49L867.05,137.17L891.82,128.12L916.59,136.35L941.36,153.99L966.14,153.39L990.91,164.14L1015.68,138.41L1040.45,178.24L1065.23,185.6L1090,186.88" style="vector-effect: none; fill: none; stroke: rgb(255, 107, 53); stroke-opacity: 1; stroke-width: 0.5px; opacity: 1;"/></g><g class="points"/><g class="text"/></g><g class="trace scatter traceac9873" style="stroke-miterlimit: 2;"><g class="fills"><g><path class="js-fill" d="M0,69.25L24.77,88.6L49.55,100.42L74.32,84.07L99.09,69.02L123.86,67.58L148.64,59.53L173.41,67.47L198.18,73.3L222.95,82.75L247.73,72.63L272.5,50.07L297.27,49.09L322.05,63.18L346.82,80.73L371.59,56.11L396.36,39.93L421.14,65.08L445.91,53.44L470.68,55.46L495.45,76.95L520.23,60.19L545,68.81L569.77,50.08L594.55,47.61L619.32,39.14L644.09,49.22L668.86,80.81L693.64,58.91L718.41,62.43L743.18,33.67L767.95,94.34L792.73,65.9L817.5,43.45L842.27,106.14L867.05,86.01L891.82,72.56L916.59,80.23L941.36,99.96L966.14,97.11L990.91,108.79L1015.68,74.72L1040.45,120.02L1065.23,123.74L1090,122.57L1090,157L1065.23,156.26L1040.45,150L1015.68,106.02L990.91,135.91L966.14,123.36L941.36,124.05L916.59,104.6L891.82,95.93L867.05,107.29L842.27,124.98L817.5,63.34L792.73,83.73L767.95,109.66L743.18,49.26L718.41,75.34L693.64,70.55L668.86,90.61L644.09,58.26L619.32,47.81L594.55,55.46L569.77,57.56L545,75.65L520.23,66.83L495.45,83.06L470.68,61.54L445.91,59.27L421.14,70.47L396.36,45.5L371.59,61.09L346.82,85.18L322.05,67.69L297.27,53.41L272.5,54.4L247.73,76.36L222.95,82.75L198.18,73.3L173.41,67.47L148.64,59.53L123.86,67.58L99.09,69.02L74.32,84.07L49.55,100.42L24.77,88.6L0,69.25Z" style="fill: rgb(0, 188, 212); fill-opacity: 0.5; stroke-width: 0;"/></g></g><g class="errorbars"/><g class="lines"><path class="js-line" d="M0,69.25L24.77,88.6L49.55,100.42L74.32,84.07L99.09,69.02L123.86,67.58L148.64,59.53L173.41,67.47L198.18,73.3L222.95,82.75L247.73,76.36L272.5,54.4L297.27,53.41L322.05,67.69L346.82,85.18L371.59,61.09L396.36,45.5L421.14,70.47L445.91,59.27L470.68,61.54L495.45,83.06L520.23,66.83L545,75.65L569.77,57.56L594.55,55.46L619.32,47.81L644.09,58.26L668.86,90.61L693.64,70.55L718.41,75.34L743.18,49.26L767.95,109.66L792.73,83.73L817.5,63.34L842.27,124.98L867.05,107.29L891.82,95.93L916.59,104.6L941.36,124.05L966.14,123.36L990.91,135.91L1015.68,106.02L1040.45,150L1065.23,156.26L1090,157" style="vector-effect: none; fill: none; stroke: rgb(76, 175, 80); stroke-opacity: 1; stroke-width: 0.5px; opacity: 1;"/></g><g class="points"/><g class="text"/></g><g class="trace scatter trace77b269" style="stroke-miterlimit: 2;"><g class="fills"><g><path class="js-fill" d="M0,65.85L24.77,85.1L49.55,96.65L74.32,79.45L99.09,63.88L123.86,62.3L148.64,53.8L198.18,66.86L222.95,76.19L247.73,65.63L272.5,41.95L297.27,41.05L322.05,55.81L346.82,73.62L371.59,48.46L396.36,31.8L421.14,56.42L445.91,44.61L470.68,47.45L495.45,69.38L520.23,52.07L545,60.6L569.77,42.23L594.55,39.49L619.32,30.61L644.09,40.55L668.86,73.01L693.64,50.08L718.41,53.52L743.18,22.73L767.95,85.03L792.73,55.9L817.5,32.17L842.27,95.93L867.05,74.14L891.82,60.8L916.59,68.04L941.36,88.11L966.14,83.6L990.91,95.17L1015.68,59.59L1040.45,106.58L1065.23,109.17L1090,106.71L1090,122.57L1065.23,123.74L1040.45,120.02L1015.68,74.72L990.91,108.79L966.14,97.11L941.36,99.96L916.59,80.23L891.82,72.56L867.05,86.01L842.27,106.14L817.5,43.45L792.73,65.9L767.95,94.34L743.18,33.67L718.41,62.43L693.64,58.91L668.86,80.81L644.09,49.22L619.32,39.14L594.55,47.61L569.77,50.08L545,68.81L520.23,60.19L495.45,76.95L470.68,55.46L445.91,53.44L421.14,65.08L396.36,39.93L371.59,56.11L346.82,80.73L322.05,63.18L297.27,49.09L272.5,50.07L247.73,72.63L222.95,82.75L198.18,73.3L173.41,67.47L148.64,59.53L123.86,67.58L99.09,69.02L74.32,84.07L49.55,100.42L24.77,88.6L0,69.25Z" style="fill: rgb(156, 39, 176); fill-opacity: 0.5; stroke-width: 0;"/></g></g><g class="errorbars"/><g class="lines"><path class="js-line" d="M0,69.25L24.77,88.6L49.55,100.42L74.32,84.07L99.09,69.02L123.86,67.58L148.64,59.53L173.41,67.47L198.18,73.3L222.95,82.75L247.73,72.63L272.5,50.07L297.27,49.09L322.05,63.18L346.82,80.73L371.59,56.11L396.36,39.93L421.14,65.08L445.91,53.44L470.68,55.46L495.45,76.95L520.23,60.19L545,68.81L569.77,50.08L594.55,47.61L619.32,39.14L644.09,49.22L668.86,80.81L693.64,58.91L718.41,62.43L743.18,33.67L767.95,94.34L792.73,65.9L817.5,43.45L842.27,106.14L867.05,86.01L891.82,72.56L916.59,80.23L941.36,99.96L966.14,97.11L990.91,108.79L1015.68,74.72L1040.45,120.02L1065.23,123.74L1090,122.57" style="vector-effect: none; fill: none; stroke: rgb(0, 188, 212); stroke-opacity: 1; stroke-width: 0.5px; opacity: 1;"/></g><g class="points"/><g class="text"/></g><g class="trace scatter tracea67165" style="stroke-miterlimit: 2;"><g class="fills"><g><path class="js-fill" d="M0,60L24.77,80.27L49.55,91.62L74.32,75.51L99.09,60.44L123.86,58.91L148.64,50.82L198.18,65.09L222.95,74.66L247.73,64.63L272.5,40.77L297.27,40.07L322.05,54.97L346.82,72.86L371.59,47.73L396.36,31.39L421.14,56.07L445.91,44.39L470.68,47.23L495.45,69.17L520.23,51.86L545,60.39L569.77,42.03L594.55,38.86L619.32,29.98L644.09,39.91L668.86,72.37L693.64,49.45L718.41,52.89L743.18,22.1L767.95,84.56L792.73,55.43L817.5,31.7L842.27,95.61L867.05,73.82L891.82,60.49L916.59,67.88L941.36,87.95L966.14,83.44L990.91,95.01L1015.68,59.43L1040.45,106.51L1065.23,109.09L1090,106.65L1090,106.71L1065.23,109.17L1040.45,106.58L1015.68,59.59L990.91,95.17L966.14,83.6L941.36,88.11L916.59,68.04L891.82,60.8L867.05,74.14L842.27,95.93L817.5,32.17L792.73,55.9L767.95,85.03L743.18,22.73L718.41,53.52L693.64,50.08L668.86,73.01L644.09,40.55L619.32,30.61L594.55,39.49L569.77,42.23L545,60.6L520.23,52.07L495.45,69.38L470.68,47.45L445.91,44.61L421.14,56.42L396.36,31.8L371.59,48.46L346.82,73.62L322.05,55.81L297.27,41.05L272.5,41.95L247.73,65.63L222.95,76.19L198.18,66.86L148.64,53.8L123.86,62.3L99.09,63.88L74.32,79.45L49.55,96.65L24.77,85.1L0,65.85Z" style="fill: rgb(96, 125, 139); fill-opacity: 0.5; stroke-width: 0;"/></g></g><g class="errorbars"/><g class="lines"><path class="js-line" d="M0,65.85L24.77,85.1L49.55,96.65L74.32,79.45L99.09,63.88L123.86,62.3L148.64,53.8L198.18,66.86L222.95,76.19L247.73,65.63L272.5,41.95L297.27,41.05L322.05,55.81L346.82,73.62L371.59,48.46L396.36,31.8L421.14,56.42L445.91,44.61L470.68,47.45L495.45,69.38L520.23,52.07L545,60.6L569.77,42.23L594.55,39.49L619.32,30.61L644.09,40.55L668.86,73.01L693.64,50.08L718.41,53.52L743.18,22.73L767.95,85.03L792.73,55.9L817.5,32.17L842.27,95.93L867.05,74.14L891.82,60.8L916.59,68.04L941.36,88.11L966.14,83.6L990.91,95.17L1015.68,59.59L1040.45,106.58L1065.23,109.17L1090,106.71" style="vector-effect: none; fill: none; stroke: rgb(156, 39, 176); stroke-opacity: 1; stroke-width: 0.5px; opacity: 1;"/></g><g class="points"/><g class="text"/></g><g class="trace scatter trace456b39" style="stroke-miterlimit: 2;"><g class="fills"><g><path class="js-fill" d="M0,60L24.77,80.27L49.55,91.62L74.32,75.51L99.09,60.44L123.86,58.91L148.64,50.82L198.18,65.09L222.95,74.66L247.73,64.63L272.5,40.77L297.27,40.07L322.05,54.97L346.82,72.86L371.59,47.73L396.36,31.39L421.14,56.07L445.91,44.39L470.68,47.23L495.45,69.17L520.23,51.86L545,60.39L569.77,42.03L594.55,38.86L619.32,29.98L644.09,39.91L668.86,72.37L693.64,49.45L718.41,52.89L743.18,22.1L767.95,84.56L792.73,55.43L817.5,31.7L842.27,95.61L867.05,73.82L891.82,60.49L916.59,67.88L941.36,87.95L966.14,83.44L990.91,95.01L1015.68,59.43L1040.45,106.51L1065.23,109.09L1090,106.65L1090,106.65L1065.23,109.09L1040.45,106.51L1015.68,59.43L990.91,95.01L966.14,83.44L941.36,87.95L916.59,67.88L891.82,60.49L867.05,73.82L842.27,95.61L817.5,31.7L792.73,55.43L767.95,84.56L743.18,22.1L718.41,52.89L693.64,49.45L668.86,72.37L644.09,39.91L619.32,29.98L594.55,38.86L569.77,42.03L545,60.39L520.23,51.86L495.45,69.17L470.68,47.23L445.91,44.39L421.14,56.07L396.36,31.39L371.59,47.73L346.82,72.86L322.05,54.97L297.27,40.07L272.5,40.77L247.73,64.63L222.95,74.66L198.18,65.09L148.64,50.82L123.86,58.91L99.09,60.44L74.32,75.51L49.55,91.62L24.77,80.27L0,60Z" style="fill: rgb(121, 85, 72); fill-opacity: 0.5; stroke-width: 0;"/></g></g><g class="errorbars"/><g class="lines"><path class="js-line" d="M0,60L24.77,80.27L49.55,91.62L74.32,75.51L99.09,60.44L123.86,58.91L148.64,50.82L198.18,65.09L222.95,74.66L247.73,64.63L272.5,40.77L297.27,40.07L322.05,54.97L346.82,72.86L371.59,47.73L396.36,31.39L421.14,56.07L445.91,44.39L470.68,47.23L495.45,69.17L520.23,51.86L545,60.39L569.77,42.03L594.55,38.86L619.32,29.98L644.09,39.91L668.86,72.37L693.64,49.45L718.41,52.89L743.18,22.1L767.95,84.56L792.73,55.43L817.5,31.7L842.27,95.61L867.05,73.82L891.82,60.49L916.59,67.88L941.36,87.95L966.14,83.44L990.91,95.01L1015.68,59.43L1040.45,106.51L1065.23,109.09L1090,106.65" style="vector-effect: none; fill: none; stroke: rgb(96, 125, 139); stroke-opacity: 1; stroke-width: 0.5px; opacity: 1;"/></g><g class="points"/><g class="text"/></g><g class="trace scatter tracef48275" style="stroke-miterlimit: 2;"><g class="fills"/><g class="errorbars"/><g class="lines"><path class="js-line" d="M0,60L24.77,80.27L49.55,91.62L74.32,75.51L99.09,60.44L123.86,58.91L148.64,50.82L198.18,65.09L222.95,74.66L247.73,64.63L272.5,40.77L297.27,40.07L322.05,54.97L346.82,72.86L371.59,47.73L396.36,31.39L421.14,56.07L445.91,44.39L470.68,47.23L495.45,69.17L520.23,51.86L545,60.39L569.77,42.03L594.55,38.86L619.32,29.98L644.09,39.91L668.86,72.37L693.64,49.45L718.41,52.89L743.18,22.1L767.95,84.56L792.73,55.43L817.5,31.7L842.27,95.61L867.05,73.82L891.82,60.49L916.59,67.88L941.36,87.95L966.14,83.44L990.91,95.01L1015.68,59.43L1040.45,106.51L1065.23,109.09L1090,106.65" style="vector-effect: none; fill: none; stroke: rgb(121, 85, 72); stroke-opacity: 1; stroke-width: 0.5px; opacity: 1;"/></g><g class="points"/><g class="text"/></g></g></g></g><g class="zerolinelayer-above"/><path class="xlines-above crisp" d="M0,0" style="fill: none;"/><path class="ylines-above crisp" d="M0,0" style="fill: none;"/><g class="overlines-above"/><g class="xaxislayer-above"><g class="xtick"><text text-anchor="middle" x="0" y="542" transform="translate(70,0)" style="font-family: Inter, Helvetica, Arial, sans-serif; font-size: 14px; fill: rgb(68, 68, 68); fill-opacity: 1; white-space: pre;">1980</text></g><g class="xtick"><text text-anchor="middle" x="0" y="542" style="font-family: Inter, Helvetica, Arial, sans-serif; font-size: 14px; fill: rgb(68, 68, 68); fill-opacity: 1; white-space: pre;" transform="translate(193.86,0)">1985</text></g><g class="xtick"><text text-anchor="middle" x="0" y="542" style="font-family: Inter, Helvetica, Arial, sans-serif; font-size: 14px; fill: rgb(68, 68, 68); fill-opacity: 1; white-space: pre;" transform="translate(317.73,0)">1990</text></g><g class="xtick"><text text-anchor="middle" x="0" y="542" style="font-family: Inter, Helvetica, Arial, sans-serif; font-size: 14px; fill: rgb(68, 68, 68); fill-opacity: 1; white-space: pre;" transform="translate(441.59,0)">1995</text></g><g class="xtick"><text text-anchor="middle" x="0" y="542" style="font-family: Inter, Helvetica, Arial, sans-serif; font-size: 14px; fill: rgb(68, 68, 68); fill-opacity: 1; white-space: pre;" transform="translate(565.45,0)">2000</text></g><g class="xtick"><text text-anchor="middle" x="0" y="542" style="font-family: Inter, Helvetica, Arial, sans-serif; font-size: 14px; fill: rgb(68, 68, 68); fill-opacity: 1; white-space: pre;" transform="translate(689.32,0)">2005</text></g><g class="xtick"><text text-anchor="middle" x="0" y="542" style="font-family: Inter, Helvetica, Arial, sans-serif; font-size: 14px; fill: rgb(68, 68, 68); fill-opacity: 1; white-space: pre;" transform="translate(813.18,0)">2010</text></g><g class="xtick"><text text-anchor="middle" x="0" y="542" style="font-family: Inter, Helvetica, Arial, sans-serif; font-size: 14px; fill: rgb(68, 68, 68); fill-opacity: 1; white-space: pre;" transform="translate(937.05,0)">2015</text></g><g class="xtick"><text text-anchor="middle" x="0" y="542" style="font-family: Inter, Helvetica, Arial, sans-serif; font-size: 14px; fill: rgb(68, 68, 68); fill-opacity: 1; white-space: pre;" transform="translate(1060.9099999999999,0)">2020</text></g></g><g class="yaxislayer-above"><g class="ytick"><text text-anchor="end" x="69" y="4.8999999999999995" transform="translate(0,527)" style="font-family: Inter, Helvetica, Arial, sans-serif; font-size: 14px; fill: rgb(68, 68, 68); fill-opacity: 1; white-space: pre;">0</text></g><g class="ytick"><text text-anchor="end" x="69" y="4.8999999999999995" style="font-family: Inter, Helvetica, Arial, sans-serif; font-size: 14px; fill: rgb(68, 68, 68); fill-opacity: 1; white-space: pre;" transform="translate(0,448.18)">50k</text></g><g class="ytick"><text text-anchor="end" x="69" y="4.8999999999999995" style="font-family: Inter, Helvetica, Arial, sans-serif; font-size: 14px; fill: rgb(68, 68, 68); fill-opacity: 1; white-space: pre;" transform="translate(0,369.35)">100k</text></g><g class="ytick"><text text-anchor="end" x="69" y="4.8999999999999995" style="font-family: Inter, Helvetica, Arial, sans-serif; font-size: 14px; fill: rgb(68, 68, 68); fill-opacity: 1; white-space: pre;" transform="translate(0,290.53)">150k</text></g><g class="ytick"><text text-anchor="end" x="69" y="4.8999999999999995" style="font-family: Inter, Helvetica, Arial, sans-serif; font-size: 14px; fill: rgb(68, 68, 68); fill-opacity: 1; white-space: pre;" transform="translate(0,211.7)">200k</text></g><g class="ytick"><text text-anchor="end" x="69" y="4.8999999999999995" style="font-family: Inter, Helvetica, Arial, sans-serif; font-size: 14px; fill: rgb(68, 68, 68); fill-opacity: 1; white-space: pre;" transform="translate(0,132.88)">250k</text></g></g><g class="overaxes-above"/></g></g><g class="polarlayer"/><g class="smithlayer"/><g class="ternarylayer"/><g class="geolayer"/><g class="funnelarealayer"/><g class="pielayer"/><g class="iciclelayer"/><g class="treemaplayer"/><g class="sunburstlayer"/><g class="glimages"/><defs id="topdefs-ce5730"><g class="clips"/><clipPath id="legendce5730"><rect width="1035" height="32" x="0" y="0"/></clipPath></defs><g class="layer-above"><g class="imagelayer"/><g class="shapelayer"/></g><g class="infolayer"><g class="legend" pointer-events="all" transform="translate(97.5,605.5)"><rect class="bg" shape-rendering="crispEdges" style="stroke: rgb(68, 68, 68); stroke-opacity: 1; fill: rgb(255, 255, 255); fill-opacity: 1; stroke-width: 0px;" width="1035" height="32" x="0" y="0"/><g class="scrollbox" transform="" clip-path="url(#legendce5730)"><g class="groups"><g class="traces" transform="translate(0,15.6)" style="opacity: 1;"><text class="legendtext" text-anchor="start" x="40" y="5.46" style="font-family: Inter, Helvetica, Arial, sans-serif; font-size: 14px; fill: rgb(68, 68, 68); fill-opacity: 1; white-space: pre;">Waste</text><g class="layers"><g class="legendfill"><path class="js-fill" d="M5,-2h30v6h-30z" style="stroke-width: 0; fill: rgb(121, 85, 72); fill-opacity: 0.5;"/></g><g class="legendlines"><path class="js-line" d="M5,-2h30" style="fill: none; stroke: rgb(121, 85, 72); stroke-opacity: 1; stroke-width: 0.5px;"/></g><g class="legendsymbols"><g class="legendpoints"/></g></g><rect class="legendtoggle" x="0" y="-10.6" width="83.453125" height="21.2" style="fill: rgb(0, 0, 0); fill-opacity: 0;"/></g><g class="traces" transform="translate(85.953125,15.6)" style="opacity: 1;"><text class="legendtext" text-anchor="start" x="40" y="5.46" style="font-family: Inter, Helvetica, Arial, sans-serif; font-size: 14px; fill: rgb(68, 68, 68); fill-opacity: 1; white-space: pre;">Coal</text><g class="layers"><g class="legendfill"><path class="js-fill" d="M5,-2h30v6h-30z" style="stroke-width: 0; fill: rgb(96, 125, 139); fill-opacity: 0.5;"/></g><g class="legendlines"><path class="js-line" d="M5,-2h30" style="fill: none; stroke: rgb(96, 125, 139); stroke-opacity: 1; stroke-width: 0.5px;"/></g><g class="legendsymbols"><g class="legendpoints"/></g></g><rect class="legendtoggle" x="0" y="-10.6" width="72.515625" height="21.2" style="fill: rgb(0, 0, 0); fill-opacity: 0;"/></g><g class="traces" transform="translate(160.96875,15.6)" style="opacity: 1;"><text class="legendtext" text-anchor="start" x="40" y="5.46" style="font-family: Inter, Helvetica, Arial, sans-serif; font-size: 14px; fill: rgb(68, 68, 68); fill-opacity: 1; white-space: pre;">District Heating</text><g class="layers"><g class="legendfill"><path class="js-fill" d="M5,-2h30v6h-30z" style="stroke-width: 0; fill: rgb(156, 39, 176); fill-opacity: 0.5;"/></g><g class="legendlines"><path class="js-line" d="M5,-2h30" style="fill: none; stroke: rgb(156, 39, 176); stroke-opacity: 1; stroke-width: 0.5px;"/></g><g class="legendsymbols"><g class="legendpoints"/></g></g><rect class="legendtoggle" x="0" y="-10.6" width="144.671875" height="21.2" style="fill: rgb(0, 0, 0); fill-opacity: 0;"/></g><g class="traces" transform="translate(308.140625,15.6)" style="opacity: 1;"><text class="legendtext" text-anchor="start" x="40" y="5.46" style="font-family: Inter, Helvetica, Arial, sans-serif; font-size: 14px; fill: rgb(68, 68, 68); fill-opacity: 1; white-space: pre;">Other Renewables</text><g class="layers"><g class="legendfill"><path class="js-fill" d="M5,-2h30v6h-30z" style="stroke-width: 0; fill: rgb(0, 188, 212); fill-opacity: 0.5;"/></g><g class="legendlines"><path class="js-line" d="M5,-2h30" style="fill: none; stroke: rgb(0, 188, 212); stroke-opacity: 1; stroke-width: 0.5px;"/></g><g class="legendsymbols"><g class="legendpoints"/></g></g><rect class="legendtoggle" x="0" y="-10.6" width="163.421875" height="21.2" style="fill: rgb(0, 0, 0); fill-opacity: 0;"/></g><g class="traces" transform="translate(474.0625,15.6)" style="opacity: 1;"><text class="legendtext" text-anchor="start" x="40" y="5.46" style="font-family: Inter, Helvetica, Arial, sans-serif; font-size: 14px; fill: rgb(68, 68, 68); fill-opacity: 1; white-space: pre;">Wood / Biomass</text><g class="layers"><g class="legendfill"><path class="js-fill" d="M5,-2h30v6h-30z" style="stroke-width: 0; fill: rgb(76, 175, 80); fill-opacity: 0.5;"/></g><g class="legendlines"><path class="js-line" d="M5,-2h30" style="fill: none; stroke: rgb(76, 175, 80); stroke-opacity: 1; stroke-width: 0.5px;"/></g><g class="legendsymbols"><g class="legendpoints"/></g></g><rect class="legendtoggle" x="0" y="-10.6" width="149.71875" height="21.2" style="fill: rgb(0, 0, 0); fill-opacity: 0;"/></g><g class="traces" transform="translate(626.28125,15.6)" style="opacity: 1;"><text class="legendtext" text-anchor="start" x="40" y="5.46" style="font-family: Inter, Helvetica, Arial, sans-serif; font-size: 14px; fill: rgb(68, 68, 68); fill-opacity: 1; white-space: pre;">Natural Gas</text><g class="layers"><g class="legendfill"><path class="js-fill" d="M5,-2h30v6h-30z" style="stroke-width: 0; fill: rgb(255, 107, 53); fill-opacity: 0.5;"/></g><g class="legendlines"><path class="js-line" d="M5,-2h30" style="fill: none; stroke: rgb(255, 107, 53); stroke-opacity: 1; stroke-width: 0.5px;"/></g><g class="legendsymbols"><g class="legendpoints"/></g></g><rect class="legendtoggle" x="0" y="-10.6" width="119.9375" height="21.2" style="fill: rgb(0, 0, 0); fill-opacity: 0;"/></g><g class="traces" transform="translate(748.71875,15.6)" style="opacity: 1;"><text class="legendtext" text-anchor="start" x="40" y="5.46" style="font-family: Inter, Helvetica, Arial, sans-serif; font-size: 14px; fill: rgb(68, 68, 68); fill-opacity: 1; white-space: pre;">Electricity</text><g class="layers"><g class="legendfill"><path class="js-fill" d="M5,-2h30v6h-30z" style="stroke-width: 0; fill: rgb(255, 193, 7); fill-opacity: 0.5;"/></g><g class="legendlines"><path class="js-line" d="M5,-2h30" style="fill: none; stroke: rgb(255, 193, 7); stroke-opacity: 1; stroke-width: 0.5px;"/></g><g class="legendsymbols"><g class="legendpoints"/></g></g><rect class="legendtoggle" x="0" y="-10.6" width="107.96875" height="21.2" style="fill: rgb(0, 0, 0); fill-opacity: 0;"/></g><g class="traces" transform="translate(859.1875,15.6)" style="opacity: 1;"><text class="legendtext" text-anchor="start" x="40" y="5.46" style="font-family: Inter, Helvetica, Arial, sans-serif; font-size: 14px; fill: rgb(68, 68, 68); fill-opacity: 1; white-space: pre;">Petroleum Products</text><g class="layers"><g class="legendfill"><path class="js-fill" d="M5,-2h30v6h-30z" style="stroke-width: 0; fill: rgb(139, 69, 19); fill-opacity: 0.5;"/></g><g class="legendlines"><path class="js-line" d="M5,-2h30" style="fill: none; stroke: rgb(139, 69, 19); stroke-opacity: 1; stroke-width: 0.5px;"/></g><g class="legendsymbols"><g class="legendpoints"/></g></g><rect class="legendtoggle" x="0" y="-10.6" width="172.640625" height="21.2" style="fill: rgb(0, 0, 0); fill-opacity: 0;"/></g></g></g><rect class="scrollbar" rx="20" ry="3" width="0" height="0" style="fill: rgb(128, 139, 164); fill-opacity: 1;" x="0" y="0"/></g><g class="g-gtitle"><text class="gtitle" x="600" y="42.5" text-anchor="middle" dy="0em" style="opacity: 1; font-family: Inter, Helvetica, Arial, sans-serif; font-size: 20px; fill: rgb(68, 68, 68); fill-opacity: 1; white-space: pre;">Swiss Household Final Energy Consumption by Carrier (TJ)</text></g><g class="g-xtitle"><text class="xtitle" x="615" y="585" text-anchor="middle" style="opacity: 1; font-family: Inter, Helvetica, Arial, sans-serif; font-size: 16px; fill: rgb(68, 68, 68); fill-opacity: 1; white-space: pre;">Year</text></g><g class="g-ytitle"><text class="ytitle" transform="rotate(-90,28,306)" x="28" y="306" text-anchor="middle" style="opacity: 1; font-family: Inter, Helvetica, Arial, sans-serif; font-size: 16px; fill: rgb(68, 68, 68); fill-opacity: 1; white-space: pre;">Final Energy (TJ)</text></g></g></svg>