<svg class="main-svg" xmlns="http://www.w3.org/2000/svg" xmlns:xlink="http://www.w3.org/1999/xlink" width="1400" height="750" style="" viewBox="0 0 1400 750"><rect x="0" y="0" width="1400" height="750" style="fill: rgb(255, 255, 255); fill-opacity: 1;"/><defs id="defs-86d13c"><g class="clips"><clipPath id="clip86d13cxyplot" class="plotclip"><rect width="1280" height="498"/></clipPath><clipPath class="axesclip" id="clip86d13cx"><rect x="80" y="0" width="1280" height="750"/></clipPath><clipPath class="axesclip" id="clip86d13cy"><rect x="0" y="90" width="1400" height="498"/></clipPath><clipPath class="axesclip" id="clip86d13cxy"><rect x="80" y="90" width="1280" height="498"/></clipPath></g><g class="gradients"/><g class="patterns"/></defs><g class="bglayer"/><g class="layer-below"><g class="imagelayer"/><g class="shapelayer"/></g><g class="cartesianlayer"><g class="subplot xy"><g class="layer-subplot"><g class="shapelayer"/><g class="imagelayer"/></g><g class="minor-gridlayer"><g class="x"/><g class="y"/></g><g class="gridlayer"><g class="x"><path class="xgrid crisp" transform="translate(149,0)" d="M0,90v498" style="stroke: rgb(238, 238, 238); stroke-opacity: 1; stroke-width: 1px;"/><path class="xgrid crisp" transform="translate(402.78,0)" d="M0,90v498" style="stroke: rgb(238, 238, 238); stroke-opacity: 1; stroke-width: 1px;"/><path class="xgrid crisp" transform="translate(656.56,0)" d="M0,90v498" style="stroke: rgb(238, 238, 238); stroke-opacity: 1; stroke-width: 1px;"/><path class="xgrid crisp" transform="translate(910.33,0)" d="M0,90v498" style="stroke: rgb(238, 238, 238); stroke-opacity: 1; stroke-width: 1px;"/><path class="xgrid crisp" transform="translate(1164.11,0)" d="M0,90v498" style="stroke: rgb(238, 238, 238); stroke-opacity: 1; stroke-width: 1px;"/></g><g class="y"><path class="ygrid crisp" transform="translate(0,550.78)" d="M80,0h1280" style="stroke: rgb(238, 238, 238); stroke-opacity: 1; stroke-width: 1px;"/><path class="ygrid crisp" transform="translate(0,469.86)" d="M80,0h1280" style="stroke: rgb(238, 238, 238); stroke-opacity: 1; stroke-width: 1px;"/><path class="ygrid crisp" transform="translate(0,388.95)" d="M80,0h1280" style="stroke: rgb(238, 238, 238); stroke-opacity: 1; stroke-width: 1px;"/><path class="ygrid crisp" transform="translate(0,308.03)" d="M80,0h1280" style="stroke: rgb(238, 238, 238); stroke-opacity: 1; stroke-width: 1px;"/><path class="ygrid crisp" transform="translate(0,227.11)" d="M80,0h1280" style="stroke: rgb(238, 238, 238); stroke-opacity: 1; stroke-width: 1px;"/><path class="ygrid crisp" transform="translate(0,146.2)" d="M80,0h1280" style="stroke: rgb(238, 238, 238); stroke-opacity: 1; stroke-width: 1px;"/></g></g><g class="zerolinelayer"/><g class="layer-between"><g class="shapelayer"/><g class="imagelayer"/></g><path class="xlines-below"/><path class="ylines-below"/><g class="overlines-below"/><g class="xaxislayer-below"/><g class="yaxislayer-below"/><g class="overaxes-below"/><g class="overplot"><g class="xy" transform="translate(80,90)" clip-path="url(#clip86d13cxyplot)"><g class="scatterlayer mlayer"><g class="trace scatter traced35fb7" style="stroke-miterlimit: 2; opacity: 1;"><g class="fills"/><g class="errorbars"/><g class="lines"/><g class="points"><path class="point" transform="translate(69,29.9)" d="M4,0A4,4 0 1,1 0,-4A4,4 0 0,1 4,0Z" style="opacity: 1; stroke-width: 0px; fill: rgb(255, 152, 0); fill-opacity: 1;"/><path class="point" transform="translate(94.38,139.95)" d="M4,0A4,4 0 1,1 0,-4A4,4 0 0,1 4,0Z" style="opacity: 1; stroke-width: 0px; fill: rgb(255, 152, 0); fill-opacity: 1;"/><path class="point" transform="translate(119.76,198.21)" d="M4,0A4,4 0 1,1 0,-4A4,4 0 0,1 4,0Z" style="opacity: 1; stroke-width: 0px; fill: rgb(255, 152, 0); fill-opacity: 1;"/><path class="point" transform="translate(145.13,176.76)" d="M4,0A4,4 0 1,1 0,-4A4,4 0 0,1 4,0Z" style="opacity: 1; stroke-width: 0px; fill: rgb(255, 152, 0); fill-opacity: 1;"/><path class="point" transform="translate(170.51,96.66)" d="M4,0A4,4 0 1,1 0,-4A4,4 0 0,1 4,0Z" style="opacity: 1; stroke-width: 0px; fill: rgb(255, 152, 0); fill-opacity: 1;"/><path class="point" transform="translate(195.89,63.48)" d="M4,0A4,4 0 1,1 0,-4A4,4 0 0,1 4,0Z" style="opacity: 1; stroke-width: 0px; fill: rgb(255, 152, 0); fill-opacity: 1;"/><path class="point" transform="translate(221.27,78.45)" d="M4,0A4,4 0 1,1 0,-4A4,4 0 0,1 4,0Z" style="opacity: 1; stroke-width: 0px; fill: rgb(255, 152, 0); fill-opacity: 1;"/><path class="point" transform="translate(246.64,37.18)" d="M4,0A4,4 0 1,1 0,-4A4,4 0 0,1 4,0Z" style="opacity: 1; stroke-width: 0px; fill: rgb(255, 152, 0); fill-opacity: 1;"/><path class="point" transform="translate(272.02,243.92)" d="M4,0A4,4 0 1,1 0,-4A4,4 0 0,1 4,0Z" style="opacity: 1; stroke-width: 0px; fill: rgb(255, 152, 0); fill-opacity: 1;"/><path class="point" transform="translate(297.4,256.46)" d="M4,0A4,4 0 1,1 0,-4A4,4 0 0,1 4,0Z" style="opacity: 1; stroke-width: 0px; fill: rgb(255, 152, 0); fill-opacity: 1;"/><path class="point" transform="translate(322.78,311.49)" d="M4,0A4,4 0 1,1 0,-4A4,4 0 0,1 4,0Z" style="opacity: 1; stroke-width: 0px; fill: rgb(255, 152, 0); fill-opacity: 1;"/><path class="point" transform="translate(348.16,74.81)" d="M4,0A4,4 0 1,1 0,-4A4,4 0 0,1 4,0Z" style="opacity: 1; stroke-width: 0px; fill: rgb(255, 152, 0); fill-opacity: 1;"/><path class="point" transform="translate(373.53,202.25)" d="M4,0A4,4 0 1,1 0,-4A4,4 0 0,1 4,0Z" style="opacity: 1; stroke-width: 0px; fill: rgb(255, 152, 0); fill-opacity: 1;"/><path class="point" transform="translate(398.91,200.63)" d="M4,0A4,4 0 1,1 0,-4A4,4 0 0,1 4,0Z" style="opacity: 1; stroke-width: 0px; fill: rgb(255, 152, 0); fill-opacity: 1;"/><path class="point" transform="translate(424.29,347.45)" d="M4,0A4,4 0 1,1 0,-4A4,4 0 0,1 4,0Z" style="opacity: 1; stroke-width: 0px; fill: rgb(255, 152, 0); fill-opacity: 1;"/><path class="point" transform="translate(449.67,219.12)" d="M4,0A4,4 0 1,1 0,-4A4,4 0 0,1 4,0Z" style="opacity: 1; stroke-width: 0px; fill: rgb(255, 152, 0); fill-opacity: 1;"/><path class="point" transform="translate(475.04,75.09)" d="M4,0A4,4 0 1,1 0,-4A4,4 0 0,1 4,0Z" style="opacity: 1; stroke-width: 0px; fill: rgb(255, 152, 0); fill-opacity: 1;"/><path class="point" transform="translate(500.42,266.13)" d="M4,0A4,4 0 1,1 0,-4A4,4 0 0,1 4,0Z" style="opacity: 1; stroke-width: 0px; fill: rgb(255, 152, 0); fill-opacity: 1;"/><path class="point" transform="translate(525.8,218.19)" d="M4,0A4,4 0 1,1 0,-4A4,4 0 0,1 4,0Z" style="opacity: 1; stroke-width: 0px; fill: rgb(255, 152, 0); fill-opacity: 1;"/><path class="point" transform="translate(551.18,253.23)" d="M4,0A4,4 0 1,1 0,-4A4,4 0 0,1 4,0Z" style="opacity: 1; stroke-width: 0px; fill: rgb(255, 152, 0); fill-opacity: 1;"/><path class="point" transform="translate(576.56,347.13)" d="M4,0A4,4 0 1,1 0,-4A4,4 0 0,1 4,0Z" style="opacity: 1; stroke-width: 0px; fill: rgb(255, 152, 0); fill-opacity: 1;"/><path class="point" transform="translate(601.93,276.49)" d="M4,0A4,4 0 1,1 0,-4A4,4 0 0,1 4,0Z" style="opacity: 1; stroke-width: 0px; fill: rgb(255, 152, 0); fill-opacity: 1;"/><path class="point" transform="translate(627.31,325.4)" d="M4,0A4,4 0 1,1 0,-4A4,4 0 0,1 4,0Z" style="opacity: 1; stroke-width: 0px; fill: rgb(255, 152, 0); fill-opacity: 1;"/><path class="point" transform="translate(652.69,235.35)" d="M4,0A4,4 0 1,1 0,-4A4,4 0 0,1 4,0Z" style="opacity: 1; stroke-width: 0px; fill: rgb(255, 152, 0); fill-opacity: 1;"/><path class="point" transform="translate(678.07,242.79)" d="M4,0A4,4 0 1,1 0,-4A4,4 0 0,1 4,0Z" style="opacity: 1; stroke-width: 0px; fill: rgb(255, 152, 0); fill-opacity: 1;"/><path class="point" transform="translate(703.44,170.49)" d="M4,0A4,4 0 1,1 0,-4A4,4 0 0,1 4,0Z" style="opacity: 1; stroke-width: 0px; fill: rgb(255, 152, 0); fill-opacity: 1;"/><path class="point" transform="translate(728.82,280.29)" d="M4,0A4,4 0 1,1 0,-4A4,4 0 0,1 4,0Z" style="opacity: 1; stroke-width: 0px; fill: rgb(255, 152, 0); fill-opacity: 1;"/><path class="point" transform="translate(754.2,338.88)" d="M4,0A4,4 0 1,1 0,-4A4,4 0 0,1 4,0Z" style="opacity: 1; stroke-width: 0px; fill: rgb(255, 152, 0); fill-opacity: 1;"/><path class="point" transform="translate(779.58,239.31)" d="M4,0A4,4 0 1,1 0,-4A4,4 0 0,1 4,0Z" style="opacity: 1; stroke-width: 0px; fill: rgb(255, 152, 0); fill-opacity: 1;"/><path class="point" transform="translate(804.96,306.43)" d="M4,0A4,4 0 1,1 0,-4A4,4 0 0,1 4,0Z" style="opacity: 1; stroke-width: 0px; fill: rgb(255, 152, 0); fill-opacity: 1;"/><path class="point" transform="translate(830.33,142.94)" d="M4,0A4,4 0 1,1 0,-4A4,4 0 0,1 4,0Z" style="opacity: 1; stroke-width: 0px; fill: rgb(255, 152, 0); fill-opacity: 1;"/><path class="point" transform="translate(855.71,404.95)" d="M4,0A4,4 0 1,1 0,-4A4,4 0 0,1 4,0Z" style="opacity: 1; stroke-width: 0px; fill: rgb(255, 152, 0); fill-opacity: 1;"/><path class="point" transform="translate(881.09,266.21)" d="M4,0A4,4 0 1,1 0,-4A4,4 0 0,1 4,0Z" style="opacity: 1; stroke-width: 0px; fill: rgb(255, 152, 0); fill-opacity: 1;"/><path class="point" transform="translate(906.47,189.22)" d="M4,0A4,4 0 1,1 0,-4A4,4 0 0,1 4,0Z" style="opacity: 1; stroke-width: 0px; fill: rgb(255, 152, 0); fill-opacity: 1;"/><path class="point" transform="translate(931.84,468.1)" d="M4,0A4,4 0 1,1 0,-4A4,4 0 0,1 4,0Z" style="opacity: 1; stroke-width: 0px; fill: rgb(255, 152, 0); fill-opacity: 1;"/><path class="point" transform="translate(957.22,349.56)" d="M4,0A4,4 0 1,1 0,-4A4,4 0 0,1 4,0Z" style="opacity: 1; stroke-width: 0px; fill: rgb(255, 152, 0); fill-opacity: 1;"/><path class="point" transform="translate(982.6,266.05)" d="M4,0A4,4 0 1,1 0,-4A4,4 0 0,1 4,0Z" style="opacity: 1; stroke-width: 0px; fill: rgb(255, 152, 0); fill-opacity: 1;"/><path class="point" transform="translate(1007.98,285.55)" d="M4,0A4,4 0 1,1 0,-4A4,4 0 0,1 4,0Z" style="opacity: 1; stroke-width: 0px; fill: rgb(255, 152, 0); fill-opacity: 1;"/><path class="point" transform="translate(1033.36,424.08)" d="M4,0A4,4 0 1,1 0,-4A4,4 0 0,1 4,0Z" style="opacity: 1; stroke-width: 0px; fill: rgb(255, 152, 0); fill-opacity: 1;"/><path class="point" transform="translate(1058.73,352.88)" d="M4,0A4,4 0 1,1 0,-4A4,4 0 0,1 4,0Z" style="opacity: 1; stroke-width: 0px; fill: rgb(255, 152, 0); fill-opacity: 1;"/><path class="point" transform="translate(1084.11,407.94)" d="M4,0A4,4 0 1,1 0,-4A4,4 0 0,1 4,0Z" style="opacity: 1; stroke-width: 0px; fill: rgb(255, 152, 0); fill-opacity: 1;"/><path class="point" transform="translate(1109.49,226.93)" d="M4,0A4,4 0 1,1 0,-4A4,4 0 0,1 4,0Z" style="opacity: 1; stroke-width: 0px; fill: rgb(255, 152, 0); fill-opacity: 1;"/><path class="point" transform="translate(1134.87,462.48)" d="M4,0A4,4 0 1,1 0,-4A4,4 0 0,1 4,0Z" style="opacity: 1; stroke-width: 0px; fill: rgb(255, 152, 0); fill-opacity: 1;"/><path class="point" transform="translate(1160.24,442.29)" d="M4,0A4,4 0 1,1 0,-4A4,4 0 0,1 4,0Z" style="opacity: 1; stroke-width: 0px; fill: rgb(255, 152, 0); fill-opacity: 1;"/><path class="point" transform="translate(1185.62,436.87)" d="M4,0A4,4 0 1,1 0,-4A4,4 0 0,1 4,0Z" style="opacity: 1; stroke-width: 0px; fill: rgb(255, 152, 0); fill-opacity: 1;"/><path class="point" transform="translate(1211,373.63)" d="M4,0A4,4 0 1,1 0,-4A4,4 0 0,1 4,0Z" style="opacity: 1; stroke-width: 0px; fill: rgb(255, 152, 0); fill-opacity: 1;"/></g><g class="text"/></g><g class="trace scatter trace493b7d" style="stroke-miterlimit: 2; opacity: 1;"><g class="fills"/><g class="errorbars"/><g class="lines"><path class="js-line" d="M69,113.25L1211,397.69" style="vector-effect: none; fill: none; stroke: rgb(244, 67, 54); stroke-opacity: 1; stroke-dasharray: 9px, 9px; stroke-width: 2px; opacity: 1;"/></g><g class="points"/><g class="text"/></g></g></g></g><g class="zerolinelayer-above"/><path class="xlines-above crisp" d="M0,0" style="fill: none;"/><path class="ylines-above crisp" d="M0,0" style="fill: none;"/><g class="overlines-above"/><g class="xaxislayer-above"><g class="xtick"><text text-anchor="middle" x="0" y="606" transform="translate(149,0)" style="font-family: Inter, Helvetica, Arial, sans-serif; font-size: 17px; fill: rgb(68, 68, 68); fill-opacity: 1; white-space: pre;">1980</text></g><g class="xtick"><text text-anchor="middle" x="0" y="606" style="font-family: Inter, Helvetica, Arial, sans-serif; font-size: 17px; fill: rgb(68, 68, 68); fill-opacity: 1; white-space: pre;" transform="translate(402.78,0)">1990</text></g><g class="xtick"><text text-anchor="middle" x="0" y="606" style="font-family: Inter, Helvetica, Arial, sans-serif; font-size: 17px; fill: rgb(68, 68, 68); fill-opacity: 1; white-space: pre;" transform="translate(656.56,0)">2000</text></g><g class="xtick"><text text-anchor="middle" x="0" y="606" style="font-family: Inter, Helvetica, Arial, sans-serif; font-size: 17px; fill: rgb(68, 68, 68); fill-opacity: 1; white-space: pre;" transform="translate(910.33,0)">2010</text></g><g class="xtick"><text text-anchor="middle" x="0" y="606" style="font-family: Inter, Helvetica, Arial, sans-serif; font-size: 17px; fill: rgb(68, 68, 68); fill-opacity: 1; white-space: pre;" transform="translate(1164.11,0)">2020</text></g></g><g class="yaxislayer-above"><g class="ytick"><text text-anchor="end" x="79" y="5.949999999999999" transform="translate(0,550.78)" style="font-family: Inter, Helvetica, Arial, sans-serif; font-size: 17px; fill: rgb(68, 68, 68); fill-opacity: 1; white-space: pre;">2800</text></g><g class="ytick"><text text-anchor="end" x="79" y="5.949999999999999" style="font-family: Inter, Helvetica, Arial, sans-serif; font-size: 17px; fill: rgb(68, 68, 68); fill-opacity: 1; white-space: pre;" transform="translate(0,469.86)">3000</text></g><g class="ytick"><text text-anchor="end" x="79" y="5.949999999999999" style="font-family: Inter, Helvetica, Arial, sans-serif; font-size: 17px; fill: rgb(68, 68, 68); fill-opacity: 1; white-space: pre;" transform="translate(0,388.95)">3200</text></g><g class="ytick"><text text-anchor="end" x="79" y="5.949999999999999" style="font-family: Inter, Helvetica, Arial, sans-serif; font-size: 17px; fill: rgb(68, 68, 68); fill-opacity: 1; white-space: pre;" transform="translate(0,308.03)">3400</text></g><g class="ytick"><text text-anchor="end" x="79" y="5.949999999999999" style="font-family: Inter, Helvetica, Arial, sans-serif; font-size: 17px; fill: rgb(68, 68, 68); fill-opacity: 1; white-space: pre;" transform="translate(0,227.11)">3600</text></g><g class="ytick"><text text-anchor="end" x="79" y="5.949999999999999" style="font-family: Inter, Helvetica, Arial, sans-serif; font-size: 17px; fill: rgb(68, 68, 68); fill-opacity: 1; white-space: pre;" transform="translate(0,146.2)">3800</text></g></g><g class="overaxes-above"/></g></g><g class="polarlayer"/><g class="smithlayer"/><g class="ternarylayer"/><g class="geolayer"/><g class="funnelarealayer"/><g class="pielayer"/><g class="iciclelayer"/><g class="treemaplayer"/><g class="sunburstlayer"/><g class="glimages"/><defs id="topdefs-86d13c"><g class="clips"/><clipPath id="legend86d13c"><rect width="382" height="34" x="0" y="0"/></clipPath></defs><g class="layer-above"><g class="imagelayer"/><g class="shapelayer"/></g><g class="infolayer"><g class="legend" pointer-events="all" transform="translate(529,703.4)"><rect class="bg" shape-rendering="crispEdges" style="stroke: rgb(68, 68, 68); stroke-opacity: 1; fill: rgb(255, 255, 255); fill-opacity: 1; stroke-width: 0px;" width="382" height="34" x="0" y="0"/><g class="scrollbox" transform="" clip-path="url(#legend86d13c)"><g class="groups"><g class="traces" transform="translate(0,16.9)" style="opacity: 1;"><text class="legendtext" text-anchor="start" x="40" y="6.24" style="font-family: Inter, Helvetica, Arial, sans-serif; font-size: 16px; fill: rgb(68, 68, 68); fill-opacity: 1; white-space: pre;">HDD (actual)</text><g class="layers" style="opacity: 1;"><g class="legendfill"/><g class="legendlines"/><g class="legendsymbols"><g class="legendpoints"><path class="scatterpts" transform="translate(20,0)" d="M4,0A4,4 0 1,1 0,-4A4,4 0 0,1 4,0Z" style="opacity: 1; stroke-width: 0px; fill: rgb(255, 152, 0); fill-opacity: 1;"/></g></g></g><rect class="legendtoggle" x="0" y="-11.9" width="139.34375" height="23.8" style="fill: rgb(0, 0, 0); fill-opacity: 0;"/></g><g class="traces" transform="translate(141.84375,16.9)" style="opacity: 1;"><text class="legendtext" text-anchor="start" x="40" y="6.24" style="font-family: Inter, Helvetica, Arial, sans-serif; font-size: 16px; fill: rgb(68, 68, 68); fill-opacity: 1; white-space: pre;">Trend (-156 HDD/decade)</text><g class="layers" style="opacity: 1;"><g class="legendfill"/><g class="legendlines"><path class="js-line" d="M5,0h30" style="fill: none; stroke: rgb(244, 67, 54); stroke-opacity: 1; stroke-dasharray: 9px, 9px; stroke-width: 2px;"/></g><g class="legendsymbols"><g class="legendpoints"/></g></g><rect class="legendtoggle" x="0" y="-11.9" width="236.6875" height="23.8" style="fill: rgb(0, 0, 0); fill-opacity: 0;"/></g></g></g><rect class="scrollbar" rx="20" ry="3" width="0" height="0" style="fill: rgb(128, 139, 164); fill-opacity: 1;" x="0" y="0"/></g><g class="g-gtitle"><text class="gtitle" x="700" y="45" text-anchor="middle" dy="0em" style="opacity: 1; font-family: Inter, Helvetica, Arial, sans-serif; font-size: 24px; fill: rgb(68, 68, 68); fill-opacity: 1; white-space: pre;">Heating Degree Days — Switzerland (base 20/12°C)</text></g><g class="g-xtitle"><text class="xtitle" x="720" y="658" text-anchor="middle" style="opacity: 1; font-family: Inter, Helvetica, Arial, sans-serif; font-size: 20px; fill: rgb(68, 68, 68); fill-opacity: 1; white-space: pre;">Year</text></g><g class="g-ytitle" transform="translate(-0.9375,0)"><text class="ytitle" transform="rotate(-90,30,339)" x="30" y="339" text-anchor="middle" style="opacity: 1; font-family: Inter, Helvetica, Arial, sans-serif; font-size: 20px; fill: rgb(68, 68, 68); fill-opacity: 1; white-space: pre;">HDD</text></g></g></svg>