<svg class="main-svg" xmlns="http://www.w3.org/2000/svg" xmlns:xlink="http://www.w3.org/1999/xlink" width="1000" height="550" style="" viewBox="0 0 1000 550"><rect x="0" y="0" width="1000" height="550" style="fill: rgb(255, 255, 255); fill-opacity: 1;"/><defs id="defs-e652fc"><g class="clips"><clipPath id="clipe652fcxyplot" class="plotclip"><rect width="910" height="370"/></clipPath><clipPath class="axesclip" id="clipe652fcx"><rect x="60" y="0" width="910" height="550"/></clipPath><clipPath class="axesclip" id="clipe652fcy"><rect x="0" y="75" width="1000" height="370"/></clipPath><clipPath class="axesclip" id="clipe652fcxy"><rect x="60" y="75" width="910" height="370"/></clipPath></g><g class="gradients"/><g class="patterns"/></defs><g class="bglayer"/><g class="layer-below"><g class="imagelayer"/><g class="shapelayer"/></g><g class="cartesianlayer"><g class="subplot xy"><g class="layer-subplot"><g class="shapelayer"/><g class="imagelayer"/></g><g class="minor-gridlayer"><g class="x"/><g class="y"/></g><g class="gridlayer"><g class="x"><path class="xgrid crisp" transform="translate(108.5,0)" d="M0,75v370" style="stroke: rgb(238, 238, 238); stroke-opacity: 1; stroke-width: 1px;"/><path class="xgrid crisp" transform="translate(258.33000000000004,0)" d="M0,75v370" style="stroke: rgb(238, 238, 238); stroke-opacity: 1; stroke-width: 1px;"/><path class="xgrid crisp" transform="translate(408.15,0)" d="M0,75v370" style="stroke: rgb(238, 238, 238); stroke-opacity: 1; stroke-width: 1px;"/><path class="xgrid crisp" transform="translate(557.98,0)" d="M0,75v370" style="stroke: rgb(238, 238, 238); stroke-opacity: 1; stroke-width: 1px;"/><path class="xgrid crisp" transform="translate(707.8,0)" d="M0,75v370" style="stroke: rgb(238, 238, 238); stroke-opacity: 1; stroke-width: 1px;"/><path class="xgrid crisp" transform="translate(857.63,0)" d="M0,75v370" style="stroke: rgb(238, 238, 238); stroke-opacity: 1; stroke-width: 1px;"/></g><g class="y"><path class="ygrid crisp" transform="translate(0,437.63)" d="M60,0h910" style="stroke: rgb(238, 238, 238); stroke-opacity: 1; stroke-width: 1px;"/><path class="ygrid crisp" transform="translate(0,394.53)" d="M60,0h910" style="stroke: rgb(238, 238, 238); stroke-opacity: 1; stroke-width: 1px;"/><path class="ygrid crisp" transform="translate(0,351.42)" d="M60,0h910" style="stroke: rgb(238, 238, 238); stroke-opacity: 1; stroke-width: 1px;"/><path class="ygrid crisp" transform="translate(0,308.32)" d="M60,0h910" style="stroke: rgb(238, 238, 238); stroke-opacity: 1; stroke-width: 1px;"/><path class="ygrid crisp" transform="translate(0,265.22)" d="M60,0h910" style="stroke: rgb(238, 238, 238); stroke-opacity: 1; stroke-width: 1px;"/><path class="ygrid crisp" transform="translate(0,222.11)" d="M60,0h910" style="stroke: rgb(238, 238, 238); stroke-opacity: 1; stroke-width: 1px;"/><path class="ygrid crisp" transform="translate(0,179.01)" d="M60,0h910" style="stroke: rgb(238, 238, 238); stroke-opacity: 1; stroke-width: 1px;"/><path class="ygrid crisp" transform="translate(0,135.91)" d="M60,0h910" style="stroke: rgb(238, 238, 238); stroke-opacity: 1; stroke-width: 1px;"/><path class="ygrid crisp" transform="translate(0,92.8)" d="M60,0h910" style="stroke: rgb(238, 238, 238); stroke-opacity: 1; stroke-width: 1px;"/></g></g><g class="zerolinelayer"/><g class="layer-between"><g class="shapelayer"/><g class="imagelayer"/></g><path class="xlines-below"/><path class="ylines-below"/><g class="overlines-below"/><g class="xaxislayer-below"/><g class="yaxislayer-below"/><g class="overaxes-below"/><g class="overplot"><g class="xy" transform="translate(60,75)" clip-path="url(#clipe652fcxyplot)"><g class="scatterlayer mlayer"><g class="trace scatter trace4fc95b" style="stroke-miterlimit: 2; opacity: 1;"><g class="fills"/><g class="errorbars"/><g class="lines"><path class="js-line" d="M48.5,348.5L55.99,343.91L63.48,337.9L70.97,332.71L78.47,328.61L115.92,313.65L123.41,311.73L138.4,308.28L145.89,306.28L153.38,304.81L160.87,304.93L175.85,307.41L183.34,307.38L198.33,305.76L205.82,304.27L220.8,301.48L228.29,300.48L250.77,296.03L258.26,293.95L273.24,288.69L280.73,285.05L295.71,279.08L303.2,276.69L318.19,273.33L325.68,272.59L340.66,270.22L348.15,268.48L363.13,264.15L370.63,261.81L400.59,252.67L408.08,248.51L415.57,244.36L423.07,238.92L445.54,227.3L453.03,223.08L468.01,215.24L475.5,212.45L505.47,201.48L512.96,198.17L520.45,191.84L527.94,188.02" style="vector-effect: none; fill: none; stroke: rgb(156, 39, 176); stroke-opacity: 1; stroke-width: 3px; opacity: 1;"/></g><g class="points"><path class="point" transform="translate(48.5,348.5)" d="M1.5,0A1.5,1.5 0 1,1 0,-1.5A1.5,1.5 0 0,1 1.5,0Z" style="opacity: 1; stroke-width: 0px; fill: rgb(156, 39, 176); fill-opacity: 1;"/><path class="point" transform="translate(55.99,343.91)" d="M1.5,0A1.5,1.5 0 1,1 0,-1.5A1.5,1.5 0 0,1 1.5,0Z" style="opacity: 1; stroke-width: 0px; fill: rgb(156, 39, 176); fill-opacity: 1;"/><path class="point" transform="translate(63.48,337.9)" d="M1.5,0A1.5,1.5 0 1,1 0,-1.5A1.5,1.5 0 0,1 1.5,0Z" style="opacity: 1; stroke-width: 0px; fill: rgb(156, 39, 176); fill-opacity: 1;"/><path class="point" transform="translate(70.97,332.71)" d="M1.5,0A1.5,1.5 0 1,1 0,-1.5A1.5,1.5 0 0,1 1.5,0Z" style="opacity: 1; stroke-width: 0px; fill: rgb(156, 39, 176); fill-opacity: 1;"/><path class="point" transform="translate(78.47,328.61)" d="M1.5,0A1.5,1.5 0 1,1 0,-1.5A1.5,1.5 0 0,1 1.5,0Z" style="opacity: 1; stroke-width: 0px; fill: rgb(156, 39, 176); fill-opacity: 1;"/><path class="point" transform="translate(85.96,325.71)" d="M1.5,0A1.5,1.5 0 1,1 0,-1.5A1.5,1.5 0 0,1 1.5,0Z" style="opacity: 1; stroke-width: 0px; fill: rgb(156, 39, 176); fill-opacity: 1;"/><path class="point" transform="translate(93.45,323.06)" d="M1.5,0A1.5,1.5 0 1,1 0,-1.5A1.5,1.5 0 0,1 1.5,0Z" style="opacity: 1; stroke-width: 0px; fill: rgb(156, 39, 176); fill-opacity: 1;"/><path class="point" transform="translate(100.94,319.88)" d="M1.5,0A1.5,1.5 0 1,1 0,-1.5A1.5,1.5 0 0,1 1.5,0Z" style="opacity: 1; stroke-width: 0px; fill: rgb(156, 39, 176); fill-opacity: 1;"/><path class="point" transform="translate(108.43,316.61)" d="M1.5,0A1.5,1.5 0 1,1 0,-1.5A1.5,1.5 0 0,1 1.5,0Z" style="opacity: 1; stroke-width: 0px; fill: rgb(156, 39, 176); fill-opacity: 1;"/><path class="point" transform="translate(115.92,313.65)" d="M1.5,0A1.5,1.5 0 1,1 0,-1.5A1.5,1.5 0 0,1 1.5,0Z" style="opacity: 1; stroke-width: 0px; fill: rgb(156, 39, 176); fill-opacity: 1;"/><path class="point" transform="translate(123.41,311.73)" d="M1.5,0A1.5,1.5 0 1,1 0,-1.5A1.5,1.5 0 0,1 1.5,0Z" style="opacity: 1; stroke-width: 0px; fill: rgb(156, 39, 176); fill-opacity: 1;"/><path class="point" transform="translate(130.9,310.33)" d="M1.5,0A1.5,1.5 0 1,1 0,-1.5A1.5,1.5 0 0,1 1.5,0Z" style="opacity: 1; stroke-width: 0px; fill: rgb(156, 39, 176); fill-opacity: 1;"/><path class="point" transform="translate(138.4,308.28)" d="M1.5,0A1.5,1.5 0 1,1 0,-1.5A1.5,1.5 0 0,1 1.5,0Z" style="opacity: 1; stroke-width: 0px; fill: rgb(156, 39, 176); fill-opacity: 1;"/><path class="point" transform="translate(145.89,306.28)" d="M1.5,0A1.5,1.5 0 1,1 0,-1.5A1.5,1.5 0 0,1 1.5,0Z" style="opacity: 1; stroke-width: 0px; fill: rgb(156, 39, 176); fill-opacity: 1;"/><path class="point" transform="translate(153.38,304.81)" d="M1.5,0A1.5,1.5 0 1,1 0,-1.5A1.5,1.5 0 0,1 1.5,0Z" style="opacity: 1; stroke-width: 0px; fill: rgb(156, 39, 176); fill-opacity: 1;"/><path class="point" transform="translate(160.87,304.93)" d="M1.5,0A1.5,1.5 0 1,1 0,-1.5A1.5,1.5 0 0,1 1.5,0Z" style="opacity: 1; stroke-width: 0px; fill: rgb(156, 39, 176); fill-opacity: 1;"/><path class="point" transform="translate(168.36,306.49)" d="M1.5,0A1.5,1.5 0 1,1 0,-1.5A1.5,1.5 0 0,1 1.5,0Z" style="opacity: 1; stroke-width: 0px; fill: rgb(156, 39, 176); fill-opacity: 1;"/><path class="point" transform="translate(175.85,307.41)" d="M1.5,0A1.5,1.5 0 1,1 0,-1.5A1.5,1.5 0 0,1 1.5,0Z" style="opacity: 1; stroke-width: 0px; fill: rgb(156, 39, 176); fill-opacity: 1;"/><path class="point" transform="translate(183.34,307.38)" d="M1.5,0A1.5,1.5 0 1,1 0,-1.5A1.5,1.5 0 0,1 1.5,0Z" style="opacity: 1; stroke-width: 0px; fill: rgb(156, 39, 176); fill-opacity: 1;"/><path class="point" transform="translate(190.83,306.84)" d="M1.5,0A1.5,1.5 0 1,1 0,-1.5A1.5,1.5 0 0,1 1.5,0Z" style="opacity: 1; stroke-width: 0px; fill: rgb(156, 39, 176); fill-opacity: 1;"/><path class="point" transform="translate(198.33,305.76)" d="M1.5,0A1.5,1.5 0 1,1 0,-1.5A1.5,1.5 0 0,1 1.5,0Z" style="opacity: 1; stroke-width: 0px; fill: rgb(156, 39, 176); fill-opacity: 1;"/><path class="point" transform="translate(205.82,304.27)" d="M1.5,0A1.5,1.5 0 1,1 0,-1.5A1.5,1.5 0 0,1 1.5,0Z" style="opacity: 1; stroke-width: 0px; fill: rgb(156, 39, 176); fill-opacity: 1;"/><path class="point" transform="translate(213.31,302.66)" d="M1.5,0A1.5,1.5 0 1,1 0,-1.5A1.5,1.5 0 0,1 1.5,0Z" style="opacity: 1; stroke-width: 0px; fill: rgb(156, 39, 176); fill-opacity: 1;"/><path class="point" transform="translate(220.8,301.48)" d="M1.5,0A1.5,1.5 0 1,1 0,-1.5A1.5,1.5 0 0,1 1.5,0Z" style="opacity: 1; stroke-width: 0px; fill: rgb(156, 39, 176); fill-opacity: 1;"/><path class="point" transform="translate(228.29,300.48)" d="M1.5,0A1.5,1.5 0 1,1 0,-1.5A1.5,1.5 0 0,1 1.5,0Z" style="opacity: 1; stroke-width: 0px; fill: rgb(156, 39, 176); fill-opacity: 1;"/><path class="point" transform="translate(235.78,299.25)" d="M1.5,0A1.5,1.5 0 1,1 0,-1.5A1.5,1.5 0 0,1 1.5,0Z" style="opacity: 1; stroke-width: 0px; fill: rgb(156, 39, 176); fill-opacity: 1;"/><path class="point" transform="translate(243.27,297.8)" d="M1.5,0A1.5,1.5 0 1,1 0,-1.5A1.5,1.5 0 0,1 1.5,0Z" style="opacity: 1; stroke-width: 0px; fill: rgb(156, 39, 176); fill-opacity: 1;"/><path class="point" transform="translate(250.77,296.03)" d="M1.5,0A1.5,1.5 0 1,1 0,-1.5A1.5,1.5 0 0,1 1.5,0Z" style="opacity: 1; stroke-width: 0px; fill: rgb(156, 39, 176); fill-opacity: 1;"/><path class="point" transform="translate(258.26,293.95)" d="M1.5,0A1.5,1.5 0 1,1 0,-1.5A1.5,1.5 0 0,1 1.5,0Z" style="opacity: 1; stroke-width: 0px; fill: rgb(156, 39, 176); fill-opacity: 1;"/><path class="point" transform="translate(265.75,291.64)" d="M1.5,0A1.5,1.5 0 1,1 0,-1.5A1.5,1.5 0 0,1 1.5,0Z" style="opacity: 1; stroke-width: 0px; fill: rgb(156, 39, 176); fill-opacity: 1;"/><path class="point" transform="translate(273.24,288.69)" d="M1.5,0A1.5,1.5 0 1,1 0,-1.5A1.5,1.5 0 0,1 1.5,0Z" style="opacity: 1; stroke-width: 0px; fill: rgb(156, 39, 176); fill-opacity: 1;"/><path class="point" transform="translate(280.73,285.05)" d="M1.5,0A1.5,1.5 0 1,1 0,-1.5A1.5,1.5 0 0,1 1.5,0Z" style="opacity: 1; stroke-width: 0px; fill: rgb(156, 39, 176); fill-opacity: 1;"/><path class="point" transform="translate(288.22,281.8)" d="M1.5,0A1.5,1.5 0 1,1 0,-1.5A1.5,1.5 0 0,1 1.5,0Z" style="opacity: 1; stroke-width: 0px; fill: rgb(156, 39, 176); fill-opacity: 1;"/><path class="point" transform="translate(295.71,279.08)" d="M1.5,0A1.5,1.5 0 1,1 0,-1.5A1.5,1.5 0 0,1 1.5,0Z" style="opacity: 1; stroke-width: 0px; fill: rgb(156, 39, 176); fill-opacity: 1;"/><path class="point" transform="translate(303.2,276.69)" d="M1.5,0A1.5,1.5 0 1,1 0,-1.5A1.5,1.5 0 0,1 1.5,0Z" style="opacity: 1; stroke-width: 0px; fill: rgb(156, 39, 176); fill-opacity: 1;"/><path class="point" transform="translate(310.7,274.67)" d="M1.5,0A1.5,1.5 0 1,1 0,-1.5A1.5,1.5 0 0,1 1.5,0Z" style="opacity: 1; stroke-width: 0px; fill: rgb(156, 39, 176); fill-opacity: 1;"/><path class="point" transform="translate(318.19,273.33)" d="M1.5,0A1.5,1.5 0 1,1 0,-1.5A1.5,1.5 0 0,1 1.5,0Z" style="opacity: 1; stroke-width: 0px; fill: rgb(156, 39, 176); fill-opacity: 1;"/><path class="point" transform="translate(325.68,272.59)" d="M1.5,0A1.5,1.5 0 1,1 0,-1.5A1.5,1.5 0 0,1 1.5,0Z" style="opacity: 1; stroke-width: 0px; fill: rgb(156, 39, 176); fill-opacity: 1;"/><path class="point" transform="translate(333.17,271.68)" d="M1.5,0A1.5,1.5 0 1,1 0,-1.5A1.5,1.5 0 0,1 1.5,0Z" style="opacity: 1; stroke-width: 0px; fill: rgb(156, 39, 176); fill-opacity: 1;"/><path class="point" transform="translate(340.66,270.22)" d="M1.5,0A1.5,1.5 0 1,1 0,-1.5A1.5,1.5 0 0,1 1.5,0Z" style="opacity: 1; stroke-width: 0px; fill: rgb(156, 39, 176); fill-opacity: 1;"/><path class="point" transform="translate(348.15,268.48)" d="M1.5,0A1.5,1.5 0 1,1 0,-1.5A1.5,1.5 0 0,1 1.5,0Z" style="opacity: 1; stroke-width: 0px; fill: rgb(156, 39, 176); fill-opacity: 1;"/><path class="point" transform="translate(355.64,266.52)" d="M1.5,0A1.5,1.5 0 1,1 0,-1.5A1.5,1.5 0 0,1 1.5,0Z" style="opacity: 1; stroke-width: 0px; fill: rgb(156, 39, 176); fill-opacity: 1;"/><path class="point" transform="translate(363.13,264.15)" d="M1.5,0A1.5,1.5 0 1,1 0,-1.5A1.5,1.5 0 0,1 1.5,0Z" style="opacity: 1; stroke-width: 0px; fill: rgb(156, 39, 176); fill-opacity: 1;"/><path class="point" transform="translate(370.63,261.81)" d="M1.5,0A1.5,1.5 0 1,1 0,-1.5A1.5,1.5 0 0,1 1.5,0Z" style="opacity: 1; stroke-width: 0px; fill: rgb(156, 39, 176); fill-opacity: 1;"/><path class="point" transform="translate(378.12,259.63)" d="M1.5,0A1.5,1.5 0 1,1 0,-1.5A1.5,1.5 0 0,1 1.5,0Z" style="opacity: 1; stroke-width: 0px; fill: rgb(156, 39, 176); fill-opacity: 1;"/><path class="point" transform="translate(385.61,257.58)" d="M1.5,0A1.5,1.5 0 1,1 0,-1.5A1.5,1.5 0 0,1 1.5,0Z" style="opacity: 1; stroke-width: 0px; fill: rgb(156, 39, 176); fill-opacity: 1;"/><path class="point" transform="translate(393.1,255.56)" d="M1.5,0A1.5,1.5 0 1,1 0,-1.5A1.5,1.5 0 0,1 1.5,0Z" style="opacity: 1; stroke-width: 0px; fill: rgb(156, 39, 176); fill-opacity: 1;"/><path class="point" transform="translate(400.59,252.67)" d="M1.5,0A1.5,1.5 0 1,1 0,-1.5A1.5,1.5 0 0,1 1.5,0Z" style="opacity: 1; stroke-width: 0px; fill: rgb(156, 39, 176); fill-opacity: 1;"/><path class="point" transform="translate(408.08,248.51)" d="M1.5,0A1.5,1.5 0 1,1 0,-1.5A1.5,1.5 0 0,1 1.5,0Z" style="opacity: 1; stroke-width: 0px; fill: rgb(156, 39, 176); fill-opacity: 1;"/><path class="point" transform="translate(415.57,244.36)" d="M1.5,0A1.5,1.5 0 1,1 0,-1.5A1.5,1.5 0 0,1 1.5,0Z" style="opacity: 1; stroke-width: 0px; fill: rgb(156, 39, 176); fill-opacity: 1;"/><path class="point" transform="translate(423.07,238.92)" d="M1.5,0A1.5,1.5 0 1,1 0,-1.5A1.5,1.5 0 0,1 1.5,0Z" style="opacity: 1; stroke-width: 0px; fill: rgb(156, 39, 176); fill-opacity: 1;"/><path class="point" transform="translate(430.56,235.27)" d="M1.5,0A1.5,1.5 0 1,1 0,-1.5A1.5,1.5 0 0,1 1.5,0Z" style="opacity: 1; stroke-width: 0px; fill: rgb(156, 39, 176); fill-opacity: 1;"/><path class="point" transform="translate(438.05,231.64)" d="M1.5,0A1.5,1.5 0 1,1 0,-1.5A1.5,1.5 0 0,1 1.5,0Z" style="opacity: 1; stroke-width: 0px; fill: rgb(156, 39, 176); fill-opacity: 1;"/><path class="point" transform="translate(445.54,227.3)" d="M1.5,0A1.5,1.5 0 1,1 0,-1.5A1.5,1.5 0 0,1 1.5,0Z" style="opacity: 1; stroke-width: 0px; fill: rgb(156, 39, 176); fill-opacity: 1;"/><path class="point" transform="translate(453.03,223.08)" d="M1.5,0A1.5,1.5 0 1,1 0,-1.5A1.5,1.5 0 0,1 1.5,0Z" style="opacity: 1; stroke-width: 0px; fill: rgb(156, 39, 176); fill-opacity: 1;"/><path class="point" transform="translate(460.52,219.22)" d="M1.5,0A1.5,1.5 0 1,1 0,-1.5A1.5,1.5 0 0,1 1.5,0Z" style="opacity: 1; stroke-width: 0px; fill: rgb(156, 39, 176); fill-opacity: 1;"/><path class="point" transform="translate(468.01,215.24)" d="M1.5,0A1.5,1.5 0 1,1 0,-1.5A1.5,1.5 0 0,1 1.5,0Z" style="opacity: 1; stroke-width: 0px; fill: rgb(156, 39, 176); fill-opacity: 1;"/><path class="point" transform="translate(475.5,212.45)" d="M1.5,0A1.5,1.5 0 1,1 0,-1.5A1.5,1.5 0 0,1 1.5,0Z" style="opacity: 1; stroke-width: 0px; fill: rgb(156, 39, 176); fill-opacity: 1;"/><path class="point" transform="translate(483,209.85)" d="M1.5,0A1.5,1.5 0 1,1 0,-1.5A1.5,1.5 0 0,1 1.5,0Z" style="opacity: 1; stroke-width: 0px; fill: rgb(156, 39, 176); fill-opacity: 1;"/><path class="point" transform="translate(490.49,207.2)" d="M1.5,0A1.5,1.5 0 1,1 0,-1.5A1.5,1.5 0 0,1 1.5,0Z" style="opacity: 1; stroke-width: 0px; fill: rgb(156, 39, 176); fill-opacity: 1;"/><path class="point" transform="translate(497.98,204.43)" d="M1.5,0A1.5,1.5 0 1,1 0,-1.5A1.5,1.5 0 0,1 1.5,0Z" style="opacity: 1; stroke-width: 0px; fill: rgb(156, 39, 176); fill-opacity: 1;"/><path class="point" transform="translate(505.47,201.48)" d="M1.5,0A1.5,1.5 0 1,1 0,-1.5A1.5,1.5 0 0,1 1.5,0Z" style="opacity: 1; stroke-width: 0px; fill: rgb(156, 39, 176); fill-opacity: 1;"/><path class="point" transform="translate(512.96,198.17)" d="M1.5,0A1.5,1.5 0 1,1 0,-1.5A1.5,1.5 0 0,1 1.5,0Z" style="opacity: 1; stroke-width: 0px; fill: rgb(156, 39, 176); fill-opacity: 1;"/><path class="point" transform="translate(520.45,191.84)" d="M1.5,0A1.5,1.5 0 1,1 0,-1.5A1.5,1.5 0 0,1 1.5,0Z" style="opacity: 1; stroke-width: 0px; fill: rgb(156, 39, 176); fill-opacity: 1;"/><path class="point" transform="translate(527.94,188.02)" d="M1.5,0A1.5,1.5 0 1,1 0,-1.5A1.5,1.5 0 0,1 1.5,0Z" style="opacity: 1; stroke-width: 0px; fill: rgb(156, 39, 176); fill-opacity: 1;"/></g><g class="text"/></g><g class="trace scatter trace04a856" style="stroke-miterlimit: 2; opacity: 1;"><g class="fills"><g><path class="js-fill" d="M527.94,188.02L527.94,191.91L535.43,187.33L602.86,146.82L610.35,142.77L640.31,127.92L647.8,124.51L707.73,98.71L715.23,95.59L775.16,71.59L782.65,68.67L910,18.5L910,190.82L827.6,183.29L820.1,182.66L752.68,177.62L745.19,177.22L700.24,175.67L692.75,175.55L647.8,175.63L640.31,175.79L610.35,177.08L602.86,177.7L580.38,180.74L572.89,182.05L542.93,188.19L535.43,189.95L527.94,191.91L527.94,188.02Z" style="fill: rgb(156, 39, 176); fill-opacity: 0.12; stroke-width: 0;"/></g></g><g class="errorbars"/><g class="lines"><path class="js-line" d="M527.94,188.02L527.94,191.91L535.43,187.33L602.86,146.82L610.35,142.77L640.31,127.92L647.8,124.51L707.73,98.71L715.23,95.59L775.16,71.59L782.65,68.67L910,18.5L910,190.82L827.6,183.29L820.1,182.66L752.68,177.62L745.19,177.22L700.24,175.67L692.75,175.55L647.8,175.63L640.31,175.79L610.35,177.08L602.86,177.7L580.38,180.74L572.89,182.05L542.93,188.19L535.43,189.95L527.94,191.91L527.94,188.02" style="vector-effect: none; fill: none; stroke: rgb(255, 127, 14); stroke-opacity: 1; stroke-width: 0px; opacity: 1;"/></g><g class="points"/><g class="text"/></g><g class="trace scatter trace184db2" style="stroke-miterlimit: 2; opacity: 1;"><g class="fills"/><g class="errorbars"/><g class="lines"><path class="js-line" d="M527.94,188.02L527.94,191.91L535.43,188.64L580.38,170.26L587.87,167.41L610.35,159.89L617.84,157.74L647.8,150.09L655.3,148.39L707.73,137.41L715.23,135.98L760.17,128.2L767.67,127.03L865.05,113.02L872.54,111.97L910,106.89" style="vector-effect: none; fill: none; stroke: rgb(156, 39, 176); stroke-opacity: 1; stroke-dasharray: 9px, 9px; stroke-width: 2.5px; opacity: 1;"/></g><g class="points"/><g class="text"/></g></g></g></g><g class="zerolinelayer-above"/><path class="xlines-above crisp" d="M0,0" style="fill: none;"/><path class="ylines-above crisp" d="M0,0" style="fill: none;"/><g class="overlines-above"/><g class="xaxislayer-above"><g class="xtick"><text text-anchor="middle" x="0" y="460" transform="translate(108.5,0)" style="font-family: Inter, Helvetica, Arial, sans-serif; font-size: 14px; fill: rgb(68, 68, 68); fill-opacity: 1; white-space: pre;">1960</text></g><g class="xtick"><text text-anchor="middle" x="0" y="460" style="font-family: Inter, Helvetica, Arial, sans-serif; font-size: 14px; fill: rgb(68, 68, 68); fill-opacity: 1; white-space: pre;" transform="translate(258.33000000000004,0)">1980</text></g><g class="xtick"><text text-anchor="middle" x="0" y="460" style="font-family: Inter, Helvetica, Arial, sans-serif; font-size: 14px; fill: rgb(68, 68, 68); fill-opacity: 1; white-space: pre;" transform="translate(408.15,0)">2000</text></g><g class="xtick"><text text-anchor="middle" x="0" y="460" style="font-family: Inter, Helvetica, Arial, sans-serif; font-size: 14px; fill: rgb(68, 68, 68); fill-opacity: 1; white-space: pre;" transform="translate(557.98,0)">2020</text></g><g class="xtick"><text text-anchor="middle" x="0" y="460" style="font-family: Inter, Helvetica, Arial, sans-serif; font-size: 14px; fill: rgb(68, 68, 68); fill-opacity: 1; white-space: pre;" transform="translate(707.8,0)">2040</text></g><g class="xtick"><text text-anchor="middle" x="0" y="460" style="font-family: Inter, Helvetica, Arial, sans-serif; font-size: 14px; fill: rgb(68, 68, 68); fill-opacity: 1; white-space: pre;" transform="translate(857.63,0)">2060</text></g></g><g class="yaxislayer-above"><g class="ytick"><text text-anchor="end" x="59" y="4.8999999999999995" transform="translate(0,437.63)" style="font-family: Inter, Helvetica, Arial, sans-serif; font-size: 14px; fill: rgb(68, 68, 68); fill-opacity: 1; white-space: pre;">5</text></g><g class="ytick"><text text-anchor="end" x="59" y="4.8999999999999995" style="font-family: Inter, Helvetica, Arial, sans-serif; font-size: 14px; fill: rgb(68, 68, 68); fill-opacity: 1; white-space: pre;" transform="translate(0,394.53)">6</text></g><g class="ytick"><text text-anchor="end" x="59" y="4.8999999999999995" style="font-family: Inter, Helvetica, Arial, sans-serif; font-size: 14px; fill: rgb(68, 68, 68); fill-opacity: 1; white-space: pre;" transform="translate(0,351.42)">7</text></g><g class="ytick"><text text-anchor="end" x="59" y="4.8999999999999995" style="font-family: Inter, Helvetica, Arial, sans-serif; font-size: 14px; fill: rgb(68, 68, 68); fill-opacity: 1; white-space: pre;" transform="translate(0,308.32)">8</text></g><g class="ytick"><text text-anchor="end" x="59" y="4.8999999999999995" style="font-family: Inter, Helvetica, Arial, sans-serif; font-size: 14px; fill: rgb(68, 68, 68); fill-opacity: 1; white-space: pre;" transform="translate(0,265.22)">9</text></g><g class="ytick"><text text-anchor="end" x="59" y="4.8999999999999995" style="font-family: Inter, Helvetica, Arial, sans-serif; font-size: 14px; fill: rgb(68, 68, 68); fill-opacity: 1; white-space: pre;" transform="translate(0,222.11)">10</text></g><g class="ytick"><text text-anchor="end" x="59" y="4.8999999999999995" style="font-family: Inter, Helvetica, Arial, sans-serif; font-size: 14px; fill: rgb(68, 68, 68); fill-opacity: 1; white-space: pre;" transform="translate(0,179.01)">11</text></g><g class="ytick"><text text-anchor="end" x="59" y="4.8999999999999995" style="font-family: Inter, Helvetica, Arial, sans-serif; font-size: 14px; fill: rgb(68, 68, 68); fill-opacity: 1; white-space: pre;" transform="translate(0,135.91)">12</text></g><g class="ytick"><text text-anchor="end" x="59" y="4.8999999999999995" style="font-family: Inter, Helvetica, Arial, sans-serif; font-size: 14px; fill: rgb(68, 68, 68); fill-opacity: 1; white-space: pre;" transform="translate(0,92.8)">13</text></g></g><g class="overaxes-above"/></g></g><g class="polarlayer"/><g class="smithlayer"/><g class="ternarylayer"/><g class="geolayer"/><g class="funnelarealayer"/><g class="pielayer"/><g class="iciclelayer"/><g class="treemaplayer"/><g class="sunburstlayer"/><g class="glimages"/><defs id="topdefs-e652fc"><g class="clips"/><clipPath id="legende652fc"><rect width="347" height="29" x="0" y="0"/></clipPath></defs><g class="layer-above"><g class="imagelayer"/><g class="shapelayer"/></g><g class="infolayer"><g class="legend" pointer-events="all" transform="translate(341.5,508.5)"><rect class="bg" shape-rendering="crispEdges" style="stroke: rgb(68, 68, 68); stroke-opacity: 1; fill: rgb(255, 255, 255); fill-opacity: 1; stroke-width: 0px;" width="347" height="29" x="0" y="0"/><g class="scrollbox" transform="" clip-path="url(#legende652fc)"><g class="groups"><g class="traces" transform="translate(0,14.5)" style="opacity: 1;"><text class="legendtext" text-anchor="start" x="40" y="4.680000000000001" style="font-family: Inter, Helvetica, Arial, sans-serif; font-size: 12px; fill: rgb(68, 68, 68); fill-opacity: 1; white-space: pre;">Historical</text><g class="layers" style="opacity: 1;"><g class="legendfill"/><g class="legendlines"><path class="js-line" d="M5,0h30" style="fill: none; stroke: rgb(156, 39, 176); stroke-opacity: 1; stroke-width: 3px;"/></g><g class="legendsymbols"><g class="legendpoints"><path class="scatterpts" transform="translate(20,0)" d="M1.5,0A1.5,1.5 0 1,1 0,-1.5A1.5,1.5 0 0,1 1.5,0Z" style="opacity: 1; stroke-width: 0px; fill: rgb(156, 39, 176); fill-opacity: 1;"/></g></g></g><rect class="legendtoggle" x="0" y="-9.5" width="95.828125" height="19" style="fill: rgb(0, 0, 0); fill-opacity: 0;"/></g><g class="traces" transform="translate(98.328125,14.5)" style="opacity: 1;"><text class="legendtext" text-anchor="start" x="40" y="4.680000000000001" style="font-family: Inter, Helvetica, Arial, sans-serif; font-size: 12px; fill: rgb(68, 68, 68); fill-opacity: 1; white-space: pre;">BFS high/low</text><g class="layers" style="opacity: 1;"><g class="legendfill"><path class="js-fill" d="M5,-2h30v6h-30z" style="stroke-width: 0; fill: rgb(156, 39, 176); fill-opacity: 0.12;"/></g><g class="legendlines"><path class="js-line" d="M5,-2h30" style="fill: none; stroke: rgb(255, 127, 14); stroke-opacity: 1; stroke-width: 0px;"/></g><g class="legendsymbols"><g class="legendpoints"/></g></g><rect class="legendtoggle" x="0" y="-9.5" width="117" height="19" style="fill: rgb(0, 0, 0); fill-opacity: 0;"/></g><g class="traces" transform="translate(217.828125,14.5)" style="opacity: 1;"><text class="legendtext" text-anchor="start" x="40" y="4.680000000000001" style="font-family: Inter, Helvetica, Arial, sans-serif; font-size: 12px; fill: rgb(68, 68, 68); fill-opacity: 1; white-space: pre;">BFS Reference</text><g class="layers" style="opacity: 1;"><g class="legendfill"/><g class="legendlines"><path class="js-line" d="M5,0h30" style="fill: none; stroke: rgb(156, 39, 176); stroke-opacity: 1; stroke-dasharray: 9px, 9px; stroke-width: 2.5px;"/></g><g class="legendsymbols"><g class="legendpoints"/></g></g><rect class="legendtoggle" x="0" y="-9.5" width="126.40625" height="19" style="fill: rgb(0, 0, 0); fill-opacity: 0;"/></g></g></g><rect class="scrollbar" rx="20" ry="3" width="0" height="0" style="fill: rgb(128, 139, 164); fill-opacity: 1;" x="0" y="0"/></g><g class="g-gtitle"><text class="gtitle" x="500" y="37.5" text-anchor="middle" dy="0em" style="opacity: 1; font-family: Inter, Helvetica, Arial, sans-serif; font-size: 16px; fill: rgb(68, 68, 68); fill-opacity: 1; white-space: pre;">Swiss Population — History &amp; BFS Projections (millions)</text></g><g class="g-xtitle"><text class="xtitle" x="515" y="494" text-anchor="middle" style="opacity: 1; font-family: Inter, Helvetica, Arial, sans-serif; font-size: 13px; fill: rgb(68, 68, 68); fill-opacity: 1; white-space: pre;">Year</text></g><g class="g-ytitle"><text class="ytitle" transform="rotate(-90,24,260)" x="24" y="260" text-anchor="middle" style="opacity: 1; font-family: Inter, Helvetica, Arial, sans-serif; font-size: 13px; fill: rgb(68, 68, 68); fill-opacity: 1; white-space: pre;">Population (millions)</text></g><g class="annotation" data-index="0" style="opacity: 1;"><g class="annotation-text-g" transform="rotate(0,178.47,381.77)"><g class="cursor-pointer" transform="translate(145,374)"><rect class="bg" x="0.5" y="0.5" width="65" height="14" style="stroke-width: 1px; stroke: rgb(0, 0, 0); stroke-opacity: 0; fill: rgb(0, 0, 0); fill-opacity: 0;"/><text class="annotation-text" text-anchor="middle" x="32.8828125" y="11" style="font-family: Inter, Helvetica, Arial, sans-serif; font-size: 9px; fill: rgb(102, 102, 102); fill-opacity: 1; white-space: pre;">Guest workers</text></g></g><g class="annotation-arrow-g" style="opacity: 1;"><path d="M169.13666666666666,388.77L138.47,411.77" style="stroke-width: 2px; stroke: rgb(68, 68, 68); stroke-opacity: 1; stroke-dasharray: 0px, 0px, 36.2533px, 38.3333px;"/><path d="M-3.7,-2.5V2.5L1.3,0Z" transform="translate(140.13400268554688,410.5220031738281)rotate(143.13185088258297)scale(1.6)" style="fill: rgb(68, 68, 68); stroke-width: 0;"/></g></g><g class="annotation" data-index="1" style="opacity: 1;"><g class="annotation-text-g" transform="rotate(0,253.38,351.6)"><g class="cursor-pointer" transform="translate(233,344)"><rect class="bg" x="0.5" y="0.5" width="39" height="14" style="stroke-width: 1px; stroke: rgb(0, 0, 0); stroke-opacity: 0; fill: rgb(0, 0, 0); fill-opacity: 0;"/><text class="annotation-text" text-anchor="middle" x="20.1328125" y="11" style="font-family: Inter, Helvetica, Arial, sans-serif; font-size: 9px; fill: rgb(102, 102, 102); fill-opacity: 1; white-space: pre;">Oil crisis</text></g></g><g class="annotation-arrow-g" style="opacity: 1;"><path d="M244.04666666666665,358.6L213.38,381.6" style="stroke-width: 2px; stroke: rgb(68, 68, 68); stroke-opacity: 1; stroke-dasharray: 0px, 0px, 36.2533px, 38.3333px;"/><path d="M-3.7,-2.5V2.5L1.3,0Z" transform="translate(215.04400634765625,380.35198974609375)rotate(143.13185088258297)scale(1.6)" style="fill: rgb(68, 68, 68); stroke-width: 0;"/></g></g><g class="annotation" data-index="2" style="opacity: 1;"><g class="annotation-text-g" transform="rotate(0,463.13,308.49)"><g class="cursor-pointer" transform="translate(432,301)"><rect class="bg" x="0.5" y="0.5" width="61" height="14" style="stroke-width: 1px; stroke: rgb(0, 0, 0); stroke-opacity: 0; fill: rgb(0, 0, 0); fill-opacity: 0;"/><text class="annotation-text" text-anchor="middle" x="30.9375" y="11" style="font-family: Inter, Helvetica, Arial, sans-serif; font-size: 9px; fill: rgb(102, 102, 102); fill-opacity: 1; white-space: pre;">EU free mvmt</text></g></g><g class="annotation-arrow-g" style="opacity: 1;"><path d="M453.7966666666667,315.49L423.13,338.49" style="stroke-width: 2px; stroke: rgb(68, 68, 68); stroke-opacity: 1; stroke-dasharray: 0px, 0px, 36.2533px, 38.3333px;"/><path d="M-3.7,-2.5V2.5L1.3,0Z" transform="translate(424.79400634765625,337.2419738769531)rotate(143.12660487036632)scale(1.6)" style="fill: rgb(68, 68, 68); stroke-width: 0;"/></g></g></g></svg>