<svg class="main-svg" xmlns="http://www.w3.org/2000/svg" xmlns:xlink="http://www.w3.org/1999/xlink" width="1400" height="750" style="" viewBox="0 0 1400 750"><rect x="0" y="0" width="1400" height="750" style="fill: rgb(255, 255, 255); fill-opacity: 1;"/><defs id="defs-be405e"><g class="clips"><clipPath id="clipbe405exyplot" class="plotclip"><rect width="1280" height="498"/></clipPath><clipPath class="axesclip" id="clipbe405ex"><rect x="80" y="0" width="1280" height="750"/></clipPath><clipPath class="axesclip" id="clipbe405ey"><rect x="0" y="90" width="1400" height="498"/></clipPath><clipPath class="axesclip" id="clipbe405exy"><rect x="80" y="90" width="1280" height="498"/></clipPath></g><g class="gradients"/><g class="patterns"/></defs><g class="bglayer"/><g class="layer-below"><g class="imagelayer"/><g class="shapelayer"/></g><g class="cartesianlayer"><g class="subplot xy"><g class="layer-subplot"><g class="shapelayer"/><g class="imagelayer"/></g><g class="minor-gridlayer"><g class="x"/><g class="y"/></g><g class="gridlayer"><g class="x"><path class="xgrid crisp" transform="translate(346.67,0)" d="M0,90v498" style="stroke: rgb(238, 238, 238); stroke-opacity: 1; stroke-width: 1px;"/><path class="xgrid crisp" transform="translate(613.33,0)" d="M0,90v498" style="stroke: rgb(238, 238, 238); stroke-opacity: 1; stroke-width: 1px;"/><path class="xgrid crisp" transform="translate(880,0)" d="M0,90v498" style="stroke: rgb(238, 238, 238); stroke-opacity: 1; stroke-width: 1px;"/><path class="xgrid crisp" transform="translate(1146.67,0)" d="M0,90v498" style="stroke: rgb(238, 238, 238); stroke-opacity: 1; stroke-width: 1px;"/></g><g class="y"><path class="ygrid crisp" transform="translate(0,488.4)" d="M80,0h1280" style="stroke: rgb(238, 238, 238); stroke-opacity: 1; stroke-width: 1px;"/><path class="ygrid crisp" transform="translate(0,388.8)" d="M80,0h1280" style="stroke: rgb(238, 238, 238); stroke-opacity: 1; stroke-width: 1px;"/><path class="ygrid crisp" transform="translate(0,289.2)" d="M80,0h1280" style="stroke: rgb(238, 238, 238); stroke-opacity: 1; stroke-width: 1px;"/><path class="ygrid crisp" transform="translate(0,189.6)" d="M80,0h1280" style="stroke: rgb(238, 238, 238); stroke-opacity: 1; stroke-width: 1px;"/></g></g><g class="zerolinelayer"><path class="yzl zl crisp" transform="translate(0,588)" d="M80,0h1280" style="stroke: rgb(68, 68, 68); stroke-opacity: 1; stroke-width: 1px;"/></g><g class="layer-between"><g class="shapelayer"/><g class="imagelayer"/></g><path class="xlines-below"/><path class="ylines-below"/><g class="overlines-below"/><g class="xaxislayer-below"/><g class="yaxislayer-below"/><g class="overaxes-below"/><g class="overplot"><g class="xy" transform="translate(80,90)" clip-path="url(#clipbe405exyplot)"><g class="scatterlayer mlayer"><g class="trace scatter tracea2b44e" style="stroke-miterlimit: 2;"><g class="fills"><g><path class="js-fill" d="M1280,498L0,498L0,199.7L160,212.15L213.33,217.13L320,228.58L373.33,234.56L480,247.01L533.33,253.98L586.67,261.95L640,268.92L800,292.33L853.33,299.3L1066.67,339.14L1120,349.6L1226.67,370.51L1280,378.98" style="fill: rgb(139, 69, 19); fill-opacity: 1; stroke-width: 0;"/></g><g><path class="js-fill" d="M0,110.06L106.67,111.55L160,112.55L266.67,116.53L320,119.52L480,129.98L533.33,134.46L586.67,140.44L640,145.42L800,164.84L853.33,170.32L1013.33,193.22L1066.67,202.19L1120,212.65L1173.33,224.1L1226.67,237.55L1280,249L1280,378.98L1226.67,370.51L1120,349.6L1066.67,339.14L853.33,299.3L800,292.33L640,268.92L586.67,261.95L533.33,253.98L480,247.01L373.33,234.56L320,228.58L213.33,217.13L160,212.15L0,199.7Z" style="fill: rgb(255, 107, 53); fill-opacity: 1; stroke-width: 0;"/></g></g><g class="errorbars"/><g class="lines"><path class="js-line" d="M0,199.7L160,212.15L213.33,217.13L320,228.58L373.33,234.56L480,247.01L533.33,253.98L586.67,261.95L640,268.92L800,292.33L853.33,299.3L1066.67,339.14L1120,349.6L1226.67,370.51L1280,378.98" style="vector-effect: none; fill: none; stroke: rgb(139, 69, 19); stroke-opacity: 1; stroke-width: 0.5px; opacity: 1;"/></g><g class="points"/><g class="text"/></g><g class="trace scatter traceb2b485" style="stroke-miterlimit: 2;"><g class="fills"><g><path class="js-fill" d="M0,92.13L160,91.13L213.33,91.13L320,91.63L373.33,92.13L426.67,91.63L480,92.13L533.33,92.13L586.67,93.13L746.67,93.62L800,94.62L853.33,94.62L906.67,96.11L960,98.11L1013.33,99.1L1066.67,100.1L1120,102.09L1173.33,103.58L1226.67,104.08L1280,105.08L1280,249L1226.67,237.55L1173.33,224.1L1120,212.65L1066.67,202.19L1013.33,193.22L853.33,170.32L800,164.84L640,145.42L586.67,140.44L533.33,134.46L480,129.98L320,119.52L266.67,116.53L160,112.55L106.67,111.55L0,110.06Z" style="fill: rgb(33, 150, 243); fill-opacity: 1; stroke-width: 0;"/></g></g><g class="errorbars"/><g class="lines"><path class="js-line" d="M0,110.06L106.67,111.55L160,112.55L266.67,116.53L320,119.52L480,129.98L533.33,134.46L586.67,140.44L640,145.42L800,164.84L853.33,170.32L1013.33,193.22L1066.67,202.19L1120,212.65L1173.33,224.1L1226.67,237.55L1280,249" style="vector-effect: none; fill: none; stroke: rgb(255, 107, 53); stroke-opacity: 1; stroke-width: 0.5px; opacity: 1;"/></g><g class="points"/><g class="text"/></g><g class="trace scatter trace054f93" style="stroke-miterlimit: 2;"><g class="fills"><g><path class="js-fill" d="M0,50.3L53.33,49.8L106.67,50.3L213.33,50.8L266.67,50.8L373.33,52.29L426.67,51.79L746.67,52.29L800,52.79L853.33,52.29L906.67,53.29L1013.33,54.78L1066.67,55.28L1280,58.76L1280,105.08L1226.67,104.08L1173.33,103.58L1120,102.09L1066.67,100.1L1013.33,99.1L960,98.11L906.67,96.11L853.33,94.62L800,94.62L746.67,93.62L586.67,93.13L533.33,92.13L480,92.13L426.67,91.63L373.33,92.13L320,91.63L213.33,91.13L160,91.13L0,92.13Z" style="fill: rgb(76, 175, 80); fill-opacity: 1; stroke-width: 0;"/></g></g><g class="errorbars"/><g class="lines"><path class="js-line" d="M0,92.13L160,91.13L213.33,91.13L320,91.63L373.33,92.13L426.67,91.63L480,92.13L533.33,92.13L586.67,93.13L746.67,93.62L800,94.62L853.33,94.62L906.67,96.11L960,98.11L1013.33,99.1L1066.67,100.1L1120,102.09L1173.33,103.58L1226.67,104.08L1280,105.08" style="vector-effect: none; fill: none; stroke: rgb(33, 150, 243); stroke-opacity: 1; stroke-width: 0.5px; opacity: 1;"/></g><g class="points"/><g class="text"/></g><g class="trace scatter trace873de8" style="stroke-miterlimit: 2;"><g class="fills"><g><path class="js-fill" d="M0,15.94L53.33,15.44L106.67,16.43L426.67,18.92L480,18.92L586.67,20.42L640,20.92L853.33,22.91L906.67,24.4L1120,28.39L1173.33,29.88L1280,32.37L1280,58.76L1066.67,55.28L1013.33,54.78L906.67,53.29L853.33,52.29L800,52.79L746.67,52.29L426.67,51.79L373.33,52.29L266.67,50.8L213.33,50.8L106.67,50.3L53.33,49.8L0,50.3Z" style="fill: rgb(255, 193, 7); fill-opacity: 1; stroke-width: 0;"/></g></g><g class="errorbars"/><g class="lines"><path class="js-line" d="M0,50.3L53.33,49.8L106.67,50.3L213.33,50.8L266.67,50.8L373.33,52.29L426.67,51.79L746.67,52.29L800,52.79L853.33,52.29L906.67,53.29L1013.33,54.78L1066.67,55.28L1280,58.76" style="vector-effect: none; fill: none; stroke: rgb(76, 175, 80); stroke-opacity: 1; stroke-width: 0.5px; opacity: 1;"/></g><g class="points"/><g class="text"/></g><g class="trace scatter trace8d62a6" style="stroke-miterlimit: 2;"><g class="fills"><g><path class="js-fill" d="M0,1.49L53.33,0.5L106.67,1.49L426.67,1L480,0.5L1013.33,0.5L1066.67,0L1173.33,0.5L1226.67,0.5L1280,0.5L1280,32.37L1173.33,29.88L1120,28.39L906.67,24.4L853.33,22.91L640,20.92L586.67,20.42L480,18.92L426.67,18.92L106.67,16.43L53.33,15.44L0,15.94Z" style="fill: rgb(156, 39, 176); fill-opacity: 1; stroke-width: 0;"/></g></g><g class="errorbars"/><g class="lines"><path class="js-line" d="M0,15.94L53.33,15.44L106.67,16.43L426.67,18.92L480,18.92L586.67,20.42L640,20.92L853.33,22.91L906.67,24.4L1120,28.39L1173.33,29.88L1280,32.37" style="vector-effect: none; fill: none; stroke: rgb(255, 193, 7); stroke-opacity: 1; stroke-width: 0.5px; opacity: 1;"/></g><g class="points"/><g class="text"/></g><g class="trace scatter trace9708c7" style="stroke-miterlimit: 2;"><g class="fills"><g><path class="js-fill" d="M0,0L53.33,-1L106.67,0L1173.33,0L1226.67,0.5L1280,0.5L1280,0.5L1226.67,0.5L1173.33,0.5L1066.67,0L1013.33,0.5L480,0.5L426.67,1L106.67,1.49L53.33,0.5L0,1.49Z" style="fill: rgb(0, 188, 212); fill-opacity: 1; stroke-width: 0;"/></g></g><g class="errorbars"/><g class="lines"><path class="js-line" d="M0,1.49L53.33,0.5L106.67,1.49L426.67,1L480,0.5L1013.33,0.5L1066.67,0L1173.33,0.5L1226.67,0.5L1280,0.5" style="vector-effect: none; fill: none; stroke: rgb(156, 39, 176); stroke-opacity: 1; stroke-width: 0.5px; opacity: 1;"/></g><g class="points"/><g class="text"/></g><g class="trace scatter trace2381f8" style="stroke-miterlimit: 2;"><g class="fills"/><g class="errorbars"/><g class="lines"><path class="js-line" d="M0,0L53.33,-1L106.67,0L1173.33,0L1226.67,0.5L1280,0.5" style="vector-effect: none; fill: none; stroke: rgb(0, 188, 212); stroke-opacity: 1; stroke-width: 0.5px; opacity: 1;"/></g><g class="points"/><g class="text"/></g></g></g></g><g class="zerolinelayer-above"/><path class="xlines-above crisp" d="M0,0" style="fill: none;"/><path class="ylines-above crisp" d="M0,0" style="fill: none;"/><g class="overlines-above"/><g class="xaxislayer-above"><g class="xtick"><text text-anchor="middle" x="0" y="606" transform="translate(80,0)" style="font-family: Inter, Helvetica, Arial, sans-serif; font-size: 17px; fill: rgb(68, 68, 68); fill-opacity: 1; white-space: pre;">2000</text></g><g class="xtick"><text text-anchor="middle" x="0" y="606" style="font-family: Inter, Helvetica, Arial, sans-serif; font-size: 17px; fill: rgb(68, 68, 68); fill-opacity: 1; white-space: pre;" transform="translate(346.67,0)">2005</text></g><g class="xtick"><text text-anchor="middle" x="0" y="606" style="font-family: Inter, Helvetica, Arial, sans-serif; font-size: 17px; fill: rgb(68, 68, 68); fill-opacity: 1; white-space: pre;" transform="translate(613.33,0)">2010</text></g><g class="xtick"><text text-anchor="middle" x="0" y="606" style="font-family: Inter, Helvetica, Arial, sans-serif; font-size: 17px; fill: rgb(68, 68, 68); fill-opacity: 1; white-space: pre;" transform="translate(880,0)">2015</text></g><g class="xtick"><text text-anchor="middle" x="0" y="606" style="font-family: Inter, Helvetica, Arial, sans-serif; font-size: 17px; fill: rgb(68, 68, 68); fill-opacity: 1; white-space: pre;" transform="translate(1146.67,0)">2020</text></g></g><g class="yaxislayer-above"><g class="ytick"><text text-anchor="end" x="79" y="5.949999999999999" transform="translate(0,588)" style="font-family: Inter, Helvetica, Arial, sans-serif; font-size: 17px; fill: rgb(68, 68, 68); fill-opacity: 1; white-space: pre;">0</text></g><g class="ytick"><text text-anchor="end" x="79" y="5.949999999999999" style="font-family: Inter, Helvetica, Arial, sans-serif; font-size: 17px; fill: rgb(68, 68, 68); fill-opacity: 1; white-space: pre;" transform="translate(0,488.4)">20</text></g><g class="ytick"><text text-anchor="end" x="79" y="5.949999999999999" style="font-family: Inter, Helvetica, Arial, sans-serif; font-size: 17px; fill: rgb(68, 68, 68); fill-opacity: 1; white-space: pre;" transform="translate(0,388.8)">40</text></g><g class="ytick"><text text-anchor="end" x="79" y="5.949999999999999" style="font-family: Inter, Helvetica, Arial, sans-serif; font-size: 17px; fill: rgb(68, 68, 68); fill-opacity: 1; white-space: pre;" transform="translate(0,289.2)">60</text></g><g class="ytick"><text text-anchor="end" x="79" y="5.949999999999999" style="font-family: Inter, Helvetica, Arial, sans-serif; font-size: 17px; fill: rgb(68, 68, 68); fill-opacity: 1; white-space: pre;" transform="translate(0,189.6)">80</text></g><g class="ytick"><text text-anchor="end" x="79" y="5.949999999999999" style="font-family: Inter, Helvetica, Arial, sans-serif; font-size: 17px; fill: rgb(68, 68, 68); fill-opacity: 1; white-space: pre;" transform="translate(0,90)">100</text></g></g><g class="overaxes-above"/></g></g><g class="polarlayer"/><g class="smithlayer"/><g class="ternarylayer"/><g class="geolayer"/><g class="funnelarealayer"/><g class="pielayer"/><g class="iciclelayer"/><g class="treemaplayer"/><g class="sunburstlayer"/><g class="glimages"/><defs id="topdefs-be405e"><g class="clips"/><clipPath id="legendbe405e"><rect width="1181" height="34" x="0" y="0"/></clipPath></defs><g class="layer-above"><g class="imagelayer"/><g class="shapelayer"/></g><g class="infolayer"><g class="legend" pointer-events="all" transform="translate(129.5,703.4)"><rect class="bg" shape-rendering="crispEdges" style="stroke: rgb(68, 68, 68); stroke-opacity: 1; fill: rgb(255, 255, 255); fill-opacity: 1; stroke-width: 0px;" width="1181" height="34" x="0" y="0"/><g class="scrollbox" transform="" clip-path="url(#legendbe405e)"><g class="groups"><g class="traces" transform="translate(0,16.9)" style="opacity: 1;"><text class="legendtext" text-anchor="start" x="40" y="6.24" style="font-family: Inter, Helvetica, Arial, sans-serif; font-size: 16px; fill: rgb(68, 68, 68); fill-opacity: 1; white-space: pre;">Other (Coal + misc)</text><g class="layers"><g class="legendfill"><path class="js-fill" d="M5,-2h30v6h-30z" style="stroke-width: 0; fill: rgb(0, 188, 212); fill-opacity: 1;"/></g><g class="legendlines"><path class="js-line" d="M5,-2h30" style="fill: none; stroke: rgb(0, 188, 212); stroke-opacity: 1; stroke-width: 0.5px;"/></g><g class="legendsymbols"><g class="legendpoints"/></g></g><rect class="legendtoggle" x="0" y="-11.9" width="190.140625" height="23.8" style="fill: rgb(0, 0, 0); fill-opacity: 0;"/></g><g class="traces" transform="translate(192.640625,16.9)" style="opacity: 1;"><text class="legendtext" text-anchor="start" x="40" y="6.24" style="font-family: Inter, Helvetica, Arial, sans-serif; font-size: 16px; fill: rgb(68, 68, 68); fill-opacity: 1; white-space: pre;">District Heating</text><g class="layers"><g class="legendfill"><path class="js-fill" d="M5,-2h30v6h-30z" style="stroke-width: 0; fill: rgb(156, 39, 176); fill-opacity: 1;"/></g><g class="legendlines"><path class="js-line" d="M5,-2h30" style="fill: none; stroke: rgb(156, 39, 176); stroke-opacity: 1; stroke-width: 0.5px;"/></g><g class="legendsymbols"><g class="legendpoints"/></g></g><rect class="legendtoggle" x="0" y="-11.9" width="159.265625" height="23.8" style="fill: rgb(0, 0, 0); fill-opacity: 0;"/></g><g class="traces" transform="translate(354.40625,16.9)" style="opacity: 1;"><text class="legendtext" text-anchor="start" x="40" y="6.24" style="font-family: Inter, Helvetica, Arial, sans-serif; font-size: 16px; fill: rgb(68, 68, 68); fill-opacity: 1; white-space: pre;">Electric Resistance</text><g class="layers"><g class="legendfill"><path class="js-fill" d="M5,-2h30v6h-30z" style="stroke-width: 0; fill: rgb(255, 193, 7); fill-opacity: 1;"/></g><g class="legendlines"><path class="js-line" d="M5,-2h30" style="fill: none; stroke: rgb(255, 193, 7); stroke-opacity: 1; stroke-width: 0.5px;"/></g><g class="legendsymbols"><g class="legendpoints"/></g></g><rect class="legendtoggle" x="0" y="-11.9" width="185.765625" height="23.8" style="fill: rgb(0, 0, 0); fill-opacity: 0;"/></g><g class="traces" transform="translate(542.671875,16.9)" style="opacity: 1;"><text class="legendtext" text-anchor="start" x="40" y="6.24" style="font-family: Inter, Helvetica, Arial, sans-serif; font-size: 16px; fill: rgb(68, 68, 68); fill-opacity: 1; white-space: pre;">Wood / Biomass</text><g class="layers"><g class="legendfill"><path class="js-fill" d="M5,-2h30v6h-30z" style="stroke-width: 0; fill: rgb(76, 175, 80); fill-opacity: 1;"/></g><g class="legendlines"><path class="js-line" d="M5,-2h30" style="fill: none; stroke: rgb(76, 175, 80); stroke-opacity: 1; stroke-width: 0.5px;"/></g><g class="legendsymbols"><g class="legendpoints"/></g></g><rect class="legendtoggle" x="0" y="-11.9" width="165.03125" height="23.8" style="fill: rgb(0, 0, 0); fill-opacity: 0;"/></g><g class="traces" transform="translate(710.203125,16.9)" style="opacity: 1;"><text class="legendtext" text-anchor="start" x="40" y="6.24" style="font-family: Inter, Helvetica, Arial, sans-serif; font-size: 16px; fill: rgb(68, 68, 68); fill-opacity: 1; white-space: pre;">Heat Pumps (electric)</text><g class="layers"><g class="legendfill"><path class="js-fill" d="M5,-2h30v6h-30z" style="stroke-width: 0; fill: rgb(33, 150, 243); fill-opacity: 1;"/></g><g class="legendlines"><path class="js-line" d="M5,-2h30" style="fill: none; stroke: rgb(33, 150, 243); stroke-opacity: 1; stroke-width: 0.5px;"/></g><g class="legendsymbols"><g class="legendpoints"/></g></g><rect class="legendtoggle" x="0" y="-11.9" width="206.453125" height="23.8" style="fill: rgb(0, 0, 0); fill-opacity: 0;"/></g><g class="traces" transform="translate(919.15625,16.9)" style="opacity: 1;"><text class="legendtext" text-anchor="start" x="40" y="6.24" style="font-family: Inter, Helvetica, Arial, sans-serif; font-size: 16px; fill: rgb(68, 68, 68); fill-opacity: 1; white-space: pre;">Natural Gas</text><g class="layers"><g class="legendfill"><path class="js-fill" d="M5,-2h30v6h-30z" style="stroke-width: 0; fill: rgb(255, 107, 53); fill-opacity: 1;"/></g><g class="legendlines"><path class="js-line" d="M5,-2h30" style="fill: none; stroke: rgb(255, 107, 53); stroke-opacity: 1; stroke-width: 0.5px;"/></g><g class="legendsymbols"><g class="legendpoints"/></g></g><rect class="legendtoggle" x="0" y="-11.9" width="130.984375" height="23.8" style="fill: rgb(0, 0, 0); fill-opacity: 0;"/></g><g class="traces" transform="translate(1052.640625,16.9)" style="opacity: 1;"><text class="legendtext" text-anchor="start" x="40" y="6.24" style="font-family: Inter, Helvetica, Arial, sans-serif; font-size: 16px; fill: rgb(68, 68, 68); fill-opacity: 1; white-space: pre;">Heating Oil</text><g class="layers"><g class="legendfill"><path class="js-fill" d="M5,-2h30v6h-30z" style="stroke-width: 0; fill: rgb(139, 69, 19); fill-opacity: 1;"/></g><g class="legendlines"><path class="js-line" d="M5,-2h30" style="fill: none; stroke: rgb(139, 69, 19); stroke-opacity: 1; stroke-width: 0.5px;"/></g><g class="legendsymbols"><g class="legendpoints"/></g></g><rect class="legendtoggle" x="0" y="-11.9" width="125.71875" height="23.8" style="fill: rgb(0, 0, 0); fill-opacity: 0;"/></g></g></g><rect class="scrollbar" rx="20" ry="3" width="0" height="0" style="fill: rgb(128, 139, 164); fill-opacity: 1;" x="0" y="0"/></g><g class="g-gtitle"><text class="gtitle" x="700" y="45" text-anchor="middle" dy="0em" style="opacity: 1; font-family: Inter, Helvetica, Arial, sans-serif; font-size: 24px; fill: rgb(68, 68, 68); fill-opacity: 1; white-space: pre;">Swiss Residential Heating — Floor Area Share by System (%)</text></g><g class="g-xtitle"><text class="xtitle" x="720" y="658" text-anchor="middle" style="opacity: 1; font-family: Inter, Helvetica, Arial, sans-serif; font-size: 20px; fill: rgb(68, 68, 68); fill-opacity: 1; white-space: pre;">Year</text></g><g class="g-ytitle"><text class="ytitle" transform="rotate(-90,30,339)" x="30" y="339" text-anchor="middle" style="opacity: 1; font-family: Inter, Helvetica, Arial, sans-serif; font-size: 20px; fill: rgb(68, 68, 68); fill-opacity: 1; white-space: pre;">Share of Floor Area (%)</text></g></g></svg>