<svg class="main-svg" xmlns="http://www.w3.org/2000/svg" xmlns:xlink="http://www.w3.org/1999/xlink" width="1200" height="650" style="" viewBox="0 0 1200 650"><rect x="0" y="0" width="1200" height="650" style="fill: rgb(255, 255, 255); fill-opacity: 1;"/><defs id="defs-cc04e8"><g class="clips"><clipPath id="clipcc04e8xyplot" class="plotclip"><rect width="1090" height="442"/></clipPath><clipPath class="axesclip" id="clipcc04e8x"><rect x="70" y="0" width="1090" height="650"/></clipPath><clipPath class="axesclip" id="clipcc04e8y"><rect x="0" y="85" width="1200" height="442"/></clipPath><clipPath class="axesclip" id="clipcc04e8xy"><rect x="70" y="85" width="1090" height="442"/></clipPath></g><g class="gradients"/><g class="patterns"/></defs><g class="bglayer"/><g class="layer-below"><g class="imagelayer"/><g class="shapelayer"/></g><g class="cartesianlayer"><g class="subplot xy"><g class="layer-subplot"><g class="shapelayer"/><g class="imagelayer"/></g><g class="minor-gridlayer"><g class="x"/><g class="y"/></g><g class="gridlayer"><g class="x"><path class="xgrid crisp" transform="translate(297.08000000000004,0)" d="M0,85v442" style="stroke: rgb(238, 238, 238); stroke-opacity: 1; stroke-width: 1px;"/><path class="xgrid crisp" transform="translate(524.1700000000001,0)" d="M0,85v442" style="stroke: rgb(238, 238, 238); stroke-opacity: 1; stroke-width: 1px;"/><path class="xgrid crisp" transform="translate(751.25,0)" d="M0,85v442" style="stroke: rgb(238, 238, 238); stroke-opacity: 1; stroke-width: 1px;"/><path class="xgrid crisp" transform="translate(978.33,0)" d="M0,85v442" style="stroke: rgb(238, 238, 238); stroke-opacity: 1; stroke-width: 1px;"/></g><g class="y"><path class="ygrid crisp" transform="translate(0,438.6)" d="M70,0h1090" style="stroke: rgb(238, 238, 238); stroke-opacity: 1; stroke-width: 1px;"/><path class="ygrid crisp" transform="translate(0,350.2)" d="M70,0h1090" style="stroke: rgb(238, 238, 238); stroke-opacity: 1; stroke-width: 1px;"/><path class="ygrid crisp" transform="translate(0,261.8)" d="M70,0h1090" style="stroke: rgb(238, 238, 238); stroke-opacity: 1; stroke-width: 1px;"/><path class="ygrid crisp" transform="translate(0,173.4)" d="M70,0h1090" style="stroke: rgb(238, 238, 238); stroke-opacity: 1; stroke-width: 1px;"/></g></g><g class="zerolinelayer"><path class="yzl zl crisp" transform="translate(0,527)" d="M70,0h1090" style="stroke: rgb(68, 68, 68); stroke-opacity: 1; stroke-width: 1px;"/></g><g class="layer-between"><g class="shapelayer"/><g class="imagelayer"/></g><path class="xlines-below"/><path class="ylines-below"/><g class="overlines-below"/><g class="xaxislayer-below"/><g class="yaxislayer-below"/><g class="overaxes-below"/><g class="overplot"><g class="xy" transform="translate(70,85)" clip-path="url(#clipcc04e8xyplot)"><g class="scatterlayer mlayer"><g class="trace scatter trace949eda" style="stroke-miterlimit: 2;"><g class="fills"><g><path class="js-fill" d="M1090,442L0,442L0,177.24L136.25,188.29L181.67,192.71L272.5,202.88L317.92,208.18L408.75,219.23L454.17,225.42L499.58,232.49L545,238.68L681.25,259.45L726.67,265.64L908.33,301L953.75,310.28L1044.58,328.85L1090,336.36" style="fill: rgb(139, 69, 19); fill-opacity: 1; stroke-width: 0;"/></g><g><path class="js-fill" d="M0,97.68L90.83,99.01L136.25,99.89L227.08,103.43L272.5,106.08L408.75,115.36L454.17,119.34L499.58,124.64L545,129.06L681.25,146.3L726.67,151.16L862.92,171.5L908.33,179.45L953.75,188.73L999.17,198.9L1044.58,210.83L1090,221L1090,336.36L1044.58,328.85L953.75,310.28L908.33,301L726.67,265.64L681.25,259.45L545,238.68L499.58,232.49L454.17,225.42L408.75,219.23L317.92,208.18L272.5,202.88L181.67,192.71L136.25,188.29L0,177.24Z" style="fill: rgb(255, 107, 53); fill-opacity: 1; stroke-width: 0;"/></g></g><g class="errorbars"/><g class="lines"><path class="js-line" d="M0,177.24L136.25,188.29L181.67,192.71L272.5,202.88L317.92,208.18L408.75,219.23L454.17,225.42L499.58,232.49L545,238.68L681.25,259.45L726.67,265.64L908.33,301L953.75,310.28L1044.58,328.85L1090,336.36" style="vector-effect: none; fill: none; stroke: rgb(139, 69, 19); stroke-opacity: 1; stroke-width: 0.5px; opacity: 1;"/></g><g class="points"/><g class="text"/></g><g class="trace scatter trace7e48b0" style="stroke-miterlimit: 2;"><g class="fills"><g><path class="js-fill" d="M0,81.77L136.25,80.89L181.67,80.89L272.5,81.33L317.92,81.77L363.33,81.33L408.75,81.77L454.17,81.77L499.58,82.65L635.83,83.1L681.25,83.98L726.67,83.98L772.08,85.31L817.5,87.07L862.92,87.96L908.33,88.84L953.75,90.61L999.17,91.94L1044.58,92.38L1090,93.26L1090,221L1044.58,210.83L999.17,198.9L953.75,188.73L908.33,179.45L862.92,171.5L726.67,151.16L681.25,146.3L545,129.06L499.58,124.64L454.17,119.34L408.75,115.36L272.5,106.08L227.08,103.43L136.25,99.89L90.83,99.01L0,97.68Z" style="fill: rgb(33, 150, 243); fill-opacity: 1; stroke-width: 0;"/></g></g><g class="errorbars"/><g class="lines"><path class="js-line" d="M0,97.68L90.83,99.01L136.25,99.89L227.08,103.43L272.5,106.08L408.75,115.36L454.17,119.34L499.58,124.64L545,129.06L681.25,146.3L726.67,151.16L862.92,171.5L908.33,179.45L953.75,188.73L999.17,198.9L1044.58,210.83L1090,221" style="vector-effect: none; fill: none; stroke: rgb(255, 107, 53); stroke-opacity: 1; stroke-width: 0.5px; opacity: 1;"/></g><g class="points"/><g class="text"/></g><g class="trace scatter traceddc054" style="stroke-miterlimit: 2;"><g class="fills"><g><path class="js-fill" d="M0,44.64L45.42,44.2L90.83,44.64L181.67,45.08L227.08,45.08L317.92,46.41L363.33,45.97L635.83,46.41L681.25,46.85L726.67,46.41L772.08,47.29L862.92,48.62L908.33,49.06L1090,52.16L1090,93.26L1044.58,92.38L999.17,91.94L953.75,90.61L908.33,88.84L862.92,87.96L817.5,87.07L772.08,85.31L726.67,83.98L681.25,83.98L635.83,83.1L499.58,82.65L454.17,81.77L408.75,81.77L363.33,81.33L317.92,81.77L272.5,81.33L181.67,80.89L136.25,80.89L0,81.77Z" style="fill: rgb(76, 175, 80); fill-opacity: 1; stroke-width: 0;"/></g></g><g class="errorbars"/><g class="lines"><path class="js-line" d="M0,81.77L136.25,80.89L181.67,80.89L272.5,81.33L317.92,81.77L363.33,81.33L408.75,81.77L454.17,81.77L499.58,82.65L635.83,83.1L681.25,83.98L726.67,83.98L772.08,85.31L817.5,87.07L862.92,87.96L908.33,88.84L953.75,90.61L999.17,91.94L1044.58,92.38L1090,93.26" style="vector-effect: none; fill: none; stroke: rgb(33, 150, 243); stroke-opacity: 1; stroke-width: 0.5px; opacity: 1;"/></g><g class="points"/><g class="text"/></g><g class="trace scatter tracefdf33b" style="stroke-miterlimit: 2;"><g class="fills"><g><path class="js-fill" d="M0,14.14L45.42,13.7L90.83,14.59L363.33,16.8L408.75,16.8L499.58,18.12L545,18.56L726.67,20.33L772.08,21.66L953.75,25.19L999.17,26.52L1090,28.73L1090,52.16L908.33,49.06L862.92,48.62L772.08,47.29L726.67,46.41L681.25,46.85L635.83,46.41L363.33,45.97L317.92,46.41L227.08,45.08L181.67,45.08L90.83,44.64L45.42,44.2L0,44.64Z" style="fill: rgb(255, 193, 7); fill-opacity: 1; stroke-width: 0;"/></g></g><g class="errorbars"/><g class="lines"><path class="js-line" d="M0,44.64L45.42,44.2L90.83,44.64L181.67,45.08L227.08,45.08L317.92,46.41L363.33,45.97L635.83,46.41L681.25,46.85L726.67,46.41L772.08,47.29L862.92,48.62L908.33,49.06L1090,52.16" style="vector-effect: none; fill: none; stroke: rgb(76, 175, 80); stroke-opacity: 1; stroke-width: 0.5px; opacity: 1;"/></g><g class="points"/><g class="text"/></g><g class="trace scatter trace47c14d" style="stroke-miterlimit: 2;"><g class="fills"><g><path class="js-fill" d="M0,1.33L45.42,0.44L90.83,1.33L363.33,0.88L408.75,0.44L862.92,0.44L908.33,0L999.17,0.44L1044.58,0.44L1090,0.44L1090,28.73L999.17,26.52L953.75,25.19L772.08,21.66L726.67,20.33L545,18.56L499.58,18.12L408.75,16.8L363.33,16.8L90.83,14.59L45.42,13.7L0,14.14Z" style="fill: rgb(156, 39, 176); fill-opacity: 1; stroke-width: 0;"/></g></g><g class="errorbars"/><g class="lines"><path class="js-line" d="M0,14.14L45.42,13.7L90.83,14.59L363.33,16.8L408.75,16.8L499.58,18.12L545,18.56L726.67,20.33L772.08,21.66L953.75,25.19L999.17,26.52L1090,28.73" style="vector-effect: none; fill: none; stroke: rgb(255, 193, 7); stroke-opacity: 1; stroke-width: 0.5px; opacity: 1;"/></g><g class="points"/><g class="text"/></g><g class="trace scatter trace81fe95" style="stroke-miterlimit: 2;"><g class="fills"><g><path class="js-fill" d="M0,0L45.42,-0.88L90.83,0L999.17,0L1044.58,0.44L1090,0.44L1090,0.44L1044.58,0.44L999.17,0.44L908.33,0L862.92,0.44L408.75,0.44L363.33,0.88L90.83,1.33L45.42,0.44L0,1.33Z" style="fill: rgb(0, 188, 212); fill-opacity: 1; stroke-width: 0;"/></g></g><g class="errorbars"/><g class="lines"><path class="js-line" d="M0,1.33L45.42,0.44L90.83,1.33L363.33,0.88L408.75,0.44L862.92,0.44L908.33,0L999.17,0.44L1044.58,0.44L1090,0.44" style="vector-effect: none; fill: none; stroke: rgb(156, 39, 176); stroke-opacity: 1; stroke-width: 0.5px; opacity: 1;"/></g><g class="points"/><g class="text"/></g><g class="trace scatter tracee21de6" style="stroke-miterlimit: 2;"><g class="fills"/><g class="errorbars"/><g class="lines"><path class="js-line" d="M0,0L45.42,-0.88L90.83,0L999.17,0L1044.58,0.44L1090,0.44" style="vector-effect: none; fill: none; stroke: rgb(0, 188, 212); stroke-opacity: 1; stroke-width: 0.5px; opacity: 1;"/></g><g class="points"/><g class="text"/></g></g></g></g><g class="zerolinelayer-above"/><path class="xlines-above crisp" d="M0,0" style="fill: none;"/><path class="ylines-above crisp" d="M0,0" style="fill: none;"/><g class="overlines-above"/><g class="xaxislayer-above"><g class="xtick"><text text-anchor="middle" x="0" y="542" transform="translate(70,0)" style="font-family: Inter, Helvetica, Arial, sans-serif; font-size: 14px; fill: rgb(68, 68, 68); fill-opacity: 1; white-space: pre;">2000</text></g><g class="xtick"><text text-anchor="middle" x="0" y="542" style="font-family: Inter, Helvetica, Arial, sans-serif; font-size: 14px; fill: rgb(68, 68, 68); fill-opacity: 1; white-space: pre;" transform="translate(297.08000000000004,0)">2005</text></g><g class="xtick"><text text-anchor="middle" x="0" y="542" style="font-family: Inter, Helvetica, Arial, sans-serif; font-size: 14px; fill: rgb(68, 68, 68); fill-opacity: 1; white-space: pre;" transform="translate(524.1700000000001,0)">2010</text></g><g class="xtick"><text text-anchor="middle" x="0" y="542" style="font-family: Inter, Helvetica, Arial, sans-serif; font-size: 14px; fill: rgb(68, 68, 68); fill-opacity: 1; white-space: pre;" transform="translate(751.25,0)">2015</text></g><g class="xtick"><text text-anchor="middle" x="0" y="542" style="font-family: Inter, Helvetica, Arial, sans-serif; font-size: 14px; fill: rgb(68, 68, 68); fill-opacity: 1; white-space: pre;" transform="translate(978.33,0)">2020</text></g></g><g class="yaxislayer-above"><g class="ytick"><text text-anchor="end" x="69" y="4.8999999999999995" transform="translate(0,527)" style="font-family: Inter, Helvetica, Arial, sans-serif; font-size: 14px; fill: rgb(68, 68, 68); fill-opacity: 1; white-space: pre;">0</text></g><g class="ytick"><text text-anchor="end" x="69" y="4.8999999999999995" style="font-family: Inter, Helvetica, Arial, sans-serif; font-size: 14px; fill: rgb(68, 68, 68); fill-opacity: 1; white-space: pre;" transform="translate(0,438.6)">20</text></g><g class="ytick"><text text-anchor="end" x="69" y="4.8999999999999995" style="font-family: Inter, Helvetica, Arial, sans-serif; font-size: 14px; fill: rgb(68, 68, 68); fill-opacity: 1; white-space: pre;" transform="translate(0,350.2)">40</text></g><g class="ytick"><text text-anchor="end" x="69" y="4.8999999999999995" style="font-family: Inter, Helvetica, Arial, sans-serif; font-size: 14px; fill: rgb(68, 68, 68); fill-opacity: 1; white-space: pre;" transform="translate(0,261.8)">60</text></g><g class="ytick"><text text-anchor="end" x="69" y="4.8999999999999995" style="font-family: Inter, Helvetica, Arial, sans-serif; font-size: 14px; fill: rgb(68, 68, 68); fill-opacity: 1; white-space: pre;" transform="translate(0,173.4)">80</text></g><g class="ytick"><text text-anchor="end" x="69" y="4.8999999999999995" style="font-family: Inter, Helvetica, Arial, sans-serif; font-size: 14px; fill: rgb(68, 68, 68); fill-opacity: 1; white-space: pre;" transform="translate(0,85)">100</text></g></g><g class="overaxes-above"/></g></g><g class="polarlayer"/><g class="smithlayer"/><g class="ternarylayer"/><g class="geolayer"/><g class="funnelarealayer"/><g class="pielayer"/><g class="iciclelayer"/><g class="treemaplayer"/><g class="sunburstlayer"/><g class="glimages"/><defs id="topdefs-cc04e8"><g class="clips"/><clipPath id="legendcc04e8"><rect width="1073" height="32" x="0" y="0"/></clipPath></defs><g class="layer-above"><g class="imagelayer"/><g class="shapelayer"/></g><g class="infolayer"><g class="legend" pointer-events="all" transform="translate(78.5,605.5)"><rect class="bg" shape-rendering="crispEdges" style="stroke: rgb(68, 68, 68); stroke-opacity: 1; fill: rgb(255, 255, 255); fill-opacity: 1; stroke-width: 0px;" width="1073" height="32" x="0" y="0"/><g class="scrollbox" transform="" clip-path="url(#legendcc04e8)"><g class="groups"><g class="traces" transform="translate(0,15.6)" style="opacity: 1;"><text class="legendtext" text-anchor="start" x="40" y="5.46" style="font-family: Inter, Helvetica, Arial, sans-serif; font-size: 14px; fill: rgb(68, 68, 68); fill-opacity: 1; white-space: pre;">Other (Coal + misc)</text><g class="layers"><g class="legendfill"><path class="js-fill" d="M5,-2h30v6h-30z" style="stroke-width: 0; fill: rgb(0, 188, 212); fill-opacity: 1;"/></g><g class="legendlines"><path class="js-line" d="M5,-2h30" style="fill: none; stroke: rgb(0, 188, 212); stroke-opacity: 1; stroke-width: 0.5px;"/></g><g class="legendsymbols"><g class="legendpoints"/></g></g><rect class="legendtoggle" x="0" y="-10.6" width="171.6875" height="21.2" style="fill: rgb(0, 0, 0); fill-opacity: 0;"/></g><g class="traces" transform="translate(174.1875,15.6)" style="opacity: 1;"><text class="legendtext" text-anchor="start" x="40" y="5.46" style="font-family: Inter, Helvetica, Arial, sans-serif; font-size: 14px; fill: rgb(68, 68, 68); fill-opacity: 1; white-space: pre;">District Heating</text><g class="layers"><g class="legendfill"><path class="js-fill" d="M5,-2h30v6h-30z" style="stroke-width: 0; fill: rgb(156, 39, 176); fill-opacity: 1;"/></g><g class="legendlines"><path class="js-line" d="M5,-2h30" style="fill: none; stroke: rgb(156, 39, 176); stroke-opacity: 1; stroke-width: 0.5px;"/></g><g class="legendsymbols"><g class="legendpoints"/></g></g><rect class="legendtoggle" x="0" y="-10.6" width="144.671875" height="21.2" style="fill: rgb(0, 0, 0); fill-opacity: 0;"/></g><g class="traces" transform="translate(321.359375,15.6)" style="opacity: 1;"><text class="legendtext" text-anchor="start" x="40" y="5.46" style="font-family: Inter, Helvetica, Arial, sans-serif; font-size: 14px; fill: rgb(68, 68, 68); fill-opacity: 1; white-space: pre;">Electric Resistance</text><g class="layers"><g class="legendfill"><path class="js-fill" d="M5,-2h30v6h-30z" style="stroke-width: 0; fill: rgb(255, 193, 7); fill-opacity: 1;"/></g><g class="legendlines"><path class="js-line" d="M5,-2h30" style="fill: none; stroke: rgb(255, 193, 7); stroke-opacity: 1; stroke-width: 0.5px;"/></g><g class="legendsymbols"><g class="legendpoints"/></g></g><rect class="legendtoggle" x="0" y="-10.6" width="167.859375" height="21.2" style="fill: rgb(0, 0, 0); fill-opacity: 0;"/></g><g class="traces" transform="translate(491.71875,15.6)" style="opacity: 1;"><text class="legendtext" text-anchor="start" x="40" y="5.46" style="font-family: Inter, Helvetica, Arial, sans-serif; font-size: 14px; fill: rgb(68, 68, 68); fill-opacity: 1; white-space: pre;">Wood / Biomass</text><g class="layers"><g class="legendfill"><path class="js-fill" d="M5,-2h30v6h-30z" style="stroke-width: 0; fill: rgb(76, 175, 80); fill-opacity: 1;"/></g><g class="legendlines"><path class="js-line" d="M5,-2h30" style="fill: none; stroke: rgb(76, 175, 80); stroke-opacity: 1; stroke-width: 0.5px;"/></g><g class="legendsymbols"><g class="legendpoints"/></g></g><rect class="legendtoggle" x="0" y="-10.6" width="149.71875" height="21.2" style="fill: rgb(0, 0, 0); fill-opacity: 0;"/></g><g class="traces" transform="translate(643.9375,15.6)" style="opacity: 1;"><text class="legendtext" text-anchor="start" x="40" y="5.46" style="font-family: Inter, Helvetica, Arial, sans-serif; font-size: 14px; fill: rgb(68, 68, 68); fill-opacity: 1; white-space: pre;">Heat Pumps (electric)</text><g class="layers"><g class="legendfill"><path class="js-fill" d="M5,-2h30v6h-30z" style="stroke-width: 0; fill: rgb(33, 150, 243); fill-opacity: 1;"/></g><g class="legendlines"><path class="js-line" d="M5,-2h30" style="fill: none; stroke: rgb(33, 150, 243); stroke-opacity: 1; stroke-width: 0.5px;"/></g><g class="legendsymbols"><g class="legendpoints"/></g></g><rect class="legendtoggle" x="0" y="-10.6" width="185.953125" height="21.2" style="fill: rgb(0, 0, 0); fill-opacity: 0;"/></g><g class="traces" transform="translate(832.390625,15.6)" style="opacity: 1;"><text class="legendtext" text-anchor="start" x="40" y="5.46" style="font-family: Inter, Helvetica, Arial, sans-serif; font-size: 14px; fill: rgb(68, 68, 68); fill-opacity: 1; white-space: pre;">Natural Gas</text><g class="layers"><g class="legendfill"><path class="js-fill" d="M5,-2h30v6h-30z" style="stroke-width: 0; fill: rgb(255, 107, 53); fill-opacity: 1;"/></g><g class="legendlines"><path class="js-line" d="M5,-2h30" style="fill: none; stroke: rgb(255, 107, 53); stroke-opacity: 1; stroke-width: 0.5px;"/></g><g class="legendsymbols"><g class="legendpoints"/></g></g><rect class="legendtoggle" x="0" y="-10.6" width="119.9375" height="21.2" style="fill: rgb(0, 0, 0); fill-opacity: 0;"/></g><g class="traces" transform="translate(954.828125,15.6)" style="opacity: 1;"><text class="legendtext" text-anchor="start" x="40" y="5.46" style="font-family: Inter, Helvetica, Arial, sans-serif; font-size: 14px; fill: rgb(68, 68, 68); fill-opacity: 1; white-space: pre;">Heating Oil</text><g class="layers"><g class="legendfill"><path class="js-fill" d="M5,-2h30v6h-30z" style="stroke-width: 0; fill: rgb(139, 69, 19); fill-opacity: 1;"/></g><g class="legendlines"><path class="js-line" d="M5,-2h30" style="fill: none; stroke: rgb(139, 69, 19); stroke-opacity: 1; stroke-width: 0.5px;"/></g><g class="legendsymbols"><g class="legendpoints"/></g></g><rect class="legendtoggle" x="0" y="-10.6" width="115.328125" height="21.2" style="fill: rgb(0, 0, 0); fill-opacity: 0;"/></g></g></g><rect class="scrollbar" rx="20" ry="3" width="0" height="0" style="fill: rgb(128, 139, 164); fill-opacity: 1;" x="0" y="0"/></g><g class="g-gtitle"><text class="gtitle" x="600" y="42.5" text-anchor="middle" dy="0em" style="opacity: 1; font-family: Inter, Helvetica, Arial, sans-serif; font-size: 20px; fill: rgb(68, 68, 68); fill-opacity: 1; white-space: pre;">Swiss Residential Heating — Floor Area Share by System (%)</text></g><g class="g-xtitle"><text class="xtitle" x="615" y="585" text-anchor="middle" style="opacity: 1; font-family: Inter, Helvetica, Arial, sans-serif; font-size: 16px; fill: rgb(68, 68, 68); fill-opacity: 1; white-space: pre;">Year</text></g><g class="g-ytitle"><text class="ytitle" transform="rotate(-90,28,306)" x="28" y="306" text-anchor="middle" style="opacity: 1; font-family: Inter, Helvetica, Arial, sans-serif; font-size: 16px; fill: rgb(68, 68, 68); fill-opacity: 1; white-space: pre;">Share of Floor Area (%)</text></g></g></svg>