<svg class="main-svg" xmlns="http://www.w3.org/2000/svg" xmlns:xlink="http://www.w3.org/1999/xlink" width="1200" height="650" style="" viewBox="0 0 1200 650"><rect x="0" y="0" width="1200" height="650" style="fill: rgb(255, 255, 255); fill-opacity: 1;"/><defs id="defs-988814"><g class="clips"><clipPath id="clip988814xyplot" class="plotclip"><rect width="1090" height="442"/></clipPath><clipPath class="axesclip" id="clip988814x"><rect x="70" y="0" width="1090" height="650"/></clipPath><clipPath class="axesclip" id="clip988814y"><rect x="0" y="85" width="1200" height="442"/></clipPath><clipPath class="axesclip" id="clip988814xy"><rect x="70" y="85" width="1090" height="442"/></clipPath></g><g class="gradients"/><g class="patterns"/></defs><g class="bglayer"/><g class="layer-below"><g class="imagelayer"/><g class="shapelayer"/></g><g class="cartesianlayer"><g class="subplot xy"><g class="layer-subplot"><g class="shapelayer"/><g class="imagelayer"/></g><g class="minor-gridlayer"><g class="x"/><g class="y"/></g><g class="gridlayer"><g class="x"><path class="xgrid crisp" transform="translate(128.25,0)" d="M0,85v442" style="stroke: rgb(238, 238, 238); stroke-opacity: 1; stroke-width: 1px;"/><path class="xgrid crisp" transform="translate(290.5,0)" d="M0,85v442" style="stroke: rgb(238, 238, 238); stroke-opacity: 1; stroke-width: 1px;"/><path class="xgrid crisp" transform="translate(452.75,0)" d="M0,85v442" style="stroke: rgb(238, 238, 238); stroke-opacity: 1; stroke-width: 1px;"/><path class="xgrid crisp" transform="translate(615,0)" d="M0,85v442" style="stroke: rgb(238, 238, 238); stroke-opacity: 1; stroke-width: 1px;"/><path class="xgrid crisp" transform="translate(777.25,0)" d="M0,85v442" style="stroke: rgb(238, 238, 238); stroke-opacity: 1; stroke-width: 1px;"/><path class="xgrid crisp" transform="translate(939.5,0)" d="M0,85v442" style="stroke: rgb(238, 238, 238); stroke-opacity: 1; stroke-width: 1px;"/><path class="xgrid crisp" transform="translate(1101.75,0)" d="M0,85v442" style="stroke: rgb(238, 238, 238); stroke-opacity: 1; stroke-width: 1px;"/></g><g class="y"><path class="ygrid crisp" transform="translate(0,495.41)" d="M70,0h1090" style="stroke: rgb(238, 238, 238); stroke-opacity: 1; stroke-width: 1px;"/><path class="ygrid crisp" transform="translate(0,438.01)" d="M70,0h1090" style="stroke: rgb(238, 238, 238); stroke-opacity: 1; stroke-width: 1px;"/><path class="ygrid crisp" transform="translate(0,380.62)" d="M70,0h1090" style="stroke: rgb(238, 238, 238); stroke-opacity: 1; stroke-width: 1px;"/><path class="ygrid crisp" transform="translate(0,323.22)" d="M70,0h1090" style="stroke: rgb(238, 238, 238); stroke-opacity: 1; stroke-width: 1px;"/><path class="ygrid crisp" transform="translate(0,265.82)" d="M70,0h1090" style="stroke: rgb(238, 238, 238); stroke-opacity: 1; stroke-width: 1px;"/><path class="ygrid crisp" transform="translate(0,208.42000000000002)" d="M70,0h1090" style="stroke: rgb(238, 238, 238); stroke-opacity: 1; stroke-width: 1px;"/><path class="ygrid crisp" transform="translate(0,151.03)" d="M70,0h1090" style="stroke: rgb(238, 238, 238); stroke-opacity: 1; stroke-width: 1px;"/><path class="ygrid crisp" transform="translate(0,93.63)" d="M70,0h1090" style="stroke: rgb(238, 238, 238); stroke-opacity: 1; stroke-width: 1px;"/></g></g><g class="zerolinelayer"/><g class="layer-between"><g class="shapelayer"/><g class="imagelayer"/></g><path class="xlines-below"/><path class="ylines-below"/><g class="overlines-below"/><g class="xaxislayer-below"/><g class="yaxislayer-below"/><g class="overaxes-below"/><g class="overplot"><g class="xy" transform="translate(70,85)" clip-path="url(#clip988814xyplot)"><g class="scatterlayer mlayer"><g class="trace scatter trace211ed9" style="stroke-miterlimit: 2; opacity: 1;"><g class="fills"/><g class="errorbars"/><g class="lines"><path class="js-line" d="M58.25,111.95L139.38,106.21L220.5,97.6L301.63,91.86L382.75,83.25L707.25,48.81L788.38,37.33L869.5,37.33L950.63,31.59L1031.75,25.85" style="vector-effect: none; fill: none; stroke: rgb(255, 152, 0); stroke-opacity: 1; stroke-width: 2.5px; opacity: 1;"/></g><g class="points"><path class="point" transform="translate(58.25,111.95)" d="M3,0A3,3 0 1,1 0,-3A3,3 0 0,1 3,0Z" style="opacity: 1; stroke-width: 0px; fill: rgb(255, 152, 0); fill-opacity: 1;"/><path class="point" transform="translate(139.38,106.21)" d="M3,0A3,3 0 1,1 0,-3A3,3 0 0,1 3,0Z" style="opacity: 1; stroke-width: 0px; fill: rgb(255, 152, 0); fill-opacity: 1;"/><path class="point" transform="translate(220.5,97.6)" d="M3,0A3,3 0 1,1 0,-3A3,3 0 0,1 3,0Z" style="opacity: 1; stroke-width: 0px; fill: rgb(255, 152, 0); fill-opacity: 1;"/><path class="point" transform="translate(301.63,91.86)" d="M3,0A3,3 0 1,1 0,-3A3,3 0 0,1 3,0Z" style="opacity: 1; stroke-width: 0px; fill: rgb(255, 152, 0); fill-opacity: 1;"/><path class="point" transform="translate(382.75,83.25)" d="M3,0A3,3 0 1,1 0,-3A3,3 0 0,1 3,0Z" style="opacity: 1; stroke-width: 0px; fill: rgb(255, 152, 0); fill-opacity: 1;"/><path class="point" transform="translate(463.88,74.64)" d="M3,0A3,3 0 1,1 0,-3A3,3 0 0,1 3,0Z" style="opacity: 1; stroke-width: 0px; fill: rgb(255, 152, 0); fill-opacity: 1;"/><path class="point" transform="translate(545,66.03)" d="M3,0A3,3 0 1,1 0,-3A3,3 0 0,1 3,0Z" style="opacity: 1; stroke-width: 0px; fill: rgb(255, 152, 0); fill-opacity: 1;"/><path class="point" transform="translate(626.13,57.42)" d="M3,0A3,3 0 1,1 0,-3A3,3 0 0,1 3,0Z" style="opacity: 1; stroke-width: 0px; fill: rgb(255, 152, 0); fill-opacity: 1;"/><path class="point" transform="translate(707.25,48.81)" d="M3,0A3,3 0 1,1 0,-3A3,3 0 0,1 3,0Z" style="opacity: 1; stroke-width: 0px; fill: rgb(255, 152, 0); fill-opacity: 1;"/><path class="point" transform="translate(788.38,37.33)" d="M3,0A3,3 0 1,1 0,-3A3,3 0 0,1 3,0Z" style="opacity: 1; stroke-width: 0px; fill: rgb(255, 152, 0); fill-opacity: 1;"/><path class="point" transform="translate(869.5,37.33)" d="M3,0A3,3 0 1,1 0,-3A3,3 0 0,1 3,0Z" style="opacity: 1; stroke-width: 0px; fill: rgb(255, 152, 0); fill-opacity: 1;"/><path class="point" transform="translate(950.63,31.59)" d="M3,0A3,3 0 1,1 0,-3A3,3 0 0,1 3,0Z" style="opacity: 1; stroke-width: 0px; fill: rgb(255, 152, 0); fill-opacity: 1;"/><path class="point" transform="translate(1031.75,25.85)" d="M3,0A3,3 0 1,1 0,-3A3,3 0 0,1 3,0Z" style="opacity: 1; stroke-width: 0px; fill: rgb(255, 152, 0); fill-opacity: 1;"/></g><g class="text"/></g><g class="trace scatter tracefbf288" style="stroke-miterlimit: 2; opacity: 1;"><g class="fills"/><g class="errorbars"/><g class="lines"><path class="js-line" d="M58.25,416.15L139.38,416.15L220.5,413.28L382.75,401.8L463.88,398.93L545,396.06L626.13,387.45L707.25,375.97L788.38,370.23L1031.75,370.23" style="vector-effect: none; fill: none; stroke: rgb(33, 150, 243); stroke-opacity: 1; stroke-width: 2.5px; opacity: 1;"/></g><g class="points"><path class="point" transform="translate(58.25,416.15)" d="M3,0A3,3 0 1,1 0,-3A3,3 0 0,1 3,0Z" style="opacity: 1; stroke-width: 0px; fill: rgb(33, 150, 243); fill-opacity: 1;"/><path class="point" transform="translate(139.38,416.15)" d="M3,0A3,3 0 1,1 0,-3A3,3 0 0,1 3,0Z" style="opacity: 1; stroke-width: 0px; fill: rgb(33, 150, 243); fill-opacity: 1;"/><path class="point" transform="translate(220.5,413.28)" d="M3,0A3,3 0 1,1 0,-3A3,3 0 0,1 3,0Z" style="opacity: 1; stroke-width: 0px; fill: rgb(33, 150, 243); fill-opacity: 1;"/><path class="point" transform="translate(301.63,407.54)" d="M3,0A3,3 0 1,1 0,-3A3,3 0 0,1 3,0Z" style="opacity: 1; stroke-width: 0px; fill: rgb(33, 150, 243); fill-opacity: 1;"/><path class="point" transform="translate(382.75,401.8)" d="M3,0A3,3 0 1,1 0,-3A3,3 0 0,1 3,0Z" style="opacity: 1; stroke-width: 0px; fill: rgb(33, 150, 243); fill-opacity: 1;"/><path class="point" transform="translate(463.88,398.93)" d="M3,0A3,3 0 1,1 0,-3A3,3 0 0,1 3,0Z" style="opacity: 1; stroke-width: 0px; fill: rgb(33, 150, 243); fill-opacity: 1;"/><path class="point" transform="translate(545,396.06)" d="M3,0A3,3 0 1,1 0,-3A3,3 0 0,1 3,0Z" style="opacity: 1; stroke-width: 0px; fill: rgb(33, 150, 243); fill-opacity: 1;"/><path class="point" transform="translate(626.13,387.45)" d="M3,0A3,3 0 1,1 0,-3A3,3 0 0,1 3,0Z" style="opacity: 1; stroke-width: 0px; fill: rgb(33, 150, 243); fill-opacity: 1;"/><path class="point" transform="translate(707.25,375.97)" d="M3,0A3,3 0 1,1 0,-3A3,3 0 0,1 3,0Z" style="opacity: 1; stroke-width: 0px; fill: rgb(33, 150, 243); fill-opacity: 1;"/><path class="point" transform="translate(788.38,370.23)" d="M3,0A3,3 0 1,1 0,-3A3,3 0 0,1 3,0Z" style="opacity: 1; stroke-width: 0px; fill: rgb(33, 150, 243); fill-opacity: 1;"/><path class="point" transform="translate(869.5,370.23)" d="M3,0A3,3 0 1,1 0,-3A3,3 0 0,1 3,0Z" style="opacity: 1; stroke-width: 0px; fill: rgb(33, 150, 243); fill-opacity: 1;"/><path class="point" transform="translate(950.63,370.23)" d="M3,0A3,3 0 1,1 0,-3A3,3 0 0,1 3,0Z" style="opacity: 1; stroke-width: 0px; fill: rgb(33, 150, 243); fill-opacity: 1;"/><path class="point" transform="translate(1031.75,370.23)" d="M3,0A3,3 0 1,1 0,-3A3,3 0 0,1 3,0Z" style="opacity: 1; stroke-width: 0px; fill: rgb(33, 150, 243); fill-opacity: 1;"/></g><g class="text"/></g><g class="trace scatter tracec91b5b" style="stroke-miterlimit: 2; opacity: 1;"><g class="fills"/><g class="errorbars"/><g class="lines"><path class="js-line" d="M58.25,324.31L139.38,324.31L220.5,318.57L463.88,301.36L545,298.49L626.13,289.88L707.25,278.4L788.38,269.79L869.5,269.79L950.63,269.79L1031.75,266.92" style="vector-effect: none; fill: none; stroke: rgb(76, 175, 80); stroke-opacity: 1; stroke-dasharray: 9px, 9px; stroke-width: 3px; opacity: 1;"/></g><g class="points"><path class="point" transform="translate(58.25,324.31)" d="M2.5,0A2.5,2.5 0 1,1 0,-2.5A2.5,2.5 0 0,1 2.5,0Z" style="opacity: 1; stroke-width: 0px; fill: rgb(76, 175, 80); fill-opacity: 1;"/><path class="point" transform="translate(139.38,324.31)" d="M2.5,0A2.5,2.5 0 1,1 0,-2.5A2.5,2.5 0 0,1 2.5,0Z" style="opacity: 1; stroke-width: 0px; fill: rgb(76, 175, 80); fill-opacity: 1;"/><path class="point" transform="translate(220.5,318.57)" d="M2.5,0A2.5,2.5 0 1,1 0,-2.5A2.5,2.5 0 0,1 2.5,0Z" style="opacity: 1; stroke-width: 0px; fill: rgb(76, 175, 80); fill-opacity: 1;"/><path class="point" transform="translate(301.63,312.84)" d="M2.5,0A2.5,2.5 0 1,1 0,-2.5A2.5,2.5 0 0,1 2.5,0Z" style="opacity: 1; stroke-width: 0px; fill: rgb(76, 175, 80); fill-opacity: 1;"/><path class="point" transform="translate(382.75,307.1)" d="M2.5,0A2.5,2.5 0 1,1 0,-2.5A2.5,2.5 0 0,1 2.5,0Z" style="opacity: 1; stroke-width: 0px; fill: rgb(76, 175, 80); fill-opacity: 1;"/><path class="point" transform="translate(463.88,301.36)" d="M2.5,0A2.5,2.5 0 1,1 0,-2.5A2.5,2.5 0 0,1 2.5,0Z" style="opacity: 1; stroke-width: 0px; fill: rgb(76, 175, 80); fill-opacity: 1;"/><path class="point" transform="translate(545,298.49)" d="M2.5,0A2.5,2.5 0 1,1 0,-2.5A2.5,2.5 0 0,1 2.5,0Z" style="opacity: 1; stroke-width: 0px; fill: rgb(76, 175, 80); fill-opacity: 1;"/><path class="point" transform="translate(626.13,289.88)" d="M2.5,0A2.5,2.5 0 1,1 0,-2.5A2.5,2.5 0 0,1 2.5,0Z" style="opacity: 1; stroke-width: 0px; fill: rgb(76, 175, 80); fill-opacity: 1;"/><path class="point" transform="translate(707.25,278.4)" d="M2.5,0A2.5,2.5 0 1,1 0,-2.5A2.5,2.5 0 0,1 2.5,0Z" style="opacity: 1; stroke-width: 0px; fill: rgb(76, 175, 80); fill-opacity: 1;"/><path class="point" transform="translate(788.38,269.79)" d="M2.5,0A2.5,2.5 0 1,1 0,-2.5A2.5,2.5 0 0,1 2.5,0Z" style="opacity: 1; stroke-width: 0px; fill: rgb(76, 175, 80); fill-opacity: 1;"/><path class="point" transform="translate(869.5,269.79)" d="M2.5,0A2.5,2.5 0 1,1 0,-2.5A2.5,2.5 0 0,1 2.5,0Z" style="opacity: 1; stroke-width: 0px; fill: rgb(76, 175, 80); fill-opacity: 1;"/><path class="point" transform="translate(950.63,269.79)" d="M2.5,0A2.5,2.5 0 1,1 0,-2.5A2.5,2.5 0 0,1 2.5,0Z" style="opacity: 1; stroke-width: 0px; fill: rgb(76, 175, 80); fill-opacity: 1;"/><path class="point" transform="translate(1031.75,266.92)" d="M2.5,0A2.5,2.5 0 1,1 0,-2.5A2.5,2.5 0 0,1 2.5,0Z" style="opacity: 1; stroke-width: 0px; fill: rgb(76, 175, 80); fill-opacity: 1;"/></g><g class="text"/></g></g></g></g><g class="zerolinelayer-above"/><path class="xlines-above crisp" d="M0,0" style="fill: none;"/><path class="ylines-above crisp" d="M0,0" style="fill: none;"/><g class="overlines-above"/><g class="xaxislayer-above"><g class="xtick"><text text-anchor="middle" x="0" y="542" transform="translate(128.25,0)" style="font-family: Inter, Helvetica, Arial, sans-serif; font-size: 14px; fill: rgb(68, 68, 68); fill-opacity: 1; white-space: pre;">2012</text></g><g class="xtick"><text text-anchor="middle" x="0" y="542" style="font-family: Inter, Helvetica, Arial, sans-serif; font-size: 14px; fill: rgb(68, 68, 68); fill-opacity: 1; white-space: pre;" transform="translate(290.5,0)">2014</text></g><g class="xtick"><text text-anchor="middle" x="0" y="542" style="font-family: Inter, Helvetica, Arial, sans-serif; font-size: 14px; fill: rgb(68, 68, 68); fill-opacity: 1; white-space: pre;" transform="translate(452.75,0)">2016</text></g><g class="xtick"><text text-anchor="middle" x="0" y="542" style="font-family: Inter, Helvetica, Arial, sans-serif; font-size: 14px; fill: rgb(68, 68, 68); fill-opacity: 1; white-space: pre;" transform="translate(615,0)">2018</text></g><g class="xtick"><text text-anchor="middle" x="0" y="542" style="font-family: Inter, Helvetica, Arial, sans-serif; font-size: 14px; fill: rgb(68, 68, 68); fill-opacity: 1; white-space: pre;" transform="translate(777.25,0)">2020</text></g><g class="xtick"><text text-anchor="middle" x="0" y="542" style="font-family: Inter, Helvetica, Arial, sans-serif; font-size: 14px; fill: rgb(68, 68, 68); fill-opacity: 1; white-space: pre;" transform="translate(939.5,0)">2022</text></g><g class="xtick"><text text-anchor="middle" x="0" y="542" style="font-family: Inter, Helvetica, Arial, sans-serif; font-size: 14px; fill: rgb(68, 68, 68); fill-opacity: 1; white-space: pre;" transform="translate(1101.75,0)">2024</text></g></g><g class="yaxislayer-above"><g class="ytick"><text text-anchor="end" x="69" y="4.8999999999999995" transform="translate(0,495.41)" style="font-family: Inter, Helvetica, Arial, sans-serif; font-size: 14px; fill: rgb(68, 68, 68); fill-opacity: 1; white-space: pre;">42</text></g><g class="ytick"><text text-anchor="end" x="69" y="4.8999999999999995" style="font-family: Inter, Helvetica, Arial, sans-serif; font-size: 14px; fill: rgb(68, 68, 68); fill-opacity: 1; white-space: pre;" transform="translate(0,438.01)">44</text></g><g class="ytick"><text text-anchor="end" x="69" y="4.8999999999999995" style="font-family: Inter, Helvetica, Arial, sans-serif; font-size: 14px; fill: rgb(68, 68, 68); fill-opacity: 1; white-space: pre;" transform="translate(0,380.62)">46</text></g><g class="ytick"><text text-anchor="end" x="69" y="4.8999999999999995" style="font-family: Inter, Helvetica, Arial, sans-serif; font-size: 14px; fill: rgb(68, 68, 68); fill-opacity: 1; white-space: pre;" transform="translate(0,323.22)">48</text></g><g class="ytick"><text text-anchor="end" x="69" y="4.8999999999999995" style="font-family: Inter, Helvetica, Arial, sans-serif; font-size: 14px; fill: rgb(68, 68, 68); fill-opacity: 1; white-space: pre;" transform="translate(0,265.82)">50</text></g><g class="ytick"><text text-anchor="end" x="69" y="4.8999999999999995" style="font-family: Inter, Helvetica, Arial, sans-serif; font-size: 14px; fill: rgb(68, 68, 68); fill-opacity: 1; white-space: pre;" transform="translate(0,208.42000000000002)">52</text></g><g class="ytick"><text text-anchor="end" x="69" y="4.8999999999999995" style="font-family: Inter, Helvetica, Arial, sans-serif; font-size: 14px; fill: rgb(68, 68, 68); fill-opacity: 1; white-space: pre;" transform="translate(0,151.03)">54</text></g><g class="ytick"><text text-anchor="end" x="69" y="4.8999999999999995" style="font-family: Inter, Helvetica, Arial, sans-serif; font-size: 14px; fill: rgb(68, 68, 68); fill-opacity: 1; white-space: pre;" transform="translate(0,93.63)">56</text></g></g><g class="overaxes-above"/></g></g><g class="polarlayer"/><g class="smithlayer"/><g class="ternarylayer"/><g class="geolayer"/><g class="funnelarealayer"/><g class="pielayer"/><g class="iciclelayer"/><g class="treemaplayer"/><g class="sunburstlayer"/><g class="glimages"/><defs id="topdefs-988814"><g class="clips"/><clipPath id="legend988814"><rect width="461" height="32" x="0" y="0"/></clipPath></defs><g class="layer-above"><g class="imagelayer"/><g class="shapelayer"/></g><g class="infolayer"><g class="legend" pointer-events="all" transform="translate(384.5,605.5)"><rect class="bg" shape-rendering="crispEdges" style="stroke: rgb(68, 68, 68); stroke-opacity: 1; fill: rgb(255, 255, 255); fill-opacity: 1; stroke-width: 0px;" width="461" height="32" x="0" y="0"/><g class="scrollbox" transform="" clip-path="url(#legend988814)"><g class="groups"><g class="traces" transform="translate(0,15.6)" style="opacity: 1;"><text class="legendtext" text-anchor="start" x="40" y="5.46" style="font-family: Inter, Helvetica, Arial, sans-serif; font-size: 14px; fill: rgb(68, 68, 68); fill-opacity: 1; white-space: pre;">Single-Family</text><g class="layers" style="opacity: 1;"><g class="legendfill"/><g class="legendlines"><path class="js-line" d="M5,0h30" style="fill: none; stroke: rgb(255, 152, 0); stroke-opacity: 1; stroke-width: 2.5px;"/></g><g class="legendsymbols"><g class="legendpoints"><path class="scatterpts" transform="translate(20,0)" d="M3,0A3,3 0 1,1 0,-3A3,3 0 0,1 3,0Z" style="opacity: 1; stroke-width: 0px; fill: rgb(255, 152, 0); fill-opacity: 1;"/></g></g></g><rect class="legendtoggle" x="0" y="-10.6" width="132.5" height="21.2" style="fill: rgb(0, 0, 0); fill-opacity: 0;"/></g><g class="traces" transform="translate(135,15.6)" style="opacity: 1;"><text class="legendtext" text-anchor="start" x="40" y="5.46" style="font-family: Inter, Helvetica, Arial, sans-serif; font-size: 14px; fill: rgb(68, 68, 68); fill-opacity: 1; white-space: pre;">Multi-Family</text><g class="layers" style="opacity: 1;"><g class="legendfill"/><g class="legendlines"><path class="js-line" d="M5,0h30" style="fill: none; stroke: rgb(33, 150, 243); stroke-opacity: 1; stroke-width: 2.5px;"/></g><g class="legendsymbols"><g class="legendpoints"><path class="scatterpts" transform="translate(20,0)" d="M3,0A3,3 0 1,1 0,-3A3,3 0 0,1 3,0Z" style="opacity: 1; stroke-width: 0px; fill: rgb(33, 150, 243); fill-opacity: 1;"/></g></g></g><rect class="legendtoggle" x="0" y="-10.6" width="124.203125" height="21.2" style="fill: rgb(0, 0, 0); fill-opacity: 0;"/></g><g class="traces" transform="translate(261.703125,15.6)" style="opacity: 1;"><text class="legendtext" text-anchor="start" x="40" y="5.46" style="font-family: Inter, Helvetica, Arial, sans-serif; font-size: 14px; fill: rgb(68, 68, 68); fill-opacity: 1; white-space: pre;">Weighted Avg (~30/70)</text><g class="layers" style="opacity: 1;"><g class="legendfill"/><g class="legendlines"><path class="js-line" d="M5,0h30" style="fill: none; stroke: rgb(76, 175, 80); stroke-opacity: 1; stroke-dasharray: 9px, 9px; stroke-width: 3px;"/></g><g class="legendsymbols"><g class="legendpoints"><path class="scatterpts" transform="translate(20,0)" d="M2.5,0A2.5,2.5 0 1,1 0,-2.5A2.5,2.5 0 0,1 2.5,0Z" style="opacity: 1; stroke-width: 0px; fill: rgb(76, 175, 80); fill-opacity: 1;"/></g></g></g><rect class="legendtoggle" x="0" y="-10.6" width="196.328125" height="21.2" style="fill: rgb(0, 0, 0); fill-opacity: 0;"/></g></g></g><rect class="scrollbar" rx="20" ry="3" width="0" height="0" style="fill: rgb(128, 139, 164); fill-opacity: 1;" x="0" y="0"/></g><g class="g-gtitle"><text class="gtitle" x="600" y="42.5" text-anchor="middle" dy="0em" style="opacity: 1; font-family: Inter, Helvetica, Arial, sans-serif; font-size: 20px; fill: rgb(68, 68, 68); fill-opacity: 1; white-space: pre;">Average Floor Area per Person — Swiss Residential (BFS GWS)</text></g><g class="g-xtitle"><text class="xtitle" x="615" y="585" text-anchor="middle" style="opacity: 1; font-family: Inter, Helvetica, Arial, sans-serif; font-size: 16px; fill: rgb(68, 68, 68); fill-opacity: 1; white-space: pre;">Year</text></g><g class="g-ytitle"><text class="ytitle" transform="rotate(-90,28,306)" x="28" y="306" text-anchor="middle" style="opacity: 1; font-family: Inter, Helvetica, Arial, sans-serif; font-size: 16px; fill: rgb(68, 68, 68); fill-opacity: 1; white-space: pre;">m² per person</text></g></g></svg>