<svg class="main-svg" xmlns="http://www.w3.org/2000/svg" xmlns:xlink="http://www.w3.org/1999/xlink" width="1000" height="550" style="" viewBox="0 0 1000 550"><rect x="0" y="0" width="1000" height="550" style="fill: rgb(255, 255, 255); fill-opacity: 1;"/><defs id="defs-47f7fd"><g class="clips"><clipPath id="clip47f7fdxyplot" class="plotclip"><rect width="840" height="359"/></clipPath><clipPath class="axesclip" id="clip47f7fdx"><rect x="80" y="0" width="840" height="550"/></clipPath><clipPath class="axesclip" id="clip47f7fdy"><rect x="0" y="100" width="1000" height="359"/></clipPath><clipPath class="axesclip" id="clip47f7fdxy"><rect x="80" y="100" width="840" height="359"/></clipPath></g><g class="gradients"/><g class="patterns"/></defs><g class="bglayer"/><g class="layer-below"><g class="imagelayer"/><g class="shapelayer"/></g><g class="cartesianlayer"><g class="subplot xy"><g class="layer-subplot"><g class="shapelayer"/><g class="imagelayer"/></g><g class="minor-gridlayer"><g class="x"/><g class="y"/></g><g class="gridlayer"><g class="x"><path class="xgrid crisp" transform="translate(92.53,0)" d="M0,100v359" style="stroke: rgb(235, 240, 248); stroke-opacity: 1; stroke-width: 1px;"/><path class="xgrid crisp" transform="translate(255.52,0)" d="M0,100v359" style="stroke: rgb(235, 240, 248); stroke-opacity: 1; stroke-width: 1px;"/><path class="xgrid crisp" transform="translate(418.51,0)" d="M0,100v359" style="stroke: rgb(235, 240, 248); stroke-opacity: 1; stroke-width: 1px;"/><path class="xgrid crisp" transform="translate(581.49,0)" d="M0,100v359" style="stroke: rgb(235, 240, 248); stroke-opacity: 1; stroke-width: 1px;"/><path class="xgrid crisp" transform="translate(744.48,0)" d="M0,100v359" style="stroke: rgb(235, 240, 248); stroke-opacity: 1; stroke-width: 1px;"/><path class="xgrid crisp" transform="translate(907.47,0)" d="M0,100v359" style="stroke: rgb(235, 240, 248); stroke-opacity: 1; stroke-width: 1px;"/></g><g class="y"><path class="ygrid crisp" transform="translate(0,456.27)" d="M80,0h840" style="stroke: rgb(235, 240, 248); stroke-opacity: 1; stroke-width: 1px;"/><path class="ygrid crisp" transform="translate(0,387.53)" d="M80,0h840" style="stroke: rgb(235, 240, 248); stroke-opacity: 1; stroke-width: 1px;"/><path class="ygrid crisp" transform="translate(0,318.78)" d="M80,0h840" style="stroke: rgb(235, 240, 248); stroke-opacity: 1; stroke-width: 1px;"/><path class="ygrid crisp" transform="translate(0,181.3)" d="M80,0h840" style="stroke: rgb(235, 240, 248); stroke-opacity: 1; stroke-width: 1px;"/><path class="ygrid crisp" transform="translate(0,112.56)" d="M80,0h840" style="stroke: rgb(235, 240, 248); stroke-opacity: 1; stroke-width: 1px;"/></g></g><g class="zerolinelayer"><path class="yzl zl crisp" transform="translate(0,250.04)" d="M80,0h840" style="stroke: rgb(235, 240, 248); stroke-opacity: 1; stroke-width: 2px;"/></g><g class="layer-between"><g class="shapelayer"/><g class="imagelayer"/></g><path class="xlines-below"/><path class="ylines-below"/><g class="overlines-below"/><g class="xaxislayer-below"/><g class="yaxislayer-below"/><g class="overaxes-below"/><g class="overplot"><g class="xy" transform="translate(80,100)" clip-path="url(#clip47f7fdxyplot)"><g class="scatterlayer mlayer"><g class="trace scatter trace3ce63c" style="stroke-miterlimit: 2; opacity: 1;"><g class="fills"/><g class="errorbars"/><g class="lines"><path class="js-line" d="M45.13,146.29L175.52,128.91L208.11,124.94L240.71,119.73L273.31,112.48L305.91,105.09L338.51,95.09L403.7,83.15L436.3,75.64L468.9,68.98L501.49,63.48L534.09,57.41L566.69,53.14L697.08,37.86L729.68,33.36L762.28,25.62L794.88,20.95" style="vector-effect: none; fill: none; stroke: rgb(244, 67, 54); stroke-opacity: 1; stroke-width: 2.5px; opacity: 1;"/></g><g class="points"><path class="point" transform="translate(45.13,146.29)" d="M2,0A2,2 0 1,1 0,-2A2,2 0 0,1 2,0Z" style="opacity: 1; stroke-width: 0px; fill: rgb(244, 67, 54); fill-opacity: 1;"/><path class="point" transform="translate(77.72,141.76)" d="M2,0A2,2 0 1,1 0,-2A2,2 0 0,1 2,0Z" style="opacity: 1; stroke-width: 0px; fill: rgb(244, 67, 54); fill-opacity: 1;"/><path class="point" transform="translate(110.32,137.27)" d="M2,0A2,2 0 1,1 0,-2A2,2 0 0,1 2,0Z" style="opacity: 1; stroke-width: 0px; fill: rgb(244, 67, 54); fill-opacity: 1;"/><path class="point" transform="translate(142.92,132.97)" d="M2,0A2,2 0 1,1 0,-2A2,2 0 0,1 2,0Z" style="opacity: 1; stroke-width: 0px; fill: rgb(244, 67, 54); fill-opacity: 1;"/><path class="point" transform="translate(175.52,128.91)" d="M2,0A2,2 0 1,1 0,-2A2,2 0 0,1 2,0Z" style="opacity: 1; stroke-width: 0px; fill: rgb(244, 67, 54); fill-opacity: 1;"/><path class="point" transform="translate(208.11,124.94)" d="M2,0A2,2 0 1,1 0,-2A2,2 0 0,1 2,0Z" style="opacity: 1; stroke-width: 0px; fill: rgb(244, 67, 54); fill-opacity: 1;"/><path class="point" transform="translate(240.71,119.73)" d="M2,0A2,2 0 1,1 0,-2A2,2 0 0,1 2,0Z" style="opacity: 1; stroke-width: 0px; fill: rgb(244, 67, 54); fill-opacity: 1;"/><path class="point" transform="translate(273.31,112.48)" d="M2,0A2,2 0 1,1 0,-2A2,2 0 0,1 2,0Z" style="opacity: 1; stroke-width: 0px; fill: rgb(244, 67, 54); fill-opacity: 1;"/><path class="point" transform="translate(305.91,105.09)" d="M2,0A2,2 0 1,1 0,-2A2,2 0 0,1 2,0Z" style="opacity: 1; stroke-width: 0px; fill: rgb(244, 67, 54); fill-opacity: 1;"/><path class="point" transform="translate(338.51,95.09)" d="M2,0A2,2 0 1,1 0,-2A2,2 0 0,1 2,0Z" style="opacity: 1; stroke-width: 0px; fill: rgb(244, 67, 54); fill-opacity: 1;"/><path class="point" transform="translate(371.1,88.89)" d="M2,0A2,2 0 1,1 0,-2A2,2 0 0,1 2,0Z" style="opacity: 1; stroke-width: 0px; fill: rgb(244, 67, 54); fill-opacity: 1;"/><path class="point" transform="translate(403.7,83.15)" d="M2,0A2,2 0 1,1 0,-2A2,2 0 0,1 2,0Z" style="opacity: 1; stroke-width: 0px; fill: rgb(244, 67, 54); fill-opacity: 1;"/><path class="point" transform="translate(436.3,75.64)" d="M2,0A2,2 0 1,1 0,-2A2,2 0 0,1 2,0Z" style="opacity: 1; stroke-width: 0px; fill: rgb(244, 67, 54); fill-opacity: 1;"/><path class="point" transform="translate(468.9,68.98)" d="M2,0A2,2 0 1,1 0,-2A2,2 0 0,1 2,0Z" style="opacity: 1; stroke-width: 0px; fill: rgb(244, 67, 54); fill-opacity: 1;"/><path class="point" transform="translate(501.49,63.48)" d="M2,0A2,2 0 1,1 0,-2A2,2 0 0,1 2,0Z" style="opacity: 1; stroke-width: 0px; fill: rgb(244, 67, 54); fill-opacity: 1;"/><path class="point" transform="translate(534.09,57.41)" d="M2,0A2,2 0 1,1 0,-2A2,2 0 0,1 2,0Z" style="opacity: 1; stroke-width: 0px; fill: rgb(244, 67, 54); fill-opacity: 1;"/><path class="point" transform="translate(566.69,53.14)" d="M2,0A2,2 0 1,1 0,-2A2,2 0 0,1 2,0Z" style="opacity: 1; stroke-width: 0px; fill: rgb(244, 67, 54); fill-opacity: 1;"/><path class="point" transform="translate(599.29,49.4)" d="M2,0A2,2 0 1,1 0,-2A2,2 0 0,1 2,0Z" style="opacity: 1; stroke-width: 0px; fill: rgb(244, 67, 54); fill-opacity: 1;"/><path class="point" transform="translate(631.89,45.73)" d="M2,0A2,2 0 1,1 0,-2A2,2 0 0,1 2,0Z" style="opacity: 1; stroke-width: 0px; fill: rgb(244, 67, 54); fill-opacity: 1;"/><path class="point" transform="translate(664.48,42.01)" d="M2,0A2,2 0 1,1 0,-2A2,2 0 0,1 2,0Z" style="opacity: 1; stroke-width: 0px; fill: rgb(244, 67, 54); fill-opacity: 1;"/><path class="point" transform="translate(697.08,37.86)" d="M2,0A2,2 0 1,1 0,-2A2,2 0 0,1 2,0Z" style="opacity: 1; stroke-width: 0px; fill: rgb(244, 67, 54); fill-opacity: 1;"/><path class="point" transform="translate(729.68,33.36)" d="M2,0A2,2 0 1,1 0,-2A2,2 0 0,1 2,0Z" style="opacity: 1; stroke-width: 0px; fill: rgb(244, 67, 54); fill-opacity: 1;"/><path class="point" transform="translate(762.28,25.62)" d="M2,0A2,2 0 1,1 0,-2A2,2 0 0,1 2,0Z" style="opacity: 1; stroke-width: 0px; fill: rgb(244, 67, 54); fill-opacity: 1;"/><path class="point" transform="translate(794.88,20.95)" d="M2,0A2,2 0 1,1 0,-2A2,2 0 0,1 2,0Z" style="opacity: 1; stroke-width: 0px; fill: rgb(244, 67, 54); fill-opacity: 1;"/></g><g class="text"/></g><g class="trace scatter trace5a397e" style="stroke-miterlimit: 2; opacity: 1;"><g class="fills"/><g class="errorbars"/><g class="lines"><path class="js-line" d="M45.13,117.33L77.72,140L110.32,98.5L142.92,101.94L175.52,68.86L208.11,119.6L240.71,146.19L273.31,102.58L305.91,132.62L338.51,58.67L371.1,174.19L403.7,114.08L436.3,80.02L468.9,203.01L501.49,151.96L534.09,116.22L566.69,124.48L599.29,183.51L631.89,153.28L664.48,176.02L697.08,101.21L729.68,198.91L762.28,190.63L794.88,188.4" style="vector-effect: none; fill: none; stroke: rgb(33, 150, 243); stroke-opacity: 1; stroke-width: 2.5px; opacity: 1;"/></g><g class="points"><path class="point" transform="translate(45.13,117.33)" d="M2,0A2,2 0 1,1 0,-2A2,2 0 0,1 2,0Z" style="opacity: 1; stroke-width: 0px; fill: rgb(33, 150, 243); fill-opacity: 1;"/><path class="point" transform="translate(77.72,140)" d="M2,0A2,2 0 1,1 0,-2A2,2 0 0,1 2,0Z" style="opacity: 1; stroke-width: 0px; fill: rgb(33, 150, 243); fill-opacity: 1;"/><path class="point" transform="translate(110.32,98.5)" d="M2,0A2,2 0 1,1 0,-2A2,2 0 0,1 2,0Z" style="opacity: 1; stroke-width: 0px; fill: rgb(33, 150, 243); fill-opacity: 1;"/><path class="point" transform="translate(142.92,101.94)" d="M2,0A2,2 0 1,1 0,-2A2,2 0 0,1 2,0Z" style="opacity: 1; stroke-width: 0px; fill: rgb(33, 150, 243); fill-opacity: 1;"/><path class="point" transform="translate(175.52,68.86)" d="M2,0A2,2 0 1,1 0,-2A2,2 0 0,1 2,0Z" style="opacity: 1; stroke-width: 0px; fill: rgb(33, 150, 243); fill-opacity: 1;"/><path class="point" transform="translate(208.11,119.6)" d="M2,0A2,2 0 1,1 0,-2A2,2 0 0,1 2,0Z" style="opacity: 1; stroke-width: 0px; fill: rgb(33, 150, 243); fill-opacity: 1;"/><path class="point" transform="translate(240.71,146.19)" d="M2,0A2,2 0 1,1 0,-2A2,2 0 0,1 2,0Z" style="opacity: 1; stroke-width: 0px; fill: rgb(33, 150, 243); fill-opacity: 1;"/><path class="point" transform="translate(273.31,102.58)" d="M2,0A2,2 0 1,1 0,-2A2,2 0 0,1 2,0Z" style="opacity: 1; stroke-width: 0px; fill: rgb(33, 150, 243); fill-opacity: 1;"/><path class="point" transform="translate(305.91,132.62)" d="M2,0A2,2 0 1,1 0,-2A2,2 0 0,1 2,0Z" style="opacity: 1; stroke-width: 0px; fill: rgb(33, 150, 243); fill-opacity: 1;"/><path class="point" transform="translate(338.51,58.67)" d="M2,0A2,2 0 1,1 0,-2A2,2 0 0,1 2,0Z" style="opacity: 1; stroke-width: 0px; fill: rgb(33, 150, 243); fill-opacity: 1;"/><path class="point" transform="translate(371.1,174.19)" d="M2,0A2,2 0 1,1 0,-2A2,2 0 0,1 2,0Z" style="opacity: 1; stroke-width: 0px; fill: rgb(33, 150, 243); fill-opacity: 1;"/><path class="point" transform="translate(403.7,114.08)" d="M2,0A2,2 0 1,1 0,-2A2,2 0 0,1 2,0Z" style="opacity: 1; stroke-width: 0px; fill: rgb(33, 150, 243); fill-opacity: 1;"/><path class="point" transform="translate(436.3,80.02)" d="M2,0A2,2 0 1,1 0,-2A2,2 0 0,1 2,0Z" style="opacity: 1; stroke-width: 0px; fill: rgb(33, 150, 243); fill-opacity: 1;"/><path class="point" transform="translate(468.9,203.01)" d="M2,0A2,2 0 1,1 0,-2A2,2 0 0,1 2,0Z" style="opacity: 1; stroke-width: 0px; fill: rgb(33, 150, 243); fill-opacity: 1;"/><path class="point" transform="translate(501.49,151.96)" d="M2,0A2,2 0 1,1 0,-2A2,2 0 0,1 2,0Z" style="opacity: 1; stroke-width: 0px; fill: rgb(33, 150, 243); fill-opacity: 1;"/><path class="point" transform="translate(534.09,116.22)" d="M2,0A2,2 0 1,1 0,-2A2,2 0 0,1 2,0Z" style="opacity: 1; stroke-width: 0px; fill: rgb(33, 150, 243); fill-opacity: 1;"/><path class="point" transform="translate(566.69,124.48)" d="M2,0A2,2 0 1,1 0,-2A2,2 0 0,1 2,0Z" style="opacity: 1; stroke-width: 0px; fill: rgb(33, 150, 243); fill-opacity: 1;"/><path class="point" transform="translate(599.29,183.51)" d="M2,0A2,2 0 1,1 0,-2A2,2 0 0,1 2,0Z" style="opacity: 1; stroke-width: 0px; fill: rgb(33, 150, 243); fill-opacity: 1;"/><path class="point" transform="translate(631.89,153.28)" d="M2,0A2,2 0 1,1 0,-2A2,2 0 0,1 2,0Z" style="opacity: 1; stroke-width: 0px; fill: rgb(33, 150, 243); fill-opacity: 1;"/><path class="point" transform="translate(664.48,176.02)" d="M2,0A2,2 0 1,1 0,-2A2,2 0 0,1 2,0Z" style="opacity: 1; stroke-width: 0px; fill: rgb(33, 150, 243); fill-opacity: 1;"/><path class="point" transform="translate(697.08,101.21)" d="M2,0A2,2 0 1,1 0,-2A2,2 0 0,1 2,0Z" style="opacity: 1; stroke-width: 0px; fill: rgb(33, 150, 243); fill-opacity: 1;"/><path class="point" transform="translate(729.68,198.91)" d="M2,0A2,2 0 1,1 0,-2A2,2 0 0,1 2,0Z" style="opacity: 1; stroke-width: 0px; fill: rgb(33, 150, 243); fill-opacity: 1;"/><path class="point" transform="translate(762.28,190.63)" d="M2,0A2,2 0 1,1 0,-2A2,2 0 0,1 2,0Z" style="opacity: 1; stroke-width: 0px; fill: rgb(33, 150, 243); fill-opacity: 1;"/><path class="point" transform="translate(794.88,188.4)" d="M2,0A2,2 0 1,1 0,-2A2,2 0 0,1 2,0Z" style="opacity: 1; stroke-width: 0px; fill: rgb(33, 150, 243); fill-opacity: 1;"/></g><g class="text"/></g><g class="trace scatter trace92efa6" style="stroke-miterlimit: 2; opacity: 1;"><g class="fills"/><g class="errorbars"/><g class="lines"><path class="js-line" d="M45.13,147.85L77.72,157.51L110.32,163.73L142.92,164.04L175.52,183.36L208.11,159.38L240.71,211.94L273.31,213.08L305.91,201.33L338.51,218.17L371.1,248.46L403.7,249.68L436.3,237.46L468.9,266.29L501.49,274.85L534.09,284.5L566.69,297.11L599.29,285.97L631.89,308.04L664.48,321.61L697.08,314.81L762.28,338.05L794.88,337.26" style="vector-effect: none; fill: none; stroke: rgb(76, 175, 80); stroke-opacity: 1; stroke-width: 2.5px; opacity: 1;"/></g><g class="points"><path class="point" transform="translate(45.13,147.85)" d="M2,0A2,2 0 1,1 0,-2A2,2 0 0,1 2,0Z" style="opacity: 1; stroke-width: 0px; fill: rgb(76, 175, 80); fill-opacity: 1;"/><path class="point" transform="translate(77.72,157.51)" d="M2,0A2,2 0 1,1 0,-2A2,2 0 0,1 2,0Z" style="opacity: 1; stroke-width: 0px; fill: rgb(76, 175, 80); fill-opacity: 1;"/><path class="point" transform="translate(110.32,163.73)" d="M2,0A2,2 0 1,1 0,-2A2,2 0 0,1 2,0Z" style="opacity: 1; stroke-width: 0px; fill: rgb(76, 175, 80); fill-opacity: 1;"/><path class="point" transform="translate(142.92,164.04)" d="M2,0A2,2 0 1,1 0,-2A2,2 0 0,1 2,0Z" style="opacity: 1; stroke-width: 0px; fill: rgb(76, 175, 80); fill-opacity: 1;"/><path class="point" transform="translate(175.52,183.36)" d="M2,0A2,2 0 1,1 0,-2A2,2 0 0,1 2,0Z" style="opacity: 1; stroke-width: 0px; fill: rgb(76, 175, 80); fill-opacity: 1;"/><path class="point" transform="translate(208.11,159.38)" d="M2,0A2,2 0 1,1 0,-2A2,2 0 0,1 2,0Z" style="opacity: 1; stroke-width: 0px; fill: rgb(76, 175, 80); fill-opacity: 1;"/><path class="point" transform="translate(240.71,211.94)" d="M2,0A2,2 0 1,1 0,-2A2,2 0 0,1 2,0Z" style="opacity: 1; stroke-width: 0px; fill: rgb(76, 175, 80); fill-opacity: 1;"/><path class="point" transform="translate(273.31,213.08)" d="M2,0A2,2 0 1,1 0,-2A2,2 0 0,1 2,0Z" style="opacity: 1; stroke-width: 0px; fill: rgb(76, 175, 80); fill-opacity: 1;"/><path class="point" transform="translate(305.91,201.33)" d="M2,0A2,2 0 1,1 0,-2A2,2 0 0,1 2,0Z" style="opacity: 1; stroke-width: 0px; fill: rgb(76, 175, 80); fill-opacity: 1;"/><path class="point" transform="translate(338.51,218.17)" d="M2,0A2,2 0 1,1 0,-2A2,2 0 0,1 2,0Z" style="opacity: 1; stroke-width: 0px; fill: rgb(76, 175, 80); fill-opacity: 1;"/><path class="point" transform="translate(371.1,248.46)" d="M2,0A2,2 0 1,1 0,-2A2,2 0 0,1 2,0Z" style="opacity: 1; stroke-width: 0px; fill: rgb(76, 175, 80); fill-opacity: 1;"/><path class="point" transform="translate(403.7,249.68)" d="M2,0A2,2 0 1,1 0,-2A2,2 0 0,1 2,0Z" style="opacity: 1; stroke-width: 0px; fill: rgb(76, 175, 80); fill-opacity: 1;"/><path class="point" transform="translate(436.3,237.46)" d="M2,0A2,2 0 1,1 0,-2A2,2 0 0,1 2,0Z" style="opacity: 1; stroke-width: 0px; fill: rgb(76, 175, 80); fill-opacity: 1;"/><path class="point" transform="translate(468.9,266.29)" d="M2,0A2,2 0 1,1 0,-2A2,2 0 0,1 2,0Z" style="opacity: 1; stroke-width: 0px; fill: rgb(76, 175, 80); fill-opacity: 1;"/><path class="point" transform="translate(501.49,274.85)" d="M2,0A2,2 0 1,1 0,-2A2,2 0 0,1 2,0Z" style="opacity: 1; stroke-width: 0px; fill: rgb(76, 175, 80); fill-opacity: 1;"/><path class="point" transform="translate(534.09,284.5)" d="M2,0A2,2 0 1,1 0,-2A2,2 0 0,1 2,0Z" style="opacity: 1; stroke-width: 0px; fill: rgb(76, 175, 80); fill-opacity: 1;"/><path class="point" transform="translate(566.69,297.11)" d="M2,0A2,2 0 1,1 0,-2A2,2 0 0,1 2,0Z" style="opacity: 1; stroke-width: 0px; fill: rgb(76, 175, 80); fill-opacity: 1;"/><path class="point" transform="translate(599.29,285.97)" d="M2,0A2,2 0 1,1 0,-2A2,2 0 0,1 2,0Z" style="opacity: 1; stroke-width: 0px; fill: rgb(76, 175, 80); fill-opacity: 1;"/><path class="point" transform="translate(631.89,308.04)" d="M2,0A2,2 0 1,1 0,-2A2,2 0 0,1 2,0Z" style="opacity: 1; stroke-width: 0px; fill: rgb(76, 175, 80); fill-opacity: 1;"/><path class="point" transform="translate(664.48,321.61)" d="M2,0A2,2 0 1,1 0,-2A2,2 0 0,1 2,0Z" style="opacity: 1; stroke-width: 0px; fill: rgb(76, 175, 80); fill-opacity: 1;"/><path class="point" transform="translate(697.08,314.81)" d="M2,0A2,2 0 1,1 0,-2A2,2 0 0,1 2,0Z" style="opacity: 1; stroke-width: 0px; fill: rgb(76, 175, 80); fill-opacity: 1;"/><path class="point" transform="translate(729.68,326.36)" d="M2,0A2,2 0 1,1 0,-2A2,2 0 0,1 2,0Z" style="opacity: 1; stroke-width: 0px; fill: rgb(76, 175, 80); fill-opacity: 1;"/><path class="point" transform="translate(762.28,338.05)" d="M2,0A2,2 0 1,1 0,-2A2,2 0 0,1 2,0Z" style="opacity: 1; stroke-width: 0px; fill: rgb(76, 175, 80); fill-opacity: 1;"/><path class="point" transform="translate(794.88,337.26)" d="M2,0A2,2 0 1,1 0,-2A2,2 0 0,1 2,0Z" style="opacity: 1; stroke-width: 0px; fill: rgb(76, 175, 80); fill-opacity: 1;"/></g><g class="text"/></g><g class="trace scatter trace0b7778" style="stroke-miterlimit: 2; opacity: 1;"><g class="fills"/><g class="errorbars"/><g class="lines"><path class="js-line" d="M45.13,111.38L77.72,139.18L110.32,99.42L142.92,98.86L175.52,81.04L208.11,103.83L240.71,177.78L273.31,128.05L305.91,138.95L338.51,71.85L371.1,211.46L403.7,146.82L436.3,93.03L468.9,238.2L501.49,190.2L534.09,158.04L566.69,174.64L599.29,218.8L631.89,206.97L664.48,239.55L697.08,153.8L729.68,258.53L762.28,254.21L794.88,246.52" style="vector-effect: none; fill: none; stroke: rgb(33, 33, 33); stroke-opacity: 1; stroke-dasharray: 9px, 9px; stroke-width: 3px; opacity: 1;"/></g><g class="points"><path class="point" transform="translate(45.13,111.38)" d="M2.5,0A2.5,2.5 0 1,1 0,-2.5A2.5,2.5 0 0,1 2.5,0Z" style="opacity: 1; stroke-width: 0px; fill: rgb(33, 33, 33); fill-opacity: 1;"/><path class="point" transform="translate(77.72,139.18)" d="M2.5,0A2.5,2.5 0 1,1 0,-2.5A2.5,2.5 0 0,1 2.5,0Z" style="opacity: 1; stroke-width: 0px; fill: rgb(33, 33, 33); fill-opacity: 1;"/><path class="point" transform="translate(110.32,99.42)" d="M2.5,0A2.5,2.5 0 1,1 0,-2.5A2.5,2.5 0 0,1 2.5,0Z" style="opacity: 1; stroke-width: 0px; fill: rgb(33, 33, 33); fill-opacity: 1;"/><path class="point" transform="translate(142.92,98.86)" d="M2.5,0A2.5,2.5 0 1,1 0,-2.5A2.5,2.5 0 0,1 2.5,0Z" style="opacity: 1; stroke-width: 0px; fill: rgb(33, 33, 33); fill-opacity: 1;"/><path class="point" transform="translate(175.52,81.04)" d="M2.5,0A2.5,2.5 0 1,1 0,-2.5A2.5,2.5 0 0,1 2.5,0Z" style="opacity: 1; stroke-width: 0px; fill: rgb(33, 33, 33); fill-opacity: 1;"/><path class="point" transform="translate(208.11,103.83)" d="M2.5,0A2.5,2.5 0 1,1 0,-2.5A2.5,2.5 0 0,1 2.5,0Z" style="opacity: 1; stroke-width: 0px; fill: rgb(33, 33, 33); fill-opacity: 1;"/><path class="point" transform="translate(240.71,177.78)" d="M2.5,0A2.5,2.5 0 1,1 0,-2.5A2.5,2.5 0 0,1 2.5,0Z" style="opacity: 1; stroke-width: 0px; fill: rgb(33, 33, 33); fill-opacity: 1;"/><path class="point" transform="translate(273.31,128.05)" d="M2.5,0A2.5,2.5 0 1,1 0,-2.5A2.5,2.5 0 0,1 2.5,0Z" style="opacity: 1; stroke-width: 0px; fill: rgb(33, 33, 33); fill-opacity: 1;"/><path class="point" transform="translate(305.91,138.95)" d="M2.5,0A2.5,2.5 0 1,1 0,-2.5A2.5,2.5 0 0,1 2.5,0Z" style="opacity: 1; stroke-width: 0px; fill: rgb(33, 33, 33); fill-opacity: 1;"/><path class="point" transform="translate(338.51,71.85)" d="M2.5,0A2.5,2.5 0 1,1 0,-2.5A2.5,2.5 0 0,1 2.5,0Z" style="opacity: 1; stroke-width: 0px; fill: rgb(33, 33, 33); fill-opacity: 1;"/><path class="point" transform="translate(371.1,211.46)" d="M2.5,0A2.5,2.5 0 1,1 0,-2.5A2.5,2.5 0 0,1 2.5,0Z" style="opacity: 1; stroke-width: 0px; fill: rgb(33, 33, 33); fill-opacity: 1;"/><path class="point" transform="translate(403.7,146.82)" d="M2.5,0A2.5,2.5 0 1,1 0,-2.5A2.5,2.5 0 0,1 2.5,0Z" style="opacity: 1; stroke-width: 0px; fill: rgb(33, 33, 33); fill-opacity: 1;"/><path class="point" transform="translate(436.3,93.03)" d="M2.5,0A2.5,2.5 0 1,1 0,-2.5A2.5,2.5 0 0,1 2.5,0Z" style="opacity: 1; stroke-width: 0px; fill: rgb(33, 33, 33); fill-opacity: 1;"/><path class="point" transform="translate(468.9,238.2)" d="M2.5,0A2.5,2.5 0 1,1 0,-2.5A2.5,2.5 0 0,1 2.5,0Z" style="opacity: 1; stroke-width: 0px; fill: rgb(33, 33, 33); fill-opacity: 1;"/><path class="point" transform="translate(501.49,190.2)" d="M2.5,0A2.5,2.5 0 1,1 0,-2.5A2.5,2.5 0 0,1 2.5,0Z" style="opacity: 1; stroke-width: 0px; fill: rgb(33, 33, 33); fill-opacity: 1;"/><path class="point" transform="translate(534.09,158.04)" d="M2.5,0A2.5,2.5 0 1,1 0,-2.5A2.5,2.5 0 0,1 2.5,0Z" style="opacity: 1; stroke-width: 0px; fill: rgb(33, 33, 33); fill-opacity: 1;"/><path class="point" transform="translate(566.69,174.64)" d="M2.5,0A2.5,2.5 0 1,1 0,-2.5A2.5,2.5 0 0,1 2.5,0Z" style="opacity: 1; stroke-width: 0px; fill: rgb(33, 33, 33); fill-opacity: 1;"/><path class="point" transform="translate(599.29,218.8)" d="M2.5,0A2.5,2.5 0 1,1 0,-2.5A2.5,2.5 0 0,1 2.5,0Z" style="opacity: 1; stroke-width: 0px; fill: rgb(33, 33, 33); fill-opacity: 1;"/><path class="point" transform="translate(631.89,206.97)" d="M2.5,0A2.5,2.5 0 1,1 0,-2.5A2.5,2.5 0 0,1 2.5,0Z" style="opacity: 1; stroke-width: 0px; fill: rgb(33, 33, 33); fill-opacity: 1;"/><path class="point" transform="translate(664.48,239.55)" d="M2.5,0A2.5,2.5 0 1,1 0,-2.5A2.5,2.5 0 0,1 2.5,0Z" style="opacity: 1; stroke-width: 0px; fill: rgb(33, 33, 33); fill-opacity: 1;"/><path class="point" transform="translate(697.08,153.8)" d="M2.5,0A2.5,2.5 0 1,1 0,-2.5A2.5,2.5 0 0,1 2.5,0Z" style="opacity: 1; stroke-width: 0px; fill: rgb(33, 33, 33); fill-opacity: 1;"/><path class="point" transform="translate(729.68,258.53)" d="M2.5,0A2.5,2.5 0 1,1 0,-2.5A2.5,2.5 0 0,1 2.5,0Z" style="opacity: 1; stroke-width: 0px; fill: rgb(33, 33, 33); fill-opacity: 1;"/><path class="point" transform="translate(762.28,254.21)" d="M2.5,0A2.5,2.5 0 1,1 0,-2.5A2.5,2.5 0 0,1 2.5,0Z" style="opacity: 1; stroke-width: 0px; fill: rgb(33, 33, 33); fill-opacity: 1;"/><path class="point" transform="translate(794.88,246.52)" d="M2.5,0A2.5,2.5 0 1,1 0,-2.5A2.5,2.5 0 0,1 2.5,0Z" style="opacity: 1; stroke-width: 0px; fill: rgb(33, 33, 33); fill-opacity: 1;"/></g><g class="text"/></g></g></g></g><g class="zerolinelayer-above"/><path class="xlines-above crisp" d="M0,0" style="fill: none;"/><path class="ylines-above crisp" d="M0,0" style="fill: none;"/><g class="overlines-above"/><g class="xaxislayer-above"><g class="xtick"><text text-anchor="middle" x="0" y="474" transform="translate(92.53,0)" style="font-family: 'Open Sans', verdana, arial, sans-serif; font-size: 14px; fill: rgb(42, 63, 95); fill-opacity: 1; white-space: pre;">2000</text></g><g class="xtick"><text text-anchor="middle" x="0" y="474" style="font-family: 'Open Sans', verdana, arial, sans-serif; font-size: 14px; fill: rgb(42, 63, 95); fill-opacity: 1; white-space: pre;" transform="translate(255.52,0)">2005</text></g><g class="xtick"><text text-anchor="middle" x="0" y="474" style="font-family: 'Open Sans', verdana, arial, sans-serif; font-size: 14px; fill: rgb(42, 63, 95); fill-opacity: 1; white-space: pre;" transform="translate(418.51,0)">2010</text></g><g class="xtick"><text text-anchor="middle" x="0" y="474" style="font-family: 'Open Sans', verdana, arial, sans-serif; font-size: 14px; fill: rgb(42, 63, 95); fill-opacity: 1; white-space: pre;" transform="translate(581.49,0)">2015</text></g><g class="xtick"><text text-anchor="middle" x="0" y="474" style="font-family: 'Open Sans', verdana, arial, sans-serif; font-size: 14px; fill: rgb(42, 63, 95); fill-opacity: 1; white-space: pre;" transform="translate(744.48,0)">2020</text></g><g class="xtick"><text text-anchor="middle" x="0" y="474" style="font-family: 'Open Sans', verdana, arial, sans-serif; font-size: 14px; fill: rgb(42, 63, 95); fill-opacity: 1; white-space: pre;" transform="translate(907.47,0)">2025</text></g></g><g class="yaxislayer-above"><g class="ytick"><text text-anchor="end" x="79" y="4.8999999999999995" transform="translate(0,456.27)" style="font-family: 'Open Sans', verdana, arial, sans-serif; font-size: 14px; fill: rgb(42, 63, 95); fill-opacity: 1; white-space: pre;">−60k</text></g><g class="ytick"><text text-anchor="end" x="79" y="4.8999999999999995" style="font-family: 'Open Sans', verdana, arial, sans-serif; font-size: 14px; fill: rgb(42, 63, 95); fill-opacity: 1; white-space: pre;" transform="translate(0,387.53)">−40k</text></g><g class="ytick"><text text-anchor="end" x="79" y="4.8999999999999995" style="font-family: 'Open Sans', verdana, arial, sans-serif; font-size: 14px; fill: rgb(42, 63, 95); fill-opacity: 1; white-space: pre;" transform="translate(0,318.78)">−20k</text></g><g class="ytick"><text text-anchor="end" x="79" y="4.8999999999999995" style="font-family: 'Open Sans', verdana, arial, sans-serif; font-size: 14px; fill: rgb(42, 63, 95); fill-opacity: 1; white-space: pre;" transform="translate(0,250.04)">0</text></g><g class="ytick"><text text-anchor="end" x="79" y="4.8999999999999995" style="font-family: 'Open Sans', verdana, arial, sans-serif; font-size: 14px; fill: rgb(42, 63, 95); fill-opacity: 1; white-space: pre;" transform="translate(0,181.3)">20k</text></g><g class="ytick"><text text-anchor="end" x="79" y="4.8999999999999995" style="font-family: 'Open Sans', verdana, arial, sans-serif; font-size: 14px; fill: rgb(42, 63, 95); fill-opacity: 1; white-space: pre;" transform="translate(0,112.56)">40k</text></g></g><g class="overaxes-above"/></g></g><g class="polarlayer"/><g class="smithlayer"/><g class="ternarylayer"/><g class="geolayer"/><g class="funnelarealayer"/><g class="pielayer"/><g class="iciclelayer"/><g class="treemaplayer"/><g class="sunburstlayer"/><g class="glimages"/><defs id="topdefs-47f7fd"><g class="clips"/><clipPath id="legend47f7fd"><rect width="559" height="32" x="0" y="0"/></clipPath></defs><g class="layer-above"><g class="imagelayer"/><g class="shapelayer"><g class="shape-group" data-index="0" clip-path="url(#clip47f7fdy)"><path data-index="0" fill-rule="evenodd" d="M80,250.04L920,250.04" style="opacity: 0.5; stroke: rgb(128, 128, 128); stroke-opacity: 1; fill: rgb(0, 0, 0); fill-opacity: 0; stroke-dasharray: 3px, 3px; stroke-width: 2px;"/></g></g></g><g class="infolayer"><g class="legend" pointer-events="all" transform="translate(220.5,505.98)"><rect class="bg" shape-rendering="crispEdges" style="stroke: rgb(68, 68, 68); stroke-opacity: 1; fill: rgb(255, 255, 255); fill-opacity: 1; stroke-width: 0px;" width="559" height="32" x="0" y="0"/><g class="scrollbox" transform="" clip-path="url(#legend47f7fd)"><g class="groups"><g class="traces" transform="translate(0,15.6)" style="opacity: 1;"><text class="legendtext" text-anchor="start" x="40" y="5.46" style="font-family: 'Open Sans', verdana, arial, sans-serif; font-size: 14px; fill: rgb(42, 63, 95); fill-opacity: 1; white-space: pre;">Population</text><g class="layers" style="opacity: 1;"><g class="legendfill"/><g class="legendlines"><path class="js-line" d="M5,0h30" style="fill: none; stroke: rgb(244, 67, 54); stroke-opacity: 1; stroke-width: 2.5px;"/></g><g class="legendsymbols"><g class="legendpoints"><path class="scatterpts" transform="translate(20,0)" d="M2,0A2,2 0 1,1 0,-2A2,2 0 0,1 2,0Z" style="opacity: 1; stroke-width: 0px; fill: rgb(244, 67, 54); fill-opacity: 1;"/></g></g></g><rect class="legendtoggle" x="0" y="-10.6" width="115.65625" height="21.2" style="fill: rgb(0, 0, 0); fill-opacity: 0;"/></g><g class="traces" transform="translate(118.15625,15.6)" style="opacity: 1;"><text class="legendtext" text-anchor="start" x="40" y="5.46" style="font-family: 'Open Sans', verdana, arial, sans-serif; font-size: 14px; fill: rgb(42, 63, 95); fill-opacity: 1; white-space: pre;">Weather (HDD)</text><g class="layers" style="opacity: 1;"><g class="legendfill"/><g class="legendlines"><path class="js-line" d="M5,0h30" style="fill: none; stroke: rgb(33, 150, 243); stroke-opacity: 1; stroke-width: 2.5px;"/></g><g class="legendsymbols"><g class="legendpoints"><path class="scatterpts" transform="translate(20,0)" d="M2,0A2,2 0 1,1 0,-2A2,2 0 0,1 2,0Z" style="opacity: 1; stroke-width: 0px; fill: rgb(33, 150, 243); fill-opacity: 1;"/></g></g></g><rect class="legendtoggle" x="0" y="-10.6" width="150.84375" height="21.2" style="fill: rgb(0, 0, 0); fill-opacity: 0;"/></g><g class="traces" transform="translate(271.5,15.6)" style="opacity: 1;"><text class="legendtext" text-anchor="start" x="40" y="5.46" style="font-family: 'Open Sans', verdana, arial, sans-serif; font-size: 14px; fill: rgb(42, 63, 95); fill-opacity: 1; white-space: pre;">Intensity (tech.)</text><g class="layers" style="opacity: 1;"><g class="legendfill"/><g class="legendlines"><path class="js-line" d="M5,0h30" style="fill: none; stroke: rgb(76, 175, 80); stroke-opacity: 1; stroke-width: 2.5px;"/></g><g class="legendsymbols"><g class="legendpoints"><path class="scatterpts" transform="translate(20,0)" d="M2,0A2,2 0 1,1 0,-2A2,2 0 0,1 2,0Z" style="opacity: 1; stroke-width: 0px; fill: rgb(76, 175, 80); fill-opacity: 1;"/></g></g></g><rect class="legendtoggle" x="0" y="-10.6" width="157.578125" height="21.2" style="fill: rgb(0, 0, 0); fill-opacity: 0;"/></g><g class="traces" transform="translate(431.578125,15.6)" style="opacity: 1;"><text class="legendtext" text-anchor="start" x="40" y="5.46" style="font-family: 'Open Sans', verdana, arial, sans-serif; font-size: 14px; fill: rgb(42, 63, 95); fill-opacity: 1; white-space: pre;">Net Change</text><g class="layers" style="opacity: 1;"><g class="legendfill"/><g class="legendlines"><path class="js-line" d="M5,0h30" style="fill: none; stroke: rgb(33, 33, 33); stroke-opacity: 1; stroke-dasharray: 9px, 9px; stroke-width: 3px;"/></g><g class="legendsymbols"><g class="legendpoints"><path class="scatterpts" transform="translate(20,0)" d="M2.5,0A2.5,2.5 0 1,1 0,-2.5A2.5,2.5 0 0,1 2.5,0Z" style="opacity: 1; stroke-width: 0px; fill: rgb(33, 33, 33); fill-opacity: 1;"/></g></g></g><rect class="legendtoggle" x="0" y="-10.6" width="124.71875" height="21.2" style="fill: rgb(0, 0, 0); fill-opacity: 0;"/></g></g></g><rect class="scrollbar" rx="20" ry="3" width="0" height="0" style="fill: rgb(128, 139, 164); fill-opacity: 1;" x="0" y="0"/></g><g class="g-gtitle"><text class="gtitle" x="50" y="50" text-anchor="start" dy="0em" style="opacity: 1; font-family: 'Open Sans', verdana, arial, sans-serif; font-size: 20px; fill: rgb(42, 63, 95); fill-opacity: 1; white-space: pre;">Cumulative LMDI-I Decomposition — Year-by-Year (TJ, base 2000)</text></g><g class="g-xtitle"><text class="xtitle" x="500" y="503.4" text-anchor="middle" style="opacity: 1; font-family: 'Open Sans', verdana, arial, sans-serif; font-size: 17px; fill: rgb(42, 63, 95); fill-opacity: 1; white-space: pre;">Year</text></g><g class="g-ytitle"><text class="ytitle" transform="rotate(-90,21.003124999999997,279.5)" x="21.003124999999997" y="279.5" text-anchor="middle" style="opacity: 1; font-family: 'Open Sans', verdana, arial, sans-serif; font-size: 17px; fill: rgb(42, 63, 95); fill-opacity: 1; white-space: pre;">Cumulative ΔE (TJ)</text></g></g></svg>