<svg class="main-svg" xmlns="http://www.w3.org/2000/svg" xmlns:xlink="http://www.w3.org/1999/xlink" width="1150" height="750" style="" viewBox="0 0 1150 750"><rect x="0" y="0" width="1150" height="750" style="fill: rgb(255, 255, 255); fill-opacity: 1;"/><defs id="defs-33b8fb"><g class="clips"><clipPath id="clip33b8fbxyplot" class="plotclip"><rect width="1030" height="498"/></clipPath><clipPath class="axesclip" id="clip33b8fbx"><rect x="80" y="0" width="1030" height="750"/></clipPath><clipPath class="axesclip" id="clip33b8fby"><rect x="0" y="90" width="1150" height="498"/></clipPath><clipPath class="axesclip" id="clip33b8fbxy"><rect x="80" y="90" width="1030" height="498"/></clipPath></g><g class="gradients"/><g class="patterns"/></defs><g class="bglayer"/><g class="layer-below"><g class="imagelayer"/><g class="shapelayer"/></g><g class="cartesianlayer"><g class="subplot xy"><g class="layer-subplot"><g class="shapelayer"/><g class="imagelayer"/></g><g class="minor-gridlayer"><g class="x"/><g class="y"/></g><g class="gridlayer"><g class="x"/><g class="y"><path class="ygrid crisp" transform="translate(0,531.95)" d="M80,0h1030" style="stroke: rgb(238, 238, 238); stroke-opacity: 1; stroke-width: 1px;"/><path class="ygrid crisp" transform="translate(0,468.22)" d="M80,0h1030" style="stroke: rgb(238, 238, 238); stroke-opacity: 1; stroke-width: 1px;"/><path class="ygrid crisp" transform="translate(0,404.49)" d="M80,0h1030" style="stroke: rgb(238, 238, 238); stroke-opacity: 1; stroke-width: 1px;"/><path class="ygrid crisp" transform="translate(0,340.76)" d="M80,0h1030" style="stroke: rgb(238, 238, 238); stroke-opacity: 1; stroke-width: 1px;"/><path class="ygrid crisp" transform="translate(0,213.29000000000002)" d="M80,0h1030" style="stroke: rgb(238, 238, 238); stroke-opacity: 1; stroke-width: 1px;"/><path class="ygrid crisp" transform="translate(0,149.56)" d="M80,0h1030" style="stroke: rgb(238, 238, 238); stroke-opacity: 1; stroke-width: 1px;"/></g></g><g class="zerolinelayer"><path class="yzl zl crisp" transform="translate(0,277.02)" d="M80,0h1030" style="stroke: rgb(68, 68, 68); stroke-opacity: 1; stroke-width: 1px;"/></g><g class="layer-between"><g class="shapelayer"/><g class="imagelayer"/></g><path class="xlines-below"/><path class="ylines-below"/><g class="overlines-below"/><g class="xaxislayer-below"/><g class="yaxislayer-below"/><g class="overaxes-below"/><g class="overplot"><g class="xy" transform="translate(80,90)" clip-path="url(#clip33b8fbxyplot)"><g class="barlayer mlayer"><g class="trace bars" style="opacity: 1;"><g class="points"><g class="point"><path d="M38.61,187.02V180.06H70.64V187.02Z" style="vector-effect: none; opacity: 1; stroke-width: 0px; fill: rgb(244, 67, 54); fill-opacity: 1;"/></g><g class="point"><path d="M78.64,187.02V178.62H110.67V187.02Z" style="vector-effect: none; opacity: 1; stroke-width: 0px; fill: rgb(244, 67, 54); fill-opacity: 1;"/></g><g class="point"><path d="M118.68,187.02V178.7H150.7V187.02Z" style="vector-effect: none; opacity: 1; stroke-width: 0px; fill: rgb(244, 67, 54); fill-opacity: 1;"/></g><g class="point"><path d="M158.71,187.02V179.05H190.74V187.02Z" style="vector-effect: none; opacity: 1; stroke-width: 0px; fill: rgb(244, 67, 54); fill-opacity: 1;"/></g><g class="point"><path d="M198.74,187.02V179.49H230.77V187.02Z" style="vector-effect: none; opacity: 1; stroke-width: 0px; fill: rgb(244, 67, 54); fill-opacity: 1;"/></g><g class="point"><path d="M238.78,187.02V179.67H270.8V187.02Z" style="vector-effect: none; opacity: 1; stroke-width: 0px; fill: rgb(244, 67, 54); fill-opacity: 1;"/></g><g class="point"><path d="M278.81,187.02V177.37H310.83V187.02Z" style="vector-effect: none; opacity: 1; stroke-width: 0px; fill: rgb(244, 67, 54); fill-opacity: 1;"/></g><g class="point"><path d="M318.84,187.02V173.57H350.87V187.02Z" style="vector-effect: none; opacity: 1; stroke-width: 0px; fill: rgb(244, 67, 54); fill-opacity: 1;"/></g><g class="point"><path d="M358.87,187.02V173.33H390.9V187.02Z" style="vector-effect: none; opacity: 1; stroke-width: 0px; fill: rgb(244, 67, 54); fill-opacity: 1;"/></g><g class="point"><path d="M398.91,187.02V168.47H430.93V187.02Z" style="vector-effect: none; opacity: 1; stroke-width: 0px; fill: rgb(244, 67, 54); fill-opacity: 1;"/></g><g class="point"><path d="M438.94,187.02V175.54H470.96V187.02Z" style="vector-effect: none; opacity: 1; stroke-width: 0px; fill: rgb(244, 67, 54); fill-opacity: 1;"/></g><g class="point"><path d="M478.97,187.02V176.37H511V187.02Z" style="vector-effect: none; opacity: 1; stroke-width: 0px; fill: rgb(244, 67, 54); fill-opacity: 1;"/></g><g class="point"><path d="M519,187.02V173.1H551.03V187.02Z" style="vector-effect: none; opacity: 1; stroke-width: 0px; fill: rgb(244, 67, 54); fill-opacity: 1;"/></g><g class="point"><path d="M559.04,187.02V174.69H591.06V187.02Z" style="vector-effect: none; opacity: 1; stroke-width: 0px; fill: rgb(244, 67, 54); fill-opacity: 1;"/></g><g class="point"><path d="M599.07,187.02V176.81H631.09V187.02Z" style="vector-effect: none; opacity: 1; stroke-width: 0px; fill: rgb(244, 67, 54); fill-opacity: 1;"/></g><g class="point"><path d="M639.1,187.02V175.76H671.13V187.02Z" style="vector-effect: none; opacity: 1; stroke-width: 0px; fill: rgb(244, 67, 54); fill-opacity: 1;"/></g><g class="point"><path d="M679.13,187.02V179.12H711.16V187.02Z" style="vector-effect: none; opacity: 1; stroke-width: 0px; fill: rgb(244, 67, 54); fill-opacity: 1;"/></g><g class="point"><path d="M719.17,187.02V180.09H751.19V187.02Z" style="vector-effect: none; opacity: 1; stroke-width: 0px; fill: rgb(244, 67, 54); fill-opacity: 1;"/></g><g class="point"><path d="M759.2,187.02V180.22H791.23V187.02Z" style="vector-effect: none; opacity: 1; stroke-width: 0px; fill: rgb(244, 67, 54); fill-opacity: 1;"/></g><g class="point"><path d="M799.23,187.02V180.11H831.26V187.02Z" style="vector-effect: none; opacity: 1; stroke-width: 0px; fill: rgb(244, 67, 54); fill-opacity: 1;"/></g><g class="point"><path d="M839.26,187.02V179.34H871.29V187.02Z" style="vector-effect: none; opacity: 1; stroke-width: 0px; fill: rgb(244, 67, 54); fill-opacity: 1;"/></g><g class="point"><path d="M879.3,187.02V178.67H911.32V187.02Z" style="vector-effect: none; opacity: 1; stroke-width: 0px; fill: rgb(244, 67, 54); fill-opacity: 1;"/></g><g class="point"><path d="M919.33,187.02V172.68H951.36V187.02Z" style="vector-effect: none; opacity: 1; stroke-width: 0px; fill: rgb(244, 67, 54); fill-opacity: 1;"/></g><g class="point"><path d="M959.36,187.02V178.36H991.39V187.02Z" style="vector-effect: none; opacity: 1; stroke-width: 0px; fill: rgb(244, 67, 54); fill-opacity: 1;"/></g></g></g><g class="trace bars" style="opacity: 1;"><g class="points"><g class="point"><path d="M38.61,180.06V176.75H70.64V180.06Z" style="vector-effect: none; opacity: 1; stroke-width: 0px; fill: rgb(255, 152, 0); fill-opacity: 1;"/></g><g class="point"><path d="M78.64,178.62V175.29H110.67V178.62Z" style="vector-effect: none; opacity: 1; stroke-width: 0px; fill: rgb(255, 152, 0); fill-opacity: 1;"/></g><g class="point"><path d="M118.68,178.7V175.33H150.7V178.7Z" style="vector-effect: none; opacity: 1; stroke-width: 0px; fill: rgb(255, 152, 0); fill-opacity: 1;"/></g><g class="point"><path d="M158.71,179.05V175.57H190.74V179.05Z" style="vector-effect: none; opacity: 1; stroke-width: 0px; fill: rgb(255, 152, 0); fill-opacity: 1;"/></g><g class="point"><path d="M198.74,179.49V175.95H230.77V179.49Z" style="vector-effect: none; opacity: 1; stroke-width: 0px; fill: rgb(255, 152, 0); fill-opacity: 1;"/></g><g class="point"><path d="M238.78,179.67V176.15H270.8V179.67Z" style="vector-effect: none; opacity: 1; stroke-width: 0px; fill: rgb(255, 152, 0); fill-opacity: 1;"/></g><g class="point"><path d="M278.81,177.37V174.12H310.83V177.37Z" style="vector-effect: none; opacity: 1; stroke-width: 0px; fill: rgb(255, 152, 0); fill-opacity: 1;"/></g><g class="point"><path d="M318.84,173.57V170.39H350.87V173.57Z" style="vector-effect: none; opacity: 1; stroke-width: 0px; fill: rgb(255, 152, 0); fill-opacity: 1;"/></g><g class="point"><path d="M358.87,173.33V170.04H390.9V173.33Z" style="vector-effect: none; opacity: 1; stroke-width: 0px; fill: rgb(255, 152, 0); fill-opacity: 1;"/></g><g class="point"><path d="M398.91,168.47V165.03H430.93V168.47Z" style="vector-effect: none; opacity: 1; stroke-width: 0px; fill: rgb(255, 152, 0); fill-opacity: 1;"/></g><g class="point"><path d="M438.94,175.54V172.31H470.96V175.54Z" style="vector-effect: none; opacity: 1; stroke-width: 0px; fill: rgb(255, 152, 0); fill-opacity: 1;"/></g><g class="point"><path d="M478.97,176.37V173.33H511V176.37Z" style="vector-effect: none; opacity: 1; stroke-width: 0px; fill: rgb(255, 152, 0); fill-opacity: 1;"/></g><g class="point"><path d="M0,0Z" style="vector-effect: none; opacity: 1; stroke-width: 0px; fill: rgb(255, 152, 0); fill-opacity: 1;"/></g><g class="point"><path d="M559.04,174.69V170.12H591.06V174.69Z" style="vector-effect: none; opacity: 1; stroke-width: 0px; fill: rgb(255, 152, 0); fill-opacity: 1;"/></g><g class="point"><path d="M599.07,176.81V172.64H631.09V176.81Z" style="vector-effect: none; opacity: 1; stroke-width: 0px; fill: rgb(255, 152, 0); fill-opacity: 1;"/></g><g class="point"><path d="M639.1,175.76V171.28H671.13V175.76Z" style="vector-effect: none; opacity: 1; stroke-width: 0px; fill: rgb(255, 152, 0); fill-opacity: 1;"/></g><g class="point"><path d="M679.13,179.12V174.59H711.16V179.12Z" style="vector-effect: none; opacity: 1; stroke-width: 0px; fill: rgb(255, 152, 0); fill-opacity: 1;"/></g><g class="point"><path d="M719.17,180.09V177.95H751.19V180.09Z" style="vector-effect: none; opacity: 1; stroke-width: 0px; fill: rgb(255, 152, 0); fill-opacity: 1;"/></g><g class="point"><path d="M759.2,180.22V174.04H791.23V180.22Z" style="vector-effect: none; opacity: 1; stroke-width: 0px; fill: rgb(255, 152, 0); fill-opacity: 1;"/></g><g class="point"><path d="M799.23,180.11V172.11H831.26V180.11Z" style="vector-effect: none; opacity: 1; stroke-width: 0px; fill: rgb(255, 152, 0); fill-opacity: 1;"/></g><g class="point"><path d="M839.26,179.34V173.08H871.29V179.34Z" style="vector-effect: none; opacity: 1; stroke-width: 0px; fill: rgb(255, 152, 0); fill-opacity: 1;"/></g><g class="point"><path d="M0,0Z" style="vector-effect: none; opacity: 1; stroke-width: 0px; fill: rgb(255, 152, 0); fill-opacity: 1;"/></g><g class="point"><path d="M0,0Z" style="vector-effect: none; opacity: 1; stroke-width: 0px; fill: rgb(255, 152, 0); fill-opacity: 1;"/></g><g class="point"><path d="M959.36,178.36V176.49H991.39V178.36Z" style="vector-effect: none; opacity: 1; stroke-width: 0px; fill: rgb(255, 152, 0); fill-opacity: 1;"/></g></g></g><g class="trace bars" style="opacity: 1;"><g class="points"><g class="point"><path d="M38.61,176.75V116.09H70.64V176.75Z" style="vector-effect: none; opacity: 1; stroke-width: 0px; fill: rgb(33, 150, 243); fill-opacity: 1;"/></g><g class="point"><path d="M78.64,187.02V229.06H110.67V187.02Z" style="vector-effect: none; opacity: 1; stroke-width: 0px; fill: rgb(33, 150, 243); fill-opacity: 1;"/></g><g class="point"><path d="M118.68,175.33V98.39H150.7V175.33Z" style="vector-effect: none; opacity: 1; stroke-width: 0px; fill: rgb(33, 150, 243); fill-opacity: 1;"/></g><g class="point"><path d="M158.71,187.02V193.4H190.74V187.02Z" style="vector-effect: none; opacity: 1; stroke-width: 0px; fill: rgb(33, 150, 243); fill-opacity: 1;"/></g><g class="point"><path d="M198.74,175.95V114.62H230.77V175.95Z" style="vector-effect: none; opacity: 1; stroke-width: 0px; fill: rgb(33, 150, 243); fill-opacity: 1;"/></g><g class="point"><path d="M238.78,187.02V281.1H270.8V187.02Z" style="vector-effect: none; opacity: 1; stroke-width: 0px; fill: rgb(33, 150, 243); fill-opacity: 1;"/></g><g class="point"><path d="M278.81,187.02V236.34H310.83V187.02Z" style="vector-effect: none; opacity: 1; stroke-width: 0px; fill: rgb(33, 150, 243); fill-opacity: 1;"/></g><g class="point"><path d="M318.84,170.39V89.52H350.87V170.39Z" style="vector-effect: none; opacity: 1; stroke-width: 0px; fill: rgb(33, 150, 243); fill-opacity: 1;"/></g><g class="point"><path d="M358.87,187.02V242.72H390.9V187.02Z" style="vector-effect: none; opacity: 1; stroke-width: 0px; fill: rgb(33, 150, 243); fill-opacity: 1;"/></g><g class="point"><path d="M398.91,165.03V27.92H430.93V165.03Z" style="vector-effect: none; opacity: 1; stroke-width: 0px; fill: rgb(33, 150, 243); fill-opacity: 1;"/></g><g class="point"><path d="M438.94,187.02V401.23H470.96V187.02Z" style="vector-effect: none; opacity: 1; stroke-width: 0px; fill: rgb(33, 150, 243); fill-opacity: 1;"/></g><g class="point"><path d="M478.97,173.33V61.86H511V173.33Z" style="vector-effect: none; opacity: 1; stroke-width: 0px; fill: rgb(33, 150, 243); fill-opacity: 1;"/></g><g class="point"><path d="M519,173.1V109.95H551.03V173.1Z" style="vector-effect: none; opacity: 1; stroke-width: 0px; fill: rgb(33, 150, 243); fill-opacity: 1;"/></g><g class="point"><path d="M559.04,187.02V415.09H591.06V187.02Z" style="vector-effect: none; opacity: 1; stroke-width: 0px; fill: rgb(33, 150, 243); fill-opacity: 1;"/></g><g class="point"><path d="M599.07,172.64V77.98H631.09V172.64Z" style="vector-effect: none; opacity: 1; stroke-width: 0px; fill: rgb(33, 150, 243); fill-opacity: 1;"/></g><g class="point"><path d="M639.1,171.28V105.01H671.13V171.28Z" style="vector-effect: none; opacity: 1; stroke-width: 0px; fill: rgb(33, 150, 243); fill-opacity: 1;"/></g><g class="point"><path d="M679.13,187.02V202.34H711.16V187.02Z" style="vector-effect: none; opacity: 1; stroke-width: 0px; fill: rgb(33, 150, 243); fill-opacity: 1;"/></g><g class="point"><path d="M719.17,187.02V296.49H751.19V187.02Z" style="vector-effect: none; opacity: 1; stroke-width: 0px; fill: rgb(33, 150, 243); fill-opacity: 1;"/></g><g class="point"><path d="M759.2,174.04V117.99H791.23V174.04Z" style="vector-effect: none; opacity: 1; stroke-width: 0px; fill: rgb(33, 150, 243); fill-opacity: 1;"/></g><g class="point"><path d="M799.23,187.02V229.19H831.26V187.02Z" style="vector-effect: none; opacity: 1; stroke-width: 0px; fill: rgb(33, 150, 243); fill-opacity: 1;"/></g><g class="point"><path d="M839.26,173.08V34.36H871.29V173.08Z" style="vector-effect: none; opacity: 1; stroke-width: 0px; fill: rgb(33, 150, 243); fill-opacity: 1;"/></g><g class="point"><path d="M879.3,187.02V368.17H911.32V187.02Z" style="vector-effect: none; opacity: 1; stroke-width: 0px; fill: rgb(33, 150, 243); fill-opacity: 1;"/></g><g class="point"><path d="M919.33,172.68V157.33H951.36V172.68Z" style="vector-effect: none; opacity: 1; stroke-width: 0px; fill: rgb(33, 150, 243); fill-opacity: 1;"/></g><g class="point"><path d="M959.36,176.49V172.36H991.39V176.49Z" style="vector-effect: none; opacity: 1; stroke-width: 0px; fill: rgb(33, 150, 243); fill-opacity: 1;"/></g></g></g><g class="trace bars" style="opacity: 1;"><g class="points"><g class="point"><path d="M38.61,116.09V115.34H70.64V116.09Z" style="vector-effect: none; opacity: 1; stroke-width: 0px; fill: rgb(76, 175, 80); fill-opacity: 1;"/></g><g class="point"><path d="M78.64,229.06V250.3H110.67V229.06Z" style="vector-effect: none; opacity: 1; stroke-width: 0px; fill: rgb(76, 175, 80); fill-opacity: 1;"/></g><g class="point"><path d="M118.68,187.02V201.93H150.7V187.02Z" style="vector-effect: none; opacity: 1; stroke-width: 0px; fill: rgb(76, 175, 80); fill-opacity: 1;"/></g><g class="point"><path d="M158.71,193.4V197.44H190.74V193.4Z" style="vector-effect: none; opacity: 1; stroke-width: 0px; fill: rgb(76, 175, 80); fill-opacity: 1;"/></g><g class="point"><path d="M198.74,187.02V226.39H230.77V187.02Z" style="vector-effect: none; opacity: 1; stroke-width: 0px; fill: rgb(76, 175, 80); fill-opacity: 1;"/></g><g class="point"><path d="M238.78,176.15V135.19H270.8V176.15Z" style="vector-effect: none; opacity: 1; stroke-width: 0px; fill: rgb(76, 175, 80); fill-opacity: 1;"/></g><g class="point"><path d="M278.81,236.34V337.05H310.83V236.34Z" style="vector-effect: none; opacity: 1; stroke-width: 0px; fill: rgb(76, 175, 80); fill-opacity: 1;"/></g><g class="point"><path d="M318.84,187.02V192.32H350.87V187.02Z" style="vector-effect: none; opacity: 1; stroke-width: 0px; fill: rgb(76, 175, 80); fill-opacity: 1;"/></g><g class="point"><path d="M358.87,170.04V151.55H390.9V170.04Z" style="vector-effect: none; opacity: 1; stroke-width: 0px; fill: rgb(76, 175, 80); fill-opacity: 1;"/></g><g class="point"><path d="M398.91,187.02V221.7H430.93V187.02Z" style="vector-effect: none; opacity: 1; stroke-width: 0px; fill: rgb(76, 175, 80); fill-opacity: 1;"/></g><g class="point"><path d="M438.94,401.23V460.62H470.96V401.23Z" style="vector-effect: none; opacity: 1; stroke-width: 0px; fill: rgb(76, 175, 80); fill-opacity: 1;"/></g><g class="point"><path d="M478.97,187.02V192.32H511V187.02Z" style="vector-effect: none; opacity: 1; stroke-width: 0px; fill: rgb(76, 175, 80); fill-opacity: 1;"/></g><g class="point"><path d="M519,109.95V87.29H551.03V109.95Z" style="vector-effect: none; opacity: 1; stroke-width: 0px; fill: rgb(76, 175, 80); fill-opacity: 1;"/></g><g class="point"><path d="M559.04,415.09V473.1H591.06V415.09Z" style="vector-effect: none; opacity: 1; stroke-width: 0px; fill: rgb(76, 175, 80); fill-opacity: 1;"/></g><g class="point"><path d="M599.07,187.02V207.07H631.09V187.02Z" style="vector-effect: none; opacity: 1; stroke-width: 0px; fill: rgb(76, 175, 80); fill-opacity: 1;"/></g><g class="point"><path d="M639.1,187.02V209.4H671.13V187.02Z" style="vector-effect: none; opacity: 1; stroke-width: 0px; fill: rgb(76, 175, 80); fill-opacity: 1;"/></g><g class="point"><path d="M679.13,202.34V230.25H711.16V202.34Z" style="vector-effect: none; opacity: 1; stroke-width: 0px; fill: rgb(76, 175, 80); fill-opacity: 1;"/></g><g class="point"><path d="M719.17,177.95V159.44H751.19V177.95Z" style="vector-effect: none; opacity: 1; stroke-width: 0px; fill: rgb(76, 175, 80); fill-opacity: 1;"/></g><g class="point"><path d="M759.2,187.02V234.12H791.23V187.02Z" style="vector-effect: none; opacity: 1; stroke-width: 0px; fill: rgb(76, 175, 80); fill-opacity: 1;"/></g><g class="point"><path d="M799.23,229.19V262.36H831.26V229.19Z" style="vector-effect: none; opacity: 1; stroke-width: 0px; fill: rgb(76, 175, 80); fill-opacity: 1;"/></g><g class="point"><path d="M839.26,34.36V28.03H871.29V34.36Z" style="vector-effect: none; opacity: 1; stroke-width: 0px; fill: rgb(76, 175, 80); fill-opacity: 1;"/></g><g class="point"><path d="M879.3,368.17V389.58H911.32V368.17Z" style="vector-effect: none; opacity: 1; stroke-width: 0px; fill: rgb(76, 175, 80); fill-opacity: 1;"/></g><g class="point"><path d="M919.33,187.02V208.7H951.36V187.02Z" style="vector-effect: none; opacity: 1; stroke-width: 0px; fill: rgb(76, 175, 80); fill-opacity: 1;"/></g><g class="point"><path d="M959.36,187.02V187.43H991.39V187.02Z" style="vector-effect: none; opacity: 1; stroke-width: 0px; fill: rgb(76, 175, 80); fill-opacity: 1;"/></g></g></g></g><g class="scatterlayer mlayer"><g class="trace scatter trace88ce2f" style="stroke-miterlimit: 2; opacity: 1;"><g class="fills"/><g class="errorbars"/><g class="lines"><path class="js-line" d="M54.63,115.34L94.66,238.56L134.69,113.29L174.72,185.99L214.76,153.99L254.79,229.27L294.82,324.15L334.85,94.81L374.89,207.24L414.92,62.6L454.95,445.9L494.98,67.15L535.02,87.29L575.05,456.2L615.08,98.02L655.11,127.39L695.15,217.81L735.18,268.9L775.21,165.08L815.24,247.44L855.28,28.03L895.31,381.22L935.34,179.01L975.38,172.76" style="vector-effect: none; fill: none; stroke: rgb(33, 33, 33); stroke-opacity: 1; stroke-dasharray: 9px, 9px; stroke-width: 2.5px; opacity: 1;"/></g><g class="points"><path class="point" transform="translate(54.63,115.34)" d="M2.5,0A2.5,2.5 0 1,1 0,-2.5A2.5,2.5 0 0,1 2.5,0Z" style="opacity: 1; stroke-width: 0px; fill: rgb(33, 33, 33); fill-opacity: 1;"/><path class="point" transform="translate(94.66,238.56)" d="M2.5,0A2.5,2.5 0 1,1 0,-2.5A2.5,2.5 0 0,1 2.5,0Z" style="opacity: 1; stroke-width: 0px; fill: rgb(33, 33, 33); fill-opacity: 1;"/><path class="point" transform="translate(134.69,113.29)" d="M2.5,0A2.5,2.5 0 1,1 0,-2.5A2.5,2.5 0 0,1 2.5,0Z" style="opacity: 1; stroke-width: 0px; fill: rgb(33, 33, 33); fill-opacity: 1;"/><path class="point" transform="translate(174.72,185.99)" d="M2.5,0A2.5,2.5 0 1,1 0,-2.5A2.5,2.5 0 0,1 2.5,0Z" style="opacity: 1; stroke-width: 0px; fill: rgb(33, 33, 33); fill-opacity: 1;"/><path class="point" transform="translate(214.76,153.99)" d="M2.5,0A2.5,2.5 0 1,1 0,-2.5A2.5,2.5 0 0,1 2.5,0Z" style="opacity: 1; stroke-width: 0px; fill: rgb(33, 33, 33); fill-opacity: 1;"/><path class="point" transform="translate(254.79,229.27)" d="M2.5,0A2.5,2.5 0 1,1 0,-2.5A2.5,2.5 0 0,1 2.5,0Z" style="opacity: 1; stroke-width: 0px; fill: rgb(33, 33, 33); fill-opacity: 1;"/><path class="point" transform="translate(294.82,324.15)" d="M2.5,0A2.5,2.5 0 1,1 0,-2.5A2.5,2.5 0 0,1 2.5,0Z" style="opacity: 1; stroke-width: 0px; fill: rgb(33, 33, 33); fill-opacity: 1;"/><path class="point" transform="translate(334.85,94.81)" d="M2.5,0A2.5,2.5 0 1,1 0,-2.5A2.5,2.5 0 0,1 2.5,0Z" style="opacity: 1; stroke-width: 0px; fill: rgb(33, 33, 33); fill-opacity: 1;"/><path class="point" transform="translate(374.89,207.24)" d="M2.5,0A2.5,2.5 0 1,1 0,-2.5A2.5,2.5 0 0,1 2.5,0Z" style="opacity: 1; stroke-width: 0px; fill: rgb(33, 33, 33); fill-opacity: 1;"/><path class="point" transform="translate(414.92,62.6)" d="M2.5,0A2.5,2.5 0 1,1 0,-2.5A2.5,2.5 0 0,1 2.5,0Z" style="opacity: 1; stroke-width: 0px; fill: rgb(33, 33, 33); fill-opacity: 1;"/><path class="point" transform="translate(454.95,445.9)" d="M2.5,0A2.5,2.5 0 1,1 0,-2.5A2.5,2.5 0 0,1 2.5,0Z" style="opacity: 1; stroke-width: 0px; fill: rgb(33, 33, 33); fill-opacity: 1;"/><path class="point" transform="translate(494.98,67.15)" d="M2.5,0A2.5,2.5 0 1,1 0,-2.5A2.5,2.5 0 0,1 2.5,0Z" style="opacity: 1; stroke-width: 0px; fill: rgb(33, 33, 33); fill-opacity: 1;"/><path class="point" transform="translate(535.02,87.29)" d="M2.5,0A2.5,2.5 0 1,1 0,-2.5A2.5,2.5 0 0,1 2.5,0Z" style="opacity: 1; stroke-width: 0px; fill: rgb(33, 33, 33); fill-opacity: 1;"/><path class="point" transform="translate(575.05,456.2)" d="M2.5,0A2.5,2.5 0 1,1 0,-2.5A2.5,2.5 0 0,1 2.5,0Z" style="opacity: 1; stroke-width: 0px; fill: rgb(33, 33, 33); fill-opacity: 1;"/><path class="point" transform="translate(615.08,98.02)" d="M2.5,0A2.5,2.5 0 1,1 0,-2.5A2.5,2.5 0 0,1 2.5,0Z" style="opacity: 1; stroke-width: 0px; fill: rgb(33, 33, 33); fill-opacity: 1;"/><path class="point" transform="translate(655.11,127.39)" d="M2.5,0A2.5,2.5 0 1,1 0,-2.5A2.5,2.5 0 0,1 2.5,0Z" style="opacity: 1; stroke-width: 0px; fill: rgb(33, 33, 33); fill-opacity: 1;"/><path class="point" transform="translate(695.15,217.81)" d="M2.5,0A2.5,2.5 0 1,1 0,-2.5A2.5,2.5 0 0,1 2.5,0Z" style="opacity: 1; stroke-width: 0px; fill: rgb(33, 33, 33); fill-opacity: 1;"/><path class="point" transform="translate(735.18,268.9)" d="M2.5,0A2.5,2.5 0 1,1 0,-2.5A2.5,2.5 0 0,1 2.5,0Z" style="opacity: 1; stroke-width: 0px; fill: rgb(33, 33, 33); fill-opacity: 1;"/><path class="point" transform="translate(775.21,165.08)" d="M2.5,0A2.5,2.5 0 1,1 0,-2.5A2.5,2.5 0 0,1 2.5,0Z" style="opacity: 1; stroke-width: 0px; fill: rgb(33, 33, 33); fill-opacity: 1;"/><path class="point" transform="translate(815.24,247.44)" d="M2.5,0A2.5,2.5 0 1,1 0,-2.5A2.5,2.5 0 0,1 2.5,0Z" style="opacity: 1; stroke-width: 0px; fill: rgb(33, 33, 33); fill-opacity: 1;"/><path class="point" transform="translate(855.28,28.03)" d="M2.5,0A2.5,2.5 0 1,1 0,-2.5A2.5,2.5 0 0,1 2.5,0Z" style="opacity: 1; stroke-width: 0px; fill: rgb(33, 33, 33); fill-opacity: 1;"/><path class="point" transform="translate(895.31,381.22)" d="M2.5,0A2.5,2.5 0 1,1 0,-2.5A2.5,2.5 0 0,1 2.5,0Z" style="opacity: 1; stroke-width: 0px; fill: rgb(33, 33, 33); fill-opacity: 1;"/><path class="point" transform="translate(935.34,179.01)" d="M2.5,0A2.5,2.5 0 1,1 0,-2.5A2.5,2.5 0 0,1 2.5,0Z" style="opacity: 1; stroke-width: 0px; fill: rgb(33, 33, 33); fill-opacity: 1;"/><path class="point" transform="translate(975.38,172.76)" d="M2.5,0A2.5,2.5 0 1,1 0,-2.5A2.5,2.5 0 0,1 2.5,0Z" style="opacity: 1; stroke-width: 0px; fill: rgb(33, 33, 33); fill-opacity: 1;"/></g><g class="text"/></g></g></g></g><g class="zerolinelayer-above"/><path class="xlines-above crisp" d="M0,0" style="fill: none;"/><path class="ylines-above crisp" d="M0,0" style="fill: none;"/><g class="overlines-above"/><g class="xaxislayer-above"><g class="xtick"><text text-anchor="middle" x="0" y="606" transform="translate(94.59,0)" style="font-family: Inter, Helvetica, Arial, sans-serif; font-size: 17px; fill: rgb(68, 68, 68); fill-opacity: 1; white-space: pre;">2000</text></g><g class="xtick"><text text-anchor="middle" x="0" y="606" style="font-family: Inter, Helvetica, Arial, sans-serif; font-size: 17px; fill: rgb(68, 68, 68); fill-opacity: 1; white-space: pre;" transform="translate(294.76,0)">2005</text></g><g class="xtick"><text text-anchor="middle" x="0" y="606" style="font-family: Inter, Helvetica, Arial, sans-serif; font-size: 17px; fill: rgb(68, 68, 68); fill-opacity: 1; white-space: pre;" transform="translate(494.92,0)">2010</text></g><g class="xtick"><text text-anchor="middle" x="0" y="606" style="font-family: Inter, Helvetica, Arial, sans-serif; font-size: 17px; fill: rgb(68, 68, 68); fill-opacity: 1; white-space: pre;" transform="translate(695.08,0)">2015</text></g><g class="xtick"><text text-anchor="middle" x="0" y="606" style="font-family: Inter, Helvetica, Arial, sans-serif; font-size: 17px; fill: rgb(68, 68, 68); fill-opacity: 1; white-space: pre;" transform="translate(895.24,0)">2020</text></g><g class="xtick"><text text-anchor="middle" x="0" y="606" style="font-family: Inter, Helvetica, Arial, sans-serif; font-size: 17px; fill: rgb(68, 68, 68); fill-opacity: 1; white-space: pre;" transform="translate(1095.4099999999999,0)">2025</text></g></g><g class="yaxislayer-above"><g class="ytick"><text text-anchor="end" x="79" y="5.949999999999999" transform="translate(0,531.95)" style="font-family: Inter, Helvetica, Arial, sans-serif; font-size: 17px; fill: rgb(68, 68, 68); fill-opacity: 1; white-space: pre;">−40k</text></g><g class="ytick"><text text-anchor="end" x="79" y="5.949999999999999" style="font-family: Inter, Helvetica, Arial, sans-serif; font-size: 17px; fill: rgb(68, 68, 68); fill-opacity: 1; white-space: pre;" transform="translate(0,468.22)">−30k</text></g><g class="ytick"><text text-anchor="end" x="79" y="5.949999999999999" style="font-family: Inter, Helvetica, Arial, sans-serif; font-size: 17px; fill: rgb(68, 68, 68); fill-opacity: 1; white-space: pre;" transform="translate(0,404.49)">−20k</text></g><g class="ytick"><text text-anchor="end" x="79" y="5.949999999999999" style="font-family: Inter, Helvetica, Arial, sans-serif; font-size: 17px; fill: rgb(68, 68, 68); fill-opacity: 1; white-space: pre;" transform="translate(0,340.76)">−10k</text></g><g class="ytick"><text text-anchor="end" x="79" y="5.949999999999999" style="font-family: Inter, Helvetica, Arial, sans-serif; font-size: 17px; fill: rgb(68, 68, 68); fill-opacity: 1; white-space: pre;" transform="translate(0,277.02)">0</text></g><g class="ytick"><text text-anchor="end" x="79" y="5.949999999999999" style="font-family: Inter, Helvetica, Arial, sans-serif; font-size: 17px; fill: rgb(68, 68, 68); fill-opacity: 1; white-space: pre;" transform="translate(0,213.29000000000002)">10k</text></g><g class="ytick"><text text-anchor="end" x="79" y="5.949999999999999" style="font-family: Inter, Helvetica, Arial, sans-serif; font-size: 17px; fill: rgb(68, 68, 68); fill-opacity: 1; white-space: pre;" transform="translate(0,149.56)">20k</text></g></g><g class="overaxes-above"/></g></g><g class="polarlayer"/><g class="smithlayer"/><g class="ternarylayer"/><g class="geolayer"/><g class="funnelarealayer"/><g class="pielayer"/><g class="iciclelayer"/><g class="treemaplayer"/><g class="sunburstlayer"/><g class="glimages"/><defs id="topdefs-33b8fb"><g class="clips"/><clipPath id="legend33b8fb"><rect width="572" height="34" x="0" y="0"/></clipPath></defs><g class="layer-above"><g class="imagelayer"/><g class="shapelayer"><g class="shape-group" data-index="0" clip-path="url(#clip33b8fby)"><path data-index="0" fill-rule="evenodd" d="M80,277.02L1110,277.02" style="opacity: 1; stroke: rgb(0, 0, 0); stroke-opacity: 1; fill: rgb(0, 0, 0); fill-opacity: 0; stroke-width: 1px;"/></g></g></g><g class="infolayer"><g class="legend" pointer-events="all" transform="translate(309,703.4)"><rect class="bg" shape-rendering="crispEdges" style="stroke: rgb(68, 68, 68); stroke-opacity: 1; fill: rgb(255, 255, 255); fill-opacity: 1; stroke-width: 0px;" width="572" height="34" x="0" y="0"/><g class="scrollbox" transform="" clip-path="url(#legend33b8fb)"><g class="groups"><g class="traces" transform="translate(0,16.9)" style="opacity: 1;"><text class="legendtext" text-anchor="start" x="40" y="6.24" style="font-family: Inter, Helvetica, Arial, sans-serif; font-size: 16px; fill: rgb(68, 68, 68); fill-opacity: 1; white-space: pre;">Population</text><g class="layers" style="opacity: 1;"><g class="legendfill"/><g class="legendlines"/><g class="legendsymbols"><g class="legendpoints"><path class="legendundefined" d="M6,6H-6V-6H6Z" transform="translate(20,0)" style="stroke-width: 0px; fill: rgb(244, 67, 54); fill-opacity: 1;"/></g></g></g><rect class="legendtoggle" x="0" y="-11.9" width="122.5" height="23.8" style="fill: rgb(0, 0, 0); fill-opacity: 0;"/></g><g class="traces" transform="translate(125,16.9)" style="opacity: 1;"><text class="legendtext" text-anchor="start" x="40" y="6.24" style="font-family: Inter, Helvetica, Arial, sans-serif; font-size: 16px; fill: rgb(68, 68, 68); fill-opacity: 1; white-space: pre;">Floor Area/cap</text><g class="layers" style="opacity: 1;"><g class="legendfill"/><g class="legendlines"/><g class="legendsymbols"><g class="legendpoints"><path class="legendundefined" d="M6,6H-6V-6H6Z" transform="translate(20,0)" style="stroke-width: 0px; fill: rgb(255, 152, 0); fill-opacity: 1;"/></g></g></g><rect class="legendtoggle" x="0" y="-11.9" width="154.640625" height="23.8" style="fill: rgb(0, 0, 0); fill-opacity: 0;"/></g><g class="traces" transform="translate(282.140625,16.9)" style="opacity: 1;"><text class="legendtext" text-anchor="start" x="40" y="6.24" style="font-family: Inter, Helvetica, Arial, sans-serif; font-size: 16px; fill: rgb(68, 68, 68); fill-opacity: 1; white-space: pre;">Weather</text><g class="layers" style="opacity: 1;"><g class="legendfill"/><g class="legendlines"/><g class="legendsymbols"><g class="legendpoints"><path class="legendundefined" d="M6,6H-6V-6H6Z" transform="translate(20,0)" style="stroke-width: 0px; fill: rgb(33, 150, 243); fill-opacity: 1;"/></g></g></g><rect class="legendtoggle" x="0" y="-11.9" width="105.96875" height="23.8" style="fill: rgb(0, 0, 0); fill-opacity: 0;"/></g><g class="traces" transform="translate(390.609375,16.9)" style="opacity: 1;"><text class="legendtext" text-anchor="start" x="40" y="6.24" style="font-family: Inter, Helvetica, Arial, sans-serif; font-size: 16px; fill: rgb(68, 68, 68); fill-opacity: 1; white-space: pre;">Intensity</text><g class="layers" style="opacity: 1;"><g class="legendfill"/><g class="legendlines"/><g class="legendsymbols"><g class="legendpoints"><path class="legendundefined" d="M6,6H-6V-6H6Z" transform="translate(20,0)" style="stroke-width: 0px; fill: rgb(76, 175, 80); fill-opacity: 1;"/></g></g></g><rect class="legendtoggle" x="0" y="-11.9" width="106.96875" height="23.8" style="fill: rgb(0, 0, 0); fill-opacity: 0;"/></g><g class="traces" transform="translate(500.078125,16.9)" style="opacity: 1;"><text class="legendtext" text-anchor="start" x="40" y="6.24" style="font-family: Inter, Helvetica, Arial, sans-serif; font-size: 16px; fill: rgb(68, 68, 68); fill-opacity: 1; white-space: pre;">Net</text><g class="layers" style="opacity: 1;"><g class="legendfill"/><g class="legendlines"><path class="js-line" d="M5,0h30" style="fill: none; stroke: rgb(33, 33, 33); stroke-opacity: 1; stroke-dasharray: 9px, 9px; stroke-width: 2.5px;"/></g><g class="legendsymbols"><g class="legendpoints"><path class="scatterpts" transform="translate(20,0)" d="M2.5,0A2.5,2.5 0 1,1 0,-2.5A2.5,2.5 0 0,1 2.5,0Z" style="opacity: 1; stroke-width: 0px; fill: rgb(33, 33, 33); fill-opacity: 1;"/></g></g></g><rect class="legendtoggle" x="0" y="-11.9" width="69.125" height="23.8" style="fill: rgb(0, 0, 0); fill-opacity: 0;"/></g></g></g><rect class="scrollbar" rx="20" ry="3" width="0" height="0" style="fill: rgb(128, 139, 164); fill-opacity: 1;" x="0" y="0"/></g><g class="g-gtitle"><text class="gtitle" x="575" y="45" text-anchor="middle" dy="0em" style="opacity: 1; font-family: Inter, Helvetica, Arial, sans-serif; font-size: 24px; fill: rgb(68, 68, 68); fill-opacity: 1; white-space: pre;">Annual LMDI-I 4-Factor Decomposition (TJ)</text></g><g class="g-xtitle"><text class="xtitle" x="595" y="658" text-anchor="middle" style="opacity: 1; font-family: Inter, Helvetica, Arial, sans-serif; font-size: 20px; fill: rgb(68, 68, 68); fill-opacity: 1; white-space: pre;">Year</text></g><g class="g-ytitle"><text class="ytitle" transform="rotate(-90,30,339)" x="30" y="339" text-anchor="middle" style="opacity: 1; font-family: Inter, Helvetica, Arial, sans-serif; font-size: 20px; fill: rgb(68, 68, 68); fill-opacity: 1; white-space: pre;">Annual ΔE (TJ)</text></g><g class="annotation" data-index="0" style="opacity: 1;"><g class="annotation-text-g" transform="rotate(0,595,754.3000000000001)"><g class="cursor-pointer" transform="translate(399,746)"><rect class="bg" x="0.5" y="0.5" width="392" height="15" style="stroke-width: 1px; stroke: rgb(0, 0, 0); stroke-opacity: 0; fill: rgb(0, 0, 0); fill-opacity: 0;"/><text class="annotation-text" text-anchor="middle" x="196.328125" y="12" style="font-family: Inter, Helvetica, Arial, sans-serif; font-size: 10px; fill: rgb(136, 136, 136); fill-opacity: 1; white-space: pre;">Note: Population and Floor Area effects are small relative to Weather and Intensity.</text></g></g></g></g></svg>