<svg class="main-svg" xmlns="http://www.w3.org/2000/svg" xmlns:xlink="http://www.w3.org/1999/xlink" width="1150" height="550" style="" viewBox="0 0 1150 550"><rect x="0" y="0" width="1150" height="550" style="fill: rgb(255, 255, 255); fill-opacity: 1;"/><defs id="defs-1e6f09"><g class="clips"><clipPath id="clip1e6f09xyplot" class="plotclip"><rect width="1060" height="365"/></clipPath><clipPath class="axesclip" id="clip1e6f09x"><rect x="60" y="0" width="1060" height="550"/></clipPath><clipPath class="axesclip" id="clip1e6f09y"><rect x="0" y="75" width="1150" height="365"/></clipPath><clipPath class="axesclip" id="clip1e6f09xy"><rect x="60" y="75" width="1060" height="365"/></clipPath></g><g class="gradients"/><g class="patterns"/></defs><g class="bglayer"/><g class="layer-below"><g class="imagelayer"/><g class="shapelayer"/></g><g class="cartesianlayer"><g class="subplot xy"><g class="layer-subplot"><g class="shapelayer"/><g class="imagelayer"/></g><g class="minor-gridlayer"><g class="x"/><g class="y"/></g><g class="gridlayer"><g class="x"/><g class="y"><path class="ygrid crisp" transform="translate(0,398.98)" d="M60,0h1060" style="stroke: rgb(238, 238, 238); stroke-opacity: 1; stroke-width: 1px;"/><path class="ygrid crisp" transform="translate(0,352.39)" d="M60,0h1060" style="stroke: rgb(238, 238, 238); stroke-opacity: 1; stroke-width: 1px;"/><path class="ygrid crisp" transform="translate(0,305.78999999999996)" d="M60,0h1060" style="stroke: rgb(238, 238, 238); stroke-opacity: 1; stroke-width: 1px;"/><path class="ygrid crisp" transform="translate(0,259.2)" d="M60,0h1060" style="stroke: rgb(238, 238, 238); stroke-opacity: 1; stroke-width: 1px;"/><path class="ygrid crisp" transform="translate(0,166.01999999999998)" d="M60,0h1060" style="stroke: rgb(238, 238, 238); stroke-opacity: 1; stroke-width: 1px;"/><path class="ygrid crisp" transform="translate(0,119.43)" d="M60,0h1060" style="stroke: rgb(238, 238, 238); stroke-opacity: 1; stroke-width: 1px;"/></g></g><g class="zerolinelayer"><path class="yzl zl crisp" transform="translate(0,212.61)" d="M60,0h1060" style="stroke: rgb(68, 68, 68); stroke-opacity: 1; stroke-width: 1px;"/></g><g class="layer-between"><g class="shapelayer"/><g class="imagelayer"/></g><path class="xlines-below"/><path class="ylines-below"/><g class="overlines-below"/><g class="xaxislayer-below"/><g class="yaxislayer-below"/><g class="overaxes-below"/><g class="overplot"><g class="xy" transform="translate(60,75)" clip-path="url(#clip1e6f09xyplot)"><g class="barlayer mlayer"><g class="trace bars" style="opacity: 1;"><g class="points"><g class="point"><path d="M39.64,137.61V132.52H72.61V137.61Z" style="vector-effect: none; opacity: 1; stroke-width: 0px; fill: rgb(244, 67, 54); fill-opacity: 1;"/></g><g class="point"><path d="M80.85,137.61V131.47H113.81V137.61Z" style="vector-effect: none; opacity: 1; stroke-width: 0px; fill: rgb(244, 67, 54); fill-opacity: 1;"/></g><g class="point"><path d="M122.06,137.61V131.53H155.02V137.61Z" style="vector-effect: none; opacity: 1; stroke-width: 0px; fill: rgb(244, 67, 54); fill-opacity: 1;"/></g><g class="point"><path d="M163.26,137.61V131.79H196.23V137.61Z" style="vector-effect: none; opacity: 1; stroke-width: 0px; fill: rgb(244, 67, 54); fill-opacity: 1;"/></g><g class="point"><path d="M204.47,137.61V132.1H237.43V137.61Z" style="vector-effect: none; opacity: 1; stroke-width: 0px; fill: rgb(244, 67, 54); fill-opacity: 1;"/></g><g class="point"><path d="M245.67,137.61V132.24H278.64V137.61Z" style="vector-effect: none; opacity: 1; stroke-width: 0px; fill: rgb(244, 67, 54); fill-opacity: 1;"/></g><g class="point"><path d="M286.88,137.61V130.55H319.85V137.61Z" style="vector-effect: none; opacity: 1; stroke-width: 0px; fill: rgb(244, 67, 54); fill-opacity: 1;"/></g><g class="point"><path d="M328.09,137.61V127.78H361.05V137.61Z" style="vector-effect: none; opacity: 1; stroke-width: 0px; fill: rgb(244, 67, 54); fill-opacity: 1;"/></g><g class="point"><path d="M369.29,137.61V127.6H402.26V137.61Z" style="vector-effect: none; opacity: 1; stroke-width: 0px; fill: rgb(244, 67, 54); fill-opacity: 1;"/></g><g class="point"><path d="M410.5,137.61V124.05H443.47V137.61Z" style="vector-effect: none; opacity: 1; stroke-width: 0px; fill: rgb(244, 67, 54); fill-opacity: 1;"/></g><g class="point"><path d="M451.71,137.61V129.21H484.67V137.61Z" style="vector-effect: none; opacity: 1; stroke-width: 0px; fill: rgb(244, 67, 54); fill-opacity: 1;"/></g><g class="point"><path d="M492.91,137.61V129.82H525.88V137.61Z" style="vector-effect: none; opacity: 1; stroke-width: 0px; fill: rgb(244, 67, 54); fill-opacity: 1;"/></g><g class="point"><path d="M534.12,137.61V127.43H567.09V137.61Z" style="vector-effect: none; opacity: 1; stroke-width: 0px; fill: rgb(244, 67, 54); fill-opacity: 1;"/></g><g class="point"><path d="M575.33,137.61V128.6H608.29V137.61Z" style="vector-effect: none; opacity: 1; stroke-width: 0px; fill: rgb(244, 67, 54); fill-opacity: 1;"/></g><g class="point"><path d="M616.53,137.61V130.15H649.5V137.61Z" style="vector-effect: none; opacity: 1; stroke-width: 0px; fill: rgb(244, 67, 54); fill-opacity: 1;"/></g><g class="point"><path d="M657.74,137.61V129.38H690.71V137.61Z" style="vector-effect: none; opacity: 1; stroke-width: 0px; fill: rgb(244, 67, 54); fill-opacity: 1;"/></g><g class="point"><path d="M698.95,137.61V131.83H731.91V137.61Z" style="vector-effect: none; opacity: 1; stroke-width: 0px; fill: rgb(244, 67, 54); fill-opacity: 1;"/></g><g class="point"><path d="M740.15,137.61V132.54H773.12V137.61Z" style="vector-effect: none; opacity: 1; stroke-width: 0px; fill: rgb(244, 67, 54); fill-opacity: 1;"/></g><g class="point"><path d="M781.36,137.61V132.64H814.32V137.61Z" style="vector-effect: none; opacity: 1; stroke-width: 0px; fill: rgb(244, 67, 54); fill-opacity: 1;"/></g><g class="point"><path d="M822.57,137.61V132.56H855.53V137.61Z" style="vector-effect: none; opacity: 1; stroke-width: 0px; fill: rgb(244, 67, 54); fill-opacity: 1;"/></g><g class="point"><path d="M863.77,137.61V132H896.74V137.61Z" style="vector-effect: none; opacity: 1; stroke-width: 0px; fill: rgb(244, 67, 54); fill-opacity: 1;"/></g><g class="point"><path d="M904.98,137.61V131.5H937.94V137.61Z" style="vector-effect: none; opacity: 1; stroke-width: 0px; fill: rgb(244, 67, 54); fill-opacity: 1;"/></g><g class="point"><path d="M946.19,137.61V127.13H979.15V137.61Z" style="vector-effect: none; opacity: 1; stroke-width: 0px; fill: rgb(244, 67, 54); fill-opacity: 1;"/></g><g class="point"><path d="M987.39,137.61V131.28H1020.36V137.61Z" style="vector-effect: none; opacity: 1; stroke-width: 0px; fill: rgb(244, 67, 54); fill-opacity: 1;"/></g></g></g><g class="trace bars" style="opacity: 1;"><g class="points"><g class="point"><path d="M39.64,132.52V130.1H72.61V132.52Z" style="vector-effect: none; opacity: 1; stroke-width: 0px; fill: rgb(255, 152, 0); fill-opacity: 1;"/></g><g class="point"><path d="M80.85,131.47V129.03H113.81V131.47Z" style="vector-effect: none; opacity: 1; stroke-width: 0px; fill: rgb(255, 152, 0); fill-opacity: 1;"/></g><g class="point"><path d="M122.06,131.53V129.07H155.02V131.53Z" style="vector-effect: none; opacity: 1; stroke-width: 0px; fill: rgb(255, 152, 0); fill-opacity: 1;"/></g><g class="point"><path d="M163.26,131.79V129.24H196.23V131.79Z" style="vector-effect: none; opacity: 1; stroke-width: 0px; fill: rgb(255, 152, 0); fill-opacity: 1;"/></g><g class="point"><path d="M204.47,132.1V129.52H237.43V132.1Z" style="vector-effect: none; opacity: 1; stroke-width: 0px; fill: rgb(255, 152, 0); fill-opacity: 1;"/></g><g class="point"><path d="M245.67,132.24V129.66H278.64V132.24Z" style="vector-effect: none; opacity: 1; stroke-width: 0px; fill: rgb(255, 152, 0); fill-opacity: 1;"/></g><g class="point"><path d="M286.88,130.55V128.18H319.85V130.55Z" style="vector-effect: none; opacity: 1; stroke-width: 0px; fill: rgb(255, 152, 0); fill-opacity: 1;"/></g><g class="point"><path d="M328.09,127.78V125.45H361.05V127.78Z" style="vector-effect: none; opacity: 1; stroke-width: 0px; fill: rgb(255, 152, 0); fill-opacity: 1;"/></g><g class="point"><path d="M369.29,127.6V125.2H402.26V127.6Z" style="vector-effect: none; opacity: 1; stroke-width: 0px; fill: rgb(255, 152, 0); fill-opacity: 1;"/></g><g class="point"><path d="M410.5,124.05V121.53H443.47V124.05Z" style="vector-effect: none; opacity: 1; stroke-width: 0px; fill: rgb(255, 152, 0); fill-opacity: 1;"/></g><g class="point"><path d="M451.71,129.21V126.85H484.67V129.21Z" style="vector-effect: none; opacity: 1; stroke-width: 0px; fill: rgb(255, 152, 0); fill-opacity: 1;"/></g><g class="point"><path d="M492.91,129.82V127.6H525.88V129.82Z" style="vector-effect: none; opacity: 1; stroke-width: 0px; fill: rgb(255, 152, 0); fill-opacity: 1;"/></g><g class="point"><path d="M0,0Z" style="vector-effect: none; opacity: 1; stroke-width: 0px; fill: rgb(255, 152, 0); fill-opacity: 1;"/></g><g class="point"><path d="M575.33,128.6V125.26H608.29V128.6Z" style="vector-effect: none; opacity: 1; stroke-width: 0px; fill: rgb(255, 152, 0); fill-opacity: 1;"/></g><g class="point"><path d="M616.53,130.15V127.1H649.5V130.15Z" style="vector-effect: none; opacity: 1; stroke-width: 0px; fill: rgb(255, 152, 0); fill-opacity: 1;"/></g><g class="point"><path d="M657.74,129.38V126.1H690.71V129.38Z" style="vector-effect: none; opacity: 1; stroke-width: 0px; fill: rgb(255, 152, 0); fill-opacity: 1;"/></g><g class="point"><path d="M698.95,131.83V128.52H731.91V131.83Z" style="vector-effect: none; opacity: 1; stroke-width: 0px; fill: rgb(255, 152, 0); fill-opacity: 1;"/></g><g class="point"><path d="M740.15,132.54V130.98H773.12V132.54Z" style="vector-effect: none; opacity: 1; stroke-width: 0px; fill: rgb(255, 152, 0); fill-opacity: 1;"/></g><g class="point"><path d="M781.36,132.64V128.12H814.32V132.64Z" style="vector-effect: none; opacity: 1; stroke-width: 0px; fill: rgb(255, 152, 0); fill-opacity: 1;"/></g><g class="point"><path d="M822.57,132.56V126.71H855.53V132.56Z" style="vector-effect: none; opacity: 1; stroke-width: 0px; fill: rgb(255, 152, 0); fill-opacity: 1;"/></g><g class="point"><path d="M863.77,132V127.42H896.74V132Z" style="vector-effect: none; opacity: 1; stroke-width: 0px; fill: rgb(255, 152, 0); fill-opacity: 1;"/></g><g class="point"><path d="M0,0Z" style="vector-effect: none; opacity: 1; stroke-width: 0px; fill: rgb(255, 152, 0); fill-opacity: 1;"/></g><g class="point"><path d="M0,0Z" style="vector-effect: none; opacity: 1; stroke-width: 0px; fill: rgb(255, 152, 0); fill-opacity: 1;"/></g><g class="point"><path d="M987.39,131.28V129.91H1020.36V131.28Z" style="vector-effect: none; opacity: 1; stroke-width: 0px; fill: rgb(255, 152, 0); fill-opacity: 1;"/></g></g></g><g class="trace bars" style="opacity: 1;"><g class="points"><g class="point"><path d="M39.64,130.1V85.76H72.61V130.1Z" style="vector-effect: none; opacity: 1; stroke-width: 0px; fill: rgb(33, 150, 243); fill-opacity: 1;"/></g><g class="point"><path d="M80.85,137.61V168.34H113.81V137.61Z" style="vector-effect: none; opacity: 1; stroke-width: 0px; fill: rgb(33, 150, 243); fill-opacity: 1;"/></g><g class="point"><path d="M122.06,129.07V72.81H155.02V129.07Z" style="vector-effect: none; opacity: 1; stroke-width: 0px; fill: rgb(33, 150, 243); fill-opacity: 1;"/></g><g class="point"><path d="M163.26,137.61V142.27H196.23V137.61Z" style="vector-effect: none; opacity: 1; stroke-width: 0px; fill: rgb(33, 150, 243); fill-opacity: 1;"/></g><g class="point"><path d="M204.47,129.52V84.68H237.43V129.52Z" style="vector-effect: none; opacity: 1; stroke-width: 0px; fill: rgb(33, 150, 243); fill-opacity: 1;"/></g><g class="point"><path d="M245.67,137.61V206.39H278.64V137.61Z" style="vector-effect: none; opacity: 1; stroke-width: 0px; fill: rgb(33, 150, 243); fill-opacity: 1;"/></g><g class="point"><path d="M286.88,137.61V173.66H319.85V137.61Z" style="vector-effect: none; opacity: 1; stroke-width: 0px; fill: rgb(33, 150, 243); fill-opacity: 1;"/></g><g class="point"><path d="M328.09,125.45V66.33H361.05V125.45Z" style="vector-effect: none; opacity: 1; stroke-width: 0px; fill: rgb(33, 150, 243); fill-opacity: 1;"/></g><g class="point"><path d="M369.29,137.61V178.33H402.26V137.61Z" style="vector-effect: none; opacity: 1; stroke-width: 0px; fill: rgb(33, 150, 243); fill-opacity: 1;"/></g><g class="point"><path d="M410.5,121.53V21.3H443.47V121.53Z" style="vector-effect: none; opacity: 1; stroke-width: 0px; fill: rgb(33, 150, 243); fill-opacity: 1;"/></g><g class="point"><path d="M451.71,137.61V294.21H484.67V137.61Z" style="vector-effect: none; opacity: 1; stroke-width: 0px; fill: rgb(33, 150, 243); fill-opacity: 1;"/></g><g class="point"><path d="M492.91,127.6V46.11H525.88V127.6Z" style="vector-effect: none; opacity: 1; stroke-width: 0px; fill: rgb(33, 150, 243); fill-opacity: 1;"/></g><g class="point"><path d="M534.12,127.43V81.26H567.09V127.43Z" style="vector-effect: none; opacity: 1; stroke-width: 0px; fill: rgb(33, 150, 243); fill-opacity: 1;"/></g><g class="point"><path d="M575.33,137.61V304.34H608.29V137.61Z" style="vector-effect: none; opacity: 1; stroke-width: 0px; fill: rgb(33, 150, 243); fill-opacity: 1;"/></g><g class="point"><path d="M616.53,127.1V57.89H649.5V127.1Z" style="vector-effect: none; opacity: 1; stroke-width: 0px; fill: rgb(33, 150, 243); fill-opacity: 1;"/></g><g class="point"><path d="M657.74,126.1V77.66H690.71V126.1Z" style="vector-effect: none; opacity: 1; stroke-width: 0px; fill: rgb(33, 150, 243); fill-opacity: 1;"/></g><g class="point"><path d="M698.95,137.61V148.81H731.91V137.61Z" style="vector-effect: none; opacity: 1; stroke-width: 0px; fill: rgb(33, 150, 243); fill-opacity: 1;"/></g><g class="point"><path d="M740.15,137.61V217.64H773.12V137.61Z" style="vector-effect: none; opacity: 1; stroke-width: 0px; fill: rgb(33, 150, 243); fill-opacity: 1;"/></g><g class="point"><path d="M781.36,128.12V87.14H814.32V128.12Z" style="vector-effect: none; opacity: 1; stroke-width: 0px; fill: rgb(33, 150, 243); fill-opacity: 1;"/></g><g class="point"><path d="M822.57,137.61V168.44H855.53V137.61Z" style="vector-effect: none; opacity: 1; stroke-width: 0px; fill: rgb(33, 150, 243); fill-opacity: 1;"/></g><g class="point"><path d="M863.77,127.42V26.01H896.74V127.42Z" style="vector-effect: none; opacity: 1; stroke-width: 0px; fill: rgb(33, 150, 243); fill-opacity: 1;"/></g><g class="point"><path d="M904.98,137.61V270.04H937.94V137.61Z" style="vector-effect: none; opacity: 1; stroke-width: 0px; fill: rgb(33, 150, 243); fill-opacity: 1;"/></g><g class="point"><path d="M946.19,127.13V115.91H979.15V127.13Z" style="vector-effect: none; opacity: 1; stroke-width: 0px; fill: rgb(33, 150, 243); fill-opacity: 1;"/></g><g class="point"><path d="M987.39,129.91V126.89H1020.36V129.91Z" style="vector-effect: none; opacity: 1; stroke-width: 0px; fill: rgb(33, 150, 243); fill-opacity: 1;"/></g></g></g><g class="trace bars" style="opacity: 1;"><g class="points"><g class="point"><path d="M39.64,85.76V85.21H72.61V85.76Z" style="vector-effect: none; opacity: 1; stroke-width: 0px; fill: rgb(76, 175, 80); fill-opacity: 1;"/></g><g class="point"><path d="M80.85,168.34V183.87H113.81V168.34Z" style="vector-effect: none; opacity: 1; stroke-width: 0px; fill: rgb(76, 175, 80); fill-opacity: 1;"/></g><g class="point"><path d="M122.06,137.61V148.51H155.02V137.61Z" style="vector-effect: none; opacity: 1; stroke-width: 0px; fill: rgb(76, 175, 80); fill-opacity: 1;"/></g><g class="point"><path d="M163.26,142.27V145.23H196.23V142.27Z" style="vector-effect: none; opacity: 1; stroke-width: 0px; fill: rgb(76, 175, 80); fill-opacity: 1;"/></g><g class="point"><path d="M204.47,137.61V166.39H237.43V137.61Z" style="vector-effect: none; opacity: 1; stroke-width: 0px; fill: rgb(76, 175, 80); fill-opacity: 1;"/></g><g class="point"><path d="M245.67,129.66V99.72H278.64V129.66Z" style="vector-effect: none; opacity: 1; stroke-width: 0px; fill: rgb(76, 175, 80); fill-opacity: 1;"/></g><g class="point"><path d="M286.88,173.66V247.29H319.85V173.66Z" style="vector-effect: none; opacity: 1; stroke-width: 0px; fill: rgb(76, 175, 80); fill-opacity: 1;"/></g><g class="point"><path d="M328.09,137.61V141.48H361.05V137.61Z" style="vector-effect: none; opacity: 1; stroke-width: 0px; fill: rgb(76, 175, 80); fill-opacity: 1;"/></g><g class="point"><path d="M369.29,125.2V111.68H402.26V125.2Z" style="vector-effect: none; opacity: 1; stroke-width: 0px; fill: rgb(76, 175, 80); fill-opacity: 1;"/></g><g class="point"><path d="M410.5,137.61V162.96H443.47V137.61Z" style="vector-effect: none; opacity: 1; stroke-width: 0px; fill: rgb(76, 175, 80); fill-opacity: 1;"/></g><g class="point"><path d="M451.71,294.21V337.63H484.67V294.21Z" style="vector-effect: none; opacity: 1; stroke-width: 0px; fill: rgb(76, 175, 80); fill-opacity: 1;"/></g><g class="point"><path d="M492.91,137.61V141.48H525.88V137.61Z" style="vector-effect: none; opacity: 1; stroke-width: 0px; fill: rgb(76, 175, 80); fill-opacity: 1;"/></g><g class="point"><path d="M534.12,81.26V64.7H567.09V81.26Z" style="vector-effect: none; opacity: 1; stroke-width: 0px; fill: rgb(76, 175, 80); fill-opacity: 1;"/></g><g class="point"><path d="M575.33,304.34V346.75H608.29V304.34Z" style="vector-effect: none; opacity: 1; stroke-width: 0px; fill: rgb(76, 175, 80); fill-opacity: 1;"/></g><g class="point"><path d="M616.53,137.61V152.27H649.5V137.61Z" style="vector-effect: none; opacity: 1; stroke-width: 0px; fill: rgb(76, 175, 80); fill-opacity: 1;"/></g><g class="point"><path d="M657.74,137.61V153.97H690.71V137.61Z" style="vector-effect: none; opacity: 1; stroke-width: 0px; fill: rgb(76, 175, 80); fill-opacity: 1;"/></g><g class="point"><path d="M698.95,148.81V169.21H731.91V148.81Z" style="vector-effect: none; opacity: 1; stroke-width: 0px; fill: rgb(76, 175, 80); fill-opacity: 1;"/></g><g class="point"><path d="M740.15,130.98V117.44H773.12V130.98Z" style="vector-effect: none; opacity: 1; stroke-width: 0px; fill: rgb(76, 175, 80); fill-opacity: 1;"/></g><g class="point"><path d="M781.36,137.61V172.04H814.32V137.61Z" style="vector-effect: none; opacity: 1; stroke-width: 0px; fill: rgb(76, 175, 80); fill-opacity: 1;"/></g><g class="point"><path d="M822.57,168.44V192.69H855.53V168.44Z" style="vector-effect: none; opacity: 1; stroke-width: 0px; fill: rgb(76, 175, 80); fill-opacity: 1;"/></g><g class="point"><path d="M863.77,26.01V21.38H896.74V26.01Z" style="vector-effect: none; opacity: 1; stroke-width: 0px; fill: rgb(76, 175, 80); fill-opacity: 1;"/></g><g class="point"><path d="M904.98,270.04V285.69H937.94V270.04Z" style="vector-effect: none; opacity: 1; stroke-width: 0px; fill: rgb(76, 175, 80); fill-opacity: 1;"/></g><g class="point"><path d="M946.19,137.61V153.46H979.15V137.61Z" style="vector-effect: none; opacity: 1; stroke-width: 0px; fill: rgb(76, 175, 80); fill-opacity: 1;"/></g><g class="point"><path d="M987.39,137.61V137.91H1020.36V137.61Z" style="vector-effect: none; opacity: 1; stroke-width: 0px; fill: rgb(76, 175, 80); fill-opacity: 1;"/></g></g></g></g><g class="scatterlayer mlayer"><g class="trace scatter traceb4689a" style="stroke-miterlimit: 2; opacity: 1;"><g class="fills"/><g class="errorbars"/><g class="lines"><path class="js-line" d="M56.13,85.21L97.33,175.29L138.54,83.71L179.74,136.86L220.95,113.46L262.16,168.5L303.36,237.86L344.57,70.2L385.78,152.39L426.98,46.65L468.19,326.87L509.4,49.98L550.6,64.7L591.81,334.39L633.02,72.55L674.22,94.02L715.43,160.12L756.64,197.47L797.84,121.57L839.05,181.78L880.26,21.38L921.46,279.58L962.67,131.75L1003.88,127.19" style="vector-effect: none; fill: none; stroke: rgb(33, 33, 33); stroke-opacity: 1; stroke-dasharray: 9px, 9px; stroke-width: 2.5px; opacity: 1;"/></g><g class="points"><path class="point" transform="translate(56.13,85.21)" d="M2.5,0A2.5,2.5 0 1,1 0,-2.5A2.5,2.5 0 0,1 2.5,0Z" style="opacity: 1; stroke-width: 0px; fill: rgb(33, 33, 33); fill-opacity: 1;"/><path class="point" transform="translate(97.33,175.29)" d="M2.5,0A2.5,2.5 0 1,1 0,-2.5A2.5,2.5 0 0,1 2.5,0Z" style="opacity: 1; stroke-width: 0px; fill: rgb(33, 33, 33); fill-opacity: 1;"/><path class="point" transform="translate(138.54,83.71)" d="M2.5,0A2.5,2.5 0 1,1 0,-2.5A2.5,2.5 0 0,1 2.5,0Z" style="opacity: 1; stroke-width: 0px; fill: rgb(33, 33, 33); fill-opacity: 1;"/><path class="point" transform="translate(179.74,136.86)" d="M2.5,0A2.5,2.5 0 1,1 0,-2.5A2.5,2.5 0 0,1 2.5,0Z" style="opacity: 1; stroke-width: 0px; fill: rgb(33, 33, 33); fill-opacity: 1;"/><path class="point" transform="translate(220.95,113.46)" d="M2.5,0A2.5,2.5 0 1,1 0,-2.5A2.5,2.5 0 0,1 2.5,0Z" style="opacity: 1; stroke-width: 0px; fill: rgb(33, 33, 33); fill-opacity: 1;"/><path class="point" transform="translate(262.16,168.5)" d="M2.5,0A2.5,2.5 0 1,1 0,-2.5A2.5,2.5 0 0,1 2.5,0Z" style="opacity: 1; stroke-width: 0px; fill: rgb(33, 33, 33); fill-opacity: 1;"/><path class="point" transform="translate(303.36,237.86)" d="M2.5,0A2.5,2.5 0 1,1 0,-2.5A2.5,2.5 0 0,1 2.5,0Z" style="opacity: 1; stroke-width: 0px; fill: rgb(33, 33, 33); fill-opacity: 1;"/><path class="point" transform="translate(344.57,70.2)" d="M2.5,0A2.5,2.5 0 1,1 0,-2.5A2.5,2.5 0 0,1 2.5,0Z" style="opacity: 1; stroke-width: 0px; fill: rgb(33, 33, 33); fill-opacity: 1;"/><path class="point" transform="translate(385.78,152.39)" d="M2.5,0A2.5,2.5 0 1,1 0,-2.5A2.5,2.5 0 0,1 2.5,0Z" style="opacity: 1; stroke-width: 0px; fill: rgb(33, 33, 33); fill-opacity: 1;"/><path class="point" transform="translate(426.98,46.65)" d="M2.5,0A2.5,2.5 0 1,1 0,-2.5A2.5,2.5 0 0,1 2.5,0Z" style="opacity: 1; stroke-width: 0px; fill: rgb(33, 33, 33); fill-opacity: 1;"/><path class="point" transform="translate(468.19,326.87)" d="M2.5,0A2.5,2.5 0 1,1 0,-2.5A2.5,2.5 0 0,1 2.5,0Z" style="opacity: 1; stroke-width: 0px; fill: rgb(33, 33, 33); fill-opacity: 1;"/><path class="point" transform="translate(509.4,49.98)" d="M2.5,0A2.5,2.5 0 1,1 0,-2.5A2.5,2.5 0 0,1 2.5,0Z" style="opacity: 1; stroke-width: 0px; fill: rgb(33, 33, 33); fill-opacity: 1;"/><path class="point" transform="translate(550.6,64.7)" d="M2.5,0A2.5,2.5 0 1,1 0,-2.5A2.5,2.5 0 0,1 2.5,0Z" style="opacity: 1; stroke-width: 0px; fill: rgb(33, 33, 33); fill-opacity: 1;"/><path class="point" transform="translate(591.81,334.39)" d="M2.5,0A2.5,2.5 0 1,1 0,-2.5A2.5,2.5 0 0,1 2.5,0Z" style="opacity: 1; stroke-width: 0px; fill: rgb(33, 33, 33); fill-opacity: 1;"/><path class="point" transform="translate(633.02,72.55)" d="M2.5,0A2.5,2.5 0 1,1 0,-2.5A2.5,2.5 0 0,1 2.5,0Z" style="opacity: 1; stroke-width: 0px; fill: rgb(33, 33, 33); fill-opacity: 1;"/><path class="point" transform="translate(674.22,94.02)" d="M2.5,0A2.5,2.5 0 1,1 0,-2.5A2.5,2.5 0 0,1 2.5,0Z" style="opacity: 1; stroke-width: 0px; fill: rgb(33, 33, 33); fill-opacity: 1;"/><path class="point" transform="translate(715.43,160.12)" d="M2.5,0A2.5,2.5 0 1,1 0,-2.5A2.5,2.5 0 0,1 2.5,0Z" style="opacity: 1; stroke-width: 0px; fill: rgb(33, 33, 33); fill-opacity: 1;"/><path class="point" transform="translate(756.64,197.47)" d="M2.5,0A2.5,2.5 0 1,1 0,-2.5A2.5,2.5 0 0,1 2.5,0Z" style="opacity: 1; stroke-width: 0px; fill: rgb(33, 33, 33); fill-opacity: 1;"/><path class="point" transform="translate(797.84,121.57)" d="M2.5,0A2.5,2.5 0 1,1 0,-2.5A2.5,2.5 0 0,1 2.5,0Z" style="opacity: 1; stroke-width: 0px; fill: rgb(33, 33, 33); fill-opacity: 1;"/><path class="point" transform="translate(839.05,181.78)" d="M2.5,0A2.5,2.5 0 1,1 0,-2.5A2.5,2.5 0 0,1 2.5,0Z" style="opacity: 1; stroke-width: 0px; fill: rgb(33, 33, 33); fill-opacity: 1;"/><path class="point" transform="translate(880.26,21.38)" d="M2.5,0A2.5,2.5 0 1,1 0,-2.5A2.5,2.5 0 0,1 2.5,0Z" style="opacity: 1; stroke-width: 0px; fill: rgb(33, 33, 33); fill-opacity: 1;"/><path class="point" transform="translate(921.46,279.58)" d="M2.5,0A2.5,2.5 0 1,1 0,-2.5A2.5,2.5 0 0,1 2.5,0Z" style="opacity: 1; stroke-width: 0px; fill: rgb(33, 33, 33); fill-opacity: 1;"/><path class="point" transform="translate(962.67,131.75)" d="M2.5,0A2.5,2.5 0 1,1 0,-2.5A2.5,2.5 0 0,1 2.5,0Z" style="opacity: 1; stroke-width: 0px; fill: rgb(33, 33, 33); fill-opacity: 1;"/><path class="point" transform="translate(1003.88,127.19)" d="M2.5,0A2.5,2.5 0 1,1 0,-2.5A2.5,2.5 0 0,1 2.5,0Z" style="opacity: 1; stroke-width: 0px; fill: rgb(33, 33, 33); fill-opacity: 1;"/></g><g class="text"/></g></g></g></g><g class="zerolinelayer-above"/><path class="xlines-above crisp" d="M0,0" style="fill: none;"/><path class="ylines-above crisp" d="M0,0" style="fill: none;"/><g class="overlines-above"/><g class="xaxislayer-above"><g class="xtick"><text text-anchor="middle" x="0" y="455" transform="translate(74.92,0)" style="font-family: Inter, Helvetica, Arial, sans-serif; font-size: 14px; fill: rgb(68, 68, 68); fill-opacity: 1; white-space: pre;">2000</text></g><g class="xtick"><text text-anchor="middle" x="0" y="455" style="font-family: Inter, Helvetica, Arial, sans-serif; font-size: 14px; fill: rgb(68, 68, 68); fill-opacity: 1; white-space: pre;" transform="translate(280.95,0)">2005</text></g><g class="xtick"><text text-anchor="middle" x="0" y="455" style="font-family: Inter, Helvetica, Arial, sans-serif; font-size: 14px; fill: rgb(68, 68, 68); fill-opacity: 1; white-space: pre;" transform="translate(486.98,0)">2010</text></g><g class="xtick"><text text-anchor="middle" x="0" y="455" style="font-family: Inter, Helvetica, Arial, sans-serif; font-size: 14px; fill: rgb(68, 68, 68); fill-opacity: 1; white-space: pre;" transform="translate(693.02,0)">2015</text></g><g class="xtick"><text text-anchor="middle" x="0" y="455" style="font-family: Inter, Helvetica, Arial, sans-serif; font-size: 14px; fill: rgb(68, 68, 68); fill-opacity: 1; white-space: pre;" transform="translate(899.05,0)">2020</text></g><g class="xtick"><text text-anchor="middle" x="0" y="455" style="font-family: Inter, Helvetica, Arial, sans-serif; font-size: 14px; fill: rgb(68, 68, 68); fill-opacity: 1; white-space: pre;" transform="translate(1105.08,0)">2025</text></g></g><g class="yaxislayer-above"><g class="ytick"><text text-anchor="end" x="59" y="4.8999999999999995" transform="translate(0,398.98)" style="font-family: Inter, Helvetica, Arial, sans-serif; font-size: 14px; fill: rgb(68, 68, 68); fill-opacity: 1; white-space: pre;">−40k</text></g><g class="ytick"><text text-anchor="end" x="59" y="4.8999999999999995" style="font-family: Inter, Helvetica, Arial, sans-serif; font-size: 14px; fill: rgb(68, 68, 68); fill-opacity: 1; white-space: pre;" transform="translate(0,352.39)">−30k</text></g><g class="ytick"><text text-anchor="end" x="59" y="4.8999999999999995" style="font-family: Inter, Helvetica, Arial, sans-serif; font-size: 14px; fill: rgb(68, 68, 68); fill-opacity: 1; white-space: pre;" transform="translate(0,305.78999999999996)">−20k</text></g><g class="ytick"><text text-anchor="end" x="59" y="4.8999999999999995" style="font-family: Inter, Helvetica, Arial, sans-serif; font-size: 14px; fill: rgb(68, 68, 68); fill-opacity: 1; white-space: pre;" transform="translate(0,259.2)">−10k</text></g><g class="ytick"><text text-anchor="end" x="59" y="4.8999999999999995" style="font-family: Inter, Helvetica, Arial, sans-serif; font-size: 14px; fill: rgb(68, 68, 68); fill-opacity: 1; white-space: pre;" transform="translate(0,212.61)">0</text></g><g class="ytick"><text text-anchor="end" x="59" y="4.8999999999999995" style="font-family: Inter, Helvetica, Arial, sans-serif; font-size: 14px; fill: rgb(68, 68, 68); fill-opacity: 1; white-space: pre;" transform="translate(0,166.01999999999998)">10k</text></g><g class="ytick"><text text-anchor="end" x="59" y="4.8999999999999995" style="font-family: Inter, Helvetica, Arial, sans-serif; font-size: 14px; fill: rgb(68, 68, 68); fill-opacity: 1; white-space: pre;" transform="translate(0,119.43)">20k</text></g></g><g class="overaxes-above"/></g></g><g class="polarlayer"/><g class="smithlayer"/><g class="ternarylayer"/><g class="geolayer"/><g class="funnelarealayer"/><g class="pielayer"/><g class="iciclelayer"/><g class="treemaplayer"/><g class="sunburstlayer"/><g class="glimages"/><defs id="topdefs-1e6f09"><g class="clips"/><clipPath id="legend1e6f09"><rect width="486" height="29" x="0" y="0"/></clipPath></defs><g class="layer-above"><g class="imagelayer"/><g class="shapelayer"><g class="shape-group" data-index="0" clip-path="url(#clip1e6f09y)"><path data-index="0" fill-rule="evenodd" d="M60,212.61L1120,212.61" style="opacity: 1; stroke: rgb(0, 0, 0); stroke-opacity: 1; fill: rgb(0, 0, 0); fill-opacity: 0; stroke-width: 1px;"/></g></g></g><g class="infolayer"><g class="legend" pointer-events="all" transform="translate(347,502.25)"><rect class="bg" shape-rendering="crispEdges" style="stroke: rgb(68, 68, 68); stroke-opacity: 1; fill: rgb(255, 255, 255); fill-opacity: 1; stroke-width: 0px;" width="486" height="29" x="0" y="0"/><g class="scrollbox" transform="" clip-path="url(#legend1e6f09)"><g class="groups"><g class="traces" transform="translate(0,14.5)" style="opacity: 1;"><text class="legendtext" text-anchor="start" x="40" y="4.680000000000001" style="font-family: Inter, Helvetica, Arial, sans-serif; font-size: 12px; fill: rgb(68, 68, 68); fill-opacity: 1; white-space: pre;">Population</text><g class="layers" style="opacity: 1;"><g class="legendfill"/><g class="legendlines"/><g class="legendsymbols"><g class="legendpoints"><path class="legendundefined" d="M6,6H-6V-6H6Z" transform="translate(20,0)" style="stroke-width: 0px; fill: rgb(244, 67, 54); fill-opacity: 1;"/></g></g></g><rect class="legendtoggle" x="0" y="-9.5" width="102.5" height="19" style="fill: rgb(0, 0, 0); fill-opacity: 0;"/></g><g class="traces" transform="translate(105,14.5)" style="opacity: 1;"><text class="legendtext" text-anchor="start" x="40" y="4.680000000000001" style="font-family: Inter, Helvetica, Arial, sans-serif; font-size: 12px; fill: rgb(68, 68, 68); fill-opacity: 1; white-space: pre;">Floor Area/cap</text><g class="layers" style="opacity: 1;"><g class="legendfill"/><g class="legendlines"/><g class="legendsymbols"><g class="legendpoints"><path class="legendundefined" d="M6,6H-6V-6H6Z" transform="translate(20,0)" style="stroke-width: 0px; fill: rgb(255, 152, 0); fill-opacity: 1;"/></g></g></g><rect class="legendtoggle" x="0" y="-9.5" width="126.609375" height="19" style="fill: rgb(0, 0, 0); fill-opacity: 0;"/></g><g class="traces" transform="translate(234.109375,14.5)" style="opacity: 1;"><text class="legendtext" text-anchor="start" x="40" y="4.680000000000001" style="font-family: Inter, Helvetica, Arial, sans-serif; font-size: 12px; fill: rgb(68, 68, 68); fill-opacity: 1; white-space: pre;">Weather</text><g class="layers" style="opacity: 1;"><g class="legendfill"/><g class="legendlines"/><g class="legendsymbols"><g class="legendpoints"><path class="legendundefined" d="M6,6H-6V-6H6Z" transform="translate(20,0)" style="stroke-width: 0px; fill: rgb(33, 150, 243); fill-opacity: 1;"/></g></g></g><rect class="legendtoggle" x="0" y="-9.5" width="90.109375" height="19" style="fill: rgb(0, 0, 0); fill-opacity: 0;"/></g><g class="traces" transform="translate(326.71875,14.5)" style="opacity: 1;"><text class="legendtext" text-anchor="start" x="40" y="4.680000000000001" style="font-family: Inter, Helvetica, Arial, sans-serif; font-size: 12px; fill: rgb(68, 68, 68); fill-opacity: 1; white-space: pre;">Intensity</text><g class="layers" style="opacity: 1;"><g class="legendfill"/><g class="legendlines"/><g class="legendsymbols"><g class="legendpoints"><path class="legendundefined" d="M6,6H-6V-6H6Z" transform="translate(20,0)" style="stroke-width: 0px; fill: rgb(76, 175, 80); fill-opacity: 1;"/></g></g></g><rect class="legendtoggle" x="0" y="-9.5" width="90.859375" height="19" style="fill: rgb(0, 0, 0); fill-opacity: 0;"/></g><g class="traces" transform="translate(420.078125,14.5)" style="opacity: 1;"><text class="legendtext" text-anchor="start" x="40" y="4.680000000000001" style="font-family: Inter, Helvetica, Arial, sans-serif; font-size: 12px; fill: rgb(68, 68, 68); fill-opacity: 1; white-space: pre;">Net</text><g class="layers" style="opacity: 1;"><g class="legendfill"/><g class="legendlines"><path class="js-line" d="M5,0h30" style="fill: none; stroke: rgb(33, 33, 33); stroke-opacity: 1; stroke-dasharray: 9px, 9px; stroke-width: 2.5px;"/></g><g class="legendsymbols"><g class="legendpoints"><path class="scatterpts" transform="translate(20,0)" d="M2.5,0A2.5,2.5 0 1,1 0,-2.5A2.5,2.5 0 0,1 2.5,0Z" style="opacity: 1; stroke-width: 0px; fill: rgb(33, 33, 33); fill-opacity: 1;"/></g></g></g><rect class="legendtoggle" x="0" y="-9.5" width="62.46875" height="19" style="fill: rgb(0, 0, 0); fill-opacity: 0;"/></g></g></g><rect class="scrollbar" rx="20" ry="3" width="0" height="0" style="fill: rgb(128, 139, 164); fill-opacity: 1;" x="0" y="0"/></g><g class="g-gtitle"><text class="gtitle" x="575" y="37.5" text-anchor="middle" dy="0em" style="opacity: 1; font-family: Inter, Helvetica, Arial, sans-serif; font-size: 16px; fill: rgb(68, 68, 68); fill-opacity: 1; white-space: pre;">Annual LMDI-I 4-Factor Decomposition (TJ)</text></g><g class="g-xtitle"><text class="xtitle" x="590" y="489" text-anchor="middle" style="opacity: 1; font-family: Inter, Helvetica, Arial, sans-serif; font-size: 13px; fill: rgb(68, 68, 68); fill-opacity: 1; white-space: pre;">Year</text></g><g class="g-ytitle" transform="translate(-3.859375,0)"><text class="ytitle" transform="rotate(-90,24,257.5)" x="24" y="257.5" text-anchor="middle" style="opacity: 1; font-family: Inter, Helvetica, Arial, sans-serif; font-size: 13px; fill: rgb(68, 68, 68); fill-opacity: 1; white-space: pre;">Annual ΔE (TJ)</text></g><g class="annotation" data-index="0" style="opacity: 1;"><g class="annotation-text-g" transform="rotate(0,590,559.75)"><g class="cursor-pointer" transform="translate(394,552)"><rect class="bg" x="0.5" y="0.5" width="392" height="15" style="stroke-width: 1px; stroke: rgb(0, 0, 0); stroke-opacity: 0; fill: rgb(0, 0, 0); fill-opacity: 0;"/><text class="annotation-text" text-anchor="middle" x="196.328125" y="12" style="font-family: Inter, Helvetica, Arial, sans-serif; font-size: 10px; fill: rgb(136, 136, 136); fill-opacity: 1; white-space: pre;">Note: Population and Floor Area effects are small relative to Weather and Intensity.</text></g></g></g></g></svg>